<svg width="16" height="16" viewBox="0 0 16 16" fill="none" xmlns="http://www.w3.org/2000/svg">
<path d="M14.9768 7.19274C14.8571 7.09318 14.6995 7.05187 14.5463 7.08005L12.7302 7.41461V6.2728C12.7302 5.98325 12.4955 5.74855 12.2059 5.74855H11.8878C12.558 5.14437 12.9802 4.27001 12.9802 3.29873C12.9802 1.4798 11.5005 0 9.68159 0C8.51843 0 7.4946 0.605735 6.90715 1.5178C6.31962 0.605735 5.29591 0 4.13271 0C2.31379 0 0.833984 1.4798 0.833984 3.29873C0.833984 4.27001 1.25615 5.14433 1.92639 5.74855H1.60823C1.31872 5.74855 1.08399 5.98325 1.08399 6.2728V12.5406C1.08399 12.8302 1.31872 13.0649 1.60823 13.0649H5.69736L3.6572 15.1051C3.45245 15.3098 3.45245 15.6418 3.6572 15.8465C3.86199 16.0513 4.1939 16.0512 4.39861 15.8465L6.90715 13.338L9.41565 15.8465C9.51802 15.9489 9.65223 16 9.78639 16C9.92048 16 10.0547 15.9488 10.1571 15.8465C10.3618 15.6418 10.3618 15.3098 10.1571 15.1051L8.11694 13.0649H12.2061C12.4955 13.0649 12.7303 12.8302 12.7303 12.5406V11.3988L14.5463 11.7335C14.578 11.7393 14.6098 11.7422 14.6414 11.7422C14.7629 11.7422 14.8819 11.6998 14.9768 11.6207C15.0965 11.5211 15.1656 11.3735 15.1656 11.2179V7.59558C15.1656 7.43998 15.0964 7.29235 14.9768 7.19274ZM9.68163 1.04853C10.9224 1.04853 11.9318 2.05798 11.9318 3.29877C11.9318 4.53951 10.9224 5.54896 9.68163 5.54896C8.44084 5.54896 7.43144 4.53955 7.43144 3.29877C7.43135 2.05798 8.44084 1.04853 9.68163 1.04853ZM6.90711 5.07965C7.06652 5.3271 7.25747 5.55227 7.47526 5.74859H6.33899C6.55678 5.55227 6.74774 5.3271 6.90711 5.07965ZM1.88252 3.29877C1.88252 2.05798 2.89197 1.04853 4.13275 1.04853C5.3735 1.04853 6.3829 2.05798 6.3829 3.29877C6.3829 4.53951 5.3735 5.54896 4.13275 5.54896C2.89192 5.54896 1.88252 4.53955 1.88252 3.29877ZM11.6818 12.0165H2.13252V6.79709H11.6818V12.0165ZM14.1171 10.5883L12.7303 10.3328V8.4808L14.1171 8.2253V10.5883Z" fill="white"/>
</svg>
