<svg viewBox="0 0 29 29" xmlns="http://www.w3.org/2000/svg">
  <path d="M21.6222 8.89429C21.9151 8.6014 21.9151 8.12652 21.6222 7.83363C21.3293 7.54074 20.8544 7.54074 20.5615 7.83363L21.6222 8.89429ZM7.83361 20.5616C7.54072 20.8544 7.54072 21.3293 7.83361 21.6222C8.12651 21.9151 8.60138 21.9151 8.89427 21.6222L7.83361 20.5616ZM8.89427 7.83363C8.60138 7.54074 8.12651 7.54074 7.83361 7.83363C7.54072 8.12652 7.54072 8.6014 7.83361 8.89429L8.89427 7.83363ZM20.5615 21.6222C20.8544 21.9151 21.3293 21.9151 21.6222 21.6222C21.9151 21.3293 21.9151 20.8544 21.6222 20.5616L20.5615 21.6222ZM20.5615 7.83363L7.83361 20.5616L8.89427 21.6222L21.6222 8.89429L20.5615 7.83363ZM7.83361 8.89429L20.5615 21.6222L21.6222 20.5616L8.89427 7.83363L7.83361 8.89429Z"/>
</svg>
