<svg width="955" height="527" viewBox="0 0 955 527" xmlns="http://www.w3.org/2000/svg">
  <path d="M389.648 260.443c20.499 8.495 43.32 13.383 61.222 25.646 38.4 26.123 92.661 27.186 112.977 3.746 49.486-57.017 118.889-85.376 169.291-138.376 25.988-27.305 103.108-17.48 119.936 14.615 6.092 11.651 14.125 18.144 27.853 19.548 16.829 1.734 18.768-10.992 25.144-20.961 18.969-29.402 13.484-68.037 37.069-95.541 20.72-24.214 9.66-44.163-12.51-68.623-12.805 36.74-31.262 46.17-65.446 34.462-92.153-31.294-169.035-13.143-240.791 60.907-34.774 35.83-93.618 57.157-134.375 43.764-77.887-13.795-134.045-6.119-141.845-4.497-84.705 17.604-68.459 22.248-153.703 37.155-33.606 5.825-57.72 18.623-67.945 50.209-10.803 33.452-30.051 36.598-62.879 34.299-63.1753-4.536-76.8853 19.892-51.6942 76.833C30.727 376.163 52.577 418.05 64.815 462.709c15.956 57.41 40.711 75.206 101.979 56.301 64.561-19.931 73.46-31.648 30.675-84.117-9.053-11.12-18.712-25.849-5.048-37.187 17.632-14.631 22.139 4.722 28.852 16.092 27.241 46.389 63.629 62.814 120.683 58.113 77.336-6.239 97.595-18.934 101.595-98.295-30.376 29.667-52.677.544-77.169-13.524-24.123-13.76-24.344-26.547-1.479-42.867 7.371-5.219 11.386-18.53-1.425-24.905-17.4-8.715-18.502-19.352-6.467-32.69 10.881-12.217 21.74-3.58 32.637.813z"/>
</svg>
