<svg width="18" height="13" viewBox="0 0 18 13" fill="none" xmlns="http://www.w3.org/2000/svg">
<path d="M17.9363 4.17303L15.5364 0.269658C15.4202 0.103829 15.2571 0 14.9996 0H3.00034C2.74947 0 2.58172 0.101227 2.46357 0.269658L0.0637107 4.17303C-0.0474028 4.36494 -0.00936518 4.5578 0.148106 4.71169L8.54762 12.551C8.66161 12.6573 8.8264 12.7185 8.99999 12.7185C9.17358 12.7185 9.33837 12.6573 9.45236 12.551L17.8519 4.71169C18.0083 4.55858 18.0481 4.36595 17.9363 4.17303ZM14.0289 0.975842L12.4974 3.46684L10.1999 0.975842H14.0289ZM11.3998 3.90337H6.60013L8.99999 1.30112L11.3998 3.90337ZM7.80006 0.975842L5.50259 3.46684L3.97108 0.975842H7.80006ZM3.00034 1.57891L4.42946 3.90337H1.57122L3.00034 1.57891ZM1.9192 4.87921H5.00382L7.96165 10.5189L1.9192 4.87921ZM8.99999 10.0112L6.30855 4.87921H11.6914L8.99999 10.0112ZM10.0383 10.5189L12.9962 4.87921H16.0808L10.0383 10.5189ZM13.5705 3.90337L14.9996 1.57891L16.4288 3.90337H13.5705Z" fill="#7A1B1B"/>
</svg>
