<svg width="16" height="16" viewBox="0 0 16 16" fill="none" xmlns="http://www.w3.org/2000/svg">
<path d="M15.5416 7.81498C15.2869 7.81498 15.0832 8.01872 15.0832 8.27339V12.4432C15.0832 13.5773 14.1596 14.4975 13.0289 14.4975H2.97114C1.83701 14.4975 0.916808 13.5739 0.916808 12.4432V8.20547C0.916808 7.95081 0.713073 7.74707 0.458404 7.74707C0.203735 7.74707 0 7.95081 0 8.20547V12.4432C0 14.0832 1.33447 15.4143 2.97114 15.4143H13.0289C14.6689 15.4143 16 14.0798 16 12.4432V8.27339C16 8.02211 15.7963 7.81498 15.5416 7.81498Z"/>
<path d="M7.67727 11.7741C7.76556 11.8624 7.8844 11.91 7.99985 11.91C8.1153 11.91 8.23415 11.8658 8.32243 11.7741L11.2358 8.86074C11.4158 8.68077 11.4158 8.39215 11.2358 8.21218C11.0559 8.03221 10.7673 8.03221 10.5873 8.21218L8.45826 10.3446V1.0441C8.45826 0.789429 8.25452 0.585693 7.99985 0.585693C7.74518 0.585693 7.54145 0.789429 7.54145 1.0441V10.3446L5.40902 8.21218C5.22905 8.03221 4.94043 8.03221 4.76046 8.21218C4.5805 8.39215 4.5805 8.68077 4.76046 8.86074L7.67727 11.7741Z"/>
</svg>
