<svg width="16" height="16" viewBox="0 0 16 16" xmlns="http://www.w3.org/2000/svg">
  <path fill-rule="evenodd" clip-rule="evenodd" d="M10.8472.158203H4.78438C2.32039.158203.315796 2.1628.315796 4.62678v6.06282c0 2.464 2.004594 4.4686 4.468584 4.4686h6.06282c2.464 0 4.4686-2.0046 4.4686-4.4686V4.62678c0-2.46398-2.0046-4.468577-4.4686-4.468577zM13.8068 10.6898c0 1.6346-1.325 2.9596-2.9596 2.9596H4.78441c-1.63452 0-2.95958-1.325-2.95958-2.9596V4.62701c0-1.63455 1.32506-2.95958 2.95958-2.95958h6.06279c1.6346 0 2.9596 1.32503 2.9596 2.95958v6.06279zm-2.1041-5.95217c.5134 0 .9295-.41619.9295-.92959 0-.5134-.4161-.92959-.9295-.92959s-.9296.41619-.9296.92959c0 .5134.4162.92959.9296.92959zM7.95191 10.1642c-1.3092 0-2.37049-1.06134-2.37049-2.37057 0-1.30922 1.06132-2.37053 2.37049-2.37053 1.30919 0 2.37049 1.06131 2.37049 2.37053 0 1.3092-1.06133 2.37057-2.37049 2.37057zm.00001-6.2495c-2.13918 0-3.87953 1.74035-3.87953 3.87951 0 2.13915 1.74035 3.87949 3.87953 3.87949 2.13918 0 3.87958-1.74032 3.87958-3.87949 0-2.13918-1.7404-3.87951-3.87958-3.87951z"/>
</svg>
