<svg width="86" height="64" viewBox="0 0 86 64" xmlns="http://www.w3.org/2000/svg">
  <path fill-rule="evenodd" clip-rule="evenodd" d="M14.5717 0h-2.9191v2.92903h2.9191V0zM7.29174 45.406l-2.91906 2.929V64h2.91906V45.406zM17.4907 64h-2.919V45.2637l-5.82634-3.3915-5.8263 5.8462v16.2697H0v-21.606l11.6526-11.7043V4.38762h8.7454v2.92904h-2.9073V64z" fill="#7B2B15"/>
  <path fill-rule="evenodd" clip-rule="evenodd" d="M27.4061 55.7347v-5.2296h.7091L30.857 54.62v-4.1149h.6736v5.2296h-.7091l-2.7536-4.1149v4.1149h-.6618zm6.9136 0v-4.6248h-1.7255v-.6167h4.1363v.6167h-1.7254v4.6248h-.6854zm3.4745 0v-5.2296h3.7818v.6166h-3.0846v1.6009h2.8955v.6167h-2.8955v1.7787h3.2027v.6167h-3.8999zm5.7199-2.9291h1.4891c.4609 0 .7918-.083.9927-.2371.2009-.1661.2955-.3795.2955-.6404 0-.5692-.3782-.8419-1.1228-.8419h-1.6545v1.7194zm-.6854 2.9291v-5.2296h2.3045c.4373 0 .7445.0356.9336.0949.1891.0593.3427.1423.4609.249.13.1067.2364.249.3191.4387.0946.1898.1418.4032.1418.6523 0 .8182-.4845 1.2925-1.4654 1.4348.2127.0949.39.2253.5554.3914.1655.166.3073.3557.4373.5573l.91 1.423h-.8745l-.6973-1.0791c-.1655-.2727-.3191-.4862-.4373-.6403-.1182-.1661-.2363-.2847-.3545-.3795-.1182-.0949-.2246-.1542-.3191-.1779-.0946-.0237-.2364-.0356-.4255-.0356h-.7918v2.3006h-.6972zm5.5663 0v-5.2296h.7091l2.7417 4.1149v-4.1149h.6737v5.2296h-.7091l-2.7536-4.1149v4.1149h-.6618zm6.5117-2.1464h1.7964l-.5555-1.4467c-.1891-.4862-.3073-.842-.3782-1.0792-.0709.3321-.1654.6641-.2836.9961l-.5791 1.5298zm-1.5009 2.1464l2.0091-5.2296h.7564l2.139 5.2296h-.7918l-.6027-1.5891h-2.1982l-.5672 1.5891h-.7446zm6.7718 0v-4.6248h-1.7255v-.6167h4.1364v.6167H60.863v4.6248h-.6854zm3.5808 0v-5.2296h.6973v5.2296h-.6973zm2.73-2.5377c0 .415.0827.7826.2364 1.0791.1536.3083.3663.5455.6263.7115.26.166.5673.249.9337.249.5554 0 1.0045-.1897 1.3118-.5811.3191-.3913.4727-.9012.4727-1.5297 0-.4388-.0709-.8064-.2246-1.1265-.1536-.3202-.3545-.5693-.6145-.7353-.26-.166-.5673-.249-.9336-.249-.2955 0-.5437.0474-.7682.1423-.2245.0949-.4136.2372-.5673.4388-.1536.1897-.2718.4269-.3427.6878-.0945.249-.13.5573-.13.9131zm-.7091-.0119c0-.5218.0946-.9961.2719-1.4112.189-.415.4727-.747.839-.9961.3782-.249.8391-.3794 1.3827-.3794.3664 0 .6973.0711 1.0046.2016.3072.1304.5672.3083.7918.5454.2245.2372.39.5218.5082.8657.1181.3439.1772.7115.1772 1.1147 0 .5574-.1063 1.0436-.3072 1.4349-.2009.3913-.4964.6996-.8982.9249-.4018.2253-.8273.3321-1.3.3321-.4845 0-.9218-.1186-1.3-.3439-.39-.2372-.6854-.5574-.8863-.9606-.1891-.415-.2837-.8538-.2837-1.3281zm6.2045 2.5496v-5.2296h.7091l2.7418 4.1149v-4.1149h.6736v5.2296h-.7091l-2.7536-4.1149v4.1149h-.6618zm6.5118-2.1464h1.7963l-.5554-1.4467c-.1891-.4862-.3073-.842-.3782-1.0792-.0709.3321-.1655.6641-.2837.9961l-.579 1.5298zm-1.5009 2.1464l2.009-5.2296h.7564l2.1391 5.2296h-.7919l-.6027-1.5891h-2.1981l-.5673 1.5891h-.7445zm5.7435 0v-5.2296h.6973v4.6129H86v.6167h-3.2618zm-57.5539 0v-5.2296h.6973v5.2296h-.6973zM31.897 59.4345h1.489c.4609 0 .7918-.083.9928-.2372.2009-.166.2954-.3794.2954-.6403 0-.5692-.3782-.842-1.1227-.842H31.897v1.7195zm-.6855 2.929V57.134h2.3045c.4373 0 .7446.0355.9337.0948.1891.0593.3427.1423.4609.2491.13.1067.2363.249.3191.4387.0945.1898.1418.4032.1418.6522 0 .8183-.4846 1.2926-1.4655 1.4349.2128.0949.39.2253.5555.3913.1654.166.3073.3558.4372.5574l.91 1.423h-.8745l-.6973-1.0791c-.1654-.2728-.319-.4862-.4372-.6404-.1182-.166-.2364-.2846-.3546-.3795-.1182-.0948-.2245-.1541-.3191-.1778-.0945-.0237-.2363-.0356-.4254-.0356h-.7918v2.3242h-.6973v-.0237zm5.909-2.5495c0 .415.0828.7826.2364 1.0791.1536.3083.3664.5455.6264.7115.26.166.5672.249.9336.249.5554 0 1.0045-.1897 1.3118-.581.3191-.3914.4727-.9013.4727-1.5298 0-.4387-.0709-.8064-.2245-1.1265-.1537-.3202-.3546-.5692-.6146-.7353-.26-.166-.5672-.249-.9336-.249-.2954 0-.5436.0474-.7682.1423-.2245.0949-.4136.2372-.5672.4388-.1537.1897-.2718.4269-.3428.6878-.0945.2609-.13.5692-.13.9131zm-.709-.0119c0-.5218.0945-.9961.2718-1.4111.1891-.4151.4727-.7471.8391-.9962.3781-.249.839-.3794 1.3827-.3794.3663 0 .6972.0711 1.0045.2016.3073.1304.5673.3083.7918.5455.2246.2371.39.5217.5082.8656.1182.3439.1773.7115.1773 1.1147 0 .5574-.1064 1.0436-.3073 1.4349-.2009.3913-.4964.6996-.8982.9249-.4018.2254-.8272.3321-1.3.3321-.4845 0-.9218-.1186-1.3-.3439-.3899-.2372-.6854-.5574-.8863-.9605-.1891-.4032-.2836-.8539-.2836-1.3282zm9.4662-2.68h.6973v3.0239c0 .5099-.0473.8894-.1418 1.1621-.0946.2609-.2246.4744-.4018.6404-.1655.166-.3782.2846-.6264.3676-.2482.083-.5436.1186-.8627.1186-.6736 0-1.1936-.166-1.5364-.4981-.3427-.332-.52-.9249-.52-1.8025v-3.0239h.6973v3.0121c0 .415.0355.7115.0946.9012.059.1779.1418.3321.2481.4388.1064.1067.2482.1897.4018.249.1655.0593.3428.083.5673.083.3073 0 .5555-.0474.7564-.1304.2009-.083.3663-.2372.4727-.4625.1182-.2135.1654-.5811.1654-1.091v-2.9883h-.0118zm2.6945 2.4903h1.3591c.8273 0 1.2409-.3202 1.2409-.9487 0-.1542-.0236-.2846-.0591-.4032-.0354-.1067-.1063-.2134-.1891-.2846-.0827-.083-.1891-.1423-.3072-.1779-.1182-.0355-.3546-.0593-.6973-.0593h-1.3473v1.8737zm-.6972 2.7511V57.134h1.9736c.2954 0 .5436.0118.7682.0474.2245.0356.4254.1067.6145.2134.1891.1186.3427.2846.4609.51.1182.2134.1773.4624.1773.747 0 1.0554-.65 1.5891-1.9618 1.5891h-1.3355v2.1345h-.6972v-.0119zM27.7961 60.312v-.6166h2.21v1.9448c-.6855.5455-1.3946.8182-2.1627.8182-.4137 0-.7918-.0593-1.1109-.1779-.3191-.1186-.6027-.2964-.8273-.5336-.2245-.2372-.4018-.5218-.5318-.8657-.13-.3439-.1891-.7115-.1891-1.1028 0-.7945.2246-1.4467.6736-1.9567.4491-.5099 1.0991-.7707 1.9382-.7707 1.1818 0 1.8909.5217 2.1391 1.5534l-.6264.166c-.2127-.7589-.7209-1.1265-1.5127-1.1265-.6027 0-1.0754.1779-1.4063.5455-.331.3676-.4964.8775-.4964 1.5416 0 .7352.1891 1.2807.5554 1.6008.3664.3321.8273.4981 1.3473.4981.6027 0 1.1109-.1779 1.5245-.5336v-.9724h-1.5245v-.0119z" fill="#000"/>
  <path d="M37.2742 18.5229h2.1627l-1.2055-5.8937-.9572 5.8937zm2.5527-8.75153l3.5336 16.55433.0591.2491H41.1032l-.0354-.166-1.2409-6.0478h-2.8364l-1.1699 6.0478-.0355.166h-2.3282l.0591-.2491 3.5336-16.55433.0355-.16602h2.6827l.0591.16602zm12.1726.03557v1.63646h-4.5263v5.8699h4.0536v1.8499h-4.0536v7.4353h-2.21V9.60535h6.7481v.20159h-.0118zm8.8399 0v1.63646h-4.5263v5.8699h4.0536v1.8499h-4.0536v7.4353h-2.2218V9.60535h6.7481v.20159zm3.6754 8.71596h2.1627l-1.2054-5.8937-.9573 5.8937zm2.5527-8.75153l3.5336 16.55433.0591.2491H68.3438l-.0354-.166-1.2409-6.0478h-2.8363l-1.17 6.0478-.0355.166h-2.3281l.0591-.2491 3.5336-16.55433.0354-.16602h2.6827l.0591.16602zm10.5653 7.66053c.39-.4506.5437-1.2807.5437-2.7274 0-1.4468-.13-2.2768-.52-2.7275-.3664-.4387-1.0164-.5336-2.0327-.5336h-.9218v6.534h.9218c.9927 0 1.6309-.1067 2.009-.5455zm2.2218 4.1268l1.8673 4.6603.1064.2609-.2837.0237-1.9145.166-.1536.0119-.0591-.1423-1.8673-4.8264c-.3191-.8301-.5673-1.3163-.8982-1.5772-.3072-.249-.7209-.3201-1.3354-.3201h-.6145v6.7711h-2.2218V9.60535h3.2027c1.6663 0 2.8481.26088 3.6281 1.01985.78.7589 1.1227 1.9803 1.1227 3.9251 0 1.1503-.13 2.1701-.5082 2.9646-.3545.7471-.9099 1.3045-1.749 1.5891.2482.166.4845.3676.7327.6877.3191.3795.6145.9369.9454 1.767zM86 9.80694V26.5748H83.7901V9.60535h2.2217v.20159H86zM31.897 20.4914c.4136.9012.52 1.5653.52 2.1345 0 1.6483-.5082 2.7156-1.3355 3.3915-.8154.6641-1.9381.9131-3.1554.9131-.3545 0-.7445-.0237-1.17-.0593-.4136-.0355-.8745-.0948-1.3591-.166l-.2009-.0237.0237-.2016.189-1.7313.0355-.3202.2718.1542c.2837.166.6146.2727.9455.3557.4372.1067.8509.1423 1.1463.1423.6855 0 1.2764-.1423 1.69-.498.4136-.3558.65-.9369.65-1.8262 0-.3439-.0355-.7946-.2718-1.3993-.2482-.6167-.7209-1.3993-1.5836-2.4073-1.2646-1.4704-1.9855-2.5377-2.3873-3.4034-.4136-.8775-.4964-1.5416-.4964-2.1819 0-1.0554.2128-2.0871.8628-2.8579.65-.77081 1.7254-1.28072 3.4508-1.28072.2246 0 .6382.02371 1.1109.05929.3782.03558.7918.07115 1.1582.13044l.2009.03558-.0236.20159-.2128 1.66022-.0354.2727-.2482-.1067c-.6382-.2728-1.3827-.4032-1.8081-.4032-.7446 0-1.2882.1897-1.6309.5336-.3664.3676-.5319.9131-.5319 1.6246 0 .4151.071.9131.331 1.5179.2718.6285.7327 1.3874 1.5363 2.3124 1.1936 1.4467 1.9145 2.5496 2.3282 3.4271zM41.0914 40.2475c.4136.9013.52 1.5654.52 2.1346 0 1.6483-.5082 2.7155-1.3355 3.3915-.8154.6641-1.9381.9131-3.1554.9131-.3545 0-.7445-.0237-1.17-.0593-.4136-.0356-.8745-.0949-1.3591-.166l-.2009-.0237.0237-.2016.1891-1.7314.0354-.3202.2718.1542c.2837.166.6146.2728.9455.3558.4372.1067.8509.1423 1.1463.1423.6855 0 1.2764-.1423 1.69-.4981.4136-.3557.65-.9368.65-1.8262 0-.3439-.0354-.7945-.2718-1.3993-.2482-.6166-.7209-1.3993-1.5836-2.4073-1.2646-1.4704-1.9855-2.5377-2.3873-3.4033-.4136-.8776-.4963-1.5416-.4963-2.182 0-1.0554.2127-2.0871.8627-2.8579.65-.7708 1.7254-1.2688 3.4509-1.2688.2245 0 .6381.0237 1.1109.0593.3781.0355.7918.0711 1.1581.1304l.2009.0356-.0236.2016-.2127 1.6602-.0355.2727-.2482-.1067c-.6381-.2728-1.3827-.4032-1.8081-.4032-.7446 0-1.2882.1897-1.6309.5336-.3664.3676-.5318.9131-.5318 1.6246 0 .4151.0709.9131.3309 1.5179.2718.6285.7327 1.3875 1.5363 2.3124 1.2055 1.4349 1.9264 2.5377 2.3282 3.4152zm10.9435-10.6844v1.6365H48.844v15.1432h-2.2218V31.1996h-3.1908v-1.85h8.5799v.2135h.0236zm3.5572 8.7041h2.1627l-1.2054-5.8937-.9573 5.8937zm2.5527-8.7397l3.5336 16.5544.0591.249h-2.3163l-.0355-.166-1.2409-6.0478h-2.8363l-1.17 6.0478-.0354.166h-2.3282l.0591-.249 3.5454-16.5544.0355-.166h2.6827l.0472.166zm11.9008.0356v1.6365h-3.179v15.1432h-2.2218V31.1996h-3.1673v-1.85h8.5799v.2135h-.0118zm9.4308 15.1432v1.6365h-6.9726V29.3496h6.819v1.85h-4.5972v5.5853h4.0536v1.8499h-4.0536v5.8699h4.7626v.2016h-.0118zm-47.3313 0v1.6365h-6.9726V29.3496h6.819v1.85h-4.5973v5.5853h4.0536v1.8499h-4.0536v5.8699h4.7627v.2016h-.0118z" fill="#000"/>
</svg>
