<svg width="83" height="44" viewBox="0 0 83 44" fill="none" xmlns="http://www.w3.org/2000/svg">
<path fill-rule="evenodd" clip-rule="evenodd" d="M11.1908 0H8.96532V2.0013H11.1908V0ZM5.59538 31.2203L3.36994 33.2216V44H5.59538V31.2203ZM13.4162 44H11.1908V31.1059L6.70809 28.7901L2.22543 32.8213V44H0V29.1332L8.93353 21.0994V3.03054H15.6416V5.03184H13.4162V44Z" fill="#7B2B15"/>
<path d="M31.8311 15.5876H34.0715L32.822 10.1133L31.8311 15.5876ZM34.4593 7.49182L38.1216 22.8353L38.1647 23.0666H37.9062H35.9242H35.7519L35.7088 22.9124L34.4162 17.2839H31.4433L30.2369 22.9124L30.1938 23.0666H30.1076H28.1257H27.8672L27.9103 22.8353L31.5725 7.49182L31.6156 7.33762H31.788H34.2439H34.4162L34.4593 7.49182ZM47.1265 7.53037V8.84112V9.03388H46.9111H42.4302V14.4696H46.4372H46.6526V14.6624V15.9731V16.1659H46.4372H42.4302V22.8738V23.0666H42.2147H40.3621H40.1466V22.8738V7.53037V7.33762H40.3621H46.9111H47.1265V7.53037ZM56.3038 7.53037V8.84112V9.03388H56.0884H51.6075V14.4696H55.6144H55.8299V14.6624V15.9731V16.1659H55.6144H51.6075V22.8738V23.0666H51.392H49.5393H49.3239V22.8738V7.53037V7.33762H49.5393H56.0884H56.3038V7.53037ZM60.1385 15.5876H62.3789L61.1294 10.1519L60.1385 15.5876ZM62.8098 7.49182L66.4721 22.8353L66.5152 23.0666H66.2566H64.2747H64.1023L64.0593 22.9124L62.7667 17.2839H59.8369L58.6304 22.9124L58.5874 23.0666H58.415H56.4331H56.1746L56.2176 22.8353L59.8799 7.49182L59.923 7.33762H60.0954H62.5513H62.7236L62.8098 7.49182ZM73.7967 14.5853C74.1844 14.1612 74.3568 13.3902 74.3568 12.0409C74.3568 10.6916 74.2275 9.92056 73.8397 9.4965C73.452 9.11098 72.8057 8.99533 71.7285 8.99533H70.7807V15.0479H71.7285C72.7195 15.0864 73.4089 15.0093 73.7967 14.5853ZM76.0802 18.4404L78.0191 22.7582L78.1483 22.9895L77.8467 23.028L75.8648 23.1822H75.6924L75.6493 23.028L73.7105 18.5561C73.3658 17.785 73.1073 17.3224 72.7626 17.0911C72.461 16.8598 72.0301 16.7827 71.3839 16.7827H70.7376V22.8738V23.0666H70.5221H68.6694H68.454V22.8738V7.53037V7.33762H68.6694H71.7716C73.4951 7.33762 74.7445 7.56893 75.5632 8.26285C76.3818 8.95678 76.7265 10.1133 76.7265 11.8867C76.7265 12.9661 76.5972 13.8914 76.2095 14.6238C75.8648 15.3178 75.2616 15.8189 74.3999 16.0888C74.6584 16.243 74.9169 16.4357 75.1754 16.7442C75.4339 17.1297 75.7355 17.6694 76.0802 18.4404ZM82.5 7.53037V22.8738V23.0666H82.2846H80.4319H80.2164V22.8738V7.53037V7.33762H80.4319H82.2846H82.5V7.53037ZM26.2299 17.4381C26.6608 18.2862 26.7469 18.903 26.7469 19.4042C26.7469 20.9463 26.2299 21.91 25.3682 22.5269C24.5065 23.1437 23.3432 23.375 22.0937 23.375C21.7059 23.375 21.3181 23.375 20.8873 23.3364C20.4564 23.2979 19.9825 23.2593 19.4654 23.1822L19.25 23.1437L19.2931 22.9509L19.5085 21.3318L19.5516 21.0234L19.8532 21.1776C20.1548 21.3318 20.4995 21.4474 20.8442 21.486C21.275 21.5631 21.749 21.6016 22.0506 21.6016C22.74 21.6016 23.3862 21.486 23.8171 21.139C24.248 20.7921 24.5065 20.2909 24.5065 19.4428C24.5065 19.1343 24.4634 18.7103 24.2049 18.132C23.9464 17.5537 23.4724 16.8213 22.5676 15.896C21.275 14.5467 20.4995 13.5444 20.1117 12.7348C19.6809 11.9252 19.5947 11.3084 19.5947 10.7301C19.5947 9.7278 19.8101 8.80257 20.4995 8.07009C21.1889 7.33762 22.3091 6.875 24.0756 6.875C24.291 6.875 24.7219 6.91355 25.2389 6.91355C25.6267 6.9521 26.0576 6.99065 26.4453 7.02921L26.6608 7.06776L26.6177 7.26051L26.4022 8.80257L26.2299 9.18808L25.9714 9.07243C25.3251 8.80257 24.5496 8.68692 24.0756 8.68692C23.3001 8.68692 22.74 8.87967 22.3953 9.18808C22.0075 9.53505 21.8352 10.0362 21.8352 10.6916C21.8352 11.0771 21.9213 11.5397 22.1798 12.118C22.4384 12.6963 22.9554 13.3902 23.774 14.2769C25.0666 15.5876 25.799 16.6285 26.2299 17.4381Z" fill="black"/>
<path d="M35.5672 35.3131C36.0024 36.1612 36.0894 36.778 36.0894 37.2792C36.0894 38.8213 35.5672 39.785 34.697 40.4019C33.8267 41.0187 32.6519 41.25 31.39 41.25C30.9984 41.25 30.6068 41.25 30.1717 41.2114C29.7366 41.1729 29.2579 41.1343 28.7358 41.0572L28.5182 41.0187L28.5617 40.8259L28.7793 39.2068L28.8228 38.8984L29.1274 39.0526C29.432 39.2068 29.7801 39.3224 30.1282 39.361C30.5633 39.4381 31.0419 39.4766 31.3465 39.4766C32.0427 39.4766 32.6954 39.361 33.1305 39.014C33.5657 38.6671 33.8267 38.1659 33.8267 37.3178C33.8267 37.0093 33.7832 36.5853 33.5222 36.007C33.2611 35.4287 32.7824 34.6963 31.8687 33.771C30.5633 32.4217 29.7801 31.4194 29.3884 30.6098C28.9533 29.8002 28.8663 29.1834 28.8663 28.6051C28.8663 27.6028 29.0839 26.6776 29.7801 25.9451C30.4763 25.2126 31.6076 24.75 33.3916 24.75C33.6092 24.75 34.0443 24.7886 34.5665 24.7886C34.9581 24.8271 35.3932 24.8657 35.7848 24.9042L36.0024 24.9428L35.9589 25.1355L35.7413 26.6776L35.6978 26.9474L35.4367 26.8318C34.784 26.5619 34.0008 26.4463 33.5222 26.4463C32.7389 26.4463 32.1733 26.639 31.8252 26.9474C31.4335 27.2944 31.2595 27.7956 31.2595 28.4509C31.2595 28.8364 31.3465 29.2991 31.6076 29.8773C31.8687 30.4556 32.3908 31.1495 33.2176 32.0362C34.3924 33.4626 35.1756 34.5035 35.5672 35.3131ZM46.7065 25.4054V26.7161V26.9089H46.4889H43.356V40.7488V40.9416H43.1384H41.2674H41.0498V40.7488V26.9089H37.9169H37.6994V26.7161V25.4054V25.2126H37.9169H46.4889H46.7065V25.4054ZM50.057 33.5012H52.3196L51.0578 28.0269L50.057 33.5012ZM52.7547 25.3668L56.4533 40.7103L56.4968 40.9416H56.2358H54.2342H54.0601L54.0166 40.7874L52.7112 35.1589H49.7089L48.4905 40.7874L48.447 40.9416H48.2729H46.2714H46.0103L46.0538 40.7103L49.7524 25.3668L49.7959 25.2126H49.9699H52.4502H52.6242L52.7547 25.3668ZM64.8948 25.4054V26.7161V26.9089H64.6772H61.5443V40.7488V40.9416H61.3267H59.4557H59.2381V40.7488V26.9089H56.1052H55.8877V26.7161V25.4054V25.2126H56.1052H64.6772H64.8948V25.4054ZM74.25 39.4381V40.7488V40.9416H74.0324H67.1574H66.9399V40.7488V25.4054V25.2126H67.1574H73.8584H74.076V25.4054V26.7161V26.9089H73.8584H69.246V32.0748H73.2927H73.5103V32.3061V33.6168V33.8096H73.2927H69.246V39.2453H74.0324H74.25V39.4381ZM26.5601 39.4381V40.7488V40.9416H26.3426H19.4676H19.25V40.7488V25.4054V25.2126H19.4676H26.1685H26.3861V25.4054V26.7161V26.9089H26.1685H21.5562V32.0748H25.6028H25.8204V32.3061V33.6168V33.8096H25.6028H21.5562V39.2453H26.3426H26.5601V39.4381Z" fill="black"/>
</svg>
