<svg width="18" height="18" viewBox="0 0 18 18" xmlns="http://www.w3.org/2000/svg">
  <path d="M13.685 11.9073C13.0969 11.3267 12.3628 11.3267 11.7784 11.9073C11.3327 12.3493 10.8869 12.7913 10.4487 13.2408C10.3288 13.3644 10.2277 13.3906 10.0816 13.3082C9.79318 13.1509 9.48603 13.0235 9.20884 12.8512C7.91656 12.0384 6.83404 10.9934 5.87513 9.81721C5.39942 9.23289 4.97615 8.60736 4.68024 7.90318C4.62031 7.76084 4.63154 7.6672 4.74766 7.55108C5.19341 7.12033 5.62791 6.67834 6.06616 6.23635C6.67672 5.62206 6.67672 4.9029 6.06242 4.28486C5.71406 3.93277 5.36571 3.58816 5.01736 3.23607C4.65776 2.87649 4.30192 2.51316 3.93858 2.15732C3.3505 1.58423 2.61634 1.58423 2.032 2.16106C1.58251 2.60305 1.15175 3.05628 0.69477 3.49078C0.271501 3.89156 0.0579939 4.38225 0.013045 4.95533C-0.0581241 5.88801 0.170366 6.76824 0.4925 7.626C1.15175 9.40145 2.15561 10.9784 3.37298 12.4242C5.01736 14.3794 6.98012 15.9264 9.27627 17.0426C10.3101 17.5445 11.3814 17.9303 12.5463 17.994C13.3479 18.039 14.0446 17.8367 14.6027 17.2112C14.9848 16.7842 15.4155 16.3946 15.8201 15.9863C16.4194 15.3795 16.4231 14.6454 15.8276 14.0461C15.1159 13.3307 14.4004 12.619 13.685 11.9073Z"/>
  <path d="M12.9696 8.92201L14.3517 8.68603C14.1345 7.41625 13.5352 6.26633 12.625 5.35238C11.6623 4.38975 10.4449 3.78295 9.10396 3.59566L8.90918 4.98531C9.94675 5.13139 10.8907 5.5996 11.6361 6.34499C12.3403 7.04917 12.801 7.94064 12.9696 8.92201Z"/>
  <path d="M15.1308 2.91414C13.5351 1.31848 11.5161 0.310898 9.28743 7.62939e-06L9.09265 1.38965C11.018 1.65934 12.7635 2.53208 14.1419 3.90674C15.4492 5.21398 16.3069 6.86582 16.6178 8.68247L18 8.44649C17.6367 6.34143 16.6441 4.43114 15.1308 2.91414Z"/>
</svg>
