<svg width="14" height="22" viewBox="0 0 14 22" fill="none" xmlns="http://www.w3.org/2000/svg">
<path d="M11.4056 1.91191C10.1046 0.637289 8.52893 0 6.67857 0C4.82822 0 3.25255 0.637289 1.95153 1.91191C0.65051 3.18653 0 4.72607 0 6.53057C0 7.61898 0.556533 9.43783 1.66964 11.987C2.78275 14.5363 3.89582 16.8563 5.00893 18.9472C6.12204 21.0381 6.67857 22.055 6.67857 21.9977C6.85204 21.6826 7.09056 21.253 7.39413 20.7088C7.6977 20.1646 8.23255 19.1406 8.99872 17.6368C9.76489 16.1331 10.4371 14.7511 11.0153 13.4908C11.5936 12.2306 12.1284 10.9272 12.6199 9.58103C13.1114 8.23483 13.3571 7.218 13.3571 6.53057C13.3571 4.72607 12.7066 3.18653 11.4056 1.91191ZM8.10969 7.90543C7.70495 8.30641 7.22066 8.50693 6.65689 8.50693C6.09311 8.50693 5.60883 8.30641 5.20408 7.90543C4.79933 7.50444 4.59694 7.02466 4.59694 6.46612C4.59694 5.90759 4.79933 5.43498 5.20408 5.0483C5.60883 4.66162 6.09311 4.46828 6.65689 4.46828C7.22066 4.46828 7.70495 4.66162 8.10969 5.0483C8.51444 5.43498 8.71684 5.90759 8.71684 6.46612C8.71684 7.02466 8.51444 7.50444 8.10969 7.90543Z" fill="#7A1B1B"/>
</svg>
