<svg width="10" height="14" viewBox="0 0 10 14" xmlns="http://www.w3.org/2000/svg">
  <path d="M4.99993 0C2.42677 0 .333252 2.09352.333252 4.66668c0 .77246.193129 1.53836.560273 2.21768L4.74473 13.8496c.05127.0929.14897.1504.2552.1504.10623 0 .20393-.0575.2552-.1504l3.85262-6.96753c.36572-.67703.55885-1.44296.55885-2.21542C9.6666 2.09352 7.57308 0 4.99993 0zm0 7C3.71335 7 2.6666 5.95325 2.6666 4.66668c0-1.28658 1.04675-2.33333 2.33333-2.33333S7.33325 3.3801 7.33325 4.66668C7.33325 5.95325 6.28651 7 4.99993 7z"/>
</svg>
