<svg width="16" height="16" viewBox="0 0 16 16" fill="none" stroke="none" xmlns="http://www.w3.org/2000/svg">
    <path d="M4.00004 1.00004H12V3.00002H13V1.00004C13 0.448299 12.5528 0 12 0H4.00004C3.44833 0 3 0.448299 3 1.00004V3.00002H4.00004V1.00004Z"
          stroke="none"/>
    <path d="M15.0001 4H1.00004C0.448333 4 0 4.44817 0 4.99994V9.99995C0 10.5527 0.4483 11 1.00004 11H3.00003V15C3.00003 15.5528 3.44833 16 4.00007 16H12C12.5529 16 13.0001 15.5528 13.0001 15V11H15.0001C15.5528 11 16 10.5527 16 9.99995V4.99994C16 4.44817 15.5527 4 15.0001 4ZM12 15H4.00004V7.99997H12V15ZM14 7.00002C13.4472 7.00002 13 6.55275 13 5.99998C13 5.44827 13.4472 4.99994 14 4.99994C14.5529 4.99994 15.0001 5.44824 15.0001 5.99998C15.0001 6.55272 14.5529 7.00002 14 7.00002Z"
          stroke="none"/>
    <path d="M9.00004 9H5V10H9.00004V9Z" stroke="none"/>
    <path d="M11.0001 11H5V11.9998H11.0001V11Z" stroke="none"/>
    <path d="M11.0001 13H5V13.9999H11.0001V13Z" stroke="none"/>
</svg>
