<svg width="16" height="16" viewBox="0 0 16 16" fill="none" xmlns="http://www.w3.org/2000/svg">
<g clip-path="url(#clip0)">
<path d="M15.6504 12.3051H13.5391C13.3932 12.3051 13.2752 12.4233 13.2752 12.569V15.4721H11.6917V9.92986C11.6917 9.78412 11.5735 9.66595 11.4278 9.66595H11.0846L8.96723 3.89204L12.5361 2.93457L12.8793 4.21008C12.9332 4.41317 13.0658 4.58649 13.2479 4.69151C13.4298 4.79654 13.6463 4.82476 13.8491 4.76986L14.8686 4.49667C15.2909 4.38353 15.5415 3.94938 15.4284 3.52709L15.0869 2.25236L15.3415 2.18394C15.544 2.13188 15.7165 1.99966 15.8195 1.8177C15.928 1.63626 15.9576 1.41848 15.9016 1.21462C15.8473 1.01127 15.7143 0.837945 15.532 0.73292C15.3496 0.627767 15.133 0.599674 14.9298 0.654571L14.649 0.729828C14.3689 0.16888 13.7325 -0.117458 13.1269 0.0449118L12.1073 0.318105C11.9664 0.355862 11.8829 0.500577 11.9207 0.641426L12.1257 1.40675L8.41904 2.39991L8.24379 1.92144C8.20577 1.81745 8.1068 1.74825 7.99598 1.74825C7.88528 1.74825 7.78632 1.81745 7.74817 1.92144L7.48091 2.65081L0.6534 4.47927C0.45018 4.53366 0.276986 4.66664 0.171961 4.84899C0.0670655 5.03133 0.038973 5.24795 0.0938694 5.45104C0.187425 5.79679 0.501082 6.03699 0.859197 6.03738C0.928268 6.03763 0.997082 6.02874 1.06383 6.01109L1.39901 5.9205V11.2733C0.588967 11.4067 0.0156485 12.1373 0.0786633 12.9559C0.141678 13.7743 0.820151 14.4086 1.64102 14.4164L4.30207 14.637V15.4721H0.0794365V15.9999H15.9143V12.569C15.9143 12.4233 15.7962 12.3051 15.6504 12.3051ZM15.0665 1.16449C15.2071 1.12802 15.3511 1.21101 15.3896 1.35108C15.4081 1.41977 15.3974 1.49322 15.3601 1.55379C15.3262 1.61358 15.2695 1.65714 15.203 1.67441L14.9481 1.7427L14.8114 1.23279L15.0665 1.16449ZM13.2635 0.554829C13.686 0.441686 14.1201 0.692586 14.2332 1.11513L14.9164 3.66433C14.954 3.80505 14.8705 3.94964 14.7298 3.98727L13.7098 4.26072C13.5691 4.29835 13.4245 4.21484 13.3868 4.07412L12.4989 0.759595L13.2635 0.554829ZM12.2622 1.91616L12.3986 2.42466L8.78489 3.39462L8.60383 2.89733L12.2622 1.91616ZM7.99688 2.77916L10.522 9.66595H9.77057L8.24727 5.09602C8.2117 4.98777 8.11054 4.91458 7.99649 4.91458C7.88258 4.91458 7.78142 4.98777 7.74585 5.09602L6.22306 9.66595H5.47165L7.99688 2.77916ZM9.21427 9.66595H6.77937L7.99688 6.01392L9.21427 9.66595ZM0.927108 5.50066C0.785744 5.53854 0.640513 5.45465 0.602627 5.31342C0.564741 5.17205 0.648503 5.02682 0.789867 4.98893L7.25939 3.25686L7.03748 3.86175L0.927108 5.50066ZM6.81532 4.4669L4.90903 9.66595H4.56599C4.42011 9.66595 4.30207 9.78412 4.30207 9.92986V11.0288L1.92684 11.2268V5.77875L6.81532 4.4669ZM0.607266 12.8329C0.607266 12.2499 1.07981 11.7773 1.66293 11.7773C2.24591 11.7773 2.71858 12.2499 2.71858 12.8329C2.71858 13.416 2.24591 13.8886 1.66293 13.8886C1.07981 13.8886 0.607266 13.416 0.607266 12.8329ZM2.75286 13.9787C3.06781 13.6809 3.24629 13.2664 3.24629 12.8329C3.24629 12.3994 3.06781 11.9851 2.75286 11.6873L4.30207 11.5582V14.1077L2.75286 13.9787ZM8.00268 11.2494C8.87716 11.2494 9.58617 11.9585 9.58617 12.8329C9.58617 13.7075 8.87716 14.4164 8.00268 14.4164L7.74791 14.395C6.97924 14.274 6.41288 13.6114 6.41288 12.8332C6.41288 12.055 6.97924 11.3925 7.74791 11.2713L8.00268 11.2494ZM5.88556 12.8329C5.88556 13.3756 6.09548 13.8971 6.47138 14.2885L4.8299 14.1525V11.5134L6.47138 11.3766C6.09523 11.7681 5.88531 12.29 5.88556 12.8329ZM4.8299 15.4721V14.6803L7.69173 14.9178C7.78464 14.933 7.87845 14.9418 7.97253 14.9442H7.97497H7.99688C9.16285 14.9442 10.1082 13.999 10.1082 12.8329C10.1082 11.667 9.16285 10.7216 7.99688 10.7216C7.98941 10.7216 7.98232 10.7216 7.97497 10.7216H7.97253C7.87858 10.723 7.78477 10.7309 7.69173 10.7448L4.8299 10.9855V10.1938H11.1639V15.4721H4.8299ZM13.803 15.4721V12.8329H15.3865V15.4721H13.803Z" fill="#7A1B1B"/>
<path d="M1.39893 12.5691H1.92676V13.0969H1.39893V12.5691Z" fill="#7A1B1B"/>
<path d="M7.73291 12.5691H8.26075V13.0969H7.73291V12.5691Z" fill="#7A1B1B"/>
</g>
<defs>
<clipPath id="clip0">
<rect width="16" height="16" fill="white"/>
</clipPath>
</defs>
</svg>
