<svg width="16" height="12" viewBox="0 0 16 12" xmlns="http://www.w3.org/2000/svg">
  <path fill-rule="evenodd" clip-rule="evenodd" d="M13.4727.955817C12.8754.367563 12.0219 0 11.0769 0 9.26559 0 7.79558 1.35644 7.79558 3.02932c0 .23761.0282.46791.08459.68975C5.15206 3.59258 2.73367 2.388 1.11372.552882.830908 1.00195.669426 1.52292.669426 2.07773c0 1.0504.579284 1.97776 1.460604 2.52103-.53742-.01461-1.04451-.15225-1.487945-.37756v.03691c0 1.46833 1.131655 2.69329 2.634555 2.9705-.27512.07112-.56562.10688-.86508.10688-.21147 0-.41781-.01845-.61774-.05383.41781 1.20304 1.62935 2.07927 3.06603 2.10272-1.12311.81282-2.53929 1.29722-4.076789 1.29722-.264865 0-.52674-.0138-.783061-.0415C1.45249 11.4983 3.17881 12 5.03201 12c6.03849 0 9.33949-4.6153 9.33949-8.61888 0-.13188-.0026-.26337-.0081-.39256.6412-.42716 1.1983-.96043 1.6366-1.56791-.5878.24069-1.2209.40371-1.8848.47676.678-.37449 1.1983-.968122 1.4435-1.675565-.6348.346801-1.3363.599019-2.086.733972z"/>
</svg>
