<svg width="17" height="14" viewBox="0 0 17 14" fill="none" xmlns="http://www.w3.org/2000/svg">
<path d="M15.3455 5.42722V5.40506V2.06013C15.3455 0.553798 14.4727 0 13.6545 0H3.29091C2.47273 0 1.6 0.531646 1.6 2.06013V5.40506V5.42722C0.781818 5.53798 0 6.20253 0 7.73101V10.3449C0 10.788 0.290909 11.1424 0.654545 11.1424H0.872727V13.4167C0.872727 13.8597 1.16364 14 1.52727 14H2.14545C2.50909 14 2.8 13.8597 2.8 13.4167V11.1203H14.2V13.4714C14.2 13.9144 14.4909 14 14.8545 14H15.4727C15.8364 14 16.1273 13.9144 16.1273 13.4714V11.1203H16.3455C16.7091 11.1203 17 10.7658 17 10.3228V7.73101C16.9455 6.20253 16.1636 5.53798 15.3455 5.42722ZM2.21818 2.06013H2.25455C2.25455 1.01899 2.81818 0.797468 3.29091 0.797468H13.6545C14.1273 0.797468 14.6909 1.01899 14.6909 2.06013V5.40506H14.2V3.5C14.2 3.05696 13.9091 2.70253 13.5455 2.70253H9.54545C9.18182 2.70253 8.89091 3.05696 8.89091 3.5V5.40506H8.12727V3.5C8.12727 3.05696 7.83636 2.70253 7.47273 2.70253H3.47273C3.10909 2.70253 2.81818 3.05696 2.81818 3.5V5.40506H2.21818V2.06013ZM13.5455 3.5V5.40506H9.54545V3.5H13.5455ZM7.50909 3.5V5.40506H3.50909V3.5H7.50909ZM2.12727 13.2025H1.50909V11.1203H2.12727V13.2025ZM15.4364 13.2025H14.8182V11.1203H15.4364V13.2025ZM16.2909 10.3449H15.4364H14.8182H2.12727H1.50909H0.636364V9.17089H16.2909V10.3449ZM16.2909 8.37342H0.636364V7.73101C0.636364 6.4019 1.43636 6.20253 1.89091 6.20253H2.23636H3.49091H7.49091H9.54545H13.5455H14.6909H15.0364C15.5091 6.20253 16.2909 6.4019 16.2909 7.73101V8.37342Z" fill="#7A1B1B"/>
</svg>
