<svg width="14" height="14" viewBox="0 0 14 14" fill="none" xmlns="http://www.w3.org/2000/svg">
<path d="M13.6353 0.364302C13.4002 0.12953 13.0868 0 12.7545 0H9.06407C8.32381 0 7.77267 0.234773 7.22154 0.785274C7.09456 0.912105 7.09456 1.11719 7.22154 1.24402C7.28367 1.30609 7.36472 1.33847 7.45118 1.33847C7.53763 1.33847 7.61868 1.30339 7.68082 1.24402C8.11038 0.814958 8.49672 0.647648 9.06407 0.647648H12.7518C13.0814 0.647648 13.3489 0.914803 13.3489 1.24402V4.92753C13.3489 5.49422 13.1814 5.88011 12.7518 6.30918L5.90853 13.1608C5.80046 13.2687 5.64647 13.3281 5.48707 13.3281C5.32497 13.3281 5.17098 13.266 5.06561 13.1608L0.824006 8.92675C0.710536 8.81342 0.648398 8.665 0.648398 8.50578C0.648398 8.34657 0.710536 8.19815 0.824006 8.08481L6.97569 1.95104C7.05133 1.96993 7.12968 1.99152 7.21073 2.01311C8.01312 2.22629 8.72636 2.46376 9.33423 2.71203C9.24508 2.90632 9.19915 3.11411 9.19915 3.3192C9.19915 4.13416 9.86106 4.7953 10.677 4.7953C11.4929 4.7953 12.1548 4.13416 12.1548 3.3192C12.1548 2.50424 11.4929 1.8431 10.677 1.8431C10.4986 1.8431 10.3528 1.98882 10.3528 2.16692C10.3528 2.34503 10.4986 2.49075 10.677 2.49075C11.1335 2.49075 11.5037 2.86045 11.5037 3.3165C11.5037 3.77255 11.1335 4.14225 10.677 4.14225C10.2204 4.14225 9.85025 3.77255 9.85025 3.3165C9.85025 3.19776 9.87727 3.08173 9.9259 2.97379C10.1231 3.07093 10.2879 3.16268 10.4068 3.24364C10.2339 3.26523 10.1069 3.41904 10.1231 3.59445C10.1366 3.76176 10.2798 3.89129 10.4473 3.89129C10.4581 3.89129 10.4662 3.89129 10.477 3.89129C10.6364 3.87779 11.1173 3.83462 11.2173 3.46222C11.2767 3.24094 11.1497 3.00347 10.8364 2.7633C10.5878 2.5717 10.215 2.36931 9.73138 2.16423C8.88036 1.80532 7.89425 1.51928 7.38364 1.38435C6.3543 1.1091 5.3655 0.920201 4.59822 0.852737C4.3983 0.833847 4.21459 0.825752 4.05789 0.825752C3.43111 0.825752 3.10151 0.966076 3.02046 1.26561C2.99614 1.35197 2.94751 1.53277 3.18526 1.78643C3.44191 2.05628 3.98225 2.35582 4.79545 2.67695C4.83327 2.69314 4.87379 2.69854 4.91432 2.69854C5.0494 2.69854 5.16828 2.61758 5.21691 2.49345C5.24933 2.41249 5.24662 2.32344 5.2115 2.24518C5.17638 2.16692 5.11424 2.10486 5.03319 2.07247C4.36588 1.81072 4.01196 1.60833 3.82825 1.4815C3.88769 1.4788 3.95523 1.4761 4.02817 1.4761C4.34967 1.4761 5.05751 1.51388 6.23543 1.77294L0.364724 7.62336C0.12968 7.86083 0 8.17386 0 8.50578C0 8.8377 0.12968 9.15073 0.364724 9.3882L4.60363 13.6222C4.83867 13.857 5.15207 13.9865 5.48437 13.9865C5.81667 13.9865 6.13007 13.857 6.36511 13.6222L13.2111 6.77332C13.7623 6.22282 13.9973 5.67232 13.9973 4.93292V1.24672C14 0.914803 13.8703 0.601773 13.6353 0.364302ZM8.34272 0.71781C8.37244 0.707016 8.39946 0.696222 8.42918 0.685428C8.40216 0.696222 8.37244 0.707016 8.34272 0.71781ZM8.47511 0.671935C8.52104 0.658443 8.56426 0.647648 8.61289 0.636854C8.56696 0.647648 8.52104 0.658443 8.47511 0.671935ZM0.659205 8.78373C0.678117 8.82151 0.69973 8.85929 0.724045 8.89167C0.697028 8.85929 0.675415 8.82151 0.659205 8.78373ZM3.7445 1.49229C3.72019 1.4734 3.70127 1.45991 3.68236 1.44372C3.70127 1.45721 3.72019 1.4734 3.7445 1.49229C3.75531 1.50039 3.76882 1.51118 3.78232 1.51928C3.76882 1.51118 3.75801 1.50039 3.7445 1.49229ZM3.65535 0.904009C3.67156 0.901311 3.69047 0.898612 3.70668 0.898612C3.68777 0.901311 3.67156 0.901311 3.65535 0.904009ZM3.71748 1.44102C3.72019 1.44102 3.72559 1.44102 3.72829 1.44102C3.72289 1.43832 3.72019 1.43832 3.71748 1.44102ZM4.00386 1.42213C3.99575 1.42213 3.98765 1.42213 3.97954 1.42213C3.98765 1.42483 3.99575 1.42483 4.00386 1.42213ZM3.94983 1.42483C3.94172 1.42483 3.93362 1.42483 3.92551 1.42483C3.93632 1.42483 3.94172 1.42483 3.94983 1.42483ZM3.9012 1.42483C3.89309 1.42483 3.88769 1.42483 3.87958 1.42483C3.88499 1.42483 3.89309 1.42483 3.9012 1.42483ZM3.80934 1.43022C3.80394 1.43022 3.79853 1.43022 3.79313 1.43022C3.79583 1.43022 3.80394 1.43022 3.80934 1.43022ZM3.72019 0.895914C3.73369 0.893215 3.7472 0.893215 3.75801 0.893215C3.7472 0.893215 3.73369 0.895914 3.72019 0.895914ZM3.83365 0.887818C3.85257 0.887818 3.87148 0.885119 3.89309 0.885119C3.87418 0.885119 3.85527 0.88512 3.83365 0.887818ZM3.89579 0.882421C3.9147 0.882421 3.93362 0.879722 3.95253 0.879722C3.93362 0.882421 3.9147 0.882421 3.89579 0.882421ZM3.97414 0.882421C3.98765 0.882421 4.00386 0.882421 4.01737 0.882421C4.00116 0.879722 3.98765 0.882421 3.97414 0.882421ZM9.37476 2.7579C9.35315 2.80918 9.33423 2.86045 9.31802 2.91442C9.33153 2.86045 9.35044 2.80918 9.37476 2.7579ZM11.7333 2.36392C11.809 2.44757 11.8765 2.54202 11.9305 2.64187C11.9521 2.68234 11.9738 2.72282 11.99 2.766C12.0089 2.80917 12.0251 2.85235 12.0386 2.89553C12.0791 3.02776 12.1034 3.17078 12.1034 3.3192C12.1034 3.46492 12.0818 3.60794 12.0386 3.74287C12.0251 3.78604 12.0089 3.83192 11.99 3.8724C11.9711 3.91557 11.9521 3.95605 11.9305 3.99653C11.8765 4.09638 11.809 4.19082 11.7333 4.27448C11.6874 4.32575 11.6387 4.37163 11.5847 4.4148C11.6387 4.37163 11.6874 4.32305 11.7333 4.27448C11.809 4.19082 11.8765 4.09638 11.9305 3.99653C11.9521 3.95605 11.9738 3.91557 11.99 3.8724C12.0089 3.82922 12.0251 3.78604 12.0386 3.74287C12.0791 3.61064 12.1034 3.46762 12.1034 3.3192C12.1034 3.17348 12.0818 3.03046 12.0386 2.89553C12.0251 2.85235 12.0089 2.80648 11.99 2.766C11.9711 2.72282 11.9521 2.68234 11.9305 2.64187C11.8765 2.53932 11.809 2.44757 11.7333 2.36392C11.6874 2.31264 11.6387 2.26677 11.5847 2.22359C11.636 2.26407 11.6874 2.31264 11.7333 2.36392ZM11.4091 3.81033C11.4253 3.78604 11.4388 3.76176 11.4523 3.73747C11.4415 3.76176 11.4253 3.78604 11.4091 3.81033ZM10.088 3.96955C10.0664 3.95066 10.0475 3.93177 10.0286 3.91018C10.0448 3.93177 10.0664 3.95066 10.088 3.96955ZM10.423 3.29761C10.4338 3.29761 10.4446 3.29491 10.4581 3.29491C10.4473 3.29491 10.4365 3.29761 10.423 3.29761C10.3852 3.30031 10.3501 3.3111 10.3203 3.32729C10.3528 3.3111 10.3879 3.30031 10.423 3.29761ZM10.2906 3.34888C10.2636 3.37047 10.2393 3.39476 10.2204 3.42444C10.2366 3.39476 10.2609 3.36777 10.2906 3.34888ZM10.9931 3.6835C10.939 3.72128 10.8769 3.75096 10.812 3.77255C10.677 3.81843 10.5419 3.82922 10.4716 3.83732C10.4608 3.83732 10.4554 3.83732 10.4473 3.83732C10.4554 3.83732 10.4635 3.83732 10.4716 3.83732C10.5419 3.83192 10.677 3.81843 10.812 3.77255C10.8742 3.75096 10.9363 3.72128 10.9931 3.6835ZM11.1281 3.53508C11.1389 3.51619 11.147 3.5 11.1525 3.47841C11.147 3.4973 11.1389 3.51619 11.1281 3.53508ZM10.6364 2.68774C10.7148 2.73901 10.7877 2.79029 10.8499 2.84426C10.7877 2.79298 10.7148 2.74171 10.6364 2.68774C10.4986 2.59869 10.342 2.50964 10.1717 2.42598C10.342 2.51234 10.4986 2.59869 10.6364 2.68774ZM10.0961 2.3909C9.97183 2.33153 9.84215 2.27217 9.70706 2.2155C9.84215 2.26947 9.97183 2.32884 10.0961 2.3909ZM8.96141 1.92675C8.87765 1.89707 8.7939 1.86739 8.71285 1.8404C8.7966 1.87008 8.87765 1.89707 8.96141 1.92675ZM6.98379 1.33577C6.85681 1.30339 6.73254 1.27371 6.60826 1.24672C6.72983 1.27641 6.85681 1.30609 6.98379 1.33577ZM6.42184 1.20355C6.30027 1.17656 6.1787 1.14958 6.05712 1.12799C6.17599 1.15227 6.29757 1.17656 6.42184 1.20355ZM6.10305 1.68928C6.09224 1.68658 6.07873 1.68389 6.06793 1.68119C6.07873 1.68658 6.08954 1.68658 6.10305 1.68928ZM5.3655 1.00386C5.47626 1.02005 5.58973 1.04163 5.7059 1.06052C5.58973 1.03894 5.47626 1.02005 5.3655 1.00386ZM5.73292 1.61642C5.72211 1.61372 5.71131 1.61103 5.7005 1.61103C5.71131 1.61372 5.72211 1.61372 5.73292 1.61642ZM5.49247 1.57325C5.48437 1.57055 5.47356 1.57055 5.46546 1.56785C5.47626 1.57055 5.48437 1.57325 5.49247 1.57325ZM5.28445 1.54086C5.27634 1.54086 5.27094 1.53816 5.26283 1.53816C5.27094 1.53816 5.27904 1.53816 5.28445 1.54086ZM5.17098 1.52197C5.16287 1.52197 5.15477 1.51928 5.14936 1.51928C5.15747 1.51928 5.16287 1.52197 5.17098 1.52197ZM4.98456 1.49769C4.97646 1.49769 4.97105 1.49499 4.96295 1.49499C4.96835 1.49499 4.97646 1.49499 4.98456 1.49769ZM4.8765 1.48419C4.87109 1.48419 4.86569 1.4815 4.85758 1.4815C4.86569 1.4815 4.87109 1.4815 4.8765 1.48419ZM4.70899 1.4653C4.70089 1.4653 4.69548 1.46261 4.68738 1.46261C4.69278 1.46261 4.70089 1.46261 4.70899 1.4653ZM4.08491 0.879722C4.0687 0.879722 4.05519 0.879722 4.03898 0.879722C4.04438 0.879722 4.04979 0.879722 4.05519 0.879722C4.0633 0.879722 4.0741 0.879722 4.08491 0.879722ZM4.59012 0.906708C4.5631 0.904009 4.53609 0.901311 4.50907 0.901311C4.53338 0.901311 4.5631 0.904009 4.59012 0.906708ZM4.48205 0.898612C4.46314 0.895914 4.44693 0.895914 4.42802 0.895914C4.44423 0.895914 4.46314 0.895914 4.48205 0.898612ZM4.3983 0.893215C4.38209 0.893215 4.36588 0.890517 4.34967 0.890517C4.36588 0.890517 4.38209 0.890517 4.3983 0.893215ZM4.31995 0.887818C4.30374 0.887818 4.28483 0.885119 4.26862 0.885119C4.28753 0.885119 4.30374 0.887818 4.31995 0.887818ZM4.24701 0.885119C4.22269 0.885119 4.19838 0.882421 4.17677 0.882421C4.19838 0.882421 4.22269 0.882421 4.24701 0.885119ZM4.16866 0.882421C4.14705 0.882421 4.12543 0.882421 4.10652 0.882421C4.12814 0.882421 4.14705 0.882421 4.16866 0.882421ZM4.37399 1.43562C4.37129 1.43562 4.37129 1.43562 4.36858 1.43562C4.36858 1.43562 4.37129 1.43562 4.37399 1.43562ZM4.30645 1.43292C4.30104 1.43292 4.29294 1.43292 4.28753 1.43292C4.29294 1.43022 4.30104 1.43022 4.30645 1.43292ZM4.24161 1.42753C4.2362 1.42753 4.2281 1.42753 4.22269 1.42753C4.2308 1.42753 4.2362 1.42753 4.24161 1.42753ZM3.65264 0.904009C3.63643 0.906708 3.62022 0.909406 3.60672 0.912105C3.62293 0.909406 3.63643 0.906708 3.65264 0.904009ZM3.54458 0.925597C3.53377 0.928296 3.52296 0.930995 3.51216 0.933693C3.52296 0.928296 3.53377 0.925597 3.54458 0.925597ZM3.50135 0.933693C3.48784 0.936392 3.47433 0.941789 3.45812 0.944487C3.47163 0.941789 3.48784 0.93909 3.50135 0.933693ZM3.45542 0.947186C3.44462 0.949884 3.43111 0.955281 3.4203 0.95798C3.43111 0.955281 3.44191 0.949884 3.45542 0.947186ZM3.40949 0.960678C3.40139 0.963377 3.39058 0.966076 3.38248 0.971473C3.39058 0.968774 3.39869 0.966076 3.40949 0.960678ZM3.37167 0.97687C3.36357 0.979568 3.35276 0.984965 3.34465 0.987664C3.35276 0.982267 3.36086 0.979568 3.37167 0.97687ZM3.33655 0.990362C3.32574 0.995759 3.31494 1.00116 3.30413 1.00655C3.31223 1.00116 3.32574 0.995759 3.33655 0.990362ZM3.23389 1.04703C3.22578 1.05243 3.22038 1.05783 3.21227 1.06322C3.22038 1.05783 3.22848 1.05243 3.23389 1.04703ZM3.20957 1.06592C3.20147 1.07132 3.19336 1.07941 3.18526 1.08751C3.19336 1.07941 3.20147 1.07402 3.20957 1.06592ZM3.15824 1.11719C3.15284 1.12259 3.15014 1.12799 3.14473 1.13338C3.14743 1.12799 3.15284 1.12259 3.15824 1.11719ZM3.06909 1.2818C3.07179 1.27101 3.07449 1.26291 3.07719 1.25212C3.07449 1.26022 3.07179 1.27101 3.06909 1.2818ZM3.13933 1.13878C3.13393 1.14688 3.12852 1.15227 3.12312 1.16037C3.12852 1.15497 3.13393 1.14688 3.13933 1.13878ZM3.10151 1.19545C3.0988 1.20085 3.0961 1.20894 3.0934 1.21434C3.0961 1.20894 3.0988 1.20355 3.10151 1.19545ZM4.90081 2.64456C4.90621 2.64456 4.90892 2.64456 4.91432 2.64456H4.91162C4.90621 2.64456 4.90351 2.64456 4.90081 2.64456ZM4.87379 2.64187C4.8792 2.64187 4.8846 2.64456 4.89 2.64456C4.8846 2.64456 4.8792 2.64456 4.87379 2.64187ZM5.08993 2.5771C5.09263 2.5744 5.09533 2.5744 5.09533 2.5717C5.09533 2.5744 5.09263 2.5771 5.08993 2.5771ZM4.94944 2.64187C4.95214 2.64187 4.95484 2.64187 4.95755 2.64187C4.95214 2.64187 4.94944 2.64187 4.94944 2.64187ZM5.02509 2.62028C5.02779 2.62028 5.03049 2.61758 5.03319 2.61758C5.02779 2.61758 5.02779 2.62028 5.02509 2.62028ZM5.05751 2.60139C5.06021 2.60139 5.06021 2.59869 5.06291 2.59869C5.06021 2.60139 5.06021 2.60139 5.05751 2.60139ZM5.14126 2.51503C5.14396 2.51234 5.14396 2.50964 5.14666 2.50694C5.14666 2.50964 5.14396 2.51234 5.14126 2.51503ZM5.16017 2.26677C5.16828 2.28296 5.17368 2.29915 5.17638 2.31804C5.17368 2.30185 5.16828 2.28296 5.16017 2.26677ZM4.41181 1.86739C4.44963 1.88358 4.48746 1.90247 4.52798 1.92136C4.48476 1.90247 4.44693 1.88358 4.41181 1.86739C4.37399 1.8512 4.33887 1.83231 4.30645 1.81611C4.33887 1.83231 4.37399 1.8485 4.41181 1.86739ZM4.12273 1.72167C4.09572 1.70817 4.0687 1.69198 4.04438 1.67849C4.0687 1.69468 4.09572 1.70817 4.12273 1.72167ZM13.946 1.24672C13.946 1.16847 13.9379 1.09021 13.9244 1.01195C13.9162 0.974171 13.9081 0.936392 13.8973 0.898612C13.9081 0.936392 13.919 0.974171 13.9244 1.01195C13.9406 1.08751 13.946 1.16577 13.946 1.24672Z" fill="#7A3131"/>
<path d="M12.2546 8.63265C12.233 8.54899 12.179 8.47883 12.1061 8.43566C12.0547 8.40597 11.998 8.38978 11.9413 8.38978C11.9142 8.38978 11.8872 8.39248 11.8602 8.40057C11.7765 8.42216 11.7062 8.47613 11.663 8.55169L9.02076 13.0529C8.91269 13.2391 8.71547 13.3551 8.50204 13.3551C8.40208 13.3551 8.30482 13.3281 8.21837 13.2795L7.70505 12.9476C7.65102 12.9125 7.59158 12.8963 7.52944 12.8963C7.50783 12.8963 7.48351 12.899 7.4619 12.9044C7.37815 12.9233 7.3052 12.9719 7.25657 13.0448C7.21065 13.1176 7.19444 13.204 7.21065 13.2876C7.22956 13.3713 7.27819 13.4441 7.35113 13.4927L7.87796 13.8327C8.06707 13.9407 8.2805 14 8.49934 14C8.94511 14 9.35847 13.7626 9.58 13.3794L12.2195 8.87822C12.2627 8.80536 12.2763 8.7163 12.2546 8.63265ZM12.0466 8.46804C12.0439 8.46804 12.0412 8.46534 12.0385 8.46534C12.0412 8.46534 12.0439 8.46534 12.0466 8.46804ZM12.0169 8.45455C12.0142 8.45455 12.0115 8.45185 12.0088 8.45185C12.0115 8.45455 12.0142 8.45455 12.0169 8.45455ZM11.944 8.44375C11.9413 8.44375 11.9386 8.44375 11.9331 8.44375C11.9359 8.44375 11.9358 8.44375 11.9386 8.44375C11.9413 8.44375 11.944 8.44375 11.944 8.44375ZM8.98564 13.1878C8.99374 13.177 9.00185 13.1689 9.00995 13.1581C9.00185 13.1689 8.99374 13.1797 8.98564 13.1878ZM8.50474 13.4091C8.51555 13.4091 8.52365 13.4091 8.53176 13.4091C8.52365 13.4091 8.51285 13.4091 8.50474 13.4091ZM8.54256 13.4064C8.55607 13.4064 8.56688 13.4037 8.58039 13.4037C8.56958 13.4064 8.55607 13.4064 8.54256 13.4064ZM8.62902 13.3956C8.63712 13.3929 8.64793 13.3902 8.65603 13.3902C8.64793 13.3929 8.63712 13.3929 8.62902 13.3956ZM8.70737 13.374C8.71817 13.3713 8.72628 13.3659 8.73708 13.3632C8.72898 13.3659 8.71817 13.3713 8.70737 13.374ZM8.74789 13.3578C8.756 13.3551 8.7668 13.3497 8.77491 13.347C8.7668 13.3497 8.7587 13.3551 8.74789 13.3578ZM8.78301 13.3416C8.79382 13.3362 8.80462 13.3308 8.81543 13.3227C8.80733 13.3308 8.79382 13.3362 8.78301 13.3416ZM8.82354 13.32C8.83164 13.3146 8.83975 13.3092 8.85055 13.3038C8.84245 13.3092 8.83164 13.3146 8.82354 13.32ZM8.85866 13.2984C8.86676 13.293 8.87487 13.2876 8.88567 13.2795C8.87757 13.2876 8.86946 13.293 8.85866 13.2984ZM8.45611 13.4091C8.4453 13.4091 8.4318 13.4064 8.42099 13.4064C8.4345 13.4064 8.4453 13.4064 8.45611 13.4091ZM8.41018 13.4037C8.40208 13.4037 8.39397 13.401 8.38317 13.3983C8.39397 13.401 8.40208 13.401 8.41018 13.4037ZM8.37236 13.3956C8.36425 13.3929 8.35345 13.3929 8.34534 13.3902C8.35345 13.3929 8.36425 13.3956 8.37236 13.3956ZM8.33724 13.3875C8.32643 13.3848 8.31292 13.3821 8.30212 13.3767C8.31292 13.3821 8.32373 13.3848 8.33724 13.3875ZM8.29401 13.374C8.28591 13.3713 8.2751 13.3686 8.26699 13.3632C8.2751 13.3686 8.2832 13.3713 8.29401 13.374ZM7.52944 12.9503C7.52674 12.9503 7.52404 12.9503 7.52404 12.9503C7.52404 12.9503 7.52404 12.9503 7.52674 12.9503C7.52674 12.9503 7.52674 12.9503 7.52944 12.9503ZM7.64021 12.9773C7.63751 12.9773 7.63481 12.9746 7.6321 12.9746C7.63481 12.9746 7.63751 12.9746 7.64021 12.9773ZM7.56727 12.953C7.56456 12.953 7.56186 12.953 7.55916 12.953C7.55916 12.953 7.56456 12.953 7.56727 12.953ZM7.50513 12.9503C7.50242 12.9503 7.49972 12.9503 7.49702 12.9503C7.49702 12.9503 7.49972 12.9503 7.50513 12.9503Z" fill="#7A3131"/>
</svg>
