<svg width="15" height="14" viewBox="0 0 15 14" fill="none" xmlns="http://www.w3.org/2000/svg">
<path d="M14.9899 0.593865C14.9899 0.13584 14.8291 -0.00989482 14.3969 0.00051484C12.8789 0.0213342 11.351 -0.00989482 9.83304 0.0213342C9.4611 0.0317438 9.09921 0.14625 8.78759 0.354443C6.13374 2.08245 3.48995 3.84168 0.856209 5.60091C0.645107 5.73624 0.423954 5.87156 0.253062 6.05893C-0.0485114 6.38163 -0.0786687 6.7772 0.152538 7.15195C0.373691 7.49547 0.69537 7.65161 1.10752 7.53711C1.22815 7.50588 1.35883 7.46424 1.48951 7.4226V13.3561C1.11757 13.3561 0.765737 13.3249 0.423954 13.3665C0.413901 13.3665 0.403849 13.3665 0.383744 13.3769C0.16259 13.4394 0.12238 13.7621 0.313377 13.9078C0.343534 13.9286 0.373691 13.9495 0.403849 13.9703C0.464163 14.0119 0.564688 13.9807 0.65516 13.9807C1.24825 13.9807 1.8514 13.9807 2.4445 13.9807H6.55595C6.59616 13.9807 6.64642 13.9807 6.68663 13.9807H9.80289C9.82299 13.9807 9.83304 13.9911 9.84309 13.9911C10.9288 14.0119 12.0044 13.9911 13.09 13.9807H14.0149C14.1455 13.9807 14.2762 13.9807 14.4069 13.9807C14.8392 13.9911 15 13.8558 15 13.3873C14.9799 9.12978 14.9799 4.86182 14.9899 0.593865ZM2.61539 6.53778C2.82649 6.41286 3.80157 5.81951 4.07299 5.64255V11.6281H2.11276C2.11276 10.5767 2.13287 9.56699 2.13287 8.47397C2.13287 7.28727 1.98208 6.90212 2.61539 6.53778ZM14.3566 13.3561C13.3212 13.3561 12.326 13.3561 11.3208 13.3561H6.64642C6.60621 13.3561 6.566 13.3561 6.53584 13.3561C5.24913 13.3561 3.95236 13.3561 2.66565 13.3561C2.62544 13.3561 2.57518 13.3561 2.53497 13.3561C2.50481 13.3561 2.4646 13.3561 2.43444 13.3561C2.33392 13.3561 2.24345 13.3561 2.15297 13.3561V12.2735C2.82649 12.2735 3.45979 12.2527 4.0931 12.2839C4.55551 12.3047 4.7264 12.1069 4.69624 11.6385C4.67614 11.295 4.69624 10.9515 4.69624 10.5663C5.39991 10.5663 6.03322 10.5455 6.65647 10.5767C7.12894 10.5975 7.28977 10.4206 7.24956 9.94174C7.21941 9.59822 7.23951 9.2547 7.23951 8.86954C7.95324 8.86954 8.62675 8.85913 9.29021 8.87995C9.70236 8.89036 9.87325 8.7134 9.84309 8.29701C9.82299 7.94308 9.84309 7.57874 9.84309 7.204H14.3466V13.3561H14.3566ZM4.68619 5.66337C4.68619 5.35108 4.76661 5.15329 5.02797 4.99715C5.54065 4.68486 6.04327 4.33093 6.60621 3.95618V9.92092H4.7264C4.71635 9.71272 4.69624 9.53576 4.69624 9.34839C4.69624 8.12005 4.7063 6.89171 4.68619 5.66337ZM7.25962 3.91455C7.26967 3.71676 7.40035 3.46693 7.56119 3.34201C8.07386 2.95686 8.6167 2.62375 9.2299 2.21777V8.20332H7.24956C7.24956 7.8494 7.24956 7.48506 7.24956 7.13113C7.24956 6.06934 7.22946 4.98674 7.25962 3.91455ZM9.87325 6.49614V1.88466H11.8033V6.50655H9.87325V6.49614ZM14.3566 6.50655H12.3964C12.3964 5.73624 12.3964 4.99715 12.3964 4.25806C12.3964 3.58144 12.4065 2.90481 12.3964 2.23859C12.3964 1.99917 12.4467 1.84302 12.7281 1.84302C13.2609 1.85343 13.7937 1.84302 14.3667 1.84302V6.50655H14.3566ZM14.3667 1.23926C13.6731 1.23926 10.4161 1.36418 9.74257 1.29131C9.39074 1.24967 8.88811 1.55155 7.37019 2.69662C5.45018 4.13315 3.38943 5.3719 1.37894 6.69392C1.26836 6.76679 1.15778 6.8813 1.03715 6.90212C1.0271 6.90212 1.007 6.90212 0.996943 6.90212C0.795894 6.90212 0.645107 6.68351 0.715474 6.48573C0.725527 6.46491 0.735579 6.43368 0.745632 6.41286C0.785842 6.32959 0.906471 6.29836 0.98689 6.2359C3.70105 4.44544 6.40516 2.64457 9.11932 0.854107C9.27011 0.75001 9.45105 0.635504 9.61189 0.635504C11.1801 0.625094 12.7483 0.635504 14.3667 0.635504V1.23926Z" fill="#7A1B1B"/>
</svg>
