<svg width="19" height="13" viewBox="0 0 19 13" fill="none" xmlns="http://www.w3.org/2000/svg">
<path d="M8.03212 10.1991C8.00788 10.1991 7.9796 10.1951 7.95536 10.1911C7.93111 10.187 7.90283 10.1789 7.87859 10.1668C7.85435 10.1547 7.8301 10.1426 7.8099 10.1304C7.78566 10.1143 7.76546 10.0981 7.7493 10.0819C7.73313 10.0658 7.71293 10.0415 7.70081 10.0213C7.68465 10.0011 7.67253 9.97688 7.66445 9.95263C7.65637 9.92838 7.64829 9.90414 7.64021 9.87585C7.63617 9.8516 7.63212 9.82331 7.63212 9.79907C7.63212 9.77482 7.63617 9.74653 7.64021 9.71824C7.64425 9.694 7.65233 9.66571 7.66445 9.64146C7.67657 9.61721 7.68869 9.59297 7.70081 9.57276C7.71697 9.55256 7.73313 9.52831 7.7493 9.51215C7.76546 9.49598 7.7897 9.47577 7.8099 9.45961C7.8301 9.44344 7.85435 9.43132 7.87859 9.42324C7.90283 9.41112 7.92707 9.40707 7.95536 9.39899C8.00788 9.38687 8.06041 9.38687 8.11293 9.39899C8.13717 9.40303 8.16546 9.41112 8.1897 9.42324C8.21394 9.43536 8.23818 9.44749 8.25839 9.45961C8.28263 9.47577 8.30283 9.49194 8.31899 9.51215C8.33515 9.53235 8.35536 9.55256 8.36748 9.57276C8.38364 9.59297 8.39576 9.61721 8.40384 9.64146C8.41596 9.66571 8.42 9.68996 8.42808 9.71824C8.43213 9.74653 8.43616 9.77078 8.43616 9.79907C8.43616 9.82735 8.43213 9.8516 8.42808 9.87585C8.42404 9.9001 8.41596 9.92838 8.40384 9.95263C8.39172 9.97688 8.3796 10.0011 8.36748 10.0213C8.35132 10.0456 8.33515 10.0658 8.31899 10.0819C8.30283 10.0981 8.27859 10.1183 8.25839 10.1304C8.23818 10.1466 8.21394 10.1587 8.1897 10.1668C8.16546 10.1789 8.14122 10.183 8.11293 10.1911C8.08465 10.1991 8.05637 10.1991 8.03212 10.1991Z" fill="#7A1B1B"/>
<path d="M18.8465 9.69272C18.5717 8.62989 18.0586 7.77721 17.3152 7.15891V6.21328C17.3798 6.24965 17.4485 6.26986 17.5212 6.26986C17.5818 6.26986 17.6465 6.25369 17.703 6.2254C17.8404 6.1567 17.9253 6.01526 17.9253 5.86574V3.6431C17.9253 3.51379 17.8646 3.39255 17.7596 3.31577L13.3475 0.0788026C13.2061 -0.0262675 13.0121 -0.0262675 12.8707 0.0788026L8.45859 3.31981C8.35354 3.39659 8.29293 3.51783 8.29293 3.64714V4.07955C8.24849 4.06338 6.07273 3.99468 4.72323 7.05788C4.60606 7.0498 4.49293 7.04576 4.3798 7.04576C3.78586 7.04576 3.21212 7.16699 2.68283 7.38926L1.87475 7.83378C1.23636 8.27831 0.715152 8.89661 0.383838 9.6321C0.129293 10.1898 0 11.9735 0 12.5959C0 12.8181 0.181818 13 0.40404 13H18.5677C18.7737 13 18.9475 12.8464 18.9677 12.6403C18.9879 12.4544 19 12.2726 19 12.0948C19 11.6826 18.9475 10.0888 18.8465 9.69272ZM17.3152 8.31468C17.5576 8.62585 17.7556 8.98551 17.9051 9.38963H17.3152V8.31468ZM9.10101 3.8492L13.1091 0.90724L17.1172 3.8492V5.06963L13.3475 2.30144C13.3394 2.29336 13.3313 2.28932 13.3192 2.28123C13.303 2.27315 13.2869 2.26103 13.2707 2.25699H13.2667C13.2626 2.25699 13.2626 2.25295 13.2586 2.25295C13.2545 2.25295 13.2545 2.2489 13.2505 2.2489H13.2465C13.202 2.23274 13.1535 2.22466 13.1091 2.22466C13.0646 2.22466 13.0162 2.23274 12.9717 2.2489H12.9677C12.9636 2.2489 12.9636 2.25295 12.9596 2.25295C12.9556 2.25295 12.9556 2.25699 12.9515 2.25699H12.9475C12.9313 2.26507 12.9152 2.27315 12.899 2.28123C12.8909 2.28527 12.8788 2.29336 12.8707 2.30144L9.10101 5.06963V3.8492ZM14.1636 7.17508H12.0545C11.8323 7.17508 11.6505 7.35693 11.6505 7.57919V9.38963H9.71111V5.62327L13.1091 3.12988L16.5071 5.62327V9.38963H14.5677V7.57919C14.5677 7.35693 14.3859 7.17508 14.1636 7.17508ZM13.7596 7.98331V9.38963H12.4586V7.98331H13.7596ZM18.1919 12.1918H0.832323C0.864646 11.9129 0.929293 10.4605 1.02222 10.1979H6.69495C6.91717 10.1979 7.09899 10.016 7.09899 9.79375C7.09899 9.57148 6.91717 9.38963 6.69495 9.38963H1.43838C2.1899 8.30256 3.51515 7.6883 4.89293 7.88632C5.06667 7.91057 5.23636 7.82166 5.31313 7.6681C6.3665 5.56097 7.09899 5.06963 8.1596 4.86353C8.20808 4.86353 8.25253 4.85545 8.29697 4.83929V5.86978C8.29697 6.02335 8.38182 6.16075 8.51919 6.22944C8.64445 6.2941 8.7899 6.28602 8.90707 6.21732V9.79375C8.90707 10.016 9.08889 10.1979 9.31111 10.1979H18.1313C18.1717 10.4323 18.196 11.8564 18.196 12.0948C18.1919 12.1271 18.1919 12.1594 18.1919 12.1918Z" fill="#7A1B1B"/>
</svg>
