<svg width="20" height="20" viewBox="0 0 20 20" fill="none" xmlns="http://www.w3.org/2000/svg">
<path d="M16.875 17.6562H16.7258L15.1633 14.5312H15.3125C15.5283 14.5312 15.7031 14.3564 15.7031 14.1406V12.5781C15.7031 12.3624 15.5283 12.1875 15.3125 12.1875H14.1577L12.5365 8.62076C12.6546 8.55362 12.7344 8.42682 12.7344 8.28125V6.71875C12.7344 6.50299 12.5595 6.32812 12.3438 6.32812H11.8886L11.1656 2.35199C11.1319 2.16629 10.97 2.03125 10.7812 2.03125H10.3906V0.390625C10.3906 0.174866 10.2158 0 10 0C9.78424 0 9.60938 0.174866 9.60938 0.390625V2.03125H9.21875C9.03 2.03125 8.8681 2.16629 8.83438 2.35199L8.11142 6.32812H7.65625C7.44049 6.32812 7.26562 6.50299 7.26562 6.71875V8.28125C7.26562 8.42682 7.34543 8.55347 7.46353 8.62076L5.84229 12.1875H4.6875C4.47174 12.1875 4.29688 12.3624 4.29688 12.5781V14.1406C4.29688 14.3564 4.47174 14.5312 4.6875 14.5312H4.83673L3.27423 17.6562H3.125C2.69424 17.6562 2.34375 18.0067 2.34375 18.4375V19.6094C2.34375 19.8251 2.51862 20 2.73438 20H7.42188C7.63763 20 7.8125 19.8251 7.8125 19.6094V18.1355L8.60138 16.4859C8.8382 16.1749 9.38217 15.9755 10 15.9755C10.6178 15.9755 11.1618 16.1749 11.3986 16.4859L12.1875 18.1355V19.6094C12.1875 19.8251 12.3624 20 12.5781 20H17.2656C17.4814 20 17.6562 19.8251 17.6562 19.6094V18.4375C17.6562 18.0067 17.3058 17.6562 16.875 17.6562ZM9.54483 2.8125H10.4553L11.0945 6.32812H8.90564L9.54483 2.8125ZM8.04688 7.10938H11.9531V7.89062H8.04688V7.10938ZM8.29834 8.67188H11.7015L13.2996 12.1875H12.1266L10.9897 9.68231C10.9264 9.54285 10.7872 9.45312 10.634 9.45312H9.36295C9.20959 9.45312 9.07043 9.54285 9.00726 9.68262L7.87308 12.1875H6.70044L8.29834 8.67188ZM11.2688 12.1875H8.73062L9.61487 10.2344H10.3822L11.2688 12.1875ZM5.07812 12.9688H14.9219V13.75H5.07812V12.9688ZM16.875 19.2188H12.9688V18.0469C12.9688 17.9892 12.9555 17.9303 12.9305 17.8784L12.0879 16.1166C12.0787 16.0973 12.0679 16.0786 12.0555 16.0611C11.6756 15.5183 10.9071 15.1942 10 15.1942C9.09286 15.1942 8.32443 15.5183 7.94449 16.0611C7.93213 16.0786 7.9213 16.0973 7.91214 16.1166C7.91214 16.1166 7.07001 17.8773 7.06955 17.8784C7.04453 17.9306 7.03125 17.989 7.03125 18.0469V19.2188H3.125V18.4375H4.29688C4.51218 18.4375 4.6875 18.2622 4.6875 18.0469C4.6875 17.8316 4.51218 17.6562 4.29688 17.6562H4.14764L5.71014 14.5312H14.2899L15.8524 17.6562H15.7031C15.4878 17.6562 15.3125 17.8316 15.3125 18.0469C15.3125 18.2622 15.4878 18.4375 15.7031 18.4375H16.875V19.2188Z" fill="white"/>
<path d="M14.1406 17.6562C13.9253 17.6562 13.75 17.8316 13.75 18.0469C13.75 18.2622 13.9253 18.4375 14.1406 18.4375C14.3559 18.4375 14.5312 18.2622 14.5312 18.0469C14.5312 17.8316 14.3559 17.6562 14.1406 17.6562Z" fill="white"/>
<path d="M5.85938 17.6562C5.64407 17.6562 5.46875 17.8316 5.46875 18.0469C5.46875 18.2622 5.64407 18.4375 5.85938 18.4375C6.07468 18.4375 6.25 18.2622 6.25 18.0469C6.25 17.8316 6.07468 17.6562 5.85938 17.6562Z" fill="white"/>
</svg>
