<svg width="20" height="20" viewBox="0 0 20 20" fill="none" xmlns="http://www.w3.org/2000/svg">
<path d="M10.0216 10.3916C9.33199 10.3916 8.77094 10.9527 8.77094 11.6423C8.77094 12.332 9.33199 12.893 10.0216 12.893C10.7112 12.893 11.2723 12.3319 11.2723 11.6423C11.2723 10.9527 10.7113 10.3916 10.0216 10.3916ZM10.0216 12.2997C9.65914 12.2996 9.36426 12.0048 9.36426 11.6423C9.36426 11.3866 9.51129 11.1652 9.72496 11.0565V11.6423C9.72496 11.8061 9.85777 11.939 10.0216 11.939H10.6075C10.4988 12.1526 10.2773 12.2997 10.0216 12.2997ZM10.3183 11.3457V11.0565C10.4427 11.1198 10.5442 11.2213 10.6075 11.3457H10.3183Z" fill="white"/>
<path d="M10.7449 0.537461C10.6964 0.388008 10.5396 0.302383 10.3877 0.342148L10.3214 0.359492L10.3174 0.291094C10.3083 0.134219 10.1784 0.0117188 10.0213 0.0117188C9.86416 0.0117188 9.73424 0.134219 9.7251 0.291094L9.72112 0.359492L9.65483 0.342148C9.50299 0.302344 9.3462 0.388047 9.2976 0.537461C9.24905 0.686914 9.32545 0.848242 9.47182 0.90543L9.53561 0.930352L9.49862 0.988008C9.41381 1.12027 9.44686 1.29574 9.57397 1.38812C9.70112 1.48051 9.87819 1.4577 9.9778 1.33617L10.0213 1.28316L10.0647 1.33617C10.1232 1.4075 10.2083 1.4448 10.2943 1.4448C10.3549 1.4448 10.416 1.42629 10.4685 1.38812C10.5957 1.29578 10.6287 1.12031 10.5439 0.988008L10.5069 0.930352L10.5707 0.90543C10.7171 0.848242 10.7935 0.686875 10.7449 0.537461Z" fill="white"/>
<path d="M19.7033 19.3936H12.7607V13.8407H12.9319C13.0957 13.8407 13.2286 13.7079 13.2286 13.544C13.2286 13.3802 13.0958 13.2473 12.9319 13.2473H12.464H12.0165V10.2312C12.1679 10.2178 12.2866 10.0908 12.2866 9.93594C12.2866 9.77211 12.1538 9.63926 11.9899 9.63926H11.7199H11.5968V6.29156C11.5968 6.12773 11.464 5.99488 11.3001 5.99488H11.1137L10.3128 1.9384C10.2853 1.79941 10.1634 1.69922 10.0217 1.69922C9.88002 1.69922 9.7581 1.79941 9.73064 1.9384L8.9297 5.99488H8.74326C8.57943 5.99488 8.44658 6.1277 8.44658 6.29156V9.63926H8.32349H8.05342C7.88959 9.63926 7.75674 9.77207 7.75674 9.93594C7.75674 10.0908 7.87545 10.2178 8.02681 10.2312V10.7612C8.02681 10.9251 8.15963 11.0579 8.32349 11.0579C8.48732 11.0579 8.62017 10.9251 8.62017 10.7612V10.2326H11.4232V13.2473H8.62017V11.7502C8.62017 11.5863 8.48736 11.4535 8.32349 11.4535C8.15967 11.4535 8.02681 11.5863 8.02681 11.7502V13.2473H7.56025H7.0924C6.92857 13.2473 6.79572 13.3801 6.79572 13.544C6.79572 13.7079 6.92853 13.8407 7.0924 13.8407H7.26361V19.3936H0.321033C0.157205 19.3936 0.024353 19.5264 0.024353 19.6902C0.024353 19.8541 0.157166 19.9869 0.321033 19.9869H7.56029H12.464H19.7033C19.8671 19.9869 19.9999 19.8541 19.9999 19.6902C20 19.5264 19.8672 19.3936 19.7033 19.3936ZM10.0217 3.52742L10.5088 5.99484H9.53447L10.0217 3.52742ZM9.03998 6.5882H9.17494C9.17549 6.5882 9.17603 6.5882 9.17662 6.5882H10.8682C10.8686 6.5882 10.8691 6.58824 10.8695 6.58824C10.8699 6.58824 10.8703 6.5882 10.8707 6.5882H11.0034V8.39898H10.7638V6.97559C10.7638 6.81176 10.631 6.67891 10.4672 6.67891C10.3033 6.67891 10.1705 6.81172 10.1705 6.97559V8.39898H9.87287V6.97559C9.87287 6.81176 9.74006 6.67891 9.57619 6.67891C9.41236 6.67891 9.27951 6.81172 9.27951 6.97559V8.39898H9.03994V6.5882H9.03998ZM11.0035 9.63926H9.03998V8.99238H11.0035V9.63926ZM9.3372 19.3936V18.3596C9.3372 18.1091 9.47314 17.8778 9.69193 17.7558C9.709 17.7463 9.7265 17.7378 9.74408 17.7298V19.3936H9.3372ZM10.72 19.3936H10.3374V17.7416C10.346 17.7459 10.3546 17.7501 10.363 17.7547C10.3637 17.7551 10.3644 17.7555 10.3651 17.7559C10.584 17.8778 10.72 18.1092 10.72 18.3598V19.3936ZM12.1673 19.3936H11.3133V18.3598C11.3133 17.895 11.0616 17.4658 10.6562 17.2389C10.6554 17.2384 10.6544 17.2379 10.6536 17.2374C10.262 17.0193 9.79459 17.0194 9.40314 17.2376C8.9965 17.4642 8.74388 17.8942 8.74388 18.3596V19.3936H7.85701V16.1436H12.1673V19.3936ZM12.1674 15.5502H11.767V14.6432C11.767 14.4794 11.6342 14.3466 11.4703 14.3466C11.3064 14.3466 11.1736 14.4794 11.1736 14.6432V15.5502H10.763V14.6432C10.763 14.4794 10.6302 14.3466 10.4663 14.3466C10.3025 14.3466 10.1697 14.4794 10.1697 14.6432V15.5502H9.75908V14.6432C9.75908 14.4794 9.62627 14.3466 9.4624 14.3466C9.29857 14.3466 9.16572 14.4794 9.16572 14.6432V15.5502H8.75513V14.6432C8.75513 14.4794 8.62232 14.3466 8.45846 14.3466C8.29459 14.3466 8.16178 14.4794 8.16178 14.6432V15.5502H7.85685V13.8407H8.32342H11.7198H12.1673V15.5502H12.1674Z" fill="white"/>
<path d="M15.075 17.5059H14.4817C14.3178 17.5059 14.185 17.6387 14.185 17.8025C14.185 17.9664 14.3178 18.0992 14.4817 18.0992H15.075C15.2388 18.0992 15.3717 17.9664 15.3717 17.8025C15.3717 17.6387 15.2389 17.5059 15.075 17.5059Z" fill="white"/>
<path d="M16.8954 18.1006H16.3021C16.1383 18.1006 16.0054 18.2334 16.0054 18.3973C16.0054 18.5611 16.1382 18.6939 16.3021 18.6939H16.8954C17.0593 18.6939 17.1921 18.5611 17.1921 18.3973C17.1921 18.2334 17.0593 18.1006 16.8954 18.1006Z" fill="white"/>
<path d="M2.69426 17.2695H2.10094C1.93711 17.2695 1.80426 17.4023 1.80426 17.5662C1.80426 17.7301 1.93707 17.8629 2.10094 17.8629H2.69426C2.85809 17.8629 2.99094 17.7301 2.99094 17.5662C2.99094 17.4023 2.85809 17.2695 2.69426 17.2695Z" fill="white"/>
<path d="M4.79076 18.0205H4.19744C4.03361 18.0205 3.90076 18.1533 3.90076 18.3172C3.90076 18.481 4.03357 18.6139 4.19744 18.6139H4.79076C4.95459 18.6139 5.08744 18.4811 5.08744 18.3172C5.08744 18.1534 4.95459 18.0205 4.79076 18.0205Z" fill="white"/>
<path d="M19.6643 15.5196H19.086V13.532C19.086 13.3682 18.9532 13.2354 18.7893 13.2354C18.4224 13.2354 18.0929 13.3987 17.8697 13.6564C17.6465 13.3987 17.3171 13.2354 16.9501 13.2354C16.7863 13.2354 16.6534 13.3682 16.6534 13.532V15.5196H16.1788V15.1525C16.1788 14.9887 16.046 14.8559 15.8821 14.8559C15.7183 14.8559 15.5854 14.9887 15.5854 15.1525V15.8163C15.5854 15.9801 15.7182 16.113 15.8821 16.113H16.9501C17.1139 16.113 17.2467 15.9802 17.2467 15.8163V13.904C17.4409 14.0096 17.573 14.2155 17.573 14.4516C17.573 14.6155 17.7058 14.7483 17.8697 14.7483C18.0335 14.7483 18.1664 14.6155 18.1664 14.4516C18.1664 14.2155 18.2985 14.0096 18.4927 13.904V15.8163C18.4927 15.9801 18.6255 16.113 18.7894 16.113H19.6643C19.8281 16.113 19.961 15.9802 19.961 15.8163C19.961 15.6524 19.8281 15.5196 19.6643 15.5196Z" fill="white"/>
<path d="M15.8821 13.2354C15.5151 13.2354 15.1856 13.3987 14.9624 13.6564C14.7392 13.3987 14.4097 13.2354 14.0428 13.2354C13.879 13.2354 13.7461 13.3682 13.7461 13.532V15.5196H13.3704C13.2066 15.5196 13.0737 15.6524 13.0737 15.8163C13.0737 15.9802 13.2065 16.113 13.3704 16.113H14.0428C14.2066 16.113 14.3395 15.9802 14.3395 15.8163V13.904C14.5337 14.0096 14.6658 14.2155 14.6658 14.4516C14.6658 14.6155 14.7986 14.7483 14.9624 14.7483C15.1263 14.7483 15.2591 14.6155 15.2591 14.4516C15.2591 14.2155 15.3912 14.0096 15.5854 13.904V14.1636C15.5854 14.3275 15.7182 14.4603 15.8821 14.4603C16.0459 14.4603 16.1788 14.3275 16.1788 14.1636V13.532C16.1787 13.3682 16.0459 13.2354 15.8821 13.2354Z" fill="white"/>
<path d="M6.59043 15.5196H6.21473V13.532C6.21473 13.3682 6.08191 13.2354 5.91805 13.2354C5.55113 13.2354 5.22164 13.3987 4.9984 13.6564C4.7752 13.3987 4.44574 13.2354 4.07879 13.2354C3.91496 13.2354 3.78211 13.3682 3.78211 13.532V15.5196H3.3075V13.532C3.3075 13.3682 3.17469 13.2354 3.01082 13.2354C2.64391 13.2354 2.31441 13.3987 2.09121 13.6564C1.86801 13.3987 1.53852 13.2354 1.1716 13.2354C1.00777 13.2354 0.874922 13.3682 0.874922 13.532V15.5196H0.29668C0.132852 15.5196 0 15.6525 0 15.8163C0 15.9802 0.132812 16.113 0.29668 16.113H1.1716C1.33543 16.113 1.46828 15.9802 1.46828 15.8163V13.904C1.6625 14.0096 1.79457 14.2155 1.79457 14.4516C1.79457 14.6155 1.92738 14.7483 2.09125 14.7483C2.25512 14.7483 2.38793 14.6155 2.38793 14.4516C2.38793 14.2155 2.52 14.0096 2.71422 13.904V15.8163C2.71422 15.9801 2.84703 16.113 3.0109 16.113H4.07887C4.2427 16.113 4.37555 15.9802 4.37555 15.8163V13.904C4.56973 14.0096 4.70184 14.2155 4.70184 14.4516C4.70184 14.6155 4.83465 14.7483 4.99852 14.7483C5.16234 14.7483 5.2952 14.6155 5.2952 14.4516C5.2952 14.2155 5.42727 14.0096 5.62148 13.904V15.8163C5.62148 15.9801 5.7543 16.113 5.91816 16.113H6.59055C6.75437 16.113 6.88723 15.9802 6.88723 15.8163C6.88723 15.6524 6.7543 15.5196 6.59043 15.5196Z" fill="white"/>
</svg>
