<svg width="13" height="25" viewBox="0 0 13 25" fill="none" xmlns="http://www.w3.org/2000/svg">
<path d="M12.0699 13.3864L9.63342 10.7825C9.48169 10.6204 9.34218 10.2864 9.33516 10.0674L9.24553 7.36562V7.28734C9.24553 6.87102 8.89583 6.53223 8.46611 6.53223H6.08108H5.13331C4.74931 6.53223 4.32089 6.79576 4.15747 7.13229L0.946779 13.7396C0.857925 13.9228 0.849092 14.1274 0.921838 14.3165C0.994583 14.5053 1.14007 14.6543 1.33103 14.7358L1.80414 14.9379C1.90495 14.981 2.01251 15.0029 2.12396 15.0029C2.42976 15.0029 2.7145 14.8345 2.84986 14.574L4.35389 11.6751V14.5888C4.34765 14.6057 4.33856 14.621 4.33284 14.6382L1.79115 22.3499C1.68541 22.6711 1.71763 23.0091 1.88208 23.3016C2.04654 23.5941 2.32194 23.8035 2.65813 23.8914L2.82804 23.9359C2.93924 23.9651 3.05459 23.98 3.17046 23.98C3.75529 23.98 4.2866 23.6072 4.46274 23.0731L6.83764 15.8672L7.67993 17.866C7.88544 18.3536 8.10731 19.2074 8.16447 19.7309L8.56743 23.4111C8.63212 24.0003 9.11303 24.428 9.7111 24.428C9.80905 24.428 9.90856 24.4164 10.0065 24.3935L10.1777 24.3532C10.8594 24.1934 11.3411 23.5148 11.2515 22.841L10.6547 18.3536C10.5789 17.7835 10.325 16.8907 10.0889 16.3633L9.28294 14.5652C9.27255 14.5418 9.25774 14.5206 9.24579 14.498V13.2794L10.6981 14.7484C10.8426 14.8946 11.0359 14.9752 11.2421 14.9752C11.4508 14.9752 11.6456 14.8931 11.7906 14.7441L12.0592 14.4678C12.3466 14.172 12.3515 13.6872 12.0699 13.3864Z" fill="#C79791"/>
<path d="M7.0163 5.89282C8.4494 5.89282 9.61516 4.76341 9.61516 3.375C9.61516 1.98683 8.4494 0.857422 7.0163 0.857422C5.58346 0.857422 4.41797 1.98683 4.41797 3.375C4.41771 4.76341 5.58346 5.89282 7.0163 5.89282Z" fill="#C79791"/>
</svg>
