<svg width="23" height="22" viewBox="0 0 23 22" fill="none" xmlns="http://www.w3.org/2000/svg">
<g clip-path="url(#clip0)">
<path d="M7.59298 1.07018C6.26382 1.60906 5.07115 2.40139 4.04845 3.42379C3.02545 4.44648 2.23399 5.63942 1.6948 6.96827C1.17427 8.25211 0.910156 9.60879 0.910156 11.0004C0.910156 12.3917 1.17427 13.7484 1.6948 15.0317C2.23399 16.3608 3.02574 17.5538 4.04845 18.5761C5.07115 19.5991 6.26352 20.3909 7.59298 20.9298C8.87684 21.4509 10.2332 21.7141 11.6249 21.7141C13.0165 21.7141 14.3726 21.45 15.6565 20.9298C16.9853 20.3909 18.1786 19.5991 19.201 18.5761C20.224 17.5538 21.0158 16.3614 21.5547 15.0317C22.0752 13.7484 22.3387 12.3917 22.3387 11.0004C22.3387 9.60879 22.0749 8.25211 21.5547 6.96827C21.0158 5.63942 20.2234 4.44618 19.201 3.42379C18.1786 2.40139 16.9865 1.60906 15.6565 1.07018C14.3726 0.549948 13.0165 0.286133 11.6249 0.286133C10.2332 0.286133 8.87684 0.549948 7.59298 1.07018ZM3.58802 15.5107C3.07193 15.1868 2.59641 14.8137 2.17536 14.3743C1.53225 12.5647 1.42329 10.6054 1.84936 8.74569C2.04982 8.35042 2.27781 7.97083 2.53571 7.60723C2.61536 7.49501 2.68908 7.37806 2.77436 7.2691L5.19225 8.6998C5.19225 8.71875 5.19225 8.73948 5.19225 8.7605C5.18604 10.0609 5.31809 11.3519 5.58103 12.6242C5.58191 12.6301 5.5828 12.6333 5.58399 12.6387L3.70883 15.5788C3.66797 15.5581 3.6274 15.5356 3.58802 15.5107ZM10.7772 20.4812C11.1944 20.6941 11.6234 20.8738 12.0643 21.0201C10.1915 21.1015 8.30005 20.6627 6.62801 19.7034L10.6812 20.4255C10.7123 20.4454 10.744 20.4643 10.7772 20.4812ZM10.7624 19.7495L5.97927 18.8971C5.41965 18.2176 4.9163 17.4987 4.4837 16.7303C4.37356 16.5349 4.25068 16.3451 4.15741 16.1411L6.03079 13.2039C6.07224 13.2143 6.11843 13.2252 6.17084 13.2391C7.34278 13.5527 8.53544 13.7757 9.7364 13.9503C9.80657 13.9601 9.8652 13.9687 9.91524 13.974L12.1608 17.8567C11.7711 18.4044 11.377 18.9492 10.9744 19.4881C10.9074 19.5778 10.8364 19.664 10.7624 19.7495ZM18.7202 18.0956C18.3394 18.4767 17.9352 18.8201 17.5121 19.1263C17.4419 18.5655 17.3208 18.0159 17.15 17.4791L19.546 13.0094C20.206 12.7088 20.8426 12.368 21.4336 11.9455C21.5108 11.8908 21.5751 11.8295 21.6248 11.7625C21.4513 14.0723 20.4831 16.333 18.7202 18.0956ZM18.6139 12.2988C18.703 12.4687 18.7909 12.6404 18.8792 12.8146L16.5649 17.1315C16.5516 17.1345 16.5388 17.1375 16.5255 17.1392C15.2745 17.3728 14.0135 17.4972 12.7417 17.5031L10.4322 13.5098C10.7917 12.8424 11.1479 12.1723 11.5011 11.502C11.7409 11.0472 11.9766 10.5894 12.212 10.132L16.9919 9.64107C17.5772 10.4997 18.1318 11.3767 18.6139 12.2988ZM17.6442 7.1782C17.4173 7.77719 17.1746 8.36996 16.9332 8.96391L12.2769 9.4421C12.2212 9.36867 12.1635 9.29642 12.1028 9.22743C11.5529 8.60476 10.9995 7.98593 10.447 7.36533C10.4521 7.35911 10.4571 7.35437 10.4621 7.34875C10.2392 7.12609 10.0156 6.90343 9.79265 6.68018L11.0889 2.77743C11.1784 2.75374 11.2684 2.7339 11.3593 2.72413C12.064 2.65248 12.7696 2.57135 13.4761 2.53049C13.9086 2.50621 14.3436 2.49229 14.7836 2.52338L17.9909 6.13833C17.8804 6.48713 17.7727 6.83681 17.6442 7.1782ZM18.7202 3.90464C19.6049 4.78994 20.29 5.8002 20.7745 6.87944C20.1752 6.46699 19.5344 6.12767 18.8608 5.85113C18.756 5.8079 18.6485 5.7697 18.5392 5.7321L15.3823 2.174C15.4042 2.02033 15.4158 1.86636 15.4205 1.71121C16.6214 2.20005 17.7472 2.93198 18.7202 3.90464ZM8.41138 1.52438C8.42381 1.53356 8.42974 1.54125 8.43684 1.54333C9.15842 1.79263 9.81486 2.15978 10.4337 2.59533L9.22267 6.24226C9.21646 6.24404 9.21053 6.24581 9.20461 6.24848C8.95678 6.35093 8.70422 6.44271 8.46023 6.55375C7.455 7.01061 6.47493 7.51663 5.55171 8.12331L3.16194 6.70949C3.1655 6.63487 3.17823 6.55908 3.20369 6.49157C3.36418 6.06402 3.52199 5.63409 3.7035 5.21513C3.84325 4.89239 4.00255 4.58061 4.17636 4.27593C4.29006 4.15039 4.4079 4.02603 4.5293 3.90464C5.66423 2.77002 7.00553 1.96437 8.43359 1.48796C8.42618 1.49951 8.41849 1.51165 8.41138 1.52438Z" fill="#C79791"/>
</g>
<defs>
<clipPath id="clip0">
<rect width="21.4286" height="21.4286" fill="white" transform="translate(0.910156 0.286133)"/>
</clipPath>
</defs>
</svg>
