<svg width="23" height="16" viewBox="0 0 23 16" fill="none" xmlns="http://www.w3.org/2000/svg">
<path d="M3.62811 0.275391C3.62751 0.275391 3.62684 0.275391 3.62624 0.275391C3.41682 0.275391 3.21984 0.346495 3.0711 0.475716C2.92072 0.606366 2.83789 0.780328 2.83789 0.965523V11.3139C2.83789 11.6934 3.19374 12.0029 3.63124 12.0039C5.47559 12.0077 8.56563 12.3425 10.6973 14.2855V3.45553C10.6973 3.3269 10.6596 3.20605 10.5884 3.10605C8.8388 0.652016 5.47664 0.279157 3.62811 0.275391Z" fill="#C79791"/>
<path d="M19.7871 11.314V0.965523C19.7871 0.780328 19.7043 0.606366 19.5539 0.475716C19.4051 0.346495 19.208 0.275391 18.9988 0.275391C18.9981 0.275391 18.9975 0.275391 18.9969 0.275391C17.1484 0.279222 13.7863 0.652081 12.0366 3.10612C11.9654 3.20612 11.9277 3.32696 11.9277 3.4556V14.2855C14.0594 12.3425 17.1495 12.0077 18.9938 12.0039C19.4312 12.0029 19.7871 11.6934 19.7871 11.314Z" fill="#C79791"/>
<path d="M21.5921 2.66211H21.0176V11.3142C21.0176 12.2831 20.1112 13.0731 18.9971 13.0755C17.4327 13.0788 14.8532 13.3452 13.0264 14.8511C16.1859 14.1774 19.5166 14.6153 21.4148 14.9921C21.6518 15.0391 21.8967 14.9905 22.0866 14.8587C22.2758 14.7272 22.3844 14.5307 22.3844 14.3197V3.35211C22.3844 2.97166 22.029 2.66211 21.5921 2.66211Z" fill="#C79791"/>
<path d="M1.60796 11.3142V2.66211H1.03344C0.596692 2.66211 0.241211 2.97166 0.241211 3.35211V14.3195C0.241211 14.5305 0.349764 14.727 0.538986 14.8585C0.72873 14.9903 0.973421 15.039 1.21081 14.9919C3.10899 14.6151 6.43976 14.1772 9.59913 14.8509C7.77237 13.3451 5.1929 13.0787 3.6285 13.0755C2.51441 13.0731 1.60796 12.2831 1.60796 11.3142Z" fill="#C79791"/>
</svg>
