<svg width="16" height="18" viewBox="0 0 16 18" fill="none" xmlns="http://www.w3.org/2000/svg">
<path d="M11.1911 12.3151C11.7347 12.3151 12.1766 11.8178 12.1766 11.2064C12.1766 10.595 11.7347 10.0977 11.1911 10.0977C10.6478 10.0977 10.2056 10.595 10.2056 11.2064C10.2056 11.8178 10.6478 12.3151 11.1911 12.3151ZM11.1911 10.8472C11.3672 10.8472 11.5104 11.0084 11.5104 11.2064C11.5104 11.4044 11.3672 11.5656 11.1911 11.5656C11.0152 11.5656 10.8718 11.4044 10.8718 11.2064C10.8718 11.0084 11.0152 10.8472 11.1911 10.8472Z" fill="#7A1B1B"/>
<path d="M4.82746 12.3151C5.37093 12.3151 5.81301 11.8178 5.81301 11.2064C5.81301 10.595 5.37093 10.0977 4.82746 10.0977C4.284 10.0977 3.84192 10.595 3.84192 11.2064C3.84192 11.8178 4.284 12.3151 4.82746 12.3151ZM4.82746 10.8472C5.00347 10.8472 5.14672 11.0084 5.14672 11.2064C5.14672 11.4044 5.00347 11.5656 4.82746 11.5656C4.65145 11.5656 4.5082 11.4044 4.5082 11.2064C4.5082 11.0084 4.65145 10.8472 4.82746 10.8472Z" fill="#7A1B1B"/>
<path d="M7.33938 10.6748H6.6731V12.0127H7.33938V10.6748Z" fill="#7A1B1B"/>
<path d="M8.34231 10.6748H7.67603V12.0127H8.34231V10.6748Z" fill="#7A1B1B"/>
<path d="M9.34548 10.6748H8.6792V12.0127H9.34548V10.6748Z" fill="#7A1B1B"/>
<path d="M14.089 4.91925H13.0868V4.40417C13.0868 3.71994 12.5921 3.16326 11.9837 3.16326H9.73719V2.12674C9.73719 1.91973 9.58794 1.75195 9.40405 1.75195H6.61465C6.43065 1.75195 6.28151 1.91973 6.28151 2.12674V3.16326H4.03492C3.4266 3.16326 2.93178 3.71994 2.93178 4.40417V4.91925H1.92958C1.74557 4.91925 1.59644 5.08703 1.59644 5.29404V9.11971C1.59644 9.32671 1.74557 9.49449 1.92958 9.49449H2.93178V13.2582C2.93178 13.7889 3.23016 14.2415 3.64748 14.4185V16.1232C3.64748 16.3302 3.79661 16.498 3.98062 16.498H5.67409C5.85809 16.498 6.00723 16.3302 6.00723 16.1232V14.4991H10.0111V16.1232C10.0111 16.3302 10.1604 16.498 10.3443 16.498H12.0378C12.2219 16.498 12.3709 16.3302 12.3709 16.1232V14.4185C12.7884 14.2415 13.0866 13.7889 13.0866 13.2582V9.49449H14.0888C14.2729 9.49449 14.4219 9.32671 14.4219 9.11971V5.29404C14.4222 5.08703 14.2731 4.91925 14.089 4.91925ZM2.93178 8.74492H2.26272V5.66882H2.93178V8.74492ZM6.9478 2.50152H9.07079V3.16326H6.9478V2.50152ZM5.34105 15.7484H4.31387V14.4991H5.34105V15.7484ZM11.7047 15.7484H10.6775V14.4991H11.7047V15.7484ZM12.4204 13.2582C12.4204 13.5292 12.2245 13.7495 11.9836 13.7495H10.3444H5.6742H4.03492C3.79406 13.7495 3.59806 13.5292 3.59806 13.2582V9.20591H12.4204V13.2582ZM12.4204 5.29404V8.45634H3.59806V5.29404V4.40417C3.59806 4.13321 3.79406 3.91283 4.03492 3.91283H6.61465H9.40393H11.9836C12.2245 3.91283 12.4204 4.13321 12.4204 4.40417V5.29404ZM13.7559 8.74492H13.0868V5.66882H13.7559V8.74492Z" fill="#7A1B1B"/>
</svg>
