<svg width="13" height="13" viewBox="0 0 13 13" fill="none" xmlns="http://www.w3.org/2000/svg">
<path d="M12.9822 4.69068C12.9395 4.55993 12.8274 4.46655 12.6913 4.4452L8.6357 3.86887L6.81066 0.200114C6.74929 0.0773775 6.62388 0 6.48781 0C6.35173 0 6.22632 0.0773775 6.16495 0.202782L4.36393 3.88221L0.308281 4.48522C0.172203 4.50657 0.0601392 4.59996 0.0174482 4.7307C-0.0252428 4.86144 0.0121118 5.00552 0.110835 5.09891L3.05385 7.9512L2.37346 11.9908C2.34944 12.1269 2.40548 12.263 2.51754 12.343C2.57891 12.3884 2.65362 12.4124 2.72833 12.4124C2.78703 12.4124 2.84306 12.3991 2.89642 12.3697L6.51716 10.4513L10.1486 12.3484C10.2019 12.3751 10.258 12.3884 10.314 12.3884C10.5114 12.3884 10.6742 12.2256 10.6742 12.0282C10.6742 11.9988 10.6715 11.9722 10.6635 11.9455L9.96179 7.92986L12.8861 5.06155C12.9902 4.9655 13.0249 4.82142 12.9822 4.69068ZM9.32676 7.54831C9.24137 7.63102 9.20402 7.75109 9.22537 7.86849L9.83638 11.3718L6.68258 9.72555C6.57852 9.66952 6.45312 9.67218 6.34639 9.72555L3.20327 11.3905L3.79293 7.88183C3.81161 7.76443 3.77426 7.64703 3.68888 7.56431L1.13809 5.08824L4.65743 4.56527C4.77483 4.54659 4.87622 4.47455 4.92692 4.36782L6.49047 1.174L8.07538 4.35982C8.12874 4.46655 8.23013 4.53859 8.34753 4.55727L11.8695 5.05889L9.32676 7.54831Z" fill="#7A1B1B"/>
</svg>
