<svg width="15" height="14" viewBox="0 0 15 14" fill="none" xmlns="http://www.w3.org/2000/svg">
<g clip-path="url(#clip0)">
<path d="M13.7335 0.108549C13.6737 0.0389662 13.5838 0 13.488 0C13.3922 0 13.3024 0.0389662 13.2425 0.108549L12.0449 1.5002C12 1.55308 11.976 1.6171 11.976 1.6839V4.17495H9.01198V1.6839C9.01198 1.6171 8.98802 1.55308 8.94311 1.5002L7.74551 0.108549C7.68563 0.0389662 7.59581 0 7.5 0C7.40419 0 7.31437 0.0389662 7.25449 0.108549L6.05689 1.5002C6.01198 1.55308 5.98802 1.6171 5.98802 1.6839V4.17495H3.02395V1.6839C3.02395 1.6171 3 1.55308 2.95509 1.5002L1.75749 0.108549C1.6976 0.0389662 1.60778 0 1.51198 0C1.41617 0 1.32635 0.0389662 1.26647 0.108549L0.0688623 1.5002C0.0239521 1.55308 0 1.6171 0 1.6839V13.7078C0 13.8692 0.140719 14 0.314371 14H2.70958C2.88323 14 3.02395 13.8692 3.02395 13.7078V11.996H5.98802V13.7078C5.98802 13.8692 6.12874 14 6.30239 14H8.6976C8.87126 14 9.01198 13.8692 9.01198 13.7078V11.996H11.976V13.7078C11.976 13.8692 12.1168 14 12.2904 14H14.6856C14.8593 14 15 13.8692 15 13.7078V1.6839C15 1.6171 14.976 1.55308 14.9311 1.5002L13.7335 0.108549ZM2.39521 13.4155H0.628743V1.78688L1.51198 0.759841L2.39521 1.78688V13.4155ZM5.98802 11.4115H3.02395V9.76938H5.98802V11.4115ZM5.98802 9.18489H3.02395V6.98608H5.98802V9.18489ZM5.98802 6.40159H3.02395V4.75944H5.98802V6.40159ZM8.38323 13.4155H6.61677V1.78688L7.5 0.759841L8.38323 1.78688V13.4155ZM11.976 11.4115H9.01198V9.76938H11.976V11.4115ZM11.976 9.18489H9.01198V6.98608H11.976V9.18489ZM11.976 6.40159H9.01198V4.75944H11.976V6.40159ZM14.3713 13.4155H12.6048V1.78688L13.488 0.759841L14.3713 1.78688V13.4155Z" fill="#7A1B1B"/>
</g>
<defs>
<clipPath id="clip0">
<rect width="15" height="14" fill="white"/>
</clipPath>
</defs>
</svg>
