<svg width="16" height="15" viewBox="0 0 16 15" fill="none" xmlns="http://www.w3.org/2000/svg">
<path d="M15.6283 7.75056C15.4246 7.75056 15.2566 7.92428 15.2566 8.13474V8.75278H11.7786L11.7624 8.48886C11.7075 7.64699 11.0545 6.9588 10.24 6.88864L9.98788 6.8686V4.59688C9.98788 4.38641 9.8198 4.21269 9.61616 4.21269H8.40404V2.17149H10.8186L10.9026 2.28508C11.0675 2.50891 11.3164 2.6392 11.5879 2.6392C12.0598 2.6392 12.4444 2.24165 12.4444 1.7539C12.4444 1.26615 12.0598 0.868597 11.5879 0.868597C11.297 0.868597 11.0287 1.01893 10.8671 1.27283L10.7863 1.40312H8.40404V0.384187C8.40404 0.173719 8.23596 0 8.03232 0C7.82869 0 7.66061 0.173719 7.66061 0.384187V1.40312H5.2299L5.14909 1.28285C4.98748 1.04566 4.72566 0.902004 4.44768 0.902004C3.97253 0.902004 3.58788 1.29955 3.58788 1.78731C3.58788 2.27506 3.97253 2.67261 4.44444 2.67261C4.72242 2.67261 4.98747 2.53229 5.14586 2.29176L5.22667 2.17149H7.66061V4.20935H6.38384C6.1802 4.20935 6.01212 4.38307 6.01212 4.59354V6.86526L5.76 6.8853C4.94545 6.95546 4.29253 7.64365 4.23758 8.48552L4.22141 8.74944H0.743434V8.1314C0.743434 7.92094 0.575354 7.74722 0.371717 7.74722C0.168081 7.74722 0 7.92428 0 8.13474V13.814C0 14.0245 0.168081 14.1982 0.371717 14.1982C0.575354 14.1982 0.743434 14.0245 0.743434 13.814V13.196H4.21818L4.24404 13.4532C4.32808 14.3352 5.04242 15 5.89899 15H10.101C11.019 15 11.7657 14.2283 11.7657 13.2795V9.52116H15.2566V12.4276H14.3354C14.1317 12.4276 13.9636 12.6013 13.9636 12.8118C13.9636 13.0223 14.1317 13.196 14.3354 13.196H15.2566V13.814C15.2566 14.0245 15.4246 14.1982 15.6283 14.1982C15.8319 14.1982 16 14.0245 16 13.814V8.13474C16 7.92428 15.8319 7.75056 15.6283 7.75056ZM6.75556 6.88196V4.97773H9.24444V6.88196H6.75556ZM10.101 14.2316H5.89899C5.39152 14.2316 4.97778 13.804 4.97778 13.2795V8.60245C4.97778 8.07795 5.39152 7.65033 5.89899 7.65033H10.101C10.6085 7.65033 11.0222 8.07795 11.0222 8.60245V13.2795C11.0222 13.804 10.6085 14.2316 10.101 14.2316ZM4.23434 9.52116V12.4276H0.743434V9.52116H4.23434Z" fill="#7A1B1B"/>
</svg>
