<svg width="17" height="17" viewBox="0 0 17 17" fill="none" xmlns="http://www.w3.org/2000/svg">
<path d="M2.12519 7.65H9.49186V1.64787C9.0501 1.49228 8.81813 1.00803 8.97375 0.566279C9.09345 0.22642 9.41486 -0.000671368 9.77519 1.54839e-06H15.4419C15.9102 -0.000883868 16.2906 0.378074 16.2915 0.846424C16.2922 1.20675 16.0651 1.52816 15.7252 1.64787V8.5C15.7252 8.96945 15.3447 9.35 14.8752 9.35H14.0252V11.9C14.0237 13.3077 12.8829 14.4484 11.4752 14.45V16.7167C11.4752 16.8731 11.3484 17 11.1919 17H6.09189C5.93542 17 5.80856 16.8731 5.80856 16.7167V14.4355C3.26564 14.2847 1.27944 12.1807 1.27523 9.63333V9.35H0.991892C0.835421 9.35 0.708559 9.22314 0.708559 9.06667C0.70948 8.28467 1.34319 7.65092 2.12519 7.65ZM15.7252 0.850001C15.7252 0.693531 15.5983 0.566668 15.4419 0.566668H9.77519C9.61872 0.566668 9.49186 0.693531 9.49186 0.850001C9.49186 1.00647 9.61872 1.13333 9.77519 1.13333H15.4419C15.5984 1.13333 15.7252 1.00647 15.7252 0.850001ZM14.8752 8.78333C15.0317 8.78333 15.1585 8.65647 15.1585 8.5V1.7H10.0585V8.78333H14.8752ZM6.37519 16.4333H10.9085V14.45H6.37519V16.4333ZM1.84186 9.63333C1.84451 11.9794 3.74575 13.8807 6.09186 13.8833H11.4752C12.57 13.8819 13.4571 12.9948 13.4585 11.9V9.35H1.84186V9.63333ZM9.49186 8.78333V8.21667H2.12519C1.76507 8.21709 1.44416 8.44397 1.32364 8.78333H9.49186Z" fill="#7A1B1B"/>
</svg>
