<svg width="61" height="38" viewBox="0 0 61 38" xmlns="http://www.w3.org/2000/svg">
  <path d="M12.2742 9.5229h2.1627l-1.2055-5.8937-.9572 5.8937zM14.8269.77137l3.5336 16.55433.0591.2491h-2.3164l-.0354-.166-1.2409-6.0478h-2.8364l-1.1699 6.0478-.0355.166H8.4569l.0591-.2491L12.0496.77137l.0355-.16602h2.6827l.0591.16602zm12.1726.03557V2.4434h-4.5263v5.8699h4.0536v1.8499h-4.0536v7.4353h-2.21V.60535h6.7481v.20159h-.0118zm8.8399 0V2.4434h-4.5263v5.8699h4.0536v1.8499h-4.0536v7.4353h-2.2218V.60535h6.7481v.20159zm3.6754 8.71596h2.1627l-1.2054-5.8937-.9573 5.8937zM42.0675.77137l3.5336 16.55433.0591.2491h-2.3164l-.0354-.166-1.2409-6.0478h-2.8363l-1.17 6.0478-.0355.166h-2.3281l.0591-.2491L39.2903.77137l.0354-.16602h2.6827l.0591.16602zM52.6328 8.4319c.39-.4506.5437-1.2807.5437-2.7274 0-1.4468-.13-2.2768-.52-2.7275-.3664-.4387-1.0164-.5336-2.0327-.5336h-.9218v6.534h.9218c.9927 0 1.6309-.1067 2.009-.5455zm2.2218 4.1268l1.8673 4.6603.1064.2609-.2837.0237-1.9145.166-.1536.0119-.0591-.1423-1.8673-4.8264c-.3191-.8301-.5673-1.3163-.8982-1.5772-.3072-.249-.7209-.3201-1.3354-.3201h-.6145v6.7711h-2.2218V.60535h3.2027c1.6663 0 2.8481.26088 3.6281 1.01985.78.7589 1.1227 1.9803 1.1227 3.9251 0 1.1503-.13 2.1701-.5082 2.9646-.3545.7471-.9099 1.3045-1.749 1.5891.2482.166.4845.3676.7327.6877.3191.3795.6145.9369.9454 1.767zM61 .80694V17.5748h-2.2099V.60535h2.2217v.20159H61zM6.897 11.4914c.4136.9012.52 1.5653.52 2.1345 0 1.6483-.5082 2.7156-1.3355 3.3915-.8154.6641-1.9381.9131-3.1554.9131-.3545 0-.7445-.0237-1.17-.0593-.4136-.0355-.8745-.0948-1.3591-.166l-.2009-.0237.0237-.2016.189-1.7313.0355-.3202.2718.1542c.2837.166.6146.2727.9455.3557.4372.1067.8509.1423 1.1463.1423.6855 0 1.2764-.1423 1.69-.498.4136-.3558.65-.9369.65-1.8262 0-.3439-.0355-.7946-.2718-1.3993-.2482-.6167-.7209-1.3993-1.5836-2.4073C2.0279 8.4794 1.307 7.4121.9052 6.5464.4916 5.6689.4088 5.0048.4088 4.3645c0-1.0554.2128-2.0871.8628-2.8579C1.9216.73579 2.997.22588 4.7224.22588c.2246 0 .6382.02371 1.1109.05929.3782.03558.7918.07115 1.1582.13044l.2009.03558-.0236.20159L6.956 2.313l-.0354.2727-.2482-.1067c-.6382-.2728-1.3827-.4032-1.8081-.4032-.7446 0-1.2882.1897-1.6309.5336-.3664.3676-.5319.9131-.5319 1.6246 0 .4151.071.9131.331 1.5179.2718.6285.7327 1.3874 1.5363 2.3124 1.1936 1.4467 1.9145 2.5496 2.3282 3.4271zm9.1944 19.7561c.4136.9013.52 1.5654.52 2.1346 0 1.6483-.5082 2.7155-1.3355 3.3915-.8154.6641-1.9381.9131-3.1554.9131-.3545 0-.7445-.0237-1.17-.0593-.4136-.0356-.8745-.0949-1.3591-.166l-.2009-.0237.0237-.2016.1891-1.7314.0354-.3202.2718.1542c.2837.166.6146.2728.9455.3558.4372.1067.8509.1423 1.1463.1423.6855 0 1.2764-.1423 1.69-.4981.4136-.3557.65-.9368.65-1.8262 0-.3439-.0354-.7945-.2718-1.3993-.2482-.6166-.7209-1.3993-1.5836-2.4073-1.2646-1.4704-1.9855-2.5377-2.3873-3.4033-.4136-.8776-.4963-1.5416-.4963-2.182 0-1.0554.2127-2.0871.8627-2.8579.65-.7708 1.7254-1.2688 3.4509-1.2688.2245 0 .6381.0237 1.1109.0593.3781.0355.7918.0711 1.1581.1304l.2009.0356-.0236.2016-.2127 1.6602-.0355.2727-.2482-.1067c-.6381-.2728-1.3827-.4032-1.8081-.4032-.7446 0-1.2882.1897-1.6309.5336-.3664.3676-.5318.9131-.5318 1.6246 0 .4151.0709.9131.3309 1.5179.2718.6285.7327 1.3875 1.5363 2.3124 1.2055 1.4349 1.9264 2.5377 2.3282 3.4152zm10.9435-10.6844v1.6365H23.844v15.1432h-2.2218V22.1996h-3.1908v-1.85h8.5799v.2135h.0236zm3.5572 8.7041h2.1627l-1.2054-5.8937-.9573 5.8937zm2.5527-8.7397l3.5336 16.5544.0591.249h-2.3163l-.0355-.166-1.2409-6.0478h-2.8363l-1.17 6.0478-.0354.166h-2.3282l.0591-.249 3.5454-16.5544.0355-.166h2.6827l.0472.166zm11.9008.0356v1.6365h-3.179v15.1432h-2.2218V22.1996h-3.1673v-1.85h8.5799v.2135h-.0118zm9.4308 15.1432v1.6365h-6.9726V20.3496h6.819v1.85h-4.5972v5.5853h4.0536v1.8499h-4.0536v5.8699h4.7626v.2016h-.0118zm-47.3313 0v1.6365H.1725V20.3496h6.819v1.85H2.3942v5.5853h4.0536v1.8499H2.3942v5.8699h4.7627v.2016h-.0118z" fill="#000" fill-rule="nonzero"/>
</svg>
