<svg width="83" height="44" fill="none" xmlns="http://www.w3.org/2000/svg">
  <path fill-rule="evenodd" clip-rule="evenodd" d="M11.1908 0H8.96532v2.0013h2.22548V0zM5.59538 31.2203l-2.22544 2.0013V44h2.22544V31.2203zM13.4162 44h-2.2254V31.1059l-4.48271-2.3158-4.48266 4.0312V44H0V29.1332l8.93353-8.0338V3.03054h6.70807v2.0013h-2.2254V44z" fill="#7B2B15"/>
  <path d="M31.8311 15.5876h2.2404l-1.2495-5.4743-.9909 5.4743zm2.6282-8.09578l3.6623 15.34348.0431.2313h-2.4128l-.0431-.1542-1.2926-5.6285h-2.9729l-1.2064 5.6285-.0431.1542h-2.3266l.0431-.2313 3.6622-15.34348.0431-.1542h2.8006l.0431.1542zm12.6672.03855V9.03388h-4.6963v5.43572H46.6526V16.1659H42.4302V23.0666h-2.2836V7.33762h6.9799v.19275zm9.1773 0V9.03388h-4.6963v5.43572H55.8299V16.1659H51.6075V23.0666h-2.2836V7.33762h6.9799v.19275zm3.8347 8.05723h2.2404l-1.2495-5.4357-.9909 5.4357zm2.6713-8.09578l3.6623 15.34348.0431.2313h-2.4129l-.043-.1542-1.2926-5.6285h-2.9298l-1.2065 5.6285-.043.1542H56.1746l.043-.2313 3.6623-15.34348.0431-.1542h2.8006l.0862.1542zm10.9869 7.09348c.3877-.4241.5601-1.1951.5601-2.5444s-.1293-2.12034-.5171-2.5444c-.3877-.38552-1.034-.50117-2.1112-.50117h-.9478v6.05257h.9478c.991.0385 1.6804-.0386 2.0682-.4626zm2.2835 3.8551l1.9389 4.3178.1292.2313-.3016.0385-1.9819.1542h-.1724l-.0431-.1542-1.9388-4.4719c-.3447-.7711-.6032-1.2337-.9479-1.465-.3016-.2313-.7325-.3084-1.3787-.3084h-.6463v6.2839H68.454V7.33762H71.7716c1.7235 0 2.9729.23131 3.7916.92523.8186.69393 1.1633 1.85045 1.1633 3.62385 0 1.0794-.1293 2.0047-.517 2.7371-.3447.694-.9479 1.1951-1.8096 1.465.2585.1542.517.3469.7755.6554.2585.3855.5601.9252.9048 1.6962zM82.5 7.53037V23.0666h-2.2836V7.33762H82.5v.19275zM26.2299 17.4381c.4309.8481.517 1.4649.517 1.9661 0 1.5421-.517 2.5058-1.3787 3.1227-.8617.6168-2.025.8481-3.2745.8481-.3878 0-.7756 0-1.2064-.0386-.4309-.0385-.9048-.0771-1.4219-.1542l-.2154-.0385.0431-.1928.2154-1.6191.0431-.3084.3016.1542c.3016.1542.6463.2698.991.3084.4308.0771.9048.1156 1.2064.1156.6894 0 1.3356-.1156 1.7665-.4626.4309-.3469.6894-.8481.6894-1.6962 0-.3085-.0431-.7325-.3016-1.3108-.2585-.5783-.7325-1.3107-1.6373-2.236-1.2926-1.3493-2.0681-2.3516-2.4559-3.1612-.4308-.8096-.517-1.4264-.517-2.0047 0-1.0023.2154-1.92753.9048-2.66001.6894-.73247 1.8096-1.19509 3.5761-1.19509.2154 0 .6463.03855 1.1633.03855.3878.03855.8187.0771 1.2064.11566l.2155.03855-.0431.19275-.2155 1.54206-.1723.38551-.2585-.11565c-.6463-.26986-1.4218-.38551-1.8958-.38551-.7755 0-1.3356.19275-1.6803.50116-.3878.34697-.5601.84812-.5601 1.50352 0 .3855.0861.8481.3446 1.4264.2586.5783.7756 1.2722 1.5942 2.1589 1.2926 1.3107 2.025 2.3516 2.4559 3.1612zM35.5672 35.3131c.4352.8481.5222 1.4649.5222 1.9661 0 1.5421-.5222 2.5058-1.3924 3.1227-.8703.6168-2.0451.8481-3.307.8481-.3916 0-.7832 0-1.2183-.0386-.4351-.0385-.9138-.0771-1.4359-.1542l-.2176-.0385.0435-.1928.2176-1.6191.0435-.3084.3046.1542c.3046.1542.6527.2698 1.0008.3084.4351.0771.9137.1156 1.2183.1156.6962 0 1.3489-.1156 1.784-.4626.4352-.3469.6962-.8481.6962-1.6962 0-.3085-.0435-.7325-.3045-1.3108-.2611-.5783-.7398-1.3107-1.6535-2.236-1.3054-1.3493-2.0886-2.3516-2.4803-3.1612-.4351-.8096-.5221-1.4264-.5221-2.0047 0-1.0023.2176-1.9275.9138-2.66.6962-.7325 1.8275-1.1951 3.6115-1.1951.2176 0 .6527.0386 1.1749.0386.3916.0385.8267.0771 1.2183.1156l.2176.0386-.0435.1927-.2176 1.5421-.0435.2698-.2611-.1156c-.6527-.2699-1.4359-.3855-1.9145-.3855-.7833 0-1.3489.1927-1.697.5011-.3917.347-.5657.8482-.5657 1.5035 0 .3855.087.8482.3481 1.4264.2611.5783.7832 1.2722 1.61 2.1589 1.1748 1.4264 1.958 2.4673 2.3496 3.2769zm11.1393-9.9077v1.5035H43.356v14.0327h-2.3062V26.9089H37.6994V25.2126H46.7065v.1928zm3.3505 8.0958h2.2626l-1.2618-5.4743-1.0008 5.4743zm2.6977-8.1344l3.6986 15.3435.0435.2313h-2.4367l-.0435-.1542-1.3054-5.6285h-3.0023l-1.2184 5.6285-.0435.1542h-2.4367l.0435-.2313 3.6986-15.3435.0435-.1542h2.8283l.1305.1542zm12.1401.0386v1.5035h-3.3505v14.0327h-2.3062V26.9089H55.8877V25.2126H64.8948v.1928zM74.25 39.4381v1.5035h-7.3101V25.2126h7.1361V26.9089h-4.83v5.1659h4.2643V33.8096H69.246v5.4357H74.25v.1928zm-47.6899 0v1.5035H19.25V25.2126h7.1361V26.9089h-4.8299v5.1659h4.2642V33.8096h-4.2642v5.4357H26.5601v.1928z" fill="#000"/>
</svg>
