<svg width="86" height="64" viewBox="0 0 86 64" fill="none" xmlns="http://www.w3.org/2000/svg">
<g clip-path="url(#clip0)">
<path fill-rule="evenodd" clip-rule="evenodd" d="M14.5717 0H11.6526V2.92903H14.5717V0ZM7.29174 45.406L4.37268 48.335V64H7.29174V45.406ZM17.4907 64H14.5717V45.2637L8.74536 41.8722L2.91906 47.7184V63.9881H0V42.3821L11.6526 30.6778V4.38762H20.398V7.31666H17.4907V64Z" fill="white"/>
<path fill-rule="evenodd" clip-rule="evenodd" d="M27.4061 55.7347V50.5052H28.1152L30.857 54.62V50.5052H31.5306V55.7347H30.8215L28.0679 51.6199V55.7347H27.4061ZM34.3197 55.7347V51.1099H32.5942V50.4933H36.7306V51.1099H35.0051V55.7347H34.3197ZM37.7942 55.7347V50.5052H41.576V51.1218H38.4915V52.7227H41.3869V53.3393H38.4915V55.1181H41.6941V55.7347H37.7942ZM43.5141 52.8057H45.0032C45.4641 52.8057 45.795 52.7227 45.9959 52.5685C46.1968 52.4025 46.2914 52.1891 46.2914 51.9282C46.2914 51.359 45.9132 51.0862 45.1687 51.0862H43.5141V52.8057ZM42.8287 55.7347V50.5052H45.1332C45.5705 50.5052 45.8777 50.5407 46.0668 50.6C46.2559 50.6593 46.4096 50.7423 46.5277 50.8491C46.6577 50.9558 46.7641 51.0981 46.8468 51.2878C46.9414 51.4776 46.9886 51.691 46.9886 51.94C46.9886 52.7583 46.5041 53.2326 45.5232 53.3749C45.7359 53.4698 45.9132 53.6002 46.0786 53.7662C46.2441 53.9323 46.3859 54.122 46.5159 54.3236L47.4259 55.7466H46.5514L45.8541 54.6675C45.6887 54.3947 45.535 54.1813 45.4168 54.0271C45.2987 53.8611 45.1805 53.7425 45.0623 53.6477C44.9441 53.5528 44.8378 53.4935 44.7432 53.4698C44.6487 53.4461 44.5068 53.4342 44.3178 53.4342H43.5259V55.7347H42.8287ZM48.395 55.7347V50.5052H49.1041L51.8459 54.62V50.5052H52.5195V55.7347H51.8104L49.0568 51.6199V55.7347H48.395ZM54.9067 53.5884H56.7031L56.1476 52.1416C55.9585 51.6554 55.8404 51.2997 55.7695 51.0625C55.6985 51.3945 55.604 51.7266 55.4858 52.0586L54.9067 53.5884ZM53.4058 55.7347L55.4149 50.5052H56.1713L58.3103 55.7347H57.5185L56.9158 54.1457H54.7176L54.1504 55.7347H53.4058ZM60.1776 55.7347V51.1099H58.4522V50.4933H62.5885V51.1099H60.863V55.7347H60.1776ZM63.7585 55.7347V50.5052H64.4557V55.7347H63.7585ZM66.4884 53.197C66.4884 53.6121 66.5712 53.9797 66.7248 54.2762C66.8784 54.5845 67.0912 54.8216 67.3512 54.9877C67.6111 55.1537 67.9184 55.2367 68.2848 55.2367C68.8402 55.2367 69.2893 55.0469 69.5966 54.6556C69.9157 54.2643 70.0693 53.7544 70.0693 53.1259C70.0693 52.6871 69.9984 52.3195 69.8448 51.9993C69.6911 51.6791 69.4902 51.4301 69.2302 51.2641C68.9702 51.0981 68.663 51.0151 68.2966 51.0151C68.0011 51.0151 67.753 51.0625 67.5284 51.1574C67.3039 51.2522 67.1148 51.3945 66.9612 51.5961C66.8075 51.7859 66.6893 52.023 66.6184 52.2839C66.5239 52.533 66.4884 52.8413 66.4884 53.197ZM65.7793 53.1852C65.7793 52.6634 65.8739 52.1891 66.0512 51.774C66.2403 51.359 66.5239 51.0269 66.8902 50.7779C67.2684 50.5289 67.7293 50.3984 68.273 50.3984C68.6393 50.3984 68.9702 50.4696 69.2775 50.6C69.5848 50.7305 69.8448 50.9083 70.0693 51.1455C70.2938 51.3827 70.4593 51.6673 70.5775 52.0112C70.6957 52.3551 70.7547 52.7227 70.7547 53.1259C70.7547 53.6832 70.6484 54.1694 70.4475 54.5608C70.2466 54.9521 69.9511 55.2604 69.5493 55.4857C69.1475 55.711 68.722 55.8177 68.2493 55.8177C67.7648 55.8177 67.3275 55.6992 66.9493 55.4739C66.5593 55.2367 66.2639 54.9165 66.063 54.5133C65.8739 54.0983 65.7793 53.6595 65.7793 53.1852ZM71.9838 55.7347V50.5052H72.6929L75.4347 54.62V50.5052H76.1083V55.7347H75.3992L72.6456 51.6199V55.7347H71.9838ZM78.4956 53.5884H80.2919L79.7365 52.1416C79.5474 51.6554 79.4292 51.2997 79.3583 51.0625C79.2874 51.3945 79.1928 51.7266 79.0747 52.0586L78.4956 53.5884ZM76.9947 55.7347L79.0037 50.5052H79.7601L81.8992 55.7347H81.1074L80.5046 54.1457H78.3065L77.7392 55.7347H76.9947ZM82.7383 55.7347V50.5052H83.4355V55.1181H86V55.7347H82.7383ZM25.1843 55.7347V50.5052H25.8816V55.7347H25.1843Z" fill="white"/>
<path fill-rule="evenodd" clip-rule="evenodd" d="M31.897 59.4348H33.3861C33.847 59.4348 34.1779 59.3517 34.3788 59.1976C34.5797 59.0316 34.6742 58.8181 34.6742 58.5572C34.6742 57.988 34.296 57.7153 33.5515 57.7153H31.897V59.4348ZM31.2115 62.3638V57.1342H33.5161C33.9533 57.1342 34.2606 57.1698 34.4497 57.2291C34.6388 57.2884 34.7924 57.3714 34.9106 57.4781C35.0406 57.5848 35.1469 57.7271 35.2297 57.9169C35.3242 58.1066 35.3715 58.3201 35.3715 58.5691C35.3715 59.3873 34.8869 59.8617 33.906 60.004C34.1188 60.0988 34.296 60.2293 34.4615 60.3953C34.627 60.5613 34.7688 60.751 34.8988 60.9526L35.8088 62.3756H34.9342L34.237 61.2965C34.0715 61.0238 33.9179 60.8103 33.7997 60.6562C33.6815 60.4901 33.5633 60.3716 33.4451 60.2767C33.327 60.1818 33.2206 60.1225 33.1261 60.0988C33.0315 60.0751 32.8897 60.0632 32.7006 60.0632H31.9088V62.3875H31.2115V62.3638ZM37.1206 59.8142C37.1206 60.2293 37.2033 60.5969 37.3569 60.8933C37.5106 61.2017 37.7233 61.4388 37.9833 61.6048C38.2433 61.7709 38.5505 61.8539 38.9169 61.8539C39.4724 61.8539 39.9214 61.6641 40.2287 61.2728C40.5478 60.8815 40.7014 60.3716 40.7014 59.7431C40.7014 59.3043 40.6305 58.9367 40.4769 58.6165C40.3233 58.2963 40.1223 58.0473 39.8623 57.8813C39.6023 57.7153 39.2951 57.6323 38.9287 57.6323C38.6333 57.6323 38.3851 57.6797 38.1605 57.7746C37.936 57.8694 37.7469 58.0117 37.5933 58.2133C37.4396 58.4031 37.3215 58.6402 37.2506 58.9011C37.156 59.162 37.1206 59.4703 37.1206 59.8142ZM36.4115 59.8024C36.4115 59.2806 36.506 58.8063 36.6833 58.3912C36.8724 57.9762 37.156 57.6441 37.5224 57.3951C37.9006 57.1461 38.3615 57.0156 38.9051 57.0156C39.2714 57.0156 39.6024 57.0868 39.9096 57.2172C40.2169 57.3477 40.4769 57.5255 40.7014 57.7627C40.926 57.9999 41.0914 58.2845 41.2096 58.6284C41.3278 58.9723 41.3869 59.3399 41.3869 59.7431C41.3869 60.3004 41.2805 60.7866 41.0796 61.1779C40.8787 61.5693 40.5832 61.8776 40.1814 62.1029C39.7796 62.3282 39.3542 62.4349 38.8814 62.4349C38.3969 62.4349 37.9596 62.3163 37.5815 62.091C37.1915 61.8539 36.896 61.5337 36.6951 61.1305C36.506 60.7273 36.4115 60.2767 36.4115 59.8024ZM45.8777 57.1224H46.575V60.1463C46.575 60.6562 46.5277 61.0356 46.4332 61.3084C46.3386 61.5693 46.2086 61.7827 46.0314 61.9487C45.8659 62.1148 45.6532 62.2333 45.405 62.3163C45.1568 62.3994 44.8614 62.4349 44.5423 62.4349C43.8687 62.4349 43.3487 62.2689 43.0059 61.9369C42.6632 61.6048 42.486 61.0119 42.486 60.1344V57.1105H43.1832V60.1225C43.1832 60.5376 43.2187 60.834 43.2778 61.0238C43.3369 61.2017 43.4196 61.3558 43.5259 61.4625C43.6323 61.5693 43.7741 61.6523 43.9278 61.7116C44.0932 61.7709 44.2705 61.7946 44.495 61.7946C44.8023 61.7946 45.0505 61.7471 45.2514 61.6641C45.4523 61.5811 45.6177 61.427 45.7241 61.2017C45.8423 60.9882 45.8896 60.6206 45.8896 60.1107V57.1224H45.8777ZM48.5723 59.6126H49.9313C50.7586 59.6126 51.1722 59.2924 51.1722 58.664C51.1722 58.5098 51.1486 58.3793 51.1131 58.2608C51.0777 58.154 51.0068 58.0473 50.924 57.9762C50.8413 57.8932 50.735 57.8339 50.6168 57.7983C50.4986 57.7627 50.2622 57.739 49.9195 57.739H48.5723V59.6126ZM47.875 62.3638V57.1342H49.8486C50.1441 57.1342 50.3922 57.1461 50.6168 57.1816C50.8413 57.2172 51.0422 57.2884 51.2313 57.3951C51.4204 57.5137 51.574 57.6797 51.6922 57.905C51.8104 58.1185 51.8695 58.3675 51.8695 58.6521C51.8695 59.7075 51.2195 60.2411 49.9077 60.2411H48.5723V62.3756H47.875V62.3638ZM27.7961 60.3123V59.6956H30.0061V61.6404C29.3206 62.1859 28.6116 62.4587 27.8434 62.4587C27.4298 62.4587 27.0516 62.3994 26.7325 62.2808C26.4134 62.1622 26.1298 61.9843 25.9052 61.7471C25.6807 61.51 25.5034 61.2254 25.3734 60.8815C25.2434 60.5376 25.1843 60.17 25.1843 59.7786C25.1843 58.9841 25.4089 58.3319 25.858 57.822C26.307 57.3121 26.957 57.0512 27.7961 57.0512C28.9779 57.0512 29.687 57.573 29.9352 58.6047L29.3088 58.7707C29.0961 58.0117 28.5879 57.6441 27.7961 57.6441C27.1934 57.6441 26.7207 57.822 26.3898 58.1896C26.0589 58.5572 25.8934 59.0671 25.8934 59.7312C25.8934 60.4664 26.0825 61.0119 26.4489 61.3321C26.8152 61.6641 27.2761 61.8302 27.7961 61.8302C28.3988 61.8302 28.907 61.6523 29.3206 61.2965V60.3241H27.7961V60.3123Z" fill="white"/>
<path d="M37.2742 18.5226H39.4369L38.2314 12.629L37.2742 18.5226ZM39.8269 9.77107L43.3605 26.3255L43.4196 26.5745H43.1596H41.2687H41.1032L41.0678 26.4085L39.8269 20.3607H36.9905L35.8205 26.4085L35.7851 26.5745H35.6078H33.7169H33.4569L33.516 26.3255L37.0496 9.77107L37.0851 9.60506H37.2505H39.6023H39.7678L39.8269 9.77107ZM51.9995 9.80665V11.2297V11.4431H51.7867H47.4731V17.313H51.314H51.5267V17.5265V18.9495V19.163H51.314H47.4731V26.3847V26.5982H47.2604H45.4641H45.2632V26.3847V9.80665V9.60506H45.4759H51.7986H52.0113V9.80665H51.9995ZM60.8394 9.80665V11.2297V11.4431H60.6266H56.3131V17.313H60.1539H60.3666V17.5265V18.9495V19.163H60.1539H56.3131V26.3847V26.5982H56.1003H54.304H54.0913V26.3847V9.80665V9.60506H54.304H60.6266H60.8394V9.80665ZM64.5148 18.5226H66.6775L65.472 12.629L64.5148 18.5226ZM67.0675 9.77107L70.6011 26.3255L70.6602 26.5745H70.4002H68.5093H68.3438L68.3084 26.4085L67.0675 20.3607H64.2312L63.0612 26.4085L63.0257 26.5745H62.8484H60.9575H60.6975L60.7566 26.3255L64.2902 9.77107L64.3257 9.60506H64.4911H66.8429H67.0084L67.0675 9.77107ZM77.6328 17.4316C78.0228 16.981 78.1765 16.1509 78.1765 14.7042C78.1765 13.2575 78.0465 12.4274 77.6565 11.9767C77.2901 11.538 76.6401 11.4431 75.6238 11.4431H74.7019V17.9771H75.6238C76.6165 17.9771 77.2547 17.8704 77.6328 17.4316ZM79.8546 21.5584L81.7219 26.2187L81.8282 26.4796L81.5446 26.5033L79.6301 26.6693L79.4764 26.6812L79.4174 26.5389L77.5501 21.7125C77.231 20.8824 76.9828 20.3962 76.6519 20.1353C76.3447 19.8863 75.931 19.8152 75.3165 19.8152H74.7019V26.3729V26.5863H74.4892H72.6929H72.4802V26.3729V9.80665V9.60506H72.6929H75.6828C77.3492 9.60506 78.531 9.86594 79.311 10.6249C80.091 11.3838 80.4337 12.6052 80.4337 14.55C80.4337 15.7003 80.3037 16.7201 79.9255 17.5146C79.571 18.2617 79.0155 18.8191 78.1765 19.1037C78.4246 19.2697 78.661 19.4713 78.9092 19.7915C79.2283 20.1709 79.5237 20.7283 79.8546 21.5584ZM86 9.80665V26.361V26.5745H85.7873H83.9909H83.79V26.361V9.80665V9.60506H84.0028H85.7991H86.0118V9.80665H86ZM31.8969 20.4911C32.3106 21.3923 32.4169 22.0564 32.4169 22.6256C32.4169 24.2739 31.9088 25.3412 31.0815 26.0171C30.2661 26.6812 29.1433 26.9302 27.9261 26.9302C27.5715 26.9302 27.1815 26.9065 26.7561 26.8709C26.3425 26.8354 25.8816 26.7761 25.397 26.7049L25.1961 26.6812L25.2197 26.4796L25.4088 24.7483L25.4443 24.4281L25.7161 24.5823C25.9997 24.7483 26.3306 24.855 26.6615 24.938C27.0988 25.0447 27.5124 25.0803 27.8079 25.0803C28.4933 25.0803 29.0842 24.938 29.4979 24.5823C29.9115 24.2265 30.1479 23.6454 30.1479 22.7561C30.1479 22.4122 30.1124 21.9615 29.8761 21.3568C29.6279 20.7401 29.1552 19.9575 28.2924 18.9495C27.0279 17.4791 26.307 16.4118 25.9052 15.5461C25.4916 14.6686 25.4088 14.0045 25.4088 13.3642C25.4088 12.3088 25.6216 11.2771 26.2715 10.5063C26.9215 9.7355 27.997 9.22559 29.7224 9.22559C29.947 9.22559 30.3606 9.2493 30.8333 9.28488C31.2115 9.32045 31.6251 9.35603 31.9915 9.41532L32.1924 9.4509L32.1688 9.65249L31.956 11.3127L31.9206 11.5854L31.6724 11.4787C31.0342 11.2059 30.2897 11.0755 29.8642 11.0755C29.1197 11.0755 28.5761 11.2652 28.2333 11.6091C27.867 11.9767 27.7015 12.5222 27.7015 13.2337C27.7015 13.6488 27.7724 14.1468 28.0324 14.7516C28.3043 15.3801 28.7652 16.1391 29.5688 17.064C30.7624 18.5107 31.4833 19.6136 31.8969 20.4911Z" fill="white"/>
<path d="M41.0914 40.2478C41.505 41.149 41.6114 41.8131 41.6114 42.3823C41.6114 44.0306 41.1032 45.0979 40.276 45.7738C39.4605 46.4379 38.3378 46.6869 37.1205 46.6869C36.766 46.6869 36.376 46.6632 35.9506 46.6276C35.5369 46.5921 35.076 46.5328 34.5915 46.4616L34.3906 46.4379L34.4142 46.2363L34.6033 44.505L34.6387 44.1848L34.9106 44.339C35.1942 44.505 35.5251 44.6117 35.856 44.6947C36.2933 44.8014 36.7069 44.837 37.0024 44.837C37.6878 44.837 38.2787 44.6947 38.6923 44.339C39.106 43.9832 39.3423 43.4021 39.3423 42.5128C39.3423 42.1689 39.3069 41.7183 39.0705 41.1135C38.8223 40.4968 38.3496 39.7142 37.4869 38.7062C36.2224 37.2358 35.5015 36.1685 35.0997 35.3028C34.686 34.4253 34.6033 33.7612 34.6033 33.1209C34.6033 32.0655 34.816 31.0338 35.466 30.263C36.116 29.4922 37.1914 28.9941 38.9169 28.9941C39.1414 28.9941 39.5551 29.0179 40.0278 29.0534C40.406 29.089 40.8196 29.1246 41.186 29.1839L41.3869 29.2195L41.3632 29.421L41.1505 31.0812L41.115 31.354L40.8669 31.2472C40.2287 30.9745 39.4842 30.8441 39.0587 30.8441C38.3142 30.8441 37.7705 31.0338 37.4278 31.3777C37.0615 31.7453 36.896 32.2908 36.896 33.0023C36.896 33.4173 36.9669 33.9154 37.2269 34.5202C37.4987 35.1487 37.9596 35.9076 38.7633 36.8326C39.9687 38.2674 40.6896 39.3703 41.0914 40.2478ZM52.0349 29.5633V30.9864V31.1998H51.8222H48.8441V46.1296V46.343H48.6313H46.835H46.6223V46.1296V31.1998H43.6441H43.4314V30.9864V29.5633V29.3499H43.6441H51.7986H52.0113V29.5633H52.0349ZM55.5922 38.2674H57.7549L56.5494 32.3738L55.5922 38.2674ZM58.1449 29.5278L61.6785 46.0822L61.7376 46.3312H61.4776H59.5867H59.4212L59.3858 46.1652L58.1449 40.1174H55.3085L54.1385 46.1652L54.1031 46.3312H53.9258H52.0349H51.7749L51.834 46.0822L55.3794 29.5278L55.4149 29.3618H55.5803H57.9321H58.0976L58.1449 29.5278ZM70.0456 29.5633V30.9864V31.1998H69.8447H66.8666V46.1296V46.343H66.6539H64.8575H64.6448V46.1296V31.1998H61.6903H61.4776V30.9864V29.5633V29.3499H61.6903H69.8447H70.0575V29.5633H70.0456ZM79.4765 44.7066V46.1296V46.343H79.2637H72.7165H72.5038V46.1296V29.5633V29.3499H72.7165H79.1101H79.3228V29.5633V30.9864V31.1998H79.1101H74.7256V36.7851H78.5665H78.7792V36.9986V38.4216V38.6351H78.5665H74.7256V44.505H79.2755H79.4883V44.7066H79.4765ZM32.1451 44.7066V46.1296V46.343H31.9324H25.3852H25.1725V46.1296V29.5633V29.3499H25.3852H31.7788H31.9915V29.5633V30.9864V31.1998H31.7788H27.3943V36.7851H31.2351H31.4479V36.9986V38.4216V38.6351H31.2351H27.3943V44.505H31.9442H32.157V44.7066H32.1451Z" fill="white"/>
</g>
<defs>
<clipPath id="clip0">
<rect width="86" height="64" fill="white"/>
</clipPath>
</defs>
</svg>
