<svg width="61" height="13" viewBox="0 0 61 13"  xmlns="http://www.w3.org/2000/svg">
  <path d="M2.4061 5.7347V.5051h.7091L5.857 4.62V.5051h.6736v5.2296h-.7091L3.0679 1.6198v4.1149h-.6618zm6.9136 0V1.1099H7.5942V.4932h4.1363v.6167h-1.7254v4.6248h-.6854zm3.4745 0V.5051h3.7818v.6166h-3.0846v1.6009h2.8955v.6167h-2.8955V5.118h3.2027v.6167h-3.8999zm5.7199-2.9291h1.4891c.4609 0 .7918-.083.9927-.2371.2009-.1661.2955-.3795.2955-.6404 0-.5692-.3782-.8419-1.1228-.8419h-1.6545v1.7194zm-.6854 2.9291V.5051h2.3045c.4373 0 .7445.0356.9336.0949.1891.0593.3427.1423.4609.249.13.1067.2364.249.3191.4387.0946.1898.1418.4032.1418.6523 0 .8182-.4845 1.2925-1.4654 1.4348.2127.0949.39.2253.5554.3914.1655.166.3073.3557.4373.5573l.91 1.423h-.8745l-.6973-1.0791c-.1655-.2727-.3191-.4862-.4373-.6403-.1182-.1661-.2363-.2847-.3545-.3795-.1182-.0949-.2246-.1542-.3191-.1779-.0946-.0237-.2364-.0356-.4255-.0356h-.7918v2.3006h-.6972zm5.5663 0V.5051h.7091L26.8458 4.62V.5051h.6737v5.2296h-.7091l-2.7536-4.1149v4.1149h-.6618zm6.5117-2.1464h1.7964l-.5555-1.4467c-.1891-.4862-.3073-.842-.3782-1.0792-.0709.3321-.1654.6641-.2836.9961l-.5791 1.5298zm-1.5009 2.1464L30.4149.5051h.7564l2.139 5.2296h-.7918l-.6027-1.5891h-2.1982l-.5672 1.5891h-.7446zm6.7718 0V1.1099h-1.7255V.4932h4.1364v.6167H35.863v4.6248h-.6854zm3.5808 0V.5051h.6973v5.2296h-.6973zm2.73-2.5377c0 .415.0827.7826.2364 1.0791.1536.3083.3663.5455.6263.7115.26.166.5673.249.9337.249.5554 0 1.0045-.1897 1.3118-.5811.3191-.3913.4727-.9012.4727-1.5297 0-.4388-.0709-.8064-.2246-1.1265-.1536-.3202-.3545-.5693-.6145-.7353-.26-.166-.5673-.249-.9336-.249-.2955 0-.5437.0474-.7682.1423-.2245.0949-.4136.2372-.5673.4388-.1536.1897-.2718.4269-.3427.6878-.0945.249-.13.5573-.13.9131zm-.7091-.0119c0-.5218.0946-.9961.2719-1.4112.189-.415.4727-.747.839-.9961.3782-.249.8391-.3794 1.3827-.3794.3664 0 .6973.0711 1.0046.2016.3072.1304.5672.3083.7918.5454.2245.2372.39.5218.5082.8657.1181.3439.1772.7115.1772 1.1147 0 .5574-.1063 1.0436-.3072 1.4349-.2009.3913-.4964.6996-.8982.9249-.4018.2253-.8273.3321-1.3.3321-.4845 0-.9218-.1186-1.3-.3439-.39-.2372-.6854-.5574-.8863-.9606-.1891-.415-.2837-.8538-.2837-1.3281zm6.2045 2.5496V.5051h.7091L50.4347 4.62V.5051h.6736v5.2296h-.7091l-2.7536-4.1149v4.1149h-.6618zm6.5118-2.1464h1.7963l-.5554-1.4467c-.1891-.4862-.3073-.842-.3782-1.0792-.0709.3321-.1655.6641-.2837.9961l-.579 1.5298zm-1.5009 2.1464l2.009-5.2296h.7564l2.1391 5.2296h-.7919l-.6027-1.5891h-2.1981l-.5673 1.5891h-.7445zm5.7435 0V.5051h.6973V5.118H61v.6167h-3.2618zm-57.5539 0V.5051h.6973v5.2296H.1843zM6.897 9.4345h1.489c.4609 0 .7918-.083.9928-.2372.2009-.166.2954-.3794.2954-.6403 0-.5692-.3782-.842-1.1227-.842H6.897v1.7195zm-.6855 2.929V7.134H8.516c.4373 0 .7446.0355.9337.0948.1891.0593.3427.1423.4609.2491.13.1067.2363.249.3191.4387.0945.1898.1418.4032.1418.6522 0 .8183-.4846 1.2926-1.4655 1.4349.2128.0949.39.2253.5555.3913.1654.166.3073.3558.4372.5574l.91 1.423h-.8745l-.6973-1.0791c-.1654-.2728-.319-.4862-.4372-.6404-.1182-.166-.2364-.2846-.3546-.3795-.1182-.0948-.2245-.1541-.3191-.1778-.0945-.0237-.2363-.0356-.4254-.0356h-.7918v2.3242h-.6973v-.0237zm5.909-2.5495c0 .415.0828.7826.2364 1.0791.1536.3083.3664.5455.6264.7115.26.166.5672.249.9336.249.5554 0 1.0045-.1897 1.3118-.581.3191-.3914.4727-.9013.4727-1.5298 0-.4387-.0709-.8064-.2245-1.1265-.1537-.3202-.3546-.5692-.6146-.7353-.26-.166-.5672-.249-.9336-.249-.2954 0-.5436.0474-.7682.1423-.2245.0949-.4136.2372-.5672.4388-.1537.1897-.2718.4269-.3428.6878-.0945.2609-.13.5692-.13.9131zm-.709-.0119c0-.5218.0945-.9961.2718-1.4111.1891-.4151.4727-.7471.8391-.9962.3781-.249.839-.3794 1.3827-.3794.3663 0 .6972.0711 1.0045.2016.3073.1304.5673.3083.7918.5455.2246.2371.39.5217.5082.8656.1182.3439.1773.7115.1773 1.1147 0 .5574-.1064 1.0436-.3073 1.4349-.2009.3913-.4964.6996-.8982.9249-.4018.2254-.8272.3321-1.3.3321-.4845 0-.9218-.1186-1.3-.3439-.3899-.2372-.6854-.5574-.8863-.9605-.1891-.4032-.2836-.8539-.2836-1.3282zm9.4662-2.68h.6973v3.0239c0 .5099-.0473.8894-.1418 1.1621-.0946.2609-.2246.4744-.4018.6404-.1655.166-.3782.2846-.6264.3676-.2482.083-.5436.1186-.8627.1186-.6736 0-1.1936-.166-1.5364-.4981-.3427-.332-.52-.9249-.52-1.8025V7.1102h.6973v3.0121c0 .415.0355.7115.0946.9012.059.1779.1418.3321.2481.4388.1064.1067.2482.1897.4018.249.1655.0593.3428.083.5673.083.3073 0 .5555-.0474.7564-.1304.2009-.083.3663-.2372.4727-.4625.1182-.2135.1654-.5811.1654-1.091V7.1221h-.0118zm2.6945 2.4903h1.3591c.8273 0 1.2409-.3202 1.2409-.9487 0-.1542-.0236-.2846-.0591-.4032-.0354-.1067-.1063-.2134-.1891-.2846-.0827-.083-.1891-.1423-.3072-.1779-.1182-.0355-.3546-.0593-.6973-.0593h-1.3473v1.8737zm-.6972 2.7511V7.134h1.9736c.2954 0 .5436.0118.7682.0474.2245.0356.4254.1067.6145.2134.1891.1186.3427.2846.4609.51.1182.2134.1773.4624.1773.747 0 1.0554-.65 1.5891-1.9618 1.5891h-1.3355v2.1345h-.6972v-.0119zM2.7961 10.312v-.6166h2.21v1.9448c-.6855.5455-1.3946.8182-2.1627.8182-.4137 0-.7918-.0593-1.1109-.1779-.3191-.1186-.6027-.2964-.8273-.5336-.2245-.2372-.4018-.5218-.5318-.8657-.13-.3439-.1891-.7115-.1891-1.1028 0-.7945.2246-1.4467.6736-1.9567.4491-.5099 1.0991-.7707 1.9382-.7707 1.1818 0 1.8909.5217 2.1391 1.5534l-.6264.166c-.2127-.7589-.7209-1.1265-1.5127-1.1265-.6027 0-1.0754.1779-1.4063.5455-.331.3676-.4964.8775-.4964 1.5416 0 .7352.1891 1.2807.5554 1.6008.3664.3321.8273.4981 1.3473.4981.6027 0 1.1109-.1779 1.5245-.5336v-.9724H2.7961v-.0119z" fill="#000" fill-rule="evenodd"/>
</svg>
