<svg width="19" height="14" viewBox="0 0 19 14" xmlns="http://www.w3.org/2000/svg">
  <path d="M16.4511 0H2.21557C.993915 0 0 .942524 0 2.10101V11.899C0 13.0575.993915 14 2.21557 14H16.4511c1.2217 0 2.2156-.9425 2.2156-2.101V2.10101C18.6667.942524 17.6728 0 16.4511 0zm0 12.1451H2.21557c-.17957 0-.33707-.115-.33707-.2461V3.39664l6.43837 5.36745c.132.11008.29985.17067.47268.17067l1.08737.00005c.17278 0 .34068-.06064.47268-.17072l6.4387-5.36764v8.50265c-.0001.131-.1576.246-.3372.246zM9.33336 7.09303L3.07124 1.85485H15.5955L9.33336 7.09303z"/>
</svg>
