<svg width="16" height="16" viewBox="0 0 16 16" fill="none" xmlns="http://www.w3.org/2000/svg">
<path d="M5 13H3V11H5V13ZM5 9H3V7H5V9ZM5 5H3V3H5V5ZM13 13H6V11H13V13ZM13 9H6V7H13V9ZM13 5H6V3H13V5Z" fill="#7A1B1B"/>
<path d="M13.4118 1.17288C13.7467 1.17288 14.0664 1.29017 14.305 1.5067C14.5486 1.72324 14.6805 2.00292 14.6805 2.30065V13.6993C14.6805 13.9971 14.5486 14.2813 14.305 14.4933C14.0614 14.7098 13.7467 14.8271 13.4118 14.8271H2.58824C2.25329 14.8271 1.93356 14.7098 1.69504 14.4933C1.45144 14.2768 1.31949 13.9971 1.31949 13.6993V2.30065C1.31949 2.00292 1.45144 1.71872 1.69504 1.5067C1.93864 1.29017 2.25329 1.17288 2.58824 1.17288H13.4118ZM13.4118 0H2.58824C1.16724 0 0 1.03755 0 2.30065V13.6993C0 14.9625 1.16724 16 2.58824 16H13.4118C14.8328 16 16 14.9625 16 13.6993V2.30065C16 1.03755 14.8328 0 13.4118 0Z" fill="#7A1B1B"/>
</svg>
