<svg width="23" height="23" viewBox="0 0 23 23" fill="none" xmlns="http://www.w3.org/2000/svg">
<path d="M17.6647 14.4974C17.2124 14.0284 16.6669 13.7777 16.0888 13.7777C15.5153 13.7777 14.9651 14.0237 14.4942 14.4927L13.0209 15.9553C12.8996 15.8903 12.7784 15.83 12.6619 15.7696C12.494 15.686 12.3355 15.6071 12.2003 15.5235C10.8202 14.6506 9.56599 13.513 8.36308 12.0411C7.78028 11.3074 7.38863 10.6899 7.10422 10.063C7.48654 9.71481 7.84089 9.35263 8.18591 9.00439C8.31646 8.87438 8.44701 8.73972 8.57756 8.60971C9.55667 7.63463 9.55667 6.37166 8.57756 5.39658L7.30471 4.12897C7.16017 3.98503 7.01098 3.83645 6.8711 3.68787C6.59136 3.39998 6.29762 3.10281 5.99456 2.82422C5.54231 2.37847 5.00146 2.14166 4.43264 2.14166C3.86383 2.14166 3.31366 2.37847 2.84741 2.82422C2.84275 2.82886 2.84275 2.82886 2.83809 2.83351L1.25286 4.42614C0.656066 5.02048 0.315708 5.74483 0.241109 6.58525C0.12921 7.94108 0.530181 9.20405 0.837902 10.0305C1.59322 12.0596 2.72153 13.9402 4.40467 15.9553C6.44682 18.3838 8.90393 20.3014 11.7107 21.6526C12.7831 22.1587 14.2144 22.7577 15.8137 22.8599C15.9116 22.8645 16.0142 22.8691 16.1074 22.8691C17.1844 22.8691 18.0889 22.4838 18.7976 21.7176C18.8023 21.7083 18.8116 21.7037 18.8163 21.6944C19.0587 21.4019 19.3385 21.1372 19.6322 20.854C19.8327 20.6636 20.0378 20.4639 20.2383 20.255C20.6999 19.7767 20.9424 19.2195 20.9424 18.6484C20.9424 18.0727 20.6952 17.5201 20.2243 17.0558L17.6647 14.4974ZM19.3338 19.3867C19.3291 19.3913 19.3291 19.3867 19.3338 19.3867C19.152 19.5817 18.9655 19.7582 18.765 19.9532C18.4619 20.2411 18.1542 20.5429 17.8651 20.8818C17.3942 21.3833 16.8394 21.6201 16.1121 21.6201C16.0421 21.6201 15.9675 21.6201 15.8976 21.6155C14.5128 21.5272 13.226 20.9886 12.2609 20.5289C9.62194 19.2567 7.30471 17.4505 5.37912 15.1613C3.78923 13.253 2.72619 11.4885 2.02216 9.59408C1.58855 8.43791 1.43003 7.53712 1.49997 6.68741C1.54659 6.14415 1.7564 5.69375 2.14339 5.30836L3.73328 3.72501C3.96174 3.51142 4.20419 3.39534 4.44197 3.39534C4.7357 3.39534 4.97349 3.57178 5.12269 3.72037C5.12735 3.72501 5.13201 3.72965 5.13667 3.7343C5.42108 3.99896 5.6915 4.27292 5.97591 4.56544C6.12045 4.71402 6.26965 4.86261 6.41885 5.01584L7.69169 6.28344C8.18591 6.77563 8.18591 7.23067 7.69169 7.72285C7.55648 7.85751 7.42593 7.99216 7.29072 8.12217C6.89908 8.52149 6.52608 8.89295 6.12045 9.25512C6.11112 9.26441 6.1018 9.26905 6.09714 9.27834C5.69617 9.67766 5.77077 10.0677 5.85469 10.3324C5.85935 10.3463 5.86401 10.3602 5.86868 10.3741C6.19971 11.1728 6.66595 11.925 7.37465 12.8211L7.37931 12.8258C8.66614 14.4045 10.0229 15.635 11.5196 16.5775C11.7107 16.6983 11.9065 16.7958 12.093 16.8886C12.2609 16.9722 12.4194 17.0511 12.5546 17.1347C12.5733 17.144 12.5919 17.1579 12.6106 17.1672C12.7691 17.2462 12.9183 17.2833 13.0722 17.2833C13.4591 17.2833 13.7016 17.0419 13.7808 16.9629L15.3754 15.3749C15.5339 15.2171 15.7857 15.0267 16.0794 15.0267C16.3685 15.0267 16.6063 15.2078 16.7508 15.3656C16.7555 15.3703 16.7555 15.3703 16.7601 15.3749L19.3291 17.9334C19.8094 18.407 19.8094 18.8945 19.3338 19.3867Z"/>
<path d="M12.1443 6.10236C13.3659 6.30666 14.4755 6.88242 15.3614 7.76464C16.2473 8.64686 16.8208 9.75195 17.0306 10.9685C17.0819 11.2749 17.3476 11.4885 17.6507 11.4885C17.688 11.4885 17.7206 11.4839 17.7579 11.4792C18.1029 11.4235 18.3314 11.0985 18.2754 10.7549C18.0237 9.28298 17.3243 7.94108 16.2566 6.87778C15.1889 5.81447 13.8415 5.11799 12.3635 4.86725C12.0184 4.81153 11.6967 5.03905 11.6361 5.37801C11.5755 5.71697 11.7993 6.04664 12.1443 6.10236Z"/>
<path d="M22.2711 10.5738C21.8562 8.15003 20.7092 5.94449 18.9468 4.18934C17.1844 2.43419 14.9698 1.29195 12.536 0.878697C12.1956 0.818335 11.8739 1.0505 11.8133 1.38945C11.7573 1.73306 11.9858 2.05344 12.3308 2.1138C14.5035 2.48062 16.4851 3.50678 18.061 5.07155C19.6369 6.64097 20.6626 8.61436 21.0309 10.7781C21.0822 11.0846 21.348 11.2982 21.651 11.2982C21.6883 11.2982 21.721 11.2935 21.7583 11.2889C22.0986 11.2378 22.3318 10.9128 22.2711 10.5738Z"/>
</svg>
