<svg width="17" height="17" viewBox="0 0 17 17" fill="none" xmlns="http://www.w3.org/2000/svg">
<path d="M12.8855 10.0493C12.4133 11.3785 11.3779 12.4104 10.0522 12.8826C9.89831 12.9351 9.79688 13.082 9.79688 13.2464V16.9997H10.5664V13.5123C11.8921 12.9596 12.966 11.8892 13.5152 10.5635H16.9991V9.79395H13.2493C13.0849 9.79395 12.938 9.89888 12.8855 10.0493Z" fill="#7A1B1B"/>
<path d="M4.11358 6.95041C4.5858 5.62119 5.62119 4.5893 6.94691 4.11708C7.10082 4.06461 7.20576 3.9177 7.20226 3.75329V0H6.43272V3.48745C5.107 4.04012 4.03313 5.11049 3.48395 6.43621H0V7.20576H3.74979C3.9142 7.20576 4.06111 7.10082 4.11358 6.95041Z" fill="#7A1B1B"/>
<path d="M13.5132 6.43621C12.9606 5.11049 11.8902 4.03663 10.5645 3.48745V0H9.79492V3.74979C9.79492 3.9142 9.89636 4.05761 10.0503 4.11358C11.3795 4.5858 12.4114 5.62119 12.8836 6.94691C12.9361 7.10082 13.083 7.20226 13.2474 7.20226H17.0007V6.43272H13.5132V6.43621Z" fill="#7A1B1B"/>
<path d="M6.95041 12.8865C5.62119 12.4143 4.5893 11.3789 4.11708 10.0532C4.06461 9.89929 3.9177 9.79785 3.75329 9.79785H0V10.5674H3.48745C4.04012 11.8931 5.11049 12.967 6.43621 13.5162V17.0001H7.20576V13.2503C7.20576 13.0859 7.10432 12.939 6.95041 12.8865Z" fill="#7A1B1B"/>
<path d="M4.83156 7.7581C4.73361 8.24081 4.73012 8.73053 4.82456 9.21674L4.89102 9.41612L5.23382 9.24822L5.60111 9.20275L5.57662 9.03135L5.57313 9.02086C5.50667 8.65357 5.51366 8.27929 5.58712 7.91551L5.60811 7.81407L4.85254 7.66016L4.83156 7.7581Z" fill="#7A1B1B"/>
<path d="M6.03398 6.84233C6.25085 6.51702 6.52719 6.24068 6.856 6.02381L6.94345 5.96434L6.5167 5.32422L6.42925 5.38368C6.01999 5.65652 5.67019 6.00282 5.39736 6.41208L5.33789 6.49953L5.97452 6.92977L6.03398 6.84233Z" fill="#7A1B1B"/>
<path d="M6.40817 11.6027L6.49562 11.6622L6.92587 11.0256L6.83842 10.9661C6.51311 10.7457 6.23677 10.4694 6.0199 10.1441L5.96044 10.0566L5.32031 10.4834L5.37978 10.5708C5.65262 10.9801 5.99891 11.3264 6.40817 11.6027Z" fill="#7A1B1B"/>
<path d="M10.5841 5.39345L10.4967 5.33398L10.0664 5.97411L10.1539 6.03357C10.4792 6.25045 10.7555 6.52678 10.9724 6.85559L11.0318 6.94304L11.672 6.51629L11.6125 6.42884C11.3432 6.01608 10.9934 5.66979 10.5841 5.39345Z" fill="#7A1B1B"/>
<path d="M9.06707 11.421C8.68229 11.4944 8.29052 11.4944 7.90574 11.4175L7.8043 11.3965L7.65039 12.152L7.75183 12.173C7.99669 12.222 8.24505 12.2465 8.4969 12.2465C8.73826 12.2465 8.97962 12.222 9.21748 12.1765L9.33292 12.152L9.16152 11.4035L9.06707 11.421Z" fill="#7A1B1B"/>
<path d="M12.1691 9.23822C12.2181 8.99687 12.2426 8.74851 12.2426 8.50366C12.2426 8.2623 12.2181 8.02094 12.1726 7.78308L12.1516 7.68164L11.3961 7.83205L11.4171 7.93349C11.452 8.11888 11.473 8.31127 11.473 8.50366C11.473 8.69954 11.452 8.89543 11.4136 9.08431L11.3926 9.18575L12.1481 9.33966L12.1691 9.23822Z" fill="#7A1B1B"/>
<path d="M10.9704 10.1548C10.7535 10.4801 10.4772 10.7565 10.1519 10.9734L10.0645 11.0328L10.4912 11.6729L10.5787 11.6135C10.9914 11.3406 11.3377 10.9943 11.6105 10.5816L11.67 10.4941L11.0299 10.0674L10.9704 10.1548Z" fill="#7A1B1B"/>
<path d="M7.933 5.57971C8.31777 5.50625 8.70604 5.50625 9.08732 5.58321L9.18876 5.60419L9.34267 4.84864L9.24123 4.82765C8.76201 4.72971 8.27579 4.72621 7.79658 4.82065L7.66016 4.84514L7.83505 5.5937L7.933 5.57971Z" fill="#7A1B1B"/>
<path d="M8.49933 6.43652C7.3625 6.43652 6.43555 7.36348 6.43555 8.50031C6.43555 9.63714 7.3625 10.5641 8.49933 10.5641C9.63616 10.5641 10.5631 9.63714 10.5631 8.50031C10.5631 7.36348 9.63616 6.43652 8.49933 6.43652ZM8.49933 9.79455C7.78575 9.79455 7.20509 9.21389 7.20509 8.50031C7.20509 7.78673 7.78575 7.20607 8.49933 7.20607C9.21291 7.20607 9.79357 7.78673 9.79357 8.50031C9.79357 9.21389 9.21291 9.79455 8.49933 9.79455Z" fill="#7A1B1B"/>
<path d="M8.88478 0H8.11523V1.32922H8.88478V0Z" fill="#7A1B1B"/>
<path d="M8.88478 2.23828H8.11523V3.5675H8.88478V2.23828Z" fill="#7A1B1B"/>
<path d="M8.88478 13.4316H8.11523V14.7609H8.88478V13.4316Z" fill="#7A1B1B"/>
<path d="M8.88478 15.6709H8.11523V17.0001H8.88478V15.6709Z" fill="#7A1B1B"/>
<path d="M1.32922 8.11523H0V8.88478H1.32922V8.11523Z" fill="#7A1B1B"/>
<path d="M3.5675 8.11523H2.23828V8.88478H3.5675V8.11523Z" fill="#7A1B1B"/>
<path d="M14.7609 8.11523H13.4316V8.88478H14.7609V8.11523Z" fill="#7A1B1B"/>
<path d="M16.9991 8.11523H15.6699V8.88478H16.9991V8.11523Z" fill="#7A1B1B"/>
</svg>
