<svg width="14" height="14" viewBox="0 0 14 14" fill="none" xmlns="http://www.w3.org/2000/svg">
<path d="M0 14H10.2042V13.3434H6.13102V8.69092H6.21593C6.41973 8.69092 6.52163 8.68809 6.75374 8.68243V8.02304H4.21189V8.66828H5.39224V13.3123H0.69632V8.65413H0.781237C1.20582 8.65413 1.44359 8.6513 1.63324 8.6513C1.71816 8.6513 1.79175 8.6513 1.86252 8.64847C1.86252 8.55791 1.86535 8.4532 1.86535 8.33717C1.86818 8.22963 1.86818 8.11077 1.87101 7.98908H0.682167V6.24298H1.83987V5.58076H0.704812V0.68486H7.83502V5.6034H4.20906V6.20336H11.3138V5.56944H8.54549V0.70184H13.3207V8.00606H8.77194V11.4728H9.42297V8.68526H13.3263V13.3151L13.3008 13.318L13.2471 13.3208C13.0461 13.335 12.9017 13.3378 12.7206 13.3378H12.5451V14H14V0H0V14Z" fill="#7A1B1B"/>
</svg>
