<svg width="16" height="15" viewBox="0 0 16 15" fill="none" xmlns="http://www.w3.org/2000/svg">
<g clip-path="url(#clip0)">
<path d="M13.3837 3.0374C13.3837 2.25634 12.7058 1.62085 11.8728 1.62085C11.0397 1.62085 10.3618 2.25634 10.3618 3.0374C10.3618 3.81846 11.0397 4.45395 11.8728 4.45395C12.7058 4.45395 13.3837 3.81846 13.3837 3.0374V3.0374ZM11.8728 3.57504C11.5565 3.57504 11.2993 3.33392 11.2993 3.0374C11.2993 2.74123 11.5565 2.49976 11.8728 2.49976C12.189 2.49976 12.4462 2.74123 12.4462 3.0374C12.4462 3.33392 12.189 3.57504 11.8728 3.57504Z" fill="#7A1B1B"/>
<path d="M13.2397 10.1305H2.74963C2.16406 10.1305 1.6875 9.68376 1.6875 9.13445C1.6875 8.58547 2.16406 8.13869 2.74963 8.13869H11.8844L14.085 5.34576C14.6266 4.65351 15.1125 3.95599 15.1125 3.03749C15.1125 1.36848 13.6691 0.00961304 11.8912 0H11.8718C10.0856 0 8.6322 1.36265 8.6322 3.03749C8.6322 3.95599 9.11841 4.65351 9.66003 5.34576L11.1569 7.25979H2.74963C1.64685 7.25979 0.75 8.10059 0.75 9.13445C0.75 10.1683 1.64685 11.0094 2.74963 11.0094H13.2397C13.8387 11.0094 14.3259 11.4662 14.3259 12.0275C14.3259 12.5892 13.8387 13.0459 13.2397 13.0459H3.91187C3.71057 12.4242 3.09338 11.9707 2.3656 11.9707C1.47473 11.9707 0.75 12.6501 0.75 13.4854C0.75 14.3206 1.47473 15 2.3656 15C3.09338 15 3.71057 14.5465 3.91187 13.9248H13.2397C14.3556 13.9248 15.2634 13.0737 15.2634 12.0275C15.2634 10.9816 14.3556 10.1305 13.2397 10.1305V10.1305ZM10.4159 4.82609C9.95312 4.23431 9.5697 3.69106 9.5697 3.03749C9.5697 1.85097 10.5959 0.885086 11.86 0.878906H11.8726C13.1422 0.878906 14.175 1.84742 14.175 3.03749C14.175 3.69106 13.7919 4.23431 13.3287 4.82609C13.3287 4.82609 11.9644 6.57211 11.8972 6.65943C11.8894 6.66973 11.8816 6.67969 11.8738 6.68999L10.4159 4.82609ZM2.3656 14.1211C1.99158 14.1211 1.6875 13.836 1.6875 13.4854C1.6875 13.1346 1.99158 12.8497 2.3656 12.8497C2.73938 12.8497 3.0437 13.1346 3.0437 13.4854C3.0437 13.836 2.73938 14.1211 2.3656 14.1211Z" fill="#7A1B1B"/>
</g>
<defs>
<clipPath id="clip0">
<rect width="16" height="15" fill="white"/>
</clipPath>
</defs>
</svg>
