<svg width="17" height="14" viewBox="0 0 17 14" fill="none" xmlns="http://www.w3.org/2000/svg">
<path d="M5.79785 6.83677C7.20644 6.83677 8.35518 5.92089 8.35518 4.79882C8.35518 3.67663 7.20985 2.76074 5.79785 2.76074C4.38585 2.76074 3.24052 3.67663 3.24052 4.79882C3.24052 5.92089 4.38927 6.83677 5.79785 6.83677ZM5.79785 3.48464C6.82344 3.48464 7.67137 4.08564 7.67137 4.79869C7.67137 5.51188 6.8132 6.11274 5.79785 6.11274C4.78238 6.11274 3.92421 5.51188 3.92421 4.79869C3.92421 4.08564 4.78238 3.48103 5.79785 3.48103V3.48464Z" fill="#7A1B1B"/>
<path d="M16.6391 8.56351H11.5929V4.79501C11.5929 2.319 8.99115 0.302734 5.78087 0.302734C2.57046 0.302734 -0.03125 2.319 -0.03125 4.79501V9.24764C-0.03125 11.5282 2.17393 13.4106 5.015 13.6965H5.07316C5.30898 13.7184 5.54834 13.7364 5.79111 13.7364H16.6391C16.8279 13.7364 16.981 13.5743 16.981 13.3744V8.92539C16.981 8.72567 16.8279 8.56351 16.6391 8.56351ZM5.79794 1.03025C8.6184 1.03025 10.9263 2.72078 10.9263 4.79875C10.9263 6.8766 8.63218 8.56712 5.79794 8.56712C2.9637 8.56712 0.669628 6.8766 0.669628 4.79862C0.669628 2.72078 2.98077 1.03025 5.79794 1.03025ZM10.9263 6.90913V8.56351H8.94323C9.71727 8.19207 10.3925 7.62374 10.9091 6.90913H10.9263ZM16.2972 13.0124H15.6134V11.1806C15.6134 10.9809 15.4603 10.8186 15.2716 10.8186C15.0829 10.8186 14.9297 10.9808 14.9297 11.1806V13.016H13.5621V12.0205C13.5621 11.8206 13.409 11.6585 13.2202 11.6585C13.0314 11.6585 12.8783 11.8206 12.8783 12.0205V13.016H11.5108V12.0205C11.5108 11.8206 11.3577 11.6585 11.1689 11.6585C10.9801 11.6585 10.827 11.8206 10.827 12.0205V13.016H9.45938V11.1806C9.45938 10.9809 9.30623 10.8186 9.11748 10.8186C8.92885 10.8186 8.77557 10.9808 8.77557 11.1806V13.016H7.46624V12.0205C7.46624 11.8206 7.31297 11.6585 7.12434 11.6585C6.93559 11.6585 6.78244 11.8206 6.78244 12.0205V13.016H5.7977C5.66784 13.016 5.54139 13.016 5.41482 13.016V12.0205C5.41482 11.8206 5.26167 11.6585 5.07292 11.6585C4.88416 11.6585 4.73101 11.8206 4.73101 12.0205V12.9291C2.42353 12.5671 0.686699 11.054 0.686699 9.24403V6.90913C1.66449 8.32453 3.58934 9.28741 5.81501 9.28741H16.2972V13.0124Z" fill="#7A1B1B"/>
</svg>
