<svg width="15" height="17" viewBox="0 0 15 17" fill="none" xmlns="http://www.w3.org/2000/svg">
<path d="M14.9397 16.8742L14.9431 16.8708C14.9766 16.8198 14.9967 16.762 15 16.7008C15 16.6668 14.9967 16.6328 14.9833 16.5954C14.7054 15.7012 13.2556 11.0194 13.2455 10.9786L13.2221 10.9038L13.2556 10.8324C13.567 10.1422 13.7545 9.4112 13.8114 8.6564L13.8248 8.4694H14.1864C14.3538 8.4694 14.4877 8.3334 14.4877 8.1634C14.4877 7.9934 14.3538 7.8574 14.1864 7.8574H13.8248L13.8114 7.6704C13.6473 5.4808 12.3482 3.4884 10.423 2.465L10.3158 2.4072V0.612H10.5837C10.7511 0.612 10.885 0.476 10.885 0.306C10.885 0.136 10.7511 0 10.5837 0H4.41964C4.25223 0 4.1183 0.136 4.1183 0.306C4.1183 0.476 4.25223 0.612 4.41964 0.612H4.6875V2.4038L4.58036 2.4616C2.65513 3.485 1.35603 5.4774 1.19196 7.667L1.17857 7.854H0.813616C0.646205 7.854 0.512277 7.99 0.512277 8.16C0.512277 8.33 0.646205 8.466 0.813616 8.466H1.17522L1.18862 8.653C1.24554 9.4078 1.43304 10.1422 1.74442 10.829L1.7779 10.9004L1.56362 11.5906C0.0167411 16.5954 0.0133929 16.5988 0.0133929 16.5988C0 16.643 -0.00334821 16.694 0.00334821 16.7416C0.00334821 16.7484 0.00669643 16.7552 0.00669643 16.762C0.0200893 16.8164 0.0435268 16.864 0.0803571 16.9048C0.160714 16.9932 0.294643 17.0238 0.408482 16.9796C0.435268 16.9694 0.462054 16.9524 0.485491 16.9354L4.46987 13.8006L4.58371 13.8618C5.34375 14.263 6.16071 14.501 7.01451 14.569L7.19866 14.5826V16.694C7.19866 16.864 7.33259 17 7.5 17C7.66741 17 7.80134 16.864 7.80134 16.694V14.5826L7.98549 14.569C8.83929 14.5044 9.65625 14.2664 10.4163 13.8618L10.5301 13.8006L14.5112 16.932C14.6049 17.0068 14.7489 17.017 14.8527 16.9558C14.8862 16.9354 14.9163 16.9082 14.9397 16.8742ZM5.29018 0.612H9.70982V2.1318L9.44531 2.0468C8.8192 1.8394 8.16295 1.734 7.5 1.734C6.83705 1.734 6.1808 1.8394 5.55469 2.0468L5.29018 2.1318V0.612ZM1.79799 7.633C1.92522 6.1948 2.57812 4.862 3.62946 3.8794C4.6875 2.89 6.06362 2.346 7.5 2.346C8.93638 2.346 10.3092 2.89 11.3705 3.8794C12.4219 4.862 13.0748 6.1948 13.202 7.633L13.2221 7.854H1.7779L1.79799 7.633ZM0.877232 15.8542L1.06808 15.232C1.20871 14.7798 2.03571 12.104 2.0558 12.0326L2.17299 11.6518L2.40737 11.9748C2.77567 12.478 3.21094 12.9234 3.70312 13.3008L3.91406 13.4606L0.877232 15.8542ZM4.42299 13.0628L4.30246 12.9812C3.72321 12.5834 3.22433 12.087 2.82254 11.509L2.59821 11.186H6.81027L4.42299 13.0628ZM7.19866 13.9706L6.98103 13.9502C6.40513 13.8958 5.83929 13.7564 5.30692 13.5286L4.98884 13.3926L7.20201 11.6518V13.9706H7.19866ZM2.29018 10.574L2.23661 10.4516C1.99888 9.8906 1.85156 9.299 1.79799 8.6904L1.7779 8.4694H13.2221L13.202 8.6904C13.1484 9.299 13.0011 9.8906 12.7634 10.4516L12.7098 10.574H2.29018ZM9.69308 13.5286C9.16071 13.753 8.59487 13.8958 8.01897 13.9502L7.80134 13.9706V11.6552L10.0145 13.396L9.69308 13.5286ZM10.577 13.0628L8.18973 11.186H12.4018L12.1775 11.509C11.7723 12.0904 11.2768 12.5834 10.6975 12.9812L10.577 13.0628ZM11.0826 13.4606L11.2935 13.3008C11.7857 12.9234 12.221 12.478 12.5893 11.9748L12.8237 11.6518L12.9408 12.0326C13.135 12.6616 13.8348 14.9294 13.9286 15.2286L14.1194 15.8508L11.0826 13.4606Z" fill="#7A1B1B"/>
</svg>
