<svg xmlns="http://www.w3.org/2000/svg" xmlns:xlink="http://www.w3.org/1999/xlink" x="0px" y="0px"
	 width="16px" height="16px" viewBox="0 0 16 16" enable-background="new 0 0 16 16" xml:space="preserve">
	<path d="M12.7,10.3c-0.9,0-1.7,0.4-2.3,1.1L6,8.9C6.1,8.6,6.2,8.3,6.2,8C6.2,7.7,6.1,7.3,6,7l4.4-2.5
			c0.5,0.7,1.3,1.1,2.3,1.1c1.6,0,2.9-1.3,2.9-2.9c0-1.6-1.3-2.9-2.9-2.9c-1.6,0-2.9,1.3-2.9,2.9c0,0.3,0.1,0.7,0.2,0.9L5.6,6.3
			C5.1,5.6,4.2,5.1,3.3,5.1C1.7,5.1,0.5,6.4,0.5,8c0,1.6,1.3,2.9,2.9,2.9c0.9,0,1.7-0.4,2.3-1.1l4.4,2.5c-0.1,0.3-0.2,0.6-0.2,1
			c0,1.6,1.3,2.9,2.9,2.9s2.9-1.3,2.9-2.9C15.5,11.6,14.3,10.3,12.7,10.3z M12.7,0.9c1.1,0,2,0.9,2,2c0,1.1-0.9,2-2,2
			c-1.1,0-2-0.9-2-2C10.7,1.8,11.6,0.9,12.7,0.9z M3.3,10c-1.1,0-2-0.9-2-2c0-1.1,0.9-2,2-2c1.1,0,2,0.9,2,2C5.3,9.1,4.4,10,3.3,10z
			 M12.7,15.1c-1.1,0-2-0.9-2-2c0-1.1,0.9-2,2-2c1.1,0,2,0.9,2,2C14.6,14.2,13.8,15.1,12.7,15.1z"/>
</svg>
