<svg width="9" height="15" viewBox="0 0 9 15" fill="none" xmlns="http://www.w3.org/2000/svg">
<path fill-rule="evenodd" clip-rule="evenodd" d="M7.89528 10.6349C8.03887 10.4856 8.03422 10.2482 7.88488 10.1047C7.73554 9.96114 7.49808 9.9658 7.35448 10.1151L4.5 13.0828L1.64552 10.1151C1.50192 9.9658 1.26446 9.96114 1.11512 10.1047C0.965784 10.2482 0.961128 10.4856 1.10472 10.6349C1.10472 10.6349 4.22674 13.8836 4.23889 13.8953C4.31194 13.9655 4.40608 14.0003 4.5 14C4.59392 14.0003 4.68806 13.9655 4.76111 13.8953C4.77326 13.8836 7.89528 10.6349 7.89528 10.6349Z" />
<path fill-rule="evenodd" clip-rule="evenodd" d="M1.10472 4.36508C0.961129 4.51437 0.965784 4.75176 1.11512 4.89531C1.26446 5.03886 1.50192 5.0342 1.64552 4.88492L4.5 1.9172L7.35448 4.88492C7.49808 5.0342 7.73554 5.03886 7.88488 4.89531C8.03422 4.75176 8.03887 4.51437 7.89528 4.36508C7.89528 4.36508 4.77326 1.11637 4.76111 1.10469C4.68806 1.03447 4.59392 0.999714 4.5 1C4.40608 0.999714 4.31194 1.03447 4.23889 1.10469C4.22674 1.11637 1.10472 4.36508 1.10472 4.36508Z" />
</svg>
