<svg width="40" height="24" viewBox="0 0 40 24" fill="none" xmlns="http://www.w3.org/2000/svg">
<path d="M22.4083 8.78553C23.1618 8.78553 23.7726 8.17469 23.7726 7.42119C23.7726 6.66768 23.1618 6.05685 22.4083 6.05685C21.6548 6.05685 21.0439 6.66768 21.0439 7.42119C21.0439 8.17469 21.6548 8.78553 22.4083 8.78553Z" fill="white"/>
<path d="M8.02067 23.3592C8.02067 23.3798 8.02067 23.3798 8.04134 23.3798C8.06202 23.4212 8.08269 23.4832 8.10336 23.5245C8.10336 23.5452 8.12403 23.5452 8.12403 23.5659C8.12403 23.5866 8.1447 23.5866 8.1447 23.6072L8.16537 23.6279C8.18605 23.6693 8.22739 23.6899 8.24806 23.7313L8.26873 23.7519C8.28941 23.7726 8.28941 23.7726 8.31008 23.7933C8.33075 23.7933 8.33075 23.814 8.33075 23.814C8.35142 23.8346 8.37209 23.8346 8.39277 23.8553L8.41344 23.876C8.41344 23.876 8.43411 23.876 8.43411 23.8966C8.45478 23.9173 8.49612 23.9173 8.5168 23.938C8.53747 23.938 8.53747 23.938 8.55814 23.9587C8.57881 23.9587 8.59948 23.9793 8.59948 23.9793C8.6615 24 8.72351 24 8.78553 24H31.1525C31.6279 24 32 23.6279 32 23.1525V0.847545C32 0.372093 31.6279 0 31.1525 0H8.84754C8.37209 0 8 0.372093 8 0.847545V23.1111C8 23.1731 8.02067 23.2558 8.02067 23.3178C8.02067 23.3385 8.02067 23.3592 8.02067 23.3592ZM30.3669 22.2842H11.6796L25.4884 13.2506L30.3669 17.9018V22.2842ZM9.69509 1.69509H30.3669V15.5659L26.1705 11.5556C25.8811 11.2868 25.447 11.2455 25.1163 11.4522L21.168 14.0568L18.4186 11.2868C18.1292 10.9974 17.6951 10.9561 17.3643 11.1628L9.69509 16V1.69509ZM9.69509 18.0052L17.6951 12.9612L19.7209 15.0078L9.69509 21.5607V18.0052Z" fill="white"/>
<path d="M34.4 0.8H36V23.2H34.4V0.8Z" fill="white"/>
<path d="M38.4 4H40V20H38.4V4Z" fill="white"/>
<path d="M5.6 0.8H4V23.2H5.6V0.8Z" fill="white"/>
<path d="M1.6 4H0V20H1.6V4Z" fill="white"/>
</svg>
