<svg width="17" height="17" viewBox="0 0 17 17" fill="none" xmlns="http://www.w3.org/2000/svg">
<g clip-path="url(#clip0)">
<path fill-rule="evenodd" clip-rule="evenodd" d="M16.3885 7.63244H14.2235C14.0694 7.63244 13.0849 7.54295 12.1265 7.11728C11.0132 6.62286 10.4486 5.9051 10.4486 4.98423C10.4486 3.41811 11.0994 2.9748 11.3793 2.8569C11.6752 2.73226 12.0007 2.77247 12.1897 2.9569C12.3446 3.108 12.3737 3.33355 12.2721 3.59243C12.2138 3.74106 12.1319 3.80565 12.0281 3.88762C11.8844 4.00098 11.6673 4.17231 11.6907 4.53158C11.7063 4.76777 11.8508 4.9653 12.0774 5.05998C12.4866 5.23105 13.0755 5.04792 13.6142 4.58191C14.0981 4.16337 14.3274 3.22382 14.1719 2.29725C14.0091 1.32839 13.4502 0.586377 12.6382 0.261609C10.828 -0.462116 9.06303 0.421658 8.117 1.61879C7.83282 1.97844 7.57874 2.32824 7.31727 2.71981C7.21558 2.8722 7.25657 3.0783 7.4091 3.17998C7.56136 3.28167 7.76746 3.24068 7.86914 3.08828C8.1205 2.71177 8.36472 2.37558 8.63761 2.03019C9.43085 1.02658 10.8994 0.281064 12.3919 0.877812C13.2021 1.20193 13.4448 1.97507 13.5174 2.4071C13.6425 3.15197 13.4396 3.85546 13.1801 4.0801C12.796 4.41239 12.4977 4.4727 12.3769 4.45908C12.3957 4.44287 12.4195 4.42406 12.4392 4.4085C12.5693 4.30578 12.766 4.15065 12.8898 3.83497C13.0893 3.32706 13.0008 2.82136 12.6531 2.48207C12.2697 2.10775 11.6686 2.01502 11.1216 2.24537C10.7198 2.41475 9.78493 3.02071 9.78493 4.98423C9.78493 6.17449 10.5015 7.12182 11.8571 7.72388C12.8213 8.15202 13.8859 8.29612 14.2235 8.29612H16.0567V9.80841C15.8234 10.4223 14.8541 10.8799 13.7698 10.8799C12.6595 10.8799 11.6692 10.4005 11.4664 9.76484C11.4225 9.62722 11.2946 9.53384 11.1503 9.53384C11.0058 9.53384 10.878 9.62735 10.8342 9.76484C10.6314 10.4005 9.6411 10.8799 8.53074 10.8799C7.42103 10.8799 6.43077 10.4004 6.22714 9.76445C6.18317 9.62709 6.05542 9.53384 5.91119 9.53384C5.91106 9.53384 5.91106 9.53384 5.91093 9.53384C5.76658 9.53397 5.63895 9.62735 5.59499 9.76484C5.39227 10.4005 4.4024 10.8799 3.29256 10.8799C2.18207 10.8799 1.19181 10.4005 0.98909 9.76484C0.982216 9.74331 0.973137 9.72307 0.962372 9.70401V8.28665C1.69933 8.2454 2.49244 8.07005 3.23043 7.78277C4.14144 7.42804 4.91679 6.92856 5.47307 6.33843C5.8099 5.98072 6.10185 5.64402 6.36566 5.30913C6.47902 5.16517 6.45425 4.95661 6.31028 4.84312C6.16631 4.72976 5.95776 4.75454 5.8444 4.8985C5.59278 5.21795 5.31328 5.54013 4.99007 5.88344C4.01939 6.91326 2.22668 7.63257 0.6306 7.63257C0.447334 7.63257 0.298828 7.78108 0.298828 7.96434V16.6682C0.298828 16.8515 0.447334 17 0.6306 17H16.3883C16.5716 17 16.7202 16.8515 16.7202 16.6682V7.96422C16.7202 7.78095 16.5717 7.63244 16.3885 7.63244ZM3.29256 11.5434C4.41251 11.5434 5.39499 11.1465 5.91145 10.5293C6.42844 11.1465 7.41104 11.5434 8.53074 11.5434C9.65108 11.5434 10.6337 11.1467 11.1503 10.5295C11.667 11.1467 12.6495 11.5434 13.7698 11.5434C14.6828 11.5434 15.5044 11.2797 16.0567 10.8478V12.9864C16.0459 13.0058 16.0368 13.0263 16.03 13.0479C15.8271 13.6836 14.8373 14.163 13.7274 14.163C12.6171 14.163 11.6268 13.6836 11.4241 13.0479C11.3801 12.9103 11.2524 12.8169 11.1079 12.8169C10.9635 12.8169 10.8356 12.9103 10.7918 13.0479C10.5889 13.6836 9.59869 14.163 8.48833 14.163C7.37875 14.163 6.38849 13.6835 6.18486 13.0475C6.14089 12.9102 6.01314 12.8169 5.86878 12.8169H5.86865C5.7243 12.8171 5.59654 12.9104 5.5527 13.0479C5.34985 13.6836 4.35999 14.163 3.25014 14.163C2.16599 14.163 1.19635 13.706 0.962502 13.0927V10.8138C1.51476 11.2659 2.35548 11.5434 3.29256 11.5434ZM0.962502 16.3363V14.1303C1.51489 14.5624 2.33654 14.8266 3.25014 14.8266C4.37023 14.8266 5.35258 14.4297 5.86904 13.8124C6.38602 14.4297 7.36863 14.8266 8.48833 14.8266C9.60867 14.8266 10.5913 14.4299 11.1079 13.8126C11.6246 14.4299 12.6071 14.8266 13.7274 14.8266C14.6642 14.8266 15.5046 14.5489 16.0567 14.0968V16.3363H0.962502Z" fill="#7A1B1B"/>
<path fill-rule="evenodd" clip-rule="evenodd" d="M6.87422 4.3539C7.05775 4.3539 7.20651 4.20527 7.20651 4.02161C7.20651 3.83913 7.05788 3.68945 6.87422 3.68945C6.69173 3.68945 6.54297 3.83913 6.54297 4.02161C6.54297 4.20527 6.69173 4.3539 6.87422 4.3539Z" fill="#7A1B1B"/>
</g>
<defs>
<clipPath id="clip0">
<rect width="17" height="17" fill="white"/>
</clipPath>
</defs>
</svg>
