<svg width="15" height="14" viewBox="0 0 15 14" fill="none" xmlns="http://www.w3.org/2000/svg">
<g clip-path="url(#clip0)">
<path d="M13.7823 1.81592C13.6424 1.69359 13.4558 1.62563 13.2568 1.62563H12.5478V0.714951C12.5478 0.320777 12.1808 0 11.7299 0H1.76011C1.3092 0 0.942248 0.320777 0.942248 0.714951V1.62291H0.279876C0.124389 1.62291 0 1.73165 0 1.86757C0 2.00349 0.124389 2.11223 0.279876 2.11223H0.942248V3.02019C0.942248 3.41437 1.3092 3.73515 1.76011 3.73515H2.05242V4.34408C2.05242 4.81437 2.48778 5.19495 3.02577 5.19495C3.16881 5.19495 3.30875 5.16777 3.43936 5.1134V6.0268C3.43936 6.49709 3.87472 6.87767 4.4127 6.87767C4.95069 6.87767 5.38605 6.49709 5.38605 6.0268V3.73515H6.22257C6.37805 3.73515 6.50244 3.62641 6.50244 3.49048C6.50244 3.35456 6.37805 3.24583 6.22257 3.24583H5.9769C6.0422 3.12621 6.07952 2.99573 6.07952 2.86252V1.91107C6.21635 1.96816 6.36562 1.99806 6.51799 1.99806C7.06841 1.99806 7.51621 1.6066 7.51621 1.12544V0.48932H11.733C11.8761 0.48932 11.9911 0.589903 11.9911 0.714951V3.02291C11.9911 3.14796 11.8761 3.24854 11.733 3.24854H7.31097C7.15549 3.24854 7.0311 3.35728 7.0311 3.4932C7.0311 3.62913 7.15549 3.73786 7.31097 3.73786H11.7299C12.1808 3.73786 12.5478 3.41709 12.5478 3.02291V2.11495H13.2568C13.3563 2.11495 13.4402 2.18563 13.4402 2.27534V4.35495C13.4402 4.51806 13.3159 4.66485 13.1386 4.71107L6.88494 6.33942C6.63927 6.40194 6.46824 6.60311 6.46824 6.82874V7.1468H5.47001C5.1155 7.1468 4.82941 7.39961 4.82941 7.7068V7.9868C4.82941 8.2532 5.04709 8.48155 5.3394 8.53592L4.91337 12.2738C4.86362 12.7142 5.02843 13.1573 5.3705 13.4862C5.70946 13.8151 6.19769 14.0027 6.70458 14.0027C7.21146 14.0027 7.69658 13.8151 8.03865 13.4862C8.37761 13.1573 8.54554 12.7169 8.49578 12.2765L8.3434 10.9499C8.33718 10.8847 8.29987 10.8276 8.24078 10.7841C8.1817 10.7433 8.11017 10.7243 8.03554 10.7297C7.96091 10.7351 7.8956 10.7678 7.84585 10.8194C7.7992 10.8711 7.77743 10.9336 7.78365 10.9988L7.93603 12.3254C7.97024 12.6299 7.85518 12.9344 7.62195 13.16C7.38872 13.3856 7.05287 13.5161 6.70458 13.5161C6.35629 13.5161 6.02044 13.3856 5.78721 13.16C5.55398 12.9344 5.43892 12.6299 5.47312 12.3254L5.90227 8.55223H7.50689L7.67792 10.0474C7.68414 10.1126 7.72146 10.1724 7.78054 10.2132C7.83963 10.254 7.91115 10.273 7.98578 10.2676C8.06042 10.2621 8.12572 10.2295 8.17548 10.1779C8.22212 10.1262 8.24389 10.0637 8.23767 9.99845L8.07286 8.54951C8.42737 8.54951 8.71346 8.2967 8.71346 7.98951V7.70951C8.71346 7.39961 8.42426 7.14951 8.07286 7.14951H7.0311V6.83146C7.0311 6.8233 7.03732 6.81515 7.04665 6.81243L13.3003 5.18408C13.7139 5.07534 14.0031 4.73825 14.0031 4.36039V2.27262C14 2.10136 13.9223 1.93825 13.7823 1.81592ZM4.8263 3.73786V6.02951C4.8263 6.22796 4.63972 6.39107 4.4127 6.39107C4.18569 6.39107 3.99911 6.22796 3.99911 6.02951V3.73786H4.8263ZM3.43936 3.73786V4.3468C3.43936 4.54524 3.25278 4.70835 3.02577 4.70835C2.79876 4.70835 2.61217 4.54524 2.61217 4.3468V3.73786H3.43936ZM1.502 0.714951C1.502 0.589903 1.61706 0.48932 1.76011 0.48932H6.95024V1.12816C6.95024 1.33748 6.75433 1.51146 6.51177 1.51146C6.27232 1.51146 6.0733 1.34019 6.0733 1.12816C6.0733 0.992233 5.94891 0.883495 5.79343 0.883495C5.63794 0.883495 5.51355 0.992233 5.51355 1.12816V2.86796C5.51355 3.07728 5.31764 3.25126 5.07508 3.25126H1.76011C1.61706 3.25126 1.502 3.15068 1.502 3.02563V0.714951ZM5.4669 7.6334H8.06664C8.11017 7.6334 8.14749 7.66602 8.14749 7.70408V7.98408C8.14749 8.02214 8.11017 8.05476 8.06664 8.05476H5.4669C5.42337 8.05476 5.38605 8.02214 5.38605 7.98408V7.70408C5.38605 7.66602 5.42337 7.6334 5.4669 7.6334Z" fill="#7A1B1B"/>
<path d="M6.70139 11.6299C6.24426 11.6299 5.87109 11.9561 5.87109 12.3557C5.87109 12.7553 6.24426 13.0815 6.70139 13.0815C7.15852 13.0815 7.52858 12.7553 7.52858 12.3557C7.52858 11.9561 7.15541 11.6299 6.70139 11.6299ZM6.96883 12.3557C6.96883 12.4862 6.84755 12.5895 6.70139 12.5895C6.55523 12.5895 6.43395 12.4835 6.43395 12.3557C6.43395 12.2252 6.55523 12.1192 6.7045 12.1192C6.77603 12.1192 6.84444 12.1437 6.89419 12.1872C6.94084 12.2334 6.96883 12.2932 6.96883 12.3557Z" fill="#7A1B1B"/>
</g>
<defs>
<clipPath id="clip0">
<rect width="14" height="14" fill="white"/>
</clipPath>
</defs>
</svg>
