<svg width="14" height="14" viewBox="0 0 14 14" fill="none" xmlns="http://www.w3.org/2000/svg">
<path d="M2.91576 5.22503C2.91576 3.71153 2.91576 2.24533 2.91576 0.781917C2.91576 0.00847638 2.91298 0.0112585 3.6753 0.0112585C5.92886 0.0112585 8.17964 0.0279515 10.4332 0.000129867C10.9535 -0.00543445 11.0842 0.167059 11.0731 0.662284C11.0425 1.98103 11.062 3.29699 11.062 4.61573C11.062 4.79657 11.062 4.97741 11.062 5.22781C11.8688 5.22781 12.6311 5.25007 13.3907 5.21946C13.8609 5.19999 13.9972 5.39196 13.9972 5.8371C13.9833 8.35774 13.9833 10.8756 14 13.3962C14.0027 13.8581 13.8386 14.0027 13.3851 14C9.11446 13.9888 4.84103 13.9888 0.570384 14C0.1308 14 3.71377e-05 13.8469 0.00281932 13.4129C0.0195124 10.8923 0.0195124 8.37165 3.71375e-05 5.8538C-0.00274504 5.37248 0.150275 5.19721 0.634374 5.21668C1.36609 5.24728 2.10058 5.22503 2.91576 5.22503ZM10.461 13.3935C10.461 9.12562 10.461 4.88282 10.461 0.637245C8.12957 0.637245 5.83705 0.637245 3.54732 0.637245C3.54732 4.90786 3.54732 9.13953 3.54732 13.3851C4.0175 13.3851 4.45709 13.3851 4.93841 13.3851C4.93841 12.5171 4.92171 11.6852 4.94119 10.8533C4.97457 9.40661 6.22099 8.44955 7.55922 8.82236C8.42726 9.06441 9.01708 9.8462 9.03099 10.8005C9.04212 11.6602 9.03377 12.5226 9.03377 13.3935C9.54848 13.3935 9.99084 13.3935 10.461 13.3935ZM11.0954 13.3795C11.9022 13.3795 12.645 13.3795 13.3851 13.3795C13.3851 10.8478 13.3851 8.35496 13.3851 5.8538C12.6061 5.8538 11.8632 5.8538 11.0954 5.8538C11.0954 8.37443 11.0954 10.8645 11.0954 13.3795ZM0.62881 5.85101C0.62881 8.38278 0.62881 10.8728 0.62881 13.3851C1.39947 13.3851 2.13675 13.3851 2.88794 13.3851C2.88794 10.8589 2.88794 8.36609 2.88794 5.85101C2.13119 5.85101 1.40504 5.85101 0.62881 5.85101ZM5.55049 13.3851C6.54094 13.3851 7.46462 13.3851 8.42726 13.3851C8.42726 12.5032 8.43561 11.6574 8.42448 10.8144C8.41613 9.99087 7.8736 9.3927 7.10851 9.33984C6.3295 9.2842 5.63117 9.78499 5.56718 10.5807C5.49762 11.5016 5.55049 12.4308 5.55049 13.3851Z" fill="#7A1B1B"/>
</svg>
