<svg width="17" height="17" viewBox="0 0 17 17" fill="none" xmlns="http://www.w3.org/2000/svg">
<path d="M12.4666 13.8833V10.7666C12.4666 10.285 12.0983 9.91665 11.6167 9.91665H11.475C11.3333 9.91665 11.22 9.83165 11.1917 9.71833L10.2 6.26167V6.23335C9.97332 5.72336 9.46332 5.38336 8.89666 5.38336H3.56998C3.00331 5.38336 2.49332 5.72336 2.26665 6.23335V6.26167L1.27498 9.71833C1.21831 9.83165 1.10498 9.91665 0.991664 9.91665H0.849988C0.368317 9.91665 0 10.285 0 10.7666V13.8833C0 14.365 0.368317 14.7333 0.849988 14.7333V16.15C0.849988 16.6316 1.21831 16.9999 1.69998 16.9999H2.26665C2.74832 16.9999 3.11663 16.6316 3.11663 16.15V14.7333H9.34997V16.15C9.34997 16.6316 9.71829 16.9999 10.2 16.9999H10.7666C11.2483 16.9999 11.6166 16.6316 11.6166 16.15V14.7333C12.0983 14.7333 12.4666 14.365 12.4666 13.8833ZM2.55 16.15C2.55 16.32 2.43668 16.4333 2.26668 16.4333H1.70001C1.53001 16.4333 1.41669 16.32 1.41669 16.15V14.7333H2.55003V16.15H2.55ZM11.05 16.15C11.05 16.32 10.9367 16.4333 10.7667 16.4333H10.2C10.03 16.4333 9.91667 16.32 9.91667 16.15V14.7333H11.05V16.15H11.05ZM11.9 13.8833C11.9 14.0533 11.7867 14.1666 11.6167 14.1666H11.3334H9.63336H2.83332H1.13334H0.849988C0.679991 14.1666 0.56667 14.0533 0.56667 13.8833V10.7666C0.56667 10.5966 0.679991 10.4833 0.849988 10.4833H0.991664C1.35998 10.4833 1.70001 10.2283 1.81333 9.85998L2.80499 6.43164C2.94667 6.14832 3.22999 5.94996 3.56998 5.94996H8.89666C9.20833 5.94996 9.52 6.11996 9.66164 6.43164L10.6533 9.85998C10.7666 10.2283 11.1067 10.4833 11.475 10.4833H11.6167C11.7866 10.4833 11.9 10.5966 11.9 10.7666V13.8833H11.9Z" fill="#7A1B1B"/>
<path d="M2.54984 11.05C1.9265 11.05 1.4165 11.56 1.4165 12.1834C1.4165 12.8067 1.9265 13.3167 2.54984 13.3167C3.17319 13.3167 3.68318 12.8067 3.68318 12.1834C3.68318 11.56 3.17319 11.05 2.54984 11.05ZM2.54984 12.75C2.23817 12.75 1.98317 12.495 1.98317 12.1834C1.98317 11.8717 2.23817 11.6167 2.54984 11.6167C2.86152 11.6167 3.11651 11.8717 3.11651 12.1834C3.11651 12.495 2.86152 12.75 2.54984 12.75Z" fill="#7A1B1B"/>
<path d="M9.91654 11.05C9.2932 11.05 8.7832 11.56 8.7832 12.1834C8.7832 12.8067 9.2932 13.3167 9.91654 13.3167C10.5399 13.3167 11.0499 12.8067 11.0499 12.1834C11.0499 11.56 10.5399 11.05 9.91654 11.05ZM9.91654 12.75C9.60487 12.75 9.34987 12.495 9.34987 12.1834C9.34987 11.8717 9.60487 11.6167 9.91654 11.6167C10.2282 11.6167 10.4832 11.8717 10.4832 12.1834C10.4832 12.495 10.2282 12.75 9.91654 12.75Z" fill="#7A1B1B"/>
<path d="M6.79996 12.4666H5.66662C5.49662 12.4666 5.3833 12.5799 5.3833 12.7499C5.3833 12.9199 5.49662 13.0332 5.66662 13.0332H6.79996C6.96996 13.0332 7.08328 12.9199 7.08328 12.7499C7.08328 12.58 6.96996 12.4666 6.79996 12.4666Z" fill="#7A1B1B"/>
<path d="M7.3664 11.3333H5.09972C4.92973 11.3333 4.81641 11.4467 4.81641 11.6167C4.81641 11.7867 4.92973 11.9 5.09972 11.9H7.3664C7.5364 11.9 7.64972 11.7867 7.64972 11.6167C7.64976 11.4467 7.53644 11.3333 7.3664 11.3333Z" fill="#7A1B1B"/>
<path d="M3.51346 9.91669H8.98178C9.15178 9.91669 9.32178 9.8317 9.43513 9.69002C9.54849 9.54834 9.57681 9.35002 9.52013 9.18002L8.84011 6.91334C8.78343 6.68666 8.55676 6.51666 8.30176 6.51666H4.19345C3.93846 6.51666 3.7401 6.65834 3.6551 6.91334L2.97511 9.18002C2.91844 9.35002 2.94679 9.54834 3.06011 9.69002C3.17347 9.83166 3.34346 9.91669 3.51346 9.91669ZM4.19345 7.08333H8.30179L8.98178 9.35002H3.51346L4.19345 7.08333Z" fill="#7A1B1B"/>
<path d="M16.7166 0H11.9C11.73 0 11.6167 0.113321 11.6167 0.283318V5.1C11.6167 5.26999 11.73 5.38332 11.9 5.38332H13.8833V14.1667H13.3167C13.1467 14.1667 13.0334 14.28 13.0334 14.45V15.3H12.4667C12.2967 15.3 12.1834 15.4133 12.1834 15.5833V16.7166C12.1834 16.8866 12.2967 16.9999 12.4667 16.9999H15.8667C16.0367 16.9999 16.15 16.8866 16.15 16.7166V15.5833C16.15 15.4133 16.0367 15.3 15.8667 15.3H15.3V14.45C15.3 14.28 15.1867 14.1667 15.0167 14.1667H14.45V5.38332H16.7167C16.8867 5.38332 17 5.26999 17 5.1V0.283318C17 0.113321 16.8866 0 16.7166 0ZM15.5833 16.4333H12.75V15.8667H13.3167H15.0167H15.5833V16.4333H15.5833ZM14.7333 15.3H13.6V14.7333H14.7333V15.3ZM16.4333 4.81668H12.1833V0.56667H16.4333V4.81668Z" fill="#7A1B1B"/>
<path d="M13.8834 4.25001C14.0534 4.25001 14.1668 4.13669 14.1668 3.96669V3.39998H14.4501C15.0734 3.39998 15.5834 2.88999 15.5834 2.26664C15.5834 1.64329 15.0734 1.1333 14.4501 1.1333H13.8834C13.7134 1.1333 13.6001 1.24662 13.6001 1.41662V3.11663V3.96662C13.6001 4.13665 13.7135 4.25001 13.8834 4.25001ZM15.0168 2.26668C15.0168 2.57835 14.7618 2.83335 14.4501 2.83335H14.1668V1.70001H14.4501C14.7618 1.70001 15.0168 1.955 15.0168 2.26668Z" fill="#7A1B1B"/>
</svg>
