<svg width="16" height="16" viewBox="0 0 16 16" fill="none" xmlns="http://www.w3.org/2000/svg">
<path d="M13.9231 8.45748H12.8175L12.8759 7.23152C12.8825 7.09258 12.8319 6.95694 12.736 6.85632C12.64 6.7557 12.5069 6.69873 12.3679 6.69873H1.17866C1.03955 6.69873 0.906545 6.7557 0.810584 6.85632C0.714623 6.95703 0.664014 7.09258 0.670626 7.23152L0.896457 11.9689C0.952237 13.1396 1.66932 14.1246 2.67683 14.5721H0.508628C0.227781 14.5721 0 14.7999 0 15.0808C0 15.3616 0.227781 15.5894 0.508628 15.5894H13.1096C13.3905 15.5894 13.6183 15.3616 13.6183 15.0808C13.6183 14.7999 13.3905 14.5721 13.1096 14.5721H10.8698C11.6865 14.2093 12.3118 13.4932 12.5491 12.6113H13.9231C15.0683 12.6113 16 11.6796 16 10.5344C16 9.3892 15.0683 8.45748 13.9231 8.45748ZM9.64876 13.8134H3.89787C2.83518 13.8134 1.96314 12.9819 1.91253 11.9204L1.71213 7.71582H11.8344L11.6341 11.9204C11.5835 12.9819 10.7115 13.8134 9.64876 13.8134ZM13.9231 11.594H12.6681L12.7691 9.47364C12.7767 9.47398 12.7841 9.47474 12.7917 9.47474H13.9231C14.5074 9.47474 14.9827 9.95005 14.9827 10.5344C14.9827 11.1187 14.5074 11.594 13.9231 11.594Z" fill="white"/>
<path d="M5.27916 5.86463C5.36038 5.91261 5.44947 5.9355 5.53746 5.9355C5.71141 5.9355 5.88087 5.84615 5.97582 5.6856C6.11883 5.44374 6.03863 5.13187 5.79678 4.98895C5.51398 4.82178 5.3185 4.51338 5.26051 4.14293C5.20016 3.75722 5.30095 3.37303 5.52992 3.11541C5.53195 3.11312 5.53399 3.11084 5.53594 3.10846C5.59129 3.04387 5.64665 2.98037 5.7015 2.91739C6.17198 2.37705 6.65857 1.8185 6.79827 1.00554C6.84591 0.728676 6.66001 0.46563 6.38323 0.418073C6.10636 0.370517 5.84332 0.556251 5.79576 0.833114C5.70429 1.36514 5.34749 1.77484 4.9344 2.24922C4.8787 2.31314 4.82259 2.37765 4.76647 2.44309C4.33998 2.92527 4.14899 3.61904 4.25555 4.30001C4.3605 4.97191 4.73366 5.54216 5.27916 5.86463Z" fill="white"/>
<path d="M6.85775 4.71608C7.02568 5.1485 7.32526 5.54455 7.70139 5.83125C7.79345 5.90144 7.90179 5.93543 8.00937 5.93543C8.16263 5.93543 8.3142 5.86643 8.41423 5.73512C8.58454 5.51174 8.54148 5.19258 8.31802 5.02227C8.09219 4.8501 7.90552 4.60435 7.806 4.34792C7.60772 3.83734 7.79557 3.32854 8.43424 2.64656C8.887 2.16302 9.17641 1.59353 9.2711 0.999448C9.31527 0.722076 9.12631 0.46132 8.84886 0.417069C8.57149 0.372818 8.31073 0.561858 8.26648 0.839315C8.20298 1.23766 8.00962 1.61175 7.69173 1.95126C7.35815 2.30739 6.34327 3.39119 6.85775 4.71608Z" fill="white"/>
</svg>
