<svg width="6" height="16" viewBox="0 0 6 16" fill="none" xmlns="http://www.w3.org/2000/svg">
<path d="M5.35234 6.8752H5.32433V4.81919C5.32433 4.54089 5.12983 4.30846 4.86949 4.24922V2.10258C4.86949 1.89458 4.75907 1.70223 4.57945 1.59736L1.98015 0.0798C1.79919 -0.0258371 1.57562 -0.0266394 1.39389 0.0776605C1.21221 0.181994 1.10015 0.375483 1.10015 0.585019V4.25701C0.855179 4.32684 0.675596 4.55182 0.675596 4.81919V6.8752H0.647515C0.32442 6.8752 0.0625 7.13712 0.0625 7.46022V15.415C0.0625 15.7381 0.32442 16 0.647515 16H5.35231C5.6754 16 5.93732 15.7381 5.93732 15.415V7.46022C5.93736 7.13712 5.67544 6.8752 5.35234 6.8752ZM3.69946 2.43848V4.23418H2.27018V1.60402L3.69946 2.43848ZM1.84566 5.40421H4.1543V6.8752H1.84566V5.40421ZM4.76733 14.83H1.23256V8.04523H4.76733V14.83Z" fill="white"/>
</svg>
