<svg width="16" height="16" viewBox="0 0 16 16" fill="none" xmlns="http://www.w3.org/2000/svg">
<g clip-path="url(#clip0)">
<path d="M0.634747 3.27633H3.07435L5.54998 11.1613C5.63314 11.426 5.87834 11.6059 6.15573 11.6059H13.885C14.2355 11.6059 14.5197 11.3217 14.5197 10.9712C14.5197 10.6206 14.2355 10.3364 13.885 10.3364H6.62174L6.12624 8.75832H14.0595C14.6157 8.75832 15.125 8.34871 15.2439 7.80525L15.9748 4.4711C16.0423 4.16308 15.9727 3.85152 15.7836 3.61635C15.5945 3.38148 15.3051 3.24657 14.9895 3.24657H4.39587L4.14611 2.45141C4.06295 2.18671 3.81775 2.00684 3.54062 2.00684H0.634747C0.284195 2.00684 0 2.29103 0 2.64158C0 2.99214 0.284195 3.27633 0.634747 3.27633ZM14.0207 7.48909L5.76942 7.49126C5.76155 7.48883 5.74882 7.48043 5.74369 7.48043C5.74206 7.48043 5.74126 7.48153 5.74152 7.48396L5.46329 6.63734H14.2055L14.0207 7.48909ZM4.79438 4.51633H14.666L14.4812 5.36781H5.06178H5.04635L4.76649 4.51633H4.79438Z" fill="white"/>
<path d="M6.99847 13.9935C7.49597 13.9935 7.89928 13.5902 7.89928 13.0927C7.89928 12.5952 7.49597 12.1919 6.99847 12.1919C6.50096 12.1919 6.09766 12.5952 6.09766 13.0927C6.09766 13.5902 6.50096 13.9935 6.99847 13.9935Z" fill="white"/>
<path d="M12.5766 13.9935C13.0741 13.9935 13.4774 13.5902 13.4774 13.0927C13.4774 12.5952 13.0741 12.1919 12.5766 12.1919C12.0791 12.1919 11.6758 12.5952 11.6758 13.0927C11.6758 13.5902 12.0791 13.9935 12.5766 13.9935Z" fill="white"/>
</g>
<defs>
<clipPath id="clip0">
<rect width="16" height="16" fill="white"/>
</clipPath>
</defs>
</svg>
