<svg width="16" height="16" viewBox="0 0 16 16" fill="none" xmlns="http://www.w3.org/2000/svg">
<path d="M8.0008 0C3.66823 0 0.142578 3.52554 0.142578 7.85797C0.142578 11.5981 2.77073 14.7346 6.27734 15.5235C5.87234 15.1324 5.58827 14.6188 5.48432 14.0419C3.04554 13.0462 1.32208 10.6507 1.32208 7.85746C1.32208 5.15837 2.93232 2.8298 5.24193 1.77846C5.15033 2.29976 5.54144 2.9003 5.98658 3.43908C6.38953 3.92641 6.21662 4.29435 5.90579 4.55165C5.80801 4.63245 5.77096 4.76573 5.81316 4.88563C5.85536 5.00502 5.96754 5.08581 6.09414 5.08787C10.0963 5.14756 11.069 2.87199 11.2908 2.04966C13.3127 3.19877 14.6785 5.3709 14.6785 7.85746C14.6785 10.502 13.1331 12.7925 10.8981 13.8737C10.8286 14.4593 10.5744 14.9873 10.1967 15.4005C13.4635 14.4474 15.858 11.4278 15.858 7.85746C15.859 3.52554 12.3334 0 8.0008 0Z" fill="white"/>
<path d="M5.90611 8.5524C6.39468 8.5524 6.79074 8.15636 6.79074 7.6678C6.79074 7.17925 6.39468 6.7832 5.90611 6.7832C5.41755 6.7832 5.02148 7.17925 5.02148 7.6678C5.02148 8.15636 5.41755 8.5524 5.90611 8.5524Z" fill="white"/>
<path d="M10.035 8.5524C10.5236 8.5524 10.9196 8.15636 10.9196 7.6678C10.9196 7.17925 10.5236 6.7832 10.035 6.7832C9.54645 6.7832 9.15039 7.17925 9.15039 7.6678C9.15039 8.15636 9.54645 8.5524 10.035 8.5524Z" fill="white"/>
<path d="M5.57161 12.7165C5.7754 12.0835 6.20408 11.5524 6.76141 11.2143C6.80567 10.4908 7.39851 9.91703 8.12515 9.91703C8.82915 9.91703 9.40861 10.4543 9.48374 11.1459C10.1018 11.4809 10.5752 12.0475 10.7914 12.7278C11.1454 12.3588 11.3539 11.9111 11.3539 11.4289C11.3539 10.1661 9.93609 9.14307 8.18793 9.14307C6.43926 9.14307 5.02148 10.1661 5.02148 11.4289C5.02148 11.9065 5.22476 12.3485 5.57161 12.7165Z" fill="white"/>
<path d="M8.48277 12.6334C8.38654 12.6015 8.28413 12.5835 8.17812 12.5835C8.06233 12.5835 7.9522 12.6046 7.84927 12.6416C7.94088 12.6658 7.92492 12.6699 7.82972 12.6489C7.4664 12.7893 7.20703 13.1413 7.20703 13.5546C7.20703 13.5705 7.20858 13.5865 7.2096 13.6029C7.51735 13.6755 7.84464 13.7146 8.18584 13.7146C8.52034 13.7146 8.84249 13.6765 9.1456 13.607C9.14611 13.5901 9.14817 13.5731 9.14817 13.5546C9.14869 13.1254 8.86873 12.7615 8.48277 12.6334Z" fill="white"/>
<path d="M8.1501 10.3228C7.65658 10.3228 7.23459 10.6264 7.05859 11.0566C7.40081 10.9017 7.77957 10.8137 8.17943 10.8137C8.55099 10.8137 8.90504 10.8893 9.22822 11.0236C9.04399 10.6109 8.63127 10.3228 8.1501 10.3228Z" fill="white"/>
<path d="M8.17984 11.1094C6.83154 11.1094 5.73438 12.2065 5.73438 13.5548C5.73438 14.9025 6.83154 16.0002 8.17984 16.0002C9.52763 16.0002 10.6248 14.903 10.6248 13.5548C10.6248 12.206 9.52763 11.1094 8.17984 11.1094ZM8.17984 14.8202C7.4815 14.8202 6.91388 14.252 6.91388 13.5548C6.91388 12.8575 7.48202 12.2888 8.17984 12.2888C8.87715 12.2888 9.44529 12.857 9.44529 13.5548C9.44529 14.2526 8.87766 14.8202 8.17984 14.8202Z" fill="white"/>
</svg>
