<svg width="44" height="52" viewBox="0 0 44 52" fill="none" xmlns="http://www.w3.org/2000/svg">
<g opacity="0.1">
<path d="M43.587 44.9249C43.587 47.4609 33.8426 49.5167 21.8223 49.5167C9.80201 49.5167 0.0576172 47.4609 0.0576172 44.9249C0.0576172 42.3889 9.80201 40.333 21.8223 40.333C33.8426 40.333 43.587 42.3889 43.587 44.9249Z" fill="#C79791"/>
<path d="M21.8223 51.3207L7.05342 48.2868H36.5912L21.8223 51.3207Z" fill="#C79791"/>
</g>
<path fill-rule="evenodd" clip-rule="evenodd" d="M34.8257 37.5101C39.2171 33.6011 42 27.7952 42 21.3134C42 9.54235 32.8218 0 21.5 0C10.1782 0 1 9.54235 1 21.3134C1 27.7952 3.78295 33.6011 8.17435 37.5102L21.5 51L34.8257 37.5101ZM22 27C26.4183 27 30 23.4183 30 19C30 14.5817 26.4183 11 22 11C17.5817 11 14 14.5817 14 19C14 23.4183 17.5817 27 22 27Z" fill="#C79791"/>
</svg>
