<svg width="52" height="52" viewBox="0 0 52 52" fill="none" xmlns="http://www.w3.org/2000/svg">
<path d="M39 52H29.25V49.8333H38.5515L41.1667 47.2182V36.8333H39C38.7861 36.833 38.577 36.7697 38.3988 36.6513L35.1488 34.4847C35.0004 34.3857 34.8788 34.2517 34.7947 34.0944C34.7106 33.9372 34.6666 33.7616 34.6667 33.5833V29.25C34.6667 28.9627 34.5525 28.6871 34.3494 28.484C34.1462 28.2808 33.8707 28.1667 33.5833 28.1667C33.296 28.1667 33.0205 28.2808 32.8173 28.484C32.6141 28.6871 32.5 28.9627 32.5 29.25V35.75H30.3333V29.25C30.3333 28.388 30.6757 27.5614 31.2852 26.9519C31.8947 26.3424 32.7214 26 33.5833 26C34.4453 26 35.2719 26.3424 35.8814 26.9519C36.4909 27.5614 36.8333 28.388 36.8333 29.25V33.0037L39.325 34.6667H42.25C42.5373 34.6667 42.8129 34.7808 43.016 34.984C43.2192 35.1871 43.3333 35.4627 43.3333 35.75V47.6667C43.3333 47.954 43.2191 48.2295 43.0159 48.4326L39.7659 51.6826C39.5628 51.8858 39.2873 51.9999 39 52Z" fill="white"/>
<path d="M29.25 39H24.9167C24.0547 39 23.2281 38.6576 22.6186 38.0481C22.0091 37.4386 21.6667 36.612 21.6667 35.75C21.6667 34.888 22.0091 34.0614 22.6186 33.4519C23.2281 32.8424 24.0547 32.5 24.9167 32.5H29.25C30.112 32.5 30.9386 32.8424 31.5481 33.4519C32.1576 34.0614 32.5 34.888 32.5 35.75C32.5 36.612 32.1576 37.4386 31.5481 38.0481C30.9386 38.6576 30.112 39 29.25 39ZM24.9167 34.6667C24.6293 34.6667 24.3538 34.7808 24.1506 34.984C23.9475 35.1871 23.8333 35.4627 23.8333 35.75C23.8333 36.0373 23.9475 36.3129 24.1506 36.516C24.3538 36.7192 24.6293 36.8333 24.9167 36.8333H29.25C29.5373 36.8333 29.8129 36.7192 30.016 36.516C30.2192 36.3129 30.3333 36.0373 30.3333 35.75C30.3333 35.4627 30.2192 35.1871 30.016 34.984C29.8129 34.7808 29.5373 34.6667 29.25 34.6667H24.9167Z" fill="white"/>
<path d="M29.25 43.3333H24.9167C24.0547 43.3333 23.2281 42.9909 22.6186 42.3814C22.0091 41.7719 21.6667 40.9453 21.6667 40.0833C21.6667 39.2214 22.0091 38.3947 22.6186 37.7852C23.2281 37.1757 24.0547 36.8333 24.9167 36.8333H29.25C30.112 36.8333 30.9386 37.1757 31.5481 37.7852C32.1576 38.3947 32.5 39.2214 32.5 40.0833C32.5 40.9453 32.1576 41.7719 31.5481 42.3814C30.9386 42.9909 30.112 43.3333 29.25 43.3333ZM24.9167 39C24.6293 39 24.3538 39.1141 24.1506 39.3173C23.9475 39.5205 23.8333 39.796 23.8333 40.0833C23.8333 40.3707 23.9475 40.6462 24.1506 40.8494C24.3538 41.0525 24.6293 41.1667 24.9167 41.1667H29.25C29.5373 41.1667 29.8129 41.0525 30.016 40.8494C30.2192 40.6462 30.3333 40.3707 30.3333 40.0833C30.3333 39.796 30.2192 39.5205 30.016 39.3173C29.8129 39.1141 29.5373 39 29.25 39H24.9167Z" fill="white"/>
<path d="M29.25 47.6667H24.9167C24.0547 47.6667 23.2281 47.3243 22.6186 46.7148C22.0091 46.1053 21.6667 45.2786 21.6667 44.4167C21.6667 43.5547 22.0091 42.7281 22.6186 42.1186C23.2281 41.5091 24.0547 41.1667 24.9167 41.1667H29.25C30.112 41.1667 30.9386 41.5091 31.5481 42.1186C32.1576 42.7281 32.5 43.5547 32.5 44.4167C32.5 45.2786 32.1576 46.1053 31.5481 46.7148C30.9386 47.3243 30.112 47.6667 29.25 47.6667ZM24.9167 43.3333C24.6293 43.3333 24.3538 43.4475 24.1506 43.6506C23.9475 43.8538 23.8333 44.1293 23.8333 44.4167C23.8333 44.704 23.9475 44.9795 24.1506 45.1827C24.3538 45.3859 24.6293 45.5 24.9167 45.5H29.25C29.5373 45.5 29.8129 45.3859 30.016 45.1827C30.2192 44.9795 30.3333 44.704 30.3333 44.4167C30.3333 44.1293 30.2192 43.8538 30.016 43.6506C29.8129 43.4475 29.5373 43.3333 29.25 43.3333H24.9167Z" fill="white"/>
<path d="M29.25 52H24.9167C24.0547 52 23.2281 51.6576 22.6186 51.0481C22.0091 50.4386 21.6667 49.612 21.6667 48.75C21.6667 47.888 22.0091 47.0614 22.6186 46.4519C23.2281 45.8424 24.0547 45.5 24.9167 45.5H29.25C30.112 45.5 30.9386 45.8424 31.5481 46.4519C32.1576 47.0614 32.5 47.888 32.5 48.75C32.5 49.612 32.1576 50.4386 31.5481 51.0481C30.9386 51.6576 30.112 52 29.25 52ZM24.9167 47.6667C24.6293 47.6667 24.3538 47.7808 24.1506 47.984C23.9475 48.1871 23.8333 48.4627 23.8333 48.75C23.8333 49.0373 23.9475 49.3129 24.1506 49.516C24.3538 49.7192 24.6293 49.8333 24.9167 49.8333H29.25C29.5373 49.8333 29.8129 49.7192 30.016 49.516C30.2192 49.3129 30.3333 49.0373 30.3333 48.75C30.3333 48.4627 30.2192 48.1871 30.016 47.984C29.8129 47.7808 29.5373 47.6667 29.25 47.6667H24.9167Z" fill="white"/>
<path d="M39 44.4167C32.1447 44.4167 30.3333 38.7476 30.3333 35.75H32.5C32.5 36.4152 32.7167 42.25 39 42.25V44.4167Z" fill="white"/>
<path d="M50.9167 52H42.25C41.9627 52 41.6871 51.8859 41.484 51.6827C41.2808 51.4795 41.1667 51.204 41.1667 50.9167V33.5833C41.1667 33.296 41.2808 33.0205 41.484 32.8173C41.6871 32.6141 41.9627 32.5 42.25 32.5H50.9167C51.204 32.5 51.4795 32.6141 51.6827 32.8173C51.8859 33.0205 52 33.296 52 33.5833V50.9167C52 51.204 51.8859 51.4795 51.6827 51.6827C51.4795 51.8859 51.204 52 50.9167 52ZM43.3333 49.8333H49.8333V34.6667H43.3333V49.8333Z" fill="white"/>
<path d="M19.5 52H3.25C2.38805 52 1.5614 51.6576 0.951903 51.0481C0.34241 50.4386 0 49.612 0 48.75V9.75C6.13572e-05 9.46271 0.114238 9.1872 0.317417 8.98408L8.98408 0.317417L10.5159 1.84925L2.16667 10.1985V48.75C2.16667 49.0373 2.2808 49.3129 2.48397 49.516C2.68713 49.7192 2.96268 49.8333 3.25 49.8333H19.5V52Z" fill="white"/>
<path d="M9.75 10.8333H1.08333V8.66667H8.66667V1.08333C8.66667 0.796016 8.78092 0.520581 8.98408 0.317417C9.18725 0.114252 9.46268 0 9.75 0H28.1667V2.16667H10.8333V9.75C10.8333 10.0373 10.7192 10.3129 10.516 10.516C10.3129 10.7192 10.0373 10.8333 9.75 10.8333Z" fill="white"/>
<path d="M8.34925 27.8493L6.81742 26.3174L18.7341 14.4008C18.9372 14.1977 19.2127 14.0836 19.5 14.0836C19.7873 14.0836 20.0628 14.1977 20.2659 14.4008L30.0159 24.1507L28.4841 25.6826L19.5 16.6985L8.34925 27.8493Z" fill="white"/>
<path d="M17.3333 36.8333H15.1667V28.1667C15.1667 27.8794 15.2808 27.6038 15.484 27.4006C15.6871 27.1975 15.9627 27.0833 16.25 27.0833H22.75C23.0373 27.0833 23.3129 27.1975 23.516 27.4006C23.7192 27.6038 23.8333 27.8794 23.8333 28.1667V30.3333H21.6667V29.25H17.3333V36.8333Z" fill="white"/>
<path d="M19.5 37.9167H10.8333C10.546 37.9167 10.2705 37.8025 10.0673 37.5994C9.86414 37.3962 9.75 37.1207 9.75 36.8333V23.8333H11.9167V35.75H19.5V37.9167Z" fill="white"/>
<path d="M23.8333 22.75H10.8333V24.9167H23.8333V22.75Z" fill="white"/>
<path d="M37.9167 24.9167C37.6293 24.9167 37.3538 24.8025 37.1506 24.5994C36.9475 24.3962 36.8333 24.1207 36.8333 23.8333V21.6667H33.5833C32.7214 21.6667 31.8947 21.3243 31.2852 20.7148C30.6757 20.1053 30.3333 19.2786 30.3333 18.4167V3.25C30.3333 2.38805 30.6757 1.5614 31.2852 0.951903C31.8947 0.34241 32.7214 0 33.5833 0H48.75C49.612 0 50.4386 0.34241 51.0481 0.951903C51.6576 1.5614 52 2.38805 52 3.25V18.4167C52 19.2786 51.6576 20.1053 51.0481 20.7148C50.4386 21.3243 49.612 21.6667 48.75 21.6667H41.6152L38.6826 24.5993C38.4795 24.8024 38.204 24.9166 37.9167 24.9167ZM33.5833 2.16667C33.296 2.16667 33.0205 2.2808 32.8173 2.48397C32.6141 2.68713 32.5 2.96268 32.5 3.25V18.4167C32.5 18.704 32.6141 18.9795 32.8173 19.1827C33.0205 19.3859 33.296 19.5 33.5833 19.5H37.9167C38.204 19.5 38.4795 19.6141 38.6827 19.8173C38.8859 20.0205 39 20.296 39 20.5833V21.2182L40.4007 19.8174C40.6039 19.6142 40.8794 19.5001 41.1667 19.5H48.75C49.0373 19.5 49.3129 19.3859 49.516 19.1827C49.7192 18.9795 49.8333 18.704 49.8333 18.4167V3.25C49.8333 2.96268 49.7192 2.68713 49.516 2.48397C49.3129 2.2808 49.0373 2.16667 48.75 2.16667H33.5833Z" fill="white"/>
<path d="M42.25 11.9167H40.0833C39.2214 11.9167 38.3947 11.5743 37.7852 10.9648C37.1757 10.3553 36.8333 9.52862 36.8333 8.66667C36.8333 7.80471 37.1757 6.97806 37.7852 6.36857C38.3947 5.75908 39.2214 5.41667 40.0833 5.41667H42.25C43.112 5.41667 43.9386 5.75908 44.5481 6.36857C45.1576 6.97806 45.5 7.80471 45.5 8.66667H43.3333C43.3333 8.37935 43.2192 8.1038 43.016 7.90063C42.8129 7.69747 42.5373 7.58333 42.25 7.58333H40.0833C39.796 7.58333 39.5205 7.69747 39.3173 7.90063C39.1141 8.1038 39 8.37935 39 8.66667C39 8.95399 39.1141 9.22954 39.3173 9.4327C39.5205 9.63586 39.796 9.75 40.0833 9.75H42.25V11.9167Z" fill="white"/>
<path d="M42.25 16.25H40.0833C39.2214 16.25 38.3947 15.9076 37.7852 15.2981C37.1757 14.6886 36.8333 13.862 36.8333 13H39C39 13.2873 39.1141 13.5629 39.3173 13.766C39.5205 13.9692 39.796 14.0833 40.0833 14.0833H42.25C42.5373 14.0833 42.8129 13.9692 43.016 13.766C43.2192 13.5629 43.3333 13.2873 43.3333 13C43.3333 12.7127 43.2192 12.4371 43.016 12.234C42.8129 12.0308 42.5373 11.9167 42.25 11.9167H40.0833V9.75H42.25C43.112 9.75 43.9386 10.0924 44.5481 10.7019C45.1576 11.3114 45.5 12.138 45.5 13C45.5 13.862 45.1576 14.6886 44.5481 15.2981C43.9386 15.9076 43.112 16.25 42.25 16.25Z" fill="white"/>
<path d="M42.25 4.33333H40.0833V6.5H42.25V4.33333Z" fill="white"/>
<path d="M42.25 15.1667H40.0833V17.3333H42.25V15.1667Z" fill="white"/>
<path d="M47.6667 36.8333H45.5V39H47.6667V36.8333Z" fill="white"/>
</svg>
