<svg width="60" height="60" viewBox="0 0 60 60" fill="none" xmlns="http://www.w3.org/2000/svg">
<path d="M13.75 59.9999H1.25C0.918479 59.9999 0.600537 59.8682 0.366117 59.6338C0.131696 59.3994 0 59.0814 0 58.7499V38.7499C0 38.4183 0.131696 38.1004 0.366117 37.866C0.600537 37.6315 0.918479 37.4999 1.25 37.4999H13.75C14.0815 37.4999 14.3995 37.6315 14.6339 37.866C14.8683 38.1004 15 38.4183 15 38.7499V58.7499C15 59.0814 14.8683 59.3994 14.6339 59.6338C14.3995 59.8682 14.0815 59.9999 13.75 59.9999ZM2.5 57.4999H12.5V39.9999H2.5V57.4999Z" fill="white"/>
<path d="M55 59.9999H23.75C23.5566 60.002 23.3653 59.9593 23.1912 59.8749L15.955 56.2499H13.75C13.4185 56.2499 13.1005 56.1182 12.8661 55.8838C12.6317 55.6494 12.5 55.3314 12.5 54.9999V38.7499C12.5 38.4183 12.6317 38.1004 12.8661 37.866C13.1005 37.6315 13.4185 37.4999 13.75 37.4999H23.75C23.9439 37.4997 24.1352 37.5446 24.3088 37.6311L34.045 42.4999H42.5C43.3776 42.5001 44.2396 42.7313 44.9995 43.1703C45.7594 43.6092 46.3904 44.2404 46.8291 45.0005C47.2678 45.7605 47.4987 46.6227 47.4986 47.5002C47.4986 48.3778 47.2675 49.2399 46.8288 49.9999H55C56.3261 49.9999 57.5979 50.5267 58.5355 51.4644C59.4732 52.402 60 53.6738 60 54.9999C60 56.326 59.4732 57.5978 58.5355 58.5354C57.5979 59.4731 56.3261 59.9999 55 59.9999ZM24.045 57.4999H55C55.663 57.4999 56.2989 57.2365 56.7678 56.7677C57.2366 56.2988 57.5 55.6629 57.5 54.9999C57.5 54.3369 57.2366 53.701 56.7678 53.2321C56.2989 52.7633 55.663 52.4999 55 52.4999H32.5V49.9999H42.5C43.163 49.9999 43.7989 49.7365 44.2678 49.2677C44.7366 48.7988 45 48.1629 45 47.4999C45 46.8368 44.7366 46.201 44.2678 45.7321C43.7989 45.2633 43.163 44.9999 42.5 44.9999H33.75C33.5566 45.002 33.3653 44.9592 33.1912 44.8749L23.455 39.9999H15V53.7499H16.25C16.4434 53.7478 16.6347 53.7906 16.8088 53.8749L24.045 57.4999Z" fill="white"/>
<path d="M57.8662 15.8835L45 3.01724L32.1338 15.8835L30.3662 14.116L44.1162 0.365984C44.3507 0.131645 44.6685 0 45 0C45.3315 0 45.6493 0.131645 45.8838 0.365984L59.6338 14.116L57.8662 15.8835Z" fill="white"/>
<path d="M50 26.2498H47.5V17.4998H42.5V22.4998H40V16.2498C40 15.9183 40.1317 15.6003 40.3661 15.3659C40.6005 15.1315 40.9185 14.9998 41.25 14.9998H48.75C49.0815 14.9998 49.3995 15.1315 49.6339 15.3659C49.8683 15.6003 50 15.9183 50 16.2498V26.2498Z" fill="white"/>
<path d="M37.5 36.2498C37.352 36.2494 37.2052 36.2231 37.0662 36.1723C36.8267 36.0837 36.62 35.9238 36.4741 35.7142C36.3282 35.5046 36.25 35.2553 36.25 34.9998V27.4998H35C34.6685 27.4998 34.3505 27.3681 34.1161 27.1337C33.8817 26.8993 33.75 26.5813 33.75 26.2498V11.2498H36.25V24.9998H37.5C37.8315 24.9998 38.1495 25.1315 38.3839 25.3659C38.6183 25.6003 38.75 25.9183 38.75 26.2498V31.6248L44.0513 25.4411C44.1681 25.3033 44.3134 25.1926 44.4772 25.1164C44.641 25.0402 44.8194 25.0004 45 24.9998H53.75V11.2498H56.25V26.2498C56.25 26.5813 56.1183 26.8993 55.8839 27.1337C55.6495 27.3681 55.3315 27.4998 55 27.4998H45.575L38.45 35.8123C38.3326 35.9496 38.187 36.0597 38.023 36.1352C37.859 36.2108 37.6805 36.2499 37.5 36.2498Z" fill="white"/>
<path d="M50 9.99976H35V12.4998H50V9.99976Z" fill="white"/>
<path d="M21.25 32.4998C20.9185 32.4998 20.6006 32.368 20.3662 32.1336L15.7325 27.4998H3.75C2.75544 27.4998 1.80161 27.1047 1.09835 26.4015C0.395088 25.6982 0 24.7444 0 23.7498V8.74976C0 7.7552 0.395088 6.80137 1.09835 6.0981C1.80161 5.39484 2.75544 4.99975 3.75 4.99975H33.75V7.49976H3.75C3.41848 7.49976 3.10054 7.63145 2.86612 7.86587C2.6317 8.1003 2.5 8.41824 2.5 8.74976V23.7498C2.5 24.0813 2.6317 24.3993 2.86612 24.6337C3.10054 24.8681 3.41848 24.9998 3.75 24.9998H16.25C16.5815 24.9999 16.8994 25.1316 17.1337 25.3661L20 28.2323V26.2498C20 25.9183 20.1317 25.6003 20.3661 25.3659C20.6005 25.1315 20.9185 24.9998 21.25 24.9998H31.25V27.4998H22.5V31.2498C22.5001 31.497 22.4268 31.7387 22.2895 31.9443C22.1523 32.1499 21.9571 32.3102 21.7287 32.4048C21.5771 32.4681 21.4143 32.5004 21.25 32.4998Z" fill="white"/>
<path d="M7.5 9.99976H5V12.4998H7.5V9.99976Z" fill="white"/>
<path d="M28.75 9.99976H10V12.4998H28.75V9.99976Z" fill="white"/>
<path d="M28.75 14.9998H5V17.4998H28.75V14.9998Z" fill="white"/>
<path d="M28.75 19.9998H5V22.4998H28.75V19.9998Z" fill="white"/>
</svg>
