<svg width="20" height="20" viewBox="0 0 20 20" fill="none" xmlns="http://www.w3.org/2000/svg">
<path d="M19.5526 4.80827L19.5467 4.78519C19.0642 2.89804 16.8889 0.873036 14.8913 0.451747L14.8688 0.447259C11.6377 -0.149086 8.36161 -0.149086 5.13123 0.447259L5.10803 0.451747C3.11108 0.873036 0.935843 2.89804 0.452678 4.78519L0.447375 4.80827C-0.149125 7.44373 -0.149125 10.1164 0.447375 12.7518L0.452678 12.7749C0.915231 14.5815 2.92849 16.5135 4.85154 17.0448V19.1514C4.85154 19.9138 5.8119 20.2883 6.35803 19.7381L8.56409 17.5195C9.04255 17.5454 9.52127 17.5599 10 17.5599C11.6265 17.5599 13.2536 17.4111 14.8688 17.1129L14.8913 17.1084C16.8889 16.6871 19.0642 14.6621 19.5467 12.775L19.5526 12.7519C20.1491 10.1164 20.1491 7.44373 19.5526 4.80827ZM17.8069 12.3697C17.4848 13.6008 15.8331 15.1315 14.5208 15.4142C12.8028 15.7303 11.0712 15.8654 9.3414 15.819C9.307 15.8181 9.27392 15.831 9.24993 15.8549C9.00444 16.0987 7.63918 17.4546 7.63918 17.4546L5.9259 19.1558C5.80064 19.2821 5.58059 19.1962 5.58059 19.0218V15.5321C5.58059 15.4744 5.53804 15.4255 5.47952 15.4144C5.47919 15.4143 5.47886 15.4142 5.47853 15.4142C4.16622 15.1314 2.51524 13.6008 2.19247 12.3696C1.65562 9.98743 1.65562 7.57255 2.19247 5.19038C2.51524 3.95922 4.16622 2.4286 5.47853 2.14582C8.47892 1.59372 11.5211 1.59372 14.5208 2.14582C15.8338 2.4286 17.4848 3.95922 17.8069 5.19038C18.3443 7.57262 18.3443 9.9875 17.8069 12.3697Z" fill="white"/>
<path d="M12.8544 13.9805C12.6526 13.9213 12.4604 13.8815 12.2818 13.8098C10.4316 13.0671 8.7288 12.109 7.37998 10.6402C6.61294 9.80504 6.0126 8.8621 5.50511 7.86422C5.26445 7.39099 5.06164 6.89923 4.85492 6.41068C4.66643 5.96515 4.94407 5.50488 5.23642 5.16919C5.51074 4.85416 5.86374 4.61305 6.24603 4.43537C6.54441 4.29667 6.83875 4.37663 7.05667 4.62132C7.52777 5.15034 7.9605 5.70642 8.31091 6.31962C8.52638 6.6968 8.46726 7.15784 8.07675 7.41453C7.98184 7.47692 7.89535 7.55015 7.80694 7.62062C7.72939 7.68237 7.65642 7.74476 7.60326 7.82838C7.5061 7.98137 7.50146 8.16182 7.56403 8.32815C8.0456 9.60856 8.85731 10.6042 10.1894 11.1405C10.4025 11.2263 10.6166 11.3262 10.8621 11.2985C11.2734 11.252 11.4066 10.8156 11.6947 10.5875C11.9764 10.3647 12.3364 10.3618 12.6398 10.5475C12.9433 10.7333 13.2375 10.9328 13.5299 11.1344C13.8169 11.3323 14.1027 11.5259 14.3675 11.7515C14.6221 11.9684 14.7098 12.253 14.5664 12.5474C14.304 13.0865 13.9221 13.5351 13.3712 13.8214C13.2156 13.9021 13.0298 13.9283 12.8544 13.9805C12.6526 13.9212 13.0298 13.9283 12.8544 13.9805Z" fill="white"/>
<path d="M10.0048 3.81897C12.4249 3.88456 14.4127 5.43846 14.8386 7.7533C14.9112 8.14773 14.9371 8.551 14.9693 8.95132C14.9829 9.1197 14.8844 9.27969 14.6965 9.28187C14.5025 9.28412 14.4153 9.12708 14.4027 8.95876C14.3777 8.62557 14.3604 8.29091 14.313 7.96049C14.0625 6.21627 12.6249 4.77325 10.8304 4.4636C10.5604 4.41698 10.284 4.40473 10.0105 4.37697C9.83758 4.3594 9.61111 4.34927 9.5728 4.14131C9.54066 3.96696 9.69277 3.82814 9.86436 3.81922C9.91102 3.81672 9.95794 3.81877 10.0048 3.81897C12.4249 3.88456 9.95794 3.81877 10.0048 3.81897Z" fill="white"/>
<path d="M13.6834 8.43161C13.6794 8.46085 13.6773 8.52959 13.6596 8.59435C13.5954 8.82943 13.227 8.85886 13.1421 8.6216C13.117 8.5512 13.1132 8.47111 13.1131 8.39531C13.1122 7.89939 13.0008 7.40397 12.7424 6.97249C12.4766 6.52901 12.0707 6.1562 11.5946 5.93061C11.3066 5.79422 10.9953 5.70945 10.6797 5.65892C10.5418 5.63687 10.4024 5.62346 10.2638 5.6048C10.0959 5.58223 10.0062 5.47867 10.0142 5.31856C10.0216 5.16851 10.1349 5.06059 10.3039 5.06983C10.8593 5.10035 11.3958 5.21648 11.8896 5.46944C12.8937 5.9839 13.4672 6.79596 13.6347 7.88028C13.6422 7.9294 13.6544 7.97806 13.6582 8.02737C13.6677 8.14914 13.6737 8.27104 13.6834 8.43161C13.6794 8.46085 13.6737 8.27104 13.6834 8.43161Z" fill="white"/>
<path d="M12.1779 8.37509C11.9754 8.37862 11.867 8.27019 11.8461 8.09058C11.8316 7.96535 11.8202 7.83845 11.7893 7.71661C11.7284 7.47666 11.5966 7.25429 11.388 7.10725C11.2895 7.03781 11.1779 6.98721 11.0609 6.95457C10.9124 6.91309 10.7582 6.9245 10.61 6.88936C10.4491 6.85121 10.36 6.72514 10.3854 6.57907C10.4084 6.44614 10.542 6.34239 10.6922 6.35291C11.6305 6.41844 12.3011 6.88776 12.3968 7.95643C12.4035 8.03184 12.4115 8.11155 12.3942 8.18369C12.3646 8.30719 12.27 8.36907 12.1779 8.37509C11.9754 8.37862 12.27 8.36907 12.1779 8.37509Z" fill="white"/>
</svg>
