<svg width="22" height="14" viewBox="0 0 22 14" fill="none" xmlns="http://www.w3.org/2000/svg">
<path d="M21.8834 12.6451C21.8567 12.5847 21.8319 12.5347 21.8088 12.4945C21.4271 11.7716 20.6977 10.8842 19.621 9.83219L19.5983 9.8081L19.5869 9.79629L19.5754 9.78418H19.5638C19.0751 9.2943 18.7657 8.96492 18.6361 8.79628C18.399 8.47504 18.3459 8.14987 18.4755 7.8204C18.567 7.57147 18.9109 7.04577 19.5064 6.24258C19.8196 5.81692 20.0677 5.47576 20.2509 5.21874C21.572 3.37161 22.1448 2.19128 21.9691 1.67727L21.9009 1.55715C21.855 1.48483 21.7367 1.41868 21.546 1.35834C21.3548 1.29814 21.1105 1.28818 20.8127 1.3283L17.5138 1.35227C17.4604 1.33235 17.3841 1.33421 17.2847 1.35834C17.1854 1.38248 17.1357 1.39459 17.1357 1.39459L17.0783 1.42475L17.0327 1.46099C16.9945 1.48496 16.9525 1.52711 16.9067 1.58736C16.8611 1.64739 16.8229 1.71785 16.7924 1.79814C16.4333 2.76984 16.0249 3.67328 15.5666 4.50841C15.2841 5.00639 15.0246 5.43796 14.7876 5.80338C14.5509 6.16867 14.3524 6.4378 14.1921 6.61032C14.0317 6.78301 13.8868 6.92135 13.7568 7.02586C13.6269 7.13041 13.5277 7.17458 13.4591 7.15842C13.3903 7.14226 13.3255 7.12623 13.2642 7.1102C13.1573 7.03788 13.0714 6.93954 13.0066 6.81507C12.9415 6.69061 12.8977 6.53395 12.8748 6.34523C12.852 6.15639 12.8385 5.99395 12.8347 5.85738C12.8311 5.72098 12.8328 5.52804 12.8405 5.27911C12.8484 5.03006 12.852 4.86155 12.852 4.7732C12.852 4.46799 12.8577 4.13675 12.869 3.77939C12.8806 3.42203 12.8899 3.13889 12.8977 2.9303C12.9055 2.72149 12.9091 2.50058 12.9091 2.26769C12.9091 2.03479 12.8957 1.85215 12.869 1.71958C12.8427 1.58719 12.8023 1.45867 12.7491 1.33408C12.6955 1.20962 12.6171 1.11334 12.5142 1.04499C12.4112 0.976726 12.283 0.922553 12.1305 0.882303C11.7258 0.785981 11.2103 0.733875 10.584 0.725774C9.16376 0.709741 8.25115 0.80619 7.84643 1.01499C7.68607 1.10321 7.54095 1.22375 7.41121 1.37623C7.27372 1.55297 7.25454 1.64942 7.3538 1.66528C7.81204 1.73747 8.13645 1.91016 8.32738 2.18318L8.39619 2.32785C8.44971 2.43223 8.50315 2.61703 8.55663 2.88199C8.61003 3.14695 8.64449 3.44005 8.65965 3.76112C8.69777 4.34745 8.69777 4.84935 8.65965 5.26688C8.62142 5.68457 8.58531 6.00973 8.55085 6.24263C8.51639 6.47552 8.46487 6.66424 8.39619 6.80874C8.32738 6.95329 8.2816 7.04164 8.25866 7.0737C8.23575 7.10577 8.21665 7.12598 8.20149 7.13391C8.10223 7.17391 7.999 7.19429 7.89216 7.19429C7.78516 7.19429 7.65542 7.138 7.50272 7.02552C7.35006 6.91304 7.19163 6.75854 7.02742 6.56176C6.86321 6.36494 6.67802 6.0899 6.47176 5.73659C6.26567 5.38328 6.05183 4.96572 5.83037 4.4839L5.64714 4.13447C5.5326 3.90968 5.37613 3.58236 5.17758 3.15281C4.9789 2.7231 4.8033 2.30743 4.65064 1.9059C4.58962 1.73726 4.49795 1.60887 4.37578 1.52053L4.31845 1.48428C4.28034 1.45222 4.21916 1.41817 4.13523 1.38189C4.05117 1.34564 3.96347 1.31965 3.87176 1.30366L0.733229 1.32763C0.412512 1.32763 0.194902 1.40404 0.0803198 1.55664L0.0344629 1.62883C0.0115545 1.66904 0 1.73325 0 1.82164C0 1.90999 0.0229084 2.01842 0.0687653 2.14681C0.526933 3.27922 1.02518 4.37133 1.56351 5.42332C2.10184 6.47531 2.56963 7.32272 2.96662 7.96478C3.36368 8.6073 3.76841 9.21372 4.1808 9.78372C4.59319 10.3539 4.86617 10.7193 4.99973 10.8799C5.13345 11.0407 5.23848 11.161 5.31483 11.2412L5.60124 11.5303C5.78451 11.7231 6.05363 11.9539 6.40873 12.2229C6.76391 12.492 7.15713 12.757 7.58858 13.0182C8.0201 13.279 8.52212 13.4918 9.09491 13.6564C9.66762 13.8211 10.225 13.8873 10.7673 13.8554H12.0846C12.3517 13.8311 12.5541 13.7428 12.6917 13.5903L12.7373 13.5299C12.7679 13.482 12.7966 13.4075 12.8231 13.3073C12.8499 13.2069 12.8632 13.0963 12.8632 12.9761C12.8554 12.6308 12.8804 12.3196 12.9375 12.0426C12.9946 11.7657 13.0597 11.5569 13.1324 11.4163C13.2052 11.2758 13.2873 11.1572 13.3786 11.0611C13.4702 10.9648 13.5354 10.9064 13.5737 10.8863C13.6117 10.8661 13.6421 10.8524 13.665 10.8442C13.8483 10.78 14.0639 10.8422 14.3124 11.0311C14.5606 11.2198 14.7934 11.4528 15.0112 11.7297C15.2288 12.0069 15.4903 12.3179 15.7957 12.6632C16.1013 13.0085 16.3685 13.2653 16.5975 13.4342L16.8265 13.5787C16.9795 13.6752 17.178 13.7635 17.4224 13.8438C17.6664 13.924 17.8801 13.9441 18.0637 13.904L20.9959 13.8559C21.2859 13.8559 21.5116 13.8054 21.6717 13.7052C21.8321 13.6048 21.9274 13.4942 21.9581 13.374C21.9888 13.2535 21.9904 13.1169 21.9639 12.9642C21.9368 12.8118 21.91 12.7053 21.8834 12.6451Z" fill="white"/>
</svg>
