<svg width="14" height="14" viewBox="0 0 14 14" fill="none" xmlns="http://www.w3.org/2000/svg">
<path d="M1.2483 1.86031L0.0806624 3.02723C-0.0409532 3.14868 -0.0222513 3.35012 0.118066 3.44754L5.08389 6.89819L3.44753 8.7737H0.275162C0.163912 8.7737 0.0635636 8.84078 0.0209233 8.94353C-0.0216101 9.04628 0.00190087 9.16463 0.0805556 9.24325L4.75923 13.9195C4.83799 13.9982 4.95629 14.0216 5.0591 13.9791C5.16191 13.9366 5.22902 13.8363 5.22902 13.725V10.5543L7.10541 8.91875L10.558 13.882C10.6562 14.0231 10.8576 14.0403 10.9785 13.9194L12.146 12.7523C12.2196 12.6787 12.2453 12.57 12.2126 12.4713L11.3948 10.0024L11.8648 9.5326C11.9722 9.42525 11.9722 9.25104 11.8648 9.14359C11.7573 9.03614 11.5831 9.03614 11.4756 9.14359L11.2011 9.41788L10.8138 8.24883L11.2809 7.78217C11.3885 7.67472 11.3885 7.50061 11.2811 7.39316C11.1736 7.2856 10.9993 7.2856 10.8918 7.39305L10.6202 7.66436L10.1552 6.26064L11.9145 4.72725C12.6197 4.11789 13.1804 3.44647 13.581 2.73179C13.7682 2.39811 13.9053 2.08504 13.9888 1.80146C14.0316 1.65577 13.9482 1.50281 13.8023 1.45998C13.6566 1.41726 13.5035 1.50057 13.4607 1.64637C13.3889 1.89033 13.2678 2.16505 13.1008 2.46284C12.7315 3.12176 12.2112 3.74362 11.5537 4.31186C10.5454 5.1906 3.68777 11.1677 3.63904 11.2101C3.40179 11.4208 3.04005 11.4102 2.81552 11.186C2.59109 10.9615 2.58041 10.6 2.79307 10.3609C3.22952 9.86062 9.31169 2.88966 9.69396 2.45152C10.2617 1.79516 10.8839 1.2752 11.5432 0.90595C11.8507 0.733769 12.1332 0.610509 12.3831 0.539799C12.5293 0.498356 12.6142 0.346256 12.5728 0.200138C12.5313 0.0539127 12.3791 -0.0310026 12.2329 0.0105472C11.9416 0.0930058 11.6191 0.232822 11.2742 0.426045C10.5589 0.826482 9.88717 1.38692 9.27835 2.09081L7.74341 3.85011L6.33895 3.38537L6.61039 3.11386C6.7179 3.0064 6.7178 2.83219 6.61029 2.72485C6.50288 2.6175 6.32858 2.6175 6.22107 2.72495L5.75417 3.19183L4.5845 2.80474L4.85894 2.53045C4.96634 2.4231 4.96634 2.24889 4.85894 2.14144C4.75143 2.0341 4.57723 2.0341 4.46972 2.14144L3.99972 2.6112L1.52947 1.79377C1.43062 1.76108 1.32193 1.78683 1.2483 1.86031ZM11.6367 12.4833L10.8221 13.2978L7.52283 8.55506L9.70529 6.65285L11.6367 12.4833ZM4.00271 11.623L4.67865 11.0339V13.0608L3.49947 11.8823C3.68125 11.8407 3.85481 11.7544 4.00271 11.623ZM2.37992 9.99734C2.24762 10.1461 2.16117 10.3205 2.11927 10.5029L0.939666 9.32378H2.96759L2.37992 9.99734ZM5.44778 6.48109L0.702526 3.1836L1.5175 2.36927L7.35099 4.29979L5.44778 6.48109Z" fill="#7A1B1B"/>
<path d="M11.8875 1.72791L11.3037 2.31142C11.1963 2.41877 11.1963 2.59298 11.3037 2.70043C11.4112 2.80778 11.5854 2.80778 11.693 2.70043L12.2768 2.11703C12.3842 2.00957 12.3842 1.83536 12.2768 1.72791C12.1693 1.62057 11.9949 1.62057 11.8875 1.72791Z" fill="#7A1B1B"/>
<path d="M13.8 0.501132C13.8 0.653125 13.6768 0.776279 13.5248 0.776279C13.3727 0.776279 13.2495 0.653125 13.2495 0.501132C13.2495 0.349246 13.3727 0.226092 13.5248 0.226092C13.6768 0.226092 13.8 0.349246 13.8 0.501132Z" fill="#7A1B1B"/>
</svg>
