<svg width="17" height="15" viewBox="0 0 17 15" fill="none" xmlns="http://www.w3.org/2000/svg">
<path d="M1.84451 14.8701H15.1935C15.6745 14.871 16.1359 14.6797 16.4752 14.3386C16.8144 13.9977 17.0034 13.5352 17 13.0541V8.45237C17 7.44588 16.2001 6.61736 15.1935 6.61736H14.6362L9.73644 2.03311C9.82394 1.85202 9.86925 1.65339 9.8691 1.45225C9.86866 0.706625 9.26372 0.102582 8.5181 0.103028C7.77248 0.103473 7.16844 0.708408 7.16889 1.45403C7.16874 1.65458 7.21405 1.85246 7.30155 2.03282L2.40176 6.61736H1.84451C0.837875 6.61736 0 7.44588 0 8.45237V13.0541C0 14.0608 0.837875 14.8701 1.84451 14.8701ZM8.51899 0.713013C8.92857 0.713013 9.2606 1.04504 9.2606 1.45462C9.2606 1.8642 8.92857 2.19623 8.51899 2.19623C8.10941 2.19623 7.77738 1.8642 7.77738 1.45462C7.77783 1.04519 8.10956 0.713459 8.51899 0.713013ZM7.68335 2.50925C8.17181 2.90055 8.86662 2.90011 9.35464 2.50806L13.7459 6.61736H3.29208L7.68335 2.50925ZM16.3915 13.0446C16.3915 13.7167 15.8465 14.2616 15.1745 14.2616H1.8255C1.15342 14.2616 0.6085 13.7167 0.6085 13.0446V8.44286C0.6085 7.77078 1.15342 7.22586 1.8255 7.22586H15.1745C15.8465 7.22586 16.3915 7.77078 16.3915 8.44286V13.0446Z" fill="#7A1B1B"/>
<path d="M4.0124 12.1101C4.16066 12.1101 4.29764 12.0492 4.29764 11.9275V11.029H4.56772L5.08872 12.0316C5.12541 12.1016 5.20014 12.1431 5.27887 12.1374C5.45373 12.1374 5.65161 11.9755 5.65161 11.8271C5.65191 11.8026 5.64537 11.7783 5.6326 11.7575L5.16849 10.9164C5.43471 10.8137 5.62873 10.5639 5.62873 10.1379C5.62873 9.518 5.21425 9.31759 4.6931 9.31759H3.90588C3.85686 9.31893 3.81021 9.33988 3.77664 9.37583C3.74306 9.41163 3.72524 9.45947 3.72717 9.50864V11.9273C3.72717 12.0492 3.86414 12.1101 4.0124 12.1101ZM4.29764 9.85003H4.6931C4.90614 9.85003 5.03538 9.94511 5.03538 10.2113C5.03538 10.4775 4.90614 10.5726 4.6931 10.5726H4.29764V9.85003Z" fill="#7A1B1B"/>
<path d="M6.58318 12.0939H7.93701C8.06254 12.0939 8.11572 11.9722 8.11572 11.8505C8.11572 11.7099 8.0511 11.5995 7.93701 11.5995H6.9216V10.9529H7.48821C7.61374 10.9529 7.66707 10.8313 7.66707 10.7286C7.66707 10.6069 7.6023 10.4966 7.48821 10.4966H6.9216V9.85003H7.93701C8.0511 9.85003 8.11572 9.72078 8.11572 9.5801C8.11572 9.45828 8.06254 9.31759 7.93701 9.31759H6.58318C6.45378 9.31759 6.3131 9.39068 6.3131 9.51235V11.9273C6.3131 12.0492 6.45378 12.0939 6.58318 12.0939Z" fill="#7A1B1B"/>
<path d="M9.05146 12.1098C9.19972 12.1098 9.35571 12.0489 9.35571 11.9272V10.6341L10.0744 11.9501C10.1468 12.0832 10.2609 12.1098 10.3977 12.1098C10.5461 12.1098 10.6868 12.0489 10.6868 11.9272V9.50851C10.6868 9.38298 10.5498 9.32965 10.4016 9.32965C10.2533 9.32965 10.1163 9.38298 10.1163 9.50851V10.8016L9.49446 9.62632C9.35006 9.34866 9.26345 9.32965 9.05057 9.32965C8.90215 9.32965 8.74721 9.38669 8.74721 9.51223V11.9272C8.74721 12.0489 8.90319 12.1098 9.05146 12.1098Z" fill="#7A1B1B"/>
<path d="M11.4931 9.85003H12.018V11.9275C12.018 12.0492 12.174 12.1101 12.3222 12.1101C12.4705 12.1101 12.6265 12.0492 12.6265 11.9275V9.85003H13.1361C13.2501 9.85003 13.3149 9.7245 13.3149 9.5801C13.3149 9.45456 13.2616 9.31759 13.1361 9.31759H11.4931C11.3676 9.31759 11.3144 9.45456 11.3144 9.5801C11.3144 9.7245 11.379 9.85003 11.4931 9.85003Z" fill="#7A1B1B"/>
</svg>
