<svg width="17" height="14" viewBox="0 0 17 14" fill="none" xmlns="http://www.w3.org/2000/svg">
<path d="M14.8 13.9H15.4C15.8 13.9 16 13.8 16 13.4V11H16.3C16.6 11 16.9 10.7 16.9 10.3V7.7C16.9 6.4 16.3 5.6 15.3 5.4V2C15.3 0.5 14.5 0 13.7 0H3.2C2.4 0 1.6 0.5 1.6 2V5.4C0.6 5.6 0 6.4 0 7.7V10.3C0 10.7 0.3 11 0.6 11H0.9V13.3C0.9 13.7 1.1 13.8 1.5 13.8H2.1C2.5 13.8 2.7 13.6 2.7 13.3V11H14.2V13.4C14.2 13.8 14.4 13.9 14.8 13.9ZM15.4 13.2H14.7V11H15.4V13.2ZM2.1 2C2.2 0.9 2.8 0.7 3.2 0.7H13.6C14 0.7 14.7 0.9 14.7 2V5.4H14.1V3.4C14.1 3 13.8 2.7 13.5 2.7H9.5C9.2 2.7 8.9 3 8.9 3.5V5.5H8V3.5C8 3 7.8 2.7 7.4 2.7H3.4C3.1 2.7 2.8 3 2.8 3.5V5.5H2.1V2ZM13.5 3.4V5.4H9.4V3.4H13.5V3.4ZM7.5 3.4V5.4H3.4V3.4H7.5V3.4ZM0.5 7.7C0.5 6.3 1.4 6.1 1.8 6.1H15C15.5 6.1 16.3 6.3 16.3 7.7V8.4H0.5V7.7ZM2.1 13.2H1.4V11H2.1V13.2V13.2ZM0.5 10.3V9.1H16.3V10.4H0.5V10.3Z" fill="#7A1B1B"/>
</svg>
