<svg width="14" height="19" viewBox="0 0 14 19" fill="none" xmlns="http://www.w3.org/2000/svg">
<path d="M2.41519 0.739261C2.53082 0.590035 2.5036 0.375256 2.35433 0.259619C2.20562 0.144367 1.9917 0.170947 1.87572 0.319104C0.0492404 2.65838 0.0492404 5.94058 1.87572 8.27986C1.99174 8.42883 2.20656 8.45553 2.35553 8.33951C2.5045 8.22349 2.53121 8.00867 2.41519 7.8597C0.781053 5.76751 0.781053 2.8315 2.41519 0.739261Z" fill="#7A1B1B"/>
<path d="M11.6457 0.259676C11.4975 0.375655 11.4709 0.589622 11.5861 0.738334C13.2203 2.83053 13.2203 5.76658 11.5861 7.85877C11.4701 8.00774 11.4968 8.22256 11.6458 8.33859C11.7948 8.45461 12.0096 8.4279 12.1256 8.27893C13.9521 5.93965 13.9521 2.65746 12.1256 0.318178C12.0092 0.169508 11.7943 0.143312 11.6457 0.259676Z" fill="#7A1B1B"/>
<path d="M9.48888 1.96077C10.7287 3.27346 10.7287 5.32552 9.48888 6.63821C9.35944 6.77569 9.36598 6.99205 9.50341 7.12149C9.50333 7.12144 9.50345 7.12153 9.50341 7.12149C9.64097 7.25084 9.8575 7.2443 9.98681 7.10674C9.98673 7.10679 9.98685 7.1067 9.98681 7.10674C11.4741 5.53086 11.4743 3.06829 9.98698 1.49241C9.85874 1.35382 9.64242 1.34549 9.50388 1.47373C9.3653 1.60197 9.35696 1.81829 9.48521 1.95683C9.4864 1.95816 9.48764 1.95948 9.48888 1.96077Z" fill="#7A1B1B"/>
<path d="M4.26205 7.21433C4.45085 7.21442 4.604 7.06143 4.60409 6.87263C4.60413 6.78554 4.57093 6.70174 4.51127 6.63828C3.27144 5.32559 3.27144 3.27353 4.51127 1.96084C4.6417 1.8243 4.63674 1.6079 4.5002 1.47748C4.36367 1.34705 4.14727 1.35201 4.01684 1.48855C4.01561 1.48983 4.01437 1.49115 4.01317 1.49248C2.52587 3.06836 2.52587 5.53076 4.01317 7.10664C4.07774 7.17532 4.16778 7.21429 4.26205 7.21433Z" fill="#7A1B1B"/>
<path d="M11.4341 18.5729L8.10536 5.59249C8.8255 4.98209 8.91443 3.90345 8.30402 3.1833C7.69362 2.46316 6.61498 2.37423 5.89483 2.98463C5.17469 3.59504 5.08576 4.67368 5.69616 5.39382C5.7568 5.4654 5.82325 5.53185 5.89483 5.59249L2.5664 18.5729C2.51935 18.7558 2.62947 18.9421 2.81233 18.9892C2.81216 18.9891 2.8125 18.9892 2.81233 18.9892C2.84006 18.9962 2.86908 18.9999 2.89767 18.9999C3.05365 18.9998 3.18975 18.8942 3.2286 18.7432L3.34278 18.2987C3.36193 18.2933 3.38056 18.2862 3.39851 18.2775L9.78906 14.9139L10.7709 18.7428C10.8097 18.8943 10.9462 19.0001 11.1025 18.9999C11.1312 18.9999 11.1598 18.9964 11.1876 18.9893C11.3706 18.9426 11.4809 18.7558 11.4341 18.5729C11.4342 18.5731 11.4341 18.5727 11.4341 18.5729ZM8.13818 8.47376L6.27909 6.84681L6.5143 5.92992C6.67147 5.97996 6.83514 6.00654 7.00009 6.00889C7.165 6.00654 7.32872 5.97996 7.48589 5.92992L8.13818 8.47376ZM7.00009 3.27394C7.56653 3.27394 8.0257 3.73311 8.0257 4.29955C8.0257 4.86598 7.56653 5.32515 7.00009 5.32515C6.43366 5.32515 5.97449 4.86598 5.97449 4.29955C5.97449 3.73311 6.43366 3.27394 7.00009 3.27394ZM6.08901 7.58866L8.14809 9.391L5.10546 11.4183L6.08901 7.58866ZM3.56944 17.4143L4.79675 12.6281L8.96755 14.5741L3.56944 17.4143ZM5.30237 12.1099L8.52038 9.96431L9.58257 14.1071L5.30237 12.1099Z" fill="#7A1B1B"/>
</svg>
