<svg width="14" height="14" viewBox="0 0 14 14" fill="none" xmlns="http://www.w3.org/2000/svg">
<path d="M12.6012 1.4H13.0678C13.2078 1.4 13.3012 1.30668 13.3012 1.16668V0.233324C13.3012 0.0933242 13.2078 0 13.0678 0H0.934496C0.794496 0 0.701172 0.0933242 0.701172 0.233324V1.16665C0.701172 1.30665 0.794496 1.39997 0.934496 1.39997H1.40117L1.40129 14H12.6012V1.4ZM1.16785 0.466676H12.8345V0.933352H1.16785V0.466676ZM5.8345 13.5333V9.8H6.76782V13.5333H5.8345ZM7.2345 13.5333V9.8H8.16782V13.5333H7.2345ZM8.6345 13.5333V9.56668C8.6345 9.42668 8.54117 9.33335 8.40117 9.33335H5.60117C5.46117 9.33335 5.36785 9.42668 5.36785 9.56668V13.5334H1.86785V1.4H12.1345V13.5333H8.6345Z" fill="#7A1B1B"/>
<path d="M6.30117 2.3333H2.56784C2.42784 2.3333 2.33452 2.42662 2.33452 2.56662V4.43329C2.33452 4.57329 2.42784 4.66661 2.56784 4.66661H6.30117C6.44117 4.66661 6.53449 4.57329 6.53449 4.43329V2.56665C6.53449 2.42665 6.44117 2.3333 6.30117 2.3333ZM2.80117 2.79997H4.20117V4.19997H2.80117V2.79997ZM6.06784 4.19997H4.66784V2.79997H6.06784V4.19997Z" fill="#7A1B1B"/>
<path d="M4.66785 9.3333H2.56784C2.42784 9.3333 2.33452 9.42663 2.33452 9.56663V11.4333C2.33452 11.5733 2.42784 11.6666 2.56784 11.6666H4.66785C4.80785 11.6666 4.90117 11.5733 4.90117 11.4333V9.56663C4.90117 9.42665 4.80785 9.3333 4.66785 9.3333ZM4.43449 11.2H2.80117V9.79998H4.43449V11.2Z" fill="#7A1B1B"/>
<path d="M11.4345 9.3333H9.33447C9.19447 9.3333 9.10115 9.42663 9.10115 9.56663V11.4333C9.10115 11.5733 9.19447 11.6666 9.33447 11.6666H11.4345C11.5745 11.6666 11.6678 11.5733 11.6678 11.4333V9.56663C11.6678 9.42665 11.5745 9.3333 11.4345 9.3333ZM11.2011 11.2H9.56782V9.79998H11.2011V11.2Z" fill="#7A1B1B"/>
<path d="M11.4346 2.3333H7.70126C7.56126 2.3333 7.46793 2.42662 7.46793 2.56662V4.43329C7.46793 4.57329 7.56126 4.66661 7.70126 4.66661H11.4346C11.5746 4.66661 11.6679 4.57329 11.6679 4.43329V2.56665C11.6679 2.42665 11.5746 2.3333 11.4346 2.3333ZM7.93458 2.79997H9.33458V4.19997H7.93458V2.79997ZM11.2013 4.19997H9.80126V2.79997H11.2013V4.19997Z" fill="#7A1B1B"/>
<path d="M6.30117 5.59999H2.56784C2.42784 5.59999 2.33452 5.69331 2.33452 5.83331V7.69998C2.33452 7.83998 2.42784 7.9333 2.56784 7.9333H6.30117C6.44117 7.9333 6.53449 7.83998 6.53449 7.69998V5.83331C6.53449 5.69331 6.44117 5.59999 6.30117 5.59999ZM2.80117 6.06666H4.20117V7.46665H2.80117V6.06666ZM6.06784 7.46665H4.66784V6.06666H6.06784V7.46665Z" fill="#7A1B1B"/>
<path d="M11.4346 5.59999H7.70126C7.56126 5.59999 7.46793 5.69331 7.46793 5.83331V7.69998C7.46793 7.83998 7.56126 7.9333 7.70126 7.9333H11.4346C11.5746 7.9333 11.6679 7.83998 11.6679 7.69998V5.83331C11.6679 5.69331 11.5746 5.59999 11.4346 5.59999ZM7.93458 6.06666H9.33458V7.46665H7.93458V6.06666ZM11.2013 7.46665H9.80126V6.06666H11.2013V7.46665Z" fill="#7A1B1B"/>
</svg>
