<svg width="14" height="14" viewBox="0 0 14 14" fill="none" xmlns="http://www.w3.org/2000/svg">
<path d="M13.6956 13.3916H12.7826V4.08312L13.4804 4.78097C13.5398 4.84031 13.6177 4.87014 13.6956 4.87014C13.7735 4.87014 13.8514 4.84031 13.9108 4.78097C14.0297 4.66197 14.0297 4.46963 13.9108 4.35063L9.64972 0.0895991C9.59311 0.0326879 9.51551 0.000732422 9.43486 0.000732422H4.56545C4.4848 0.000732422 4.40719 0.0326879 4.35028 0.0899034L0.0892471 4.35094C-0.029749 4.46993 -0.029749 4.66228 0.0892471 4.78127C0.208243 4.90027 0.400585 4.90027 0.519581 4.78127L1.21773 4.08312V13.3916H0.304718C0.136724 13.3916 0.000380431 13.5279 0.000380431 13.6959C0.000380431 13.8639 0.136724 14.0003 0.304718 14.0003H13.6956C13.8636 14.0003 13.9999 13.8639 13.9999 13.6959C13.9999 13.5279 13.8636 13.3916 13.6956 13.3916ZM6.56982 10.6526L4.26111 12.9613V8.34385L6.56982 10.6526ZM4.69144 7.91352H9.30886L7.00015 10.2222L4.69144 7.91352ZM4.69144 13.3916L7.00015 11.0829L9.30886 13.3916H4.69144ZM9.73919 12.9613L7.43049 10.6526L9.73919 8.34385V12.9613ZM12.1739 13.3916H10.3479V7.60918C10.3479 7.56962 10.3397 7.53005 10.3244 7.49292C10.2937 7.41866 10.2344 7.35932 10.1598 7.32828C10.1227 7.31306 10.0831 7.30484 10.0435 7.30484H3.95677C3.91721 7.30484 3.87765 7.31306 3.84052 7.32828C3.76626 7.35901 3.70691 7.41836 3.67587 7.49292C3.66065 7.53005 3.65244 7.56962 3.65244 7.60918V13.3916H1.82641V3.47445L4.69144 0.609408H9.30886L12.1739 3.47445V13.3916Z" fill="#7A1B1B"/>
<path d="M8.82622 2.43494H5.17417C5.00617 2.43494 4.86983 2.57128 4.86983 2.73927V5.17398C4.86983 5.34197 5.00617 5.47832 5.17417 5.47832H8.82622C8.99421 5.47832 9.13056 5.34197 9.13056 5.17398V2.73927C9.13056 2.57128 8.99421 2.43494 8.82622 2.43494ZM8.52188 4.86964H5.4785V3.04361H8.52188V4.86964Z" fill="#7A1B1B"/>
</svg>
