<svg width="12" height="17" viewBox="0 0 12 17" fill="none" xmlns="http://www.w3.org/2000/svg">
<path d="M7.75113 4C7.04977 4 6.4777 4.61166 6.4777 5.36155V6.12181H5.5501V5.36155C5.5501 4.61166 4.97802 4 4.27666 4C3.57531 4 3 4.61166 3 5.36155C3 6.11145 3.57208 6.72311 4.27343 6.72311H4.98772V10.4069C4.98772 10.5728 5.11377 10.7076 5.26891 10.7076C5.42405 10.7076 5.5501 10.5728 5.5501 10.4069V6.72311H6.47447V10.4069C6.47447 10.5728 6.60052 10.7076 6.75566 10.7076C6.9108 10.7076 7.03685 10.5728 7.03685 10.4069V6.72311H7.75113C8.45249 6.72311 9.02456 6.11145 9.02456 5.36155C9.02456 4.61166 8.45249 4 7.75113 4ZM7.03685 5.36155C7.03685 4.93996 7.35682 4.59784 7.75113 4.59784C8.14544 4.59784 8.46542 4.93996 8.46542 5.36155C8.46542 5.78315 8.14544 6.12527 7.75113 6.12527H7.03685V5.36155ZM4.98449 5.36155V6.12181H4.2702C3.87589 6.12181 3.55591 5.7797 3.55591 5.3581C3.55591 4.9365 3.87589 4.59438 4.2702 4.59438C4.66451 4.59784 4.98449 4.93996 4.98449 5.36155Z" fill="#7A1B1B"/>
<path d="M8.83129 11.3211C8.8468 11.3138 8.86231 11.3064 8.87783 11.2954C11.0071 9.8564 12 8.06867 12 5.67523C12 2.54761 9.30834 0 6 0C2.69166 0 0 2.54761 0 5.6789C0 8.07234 0.992889 9.8564 3.12217 11.2991C3.13381 11.3064 3.1532 11.3174 3.16096 11.3211C3.17259 11.3284 3.46736 11.4826 3.55268 11.9195C3.2075 12.0553 2.97867 12.3783 2.97867 12.7307C2.97867 12.9363 3.05624 13.1345 3.19586 13.296C3.05624 13.4539 2.97867 13.6521 2.97867 13.8614C2.97867 14.0669 3.05624 14.2652 3.19586 14.4267C3.05624 14.5845 2.97867 14.7828 2.97867 14.992C2.97867 15.4802 3.39754 15.8767 3.91338 15.8767C4.09955 15.8767 4.25081 15.7335 4.25081 15.5573C4.25081 15.3811 4.09955 15.238 3.91338 15.238C3.76988 15.238 3.65352 15.1278 3.65352 14.992C3.65352 14.8562 3.76988 14.7461 3.91338 14.7461H6.89205C7.07822 14.7461 7.22948 14.6029 7.22948 14.4267C7.22948 14.2505 7.07822 14.1073 6.89205 14.1073H3.91338C3.76988 14.1073 3.65352 13.9972 3.65352 13.8614C3.65352 13.7255 3.76988 13.6154 3.91338 13.6154H6.89205C7.07822 13.6154 7.22948 13.4723 7.22948 13.296C7.22948 13.1198 7.07822 12.9767 6.89205 12.9767H3.91338C3.76988 12.9767 3.65352 12.8666 3.65352 12.7307C3.65352 12.5949 3.76988 12.4848 3.91338 12.4848H6.89205C7.07822 12.4848 7.22948 12.3416 7.22948 12.1654C7.22948 11.9892 7.07822 11.846 6.89205 11.846H4.22366C4.1073 11.1522 3.63801 10.8439 3.49838 10.7668C1.54363 9.44159 0.670976 7.87044 0.670976 5.67523C0.674855 2.90002 3.06399 0.638739 6 0.638739C8.936 0.638739 11.3251 2.90002 11.3251 5.6789C11.3251 7.87411 10.4525 9.44526 8.50162 10.7668C8.37751 10.8365 7.74919 11.2257 7.74919 12.1654C7.74919 12.3416 7.90045 12.4848 8.08662 12.4848C8.23012 12.4848 8.34648 12.5949 8.34648 12.7307C8.34648 12.8666 8.23012 12.9767 8.08662 12.9767C7.90045 12.9767 7.74919 13.1198 7.74919 13.296C7.74919 13.4723 7.90045 13.6154 8.08662 13.6154C8.23012 13.6154 8.34648 13.7255 8.34648 13.8614C8.34648 13.9972 8.23012 14.1073 8.08662 14.1073C7.90045 14.1073 7.74919 14.2505 7.74919 14.4267C7.74919 14.6029 7.90045 14.7461 8.08662 14.7461C8.23012 14.7461 8.34648 14.8562 8.34648 14.992C8.34648 15.1315 8.234 15.238 8.08662 15.238H5.10795C4.92178 15.238 4.77052 15.3811 4.77052 15.5573V16.1153C4.77052 16.6035 5.1894 17 5.70524 17H6.30252C6.81836 17 7.23723 16.6035 7.23723 16.1153V15.8694H8.09438C8.61797 15.8694 9.02909 15.4802 9.02909 14.9847C9.02909 14.7791 8.95152 14.5772 8.81189 14.4193C8.95152 14.2615 9.02909 14.0633 9.02909 13.854C9.02909 13.6485 8.95152 13.4466 8.81189 13.2887C8.95152 13.1309 9.02909 12.9326 9.02909 12.7234C9.02909 12.371 8.80026 12.0479 8.45507 11.9121C8.52877 11.4863 8.81965 11.3284 8.83129 11.3211ZM6.55462 16.1153C6.55462 16.2511 6.43827 16.3613 6.29476 16.3613H5.70136C5.55785 16.3613 5.4415 16.2511 5.4415 16.1153V15.8694H6.55462V16.1153Z" fill="#7A1B1B"/>
</svg>
