<svg width="14" height="14" viewBox="0 0 14 14" fill="none" xmlns="http://www.w3.org/2000/svg">
<path d="M14 2.42138C14 1.80503 13.5157 1.32075 12.8994 1.32075H10.9182V0.396226C10.9182 0.176101 10.7421 0 10.522 0C10.3019 0 10.1258 0.176101 10.1258 0.396226V1.32075H7.3522V0.396226C7.3522 0.176101 7.1761 0 6.95598 0C6.73585 0 6.60377 0.176101 6.60377 0.396226V1.32075H3.87421V0.396226C3.87421 0.176101 3.69811 0 3.47799 0C3.25786 0 3.08176 0.176101 3.08176 0.396226V1.32075H1.10063C0.484277 1.32075 0 1.80503 0 2.42138V12.8553C0 13.4717 0.484277 13.956 1.10063 13.956H12.8553C13.4717 13.956 13.956 13.4717 13.956 12.8553V2.42138H14ZM13.2075 12.8553C13.2075 13.0314 13.0314 13.2075 12.8553 13.2075H1.10063C0.924528 13.2075 0.748428 13.0314 0.748428 12.8553V2.42138C0.748428 2.24528 0.924528 2.06918 1.10063 2.06918H3.08176V2.99371C3.08176 3.21384 3.25786 3.38994 3.47799 3.38994C3.69811 3.38994 3.87421 3.21384 3.87421 2.99371V2.11321H6.60377V3.03774C6.60377 3.25786 6.77987 3.43396 7 3.43396C7.22013 3.43396 7.39623 3.25786 7.39623 3.03774V2.11321H10.1258V3.03774C10.1258 3.25786 10.3019 3.43396 10.522 3.43396C10.7421 3.43396 10.9182 3.25786 10.9182 3.03774V2.11321H12.8994C13.0755 2.11321 13.2516 2.28931 13.2516 2.46541V12.8553H13.2075Z" fill="#7A1B1B"/>
<path d="M4.75472 5.28302H3.08176V6.51572H4.75472V5.28302Z" fill="#7A1B1B"/>
<path d="M4.75472 7.48428H3.08176V8.71698H4.75472V7.48428Z" fill="#7A1B1B"/>
<path d="M4.75472 9.68553H3.08176V10.9182H4.75472V9.68553Z" fill="#7A1B1B"/>
<path d="M7.83648 9.68553H6.16352V10.9182H7.83648V9.68553Z" fill="#7A1B1B"/>
<path d="M7.83648 7.48428H6.16352V8.71698H7.83648V7.48428Z" fill="#7A1B1B"/>
<path d="M7.83648 5.28302H6.16352V6.51572H7.83648V5.28302Z" fill="#7A1B1B"/>
<path d="M10.9182 9.68553H9.24528V10.9182H10.9182V9.68553Z" fill="#7A1B1B"/>
<path d="M10.9182 7.48428H9.24528V8.71698H10.9182V7.48428Z" fill="#7A1B1B"/>
<path d="M10.9182 5.28302H9.24528V6.51572H10.9182V5.28302Z" fill="#7A1B1B"/>
</svg>
