<svg width="16" height="16" viewBox="0 0 16 16" fill="none" xmlns="http://www.w3.org/2000/svg">
<path d="M5.73736 13.5444C5.89011 13.5481 6.01569 13.4262 6.01863 13.274L6.01863 13.274C6.02153 13.1217 5.90052 12.996 5.74835 12.9929L5.7483 12.9929L5.73635 12.9926C4.93876 12.9769 4.53511 12.9689 4.32091 12.982C4.21414 12.9885 4.14656 13.0005 4.09937 13.024C4.04938 13.049 4.02673 13.0849 4.00588 13.118L4.00442 13.1203C3.95278 13.2021 3.94763 13.3056 3.99085 13.392L3.99087 13.3921C4.03926 13.4886 4.13675 13.5445 4.23775 13.5445C4.26108 13.5445 4.28455 13.5414 4.30751 13.5355C4.45777 13.5265 5.13059 13.5325 5.73736 13.5444ZM5.73736 13.5444C5.73733 13.5444 5.73729 13.5444 5.73725 13.5444L5.73846 13.4945L5.73747 13.5445C5.73744 13.5445 5.7374 13.5444 5.73736 13.5444ZM14.0215 0.95H1.9785C1.40217 0.95 0.95 1.40217 0.95 1.9785V14.0215C0.95 14.5978 1.40217 15.05 1.9785 15.05H14.0215C14.5978 15.05 15.05 14.5978 15.05 14.0215V1.9785C15.05 1.40217 14.5978 0.95 14.0215 0.95ZM14.4984 14.0215C14.4984 14.2894 14.2894 14.4984 14.0215 14.4984H1.9785C1.71073 14.4984 1.50161 14.2894 1.50161 14.0215V1.9785C1.50161 1.71074 1.71074 1.50161 1.9785 1.50161H14.0215C14.2894 1.50161 14.4984 1.71073 14.4984 1.9785V14.0215ZM4.98974 2.45488C3.59253 2.45488 2.45586 3.59155 2.45586 4.98876C2.45586 6.38597 3.59253 7.52264 4.98974 7.52264C6.38695 7.52264 7.52362 6.38597 7.52362 4.98876C7.52362 3.59155 6.38695 2.45488 4.98974 2.45488ZM4.98974 6.971C3.89675 6.971 3.00747 6.08172 3.00747 4.98873C3.00747 3.89575 3.89675 3.00646 4.98974 3.00646C6.08273 3.00646 6.97201 3.89575 6.97201 4.98873C6.97201 6.08175 6.08275 6.971 4.98974 6.971ZM11.0124 8.47637C10.0303 8.47637 9.23125 9.27537 9.23125 10.2576C9.23125 11.2397 10.0303 12.0387 11.0124 12.0387C11.9946 12.0387 12.7936 11.2397 12.7936 10.2576C12.7936 9.27537 11.9946 8.47637 11.0124 8.47637ZM11.0124 11.4871C10.3345 11.4871 9.78286 10.9355 9.78286 10.2575C9.78286 9.57956 10.3345 9.02795 11.0124 9.02795C11.6904 9.02795 12.242 9.57956 12.242 10.2575C12.242 10.9355 11.6904 11.4871 11.0124 11.4871ZM4.989 8.47637C4.00682 8.47637 3.20781 9.27537 3.20781 10.2576C3.20781 11.2397 4.00682 12.0387 4.989 12.0387C5.97118 12.0387 6.77019 11.2397 6.77019 10.2576C6.77019 9.27537 5.97118 8.47637 4.989 8.47637ZM4.989 11.4871C4.31104 11.4871 3.75942 10.9355 3.75942 10.2575C3.75942 9.57956 4.31104 9.02795 4.989 9.02795C5.66696 9.02795 6.21858 9.57956 6.21858 10.2575C6.21858 10.9355 5.66696 11.4871 4.989 11.4871ZM11.0112 2.45488C9.61401 2.45488 8.47734 3.59155 8.47734 4.98876C8.47734 6.38597 9.61401 7.52264 11.0112 7.52264C12.4084 7.52264 13.5451 6.38597 13.5451 4.98876C13.5451 3.59155 12.4084 2.45488 11.0112 2.45488ZM11.0112 6.971C9.91824 6.971 9.02895 6.08172 9.02895 4.98873C9.02895 3.89575 9.91824 3.00646 11.0112 3.00646C12.1042 3.00646 12.9935 3.89575 12.9935 4.98873C12.9935 6.08175 12.1042 6.971 11.0112 6.971ZM9.91216 12.993H9.88205C9.72981 12.993 9.60625 13.1165 9.60625 13.2688C9.60625 13.421 9.72981 13.5446 9.88205 13.5446H9.91216C10.0644 13.5446 10.188 13.421 10.188 13.2688C10.188 13.1165 10.0644 12.993 9.91216 12.993ZM10.6641 12.993H10.634C10.4818 12.993 10.3582 13.1165 10.3582 13.2688C10.3582 13.421 10.4818 13.5446 10.634 13.5446H10.6641C10.8164 13.5446 10.9399 13.421 10.9399 13.2688C10.9399 13.1165 10.8164 12.993 10.6641 12.993ZM11.4161 12.993H11.386C11.2337 12.993 11.1102 13.1165 11.1102 13.2688C11.1102 13.421 11.2337 13.5446 11.386 13.5446H11.4161C11.5683 13.5446 11.6919 13.421 11.6919 13.2688C11.6919 13.1165 11.5683 12.993 11.4161 12.993ZM12.17 12.993H12.1399C11.9876 12.993 11.8641 13.1165 11.8641 13.2688C11.8641 13.421 11.9876 13.5446 12.1399 13.5446H12.17C12.3222 13.5446 12.4458 13.421 12.4458 13.2688C12.4458 13.1165 12.3222 12.993 12.17 12.993Z" fill="#7A1B1B" stroke="#7A1B1B" stroke-width="0.1"/>
</svg>
