<svg width="18" height="17" viewBox="0 0 18 17" fill="none" xmlns="http://www.w3.org/2000/svg">
<path d="M17.0016 7.93345C17.0019 7.18631 16.6743 6.47671 16.1054 5.99236C16.3222 5.63869 16.4363 5.23166 16.4349 4.81683C16.4334 3.6675 15.5731 2.7006 14.4318 2.56549C14.445 2.4665 14.4517 2.36674 14.4516 2.26686C14.4546 1.01784 13.4444 0.00295638 12.1954 1.68403e-05C11.4604 -0.00171855 10.7705 0.353824 10.3453 0.953349C9.62383 -0.0648655 8.21352 -0.305377 7.19531 0.416121C6.9872 0.563594 6.80555 0.745244 6.65808 0.953349C5.93258 -0.0645113 4.51933 -0.301516 3.50147 0.423948C2.81883 0.910495 2.46105 1.73452 2.57162 2.56549C1.43026 2.7006 0.569971 3.6675 0.568484 4.81683C0.567067 5.23166 0.681178 5.63869 0.897996 5.99236C-0.173874 6.90581 -0.302293 8.51526 0.61116 9.58713C0.698992 9.69023 0.794935 9.78614 0.897996 9.87397C0.681072 10.2278 0.566961 10.635 0.568484 11.0501C0.5699 12.3013 1.58386 13.3153 2.83512 13.3167H4.53509V16.4333H3.6851C3.52864 16.4333 3.40178 16.5602 3.40178 16.7167C3.40178 16.8731 3.52864 17 3.6851 17H13.3183C13.4748 17 13.6016 16.8731 13.6016 16.7167C13.6016 16.5602 13.4748 16.4333 13.3183 16.4333H12.4683V13.3167H14.1683C15.4195 13.3153 16.4335 12.3013 16.4349 11.0501C16.4363 10.6352 16.3222 10.2282 16.1054 9.87454C16.6743 9.39019 17.0019 8.68055 17.0016 7.93345ZM2.83512 12.7475C1.89762 12.7466 1.13748 11.9876 1.13514 11.0501C1.13404 10.6647 1.26537 10.2907 1.50715 9.9907C1.6048 9.86844 1.58486 9.69016 1.4626 9.59248C1.45669 9.58774 1.45056 9.58324 1.44425 9.57902C0.53544 8.9676 0.294327 7.73522 0.905716 6.82637C1.04876 6.61377 1.23162 6.43088 1.44425 6.28787C1.57395 6.20036 1.60816 6.02423 1.52061 5.89454C1.51636 5.88824 1.51186 5.88214 1.50715 5.87619C1.26537 5.57615 1.13404 5.20215 1.13514 4.81683C1.13606 3.87833 1.89662 3.11777 2.83512 3.11685L2.9085 3.12082C3.00012 3.12539 3.08806 3.08434 3.14338 3.01117C3.19969 2.93892 3.21733 2.84379 3.1907 2.75617C2.92529 1.85561 3.4402 0.910389 4.3408 0.64498C5.14138 0.409038 5.9948 0.789195 6.35492 1.54211C6.35492 1.54494 6.35492 1.54777 6.35293 1.55061C6.31762 1.65682 6.29032 1.76555 6.27133 1.87587C6.26793 1.89485 6.26538 1.91412 6.26255 1.93253C6.22866 2.1417 6.22607 2.35473 6.2549 2.56464C5.11323 2.69983 4.25283 3.66715 4.25176 4.81683C4.25035 5.23166 4.36446 5.63869 4.58128 5.99236C4.57618 5.99689 4.57193 6.00171 4.56683 6.00624L3.24793 4.68734C3.13538 4.57865 2.95599 4.58177 2.8473 4.69432C2.74126 4.80411 2.74126 4.97818 2.8473 5.08797L4.18235 6.42302C3.38821 7.49974 3.56246 9.00734 4.58128 9.87454C4.47195 10.0529 4.38836 10.2457 4.33308 10.4474L3.31876 9.43311C3.20621 9.32438 3.02686 9.3275 2.91813 9.44005C2.8121 9.54984 2.8121 9.72391 2.91813 9.83374L4.258 11.1736C4.26026 11.213 4.26083 11.2526 4.26508 11.2912C4.26791 11.3178 4.2733 11.3433 4.27698 11.3694C4.28435 11.4218 4.29171 11.4739 4.30276 11.5252C4.30928 11.5558 4.31835 11.5853 4.326 11.6153C4.33761 11.6606 4.34923 11.7063 4.36368 11.7505C4.37388 11.7819 4.38606 11.8119 4.39768 11.8428C4.41326 11.8842 4.42884 11.9258 4.44698 11.9661C4.46058 11.9967 4.47531 12.0264 4.49033 12.0562C4.50959 12.095 4.52943 12.1332 4.55068 12.1695C4.56739 12.1978 4.58524 12.2262 4.60337 12.2545C4.62604 12.2905 4.64927 12.3256 4.67392 12.3599C4.69347 12.3882 4.71387 12.4146 4.73484 12.4412C4.76062 12.4746 4.78754 12.5067 4.81531 12.5384C4.83769 12.5639 4.86035 12.5891 4.88359 12.6135C4.91192 12.6441 4.94337 12.6733 4.97454 12.7022C4.99012 12.7169 5.00457 12.7333 5.02072 12.7475H2.83512ZM8.21837 16.4333H5.10175V13.3167H8.21837V16.4333ZM8.5017 3.68351C8.34523 3.68351 8.21837 3.81037 8.21837 3.96684V5.97451L6.93121 4.68734C6.81866 4.57865 6.63927 4.58177 6.53058 4.69432C6.42454 4.80411 6.42454 4.97818 6.53058 5.08797L8.21837 6.77576V10.6494L7.00204 9.43311C6.88949 9.32438 6.71014 9.3275 6.60141 9.44005C6.49538 9.54984 6.49538 9.72391 6.60141 9.83374L8.21837 11.4507V12.75H6.5184C5.5799 12.7491 4.81934 11.9886 4.81842 11.0501C4.81732 10.6647 4.94865 10.2907 5.19043 9.9907C5.28808 9.86844 5.26814 9.69016 5.14588 9.59248C5.13997 9.58774 5.13384 9.58324 5.12753 9.57902C4.21872 8.9676 3.97761 7.73522 4.589 6.82637C4.73204 6.61377 4.9149 6.43088 5.12753 6.28787C5.25723 6.20036 5.29144 6.02423 5.20389 5.89454C5.19964 5.88824 5.19514 5.88214 5.19043 5.87619C4.94865 5.57615 4.81732 5.20215 4.81842 4.81683C4.81934 3.87833 5.5799 3.11777 6.5184 3.11685L6.59178 3.12082C6.68351 3.12592 6.77166 3.08476 6.82666 3.01117C6.88297 2.93892 6.90061 2.84379 6.87398 2.75617C6.82623 2.59744 6.80187 2.43261 6.80173 2.26686C6.80187 2.16228 6.81186 2.05794 6.83148 1.9552C6.83148 1.95123 6.83148 1.94698 6.83318 1.94302C6.85372 1.84074 6.8834 1.74051 6.92186 1.64354C7.17767 0.994467 7.80404 0.567596 8.5017 0.566888C9.19936 0.567596 9.82573 0.994467 10.0815 1.64354C10.1201 1.74115 10.1498 1.84205 10.1702 1.945C10.1702 1.94897 10.1702 1.95322 10.1719 1.95718C10.1914 2.05925 10.2014 2.16295 10.2017 2.26686C10.2015 2.43261 10.1772 2.59744 10.1294 2.75617C10.1028 2.84379 10.1204 2.93892 10.1767 3.01117C10.232 3.08448 10.32 3.12556 10.4116 3.12082L10.485 3.11685C11.4235 3.11777 12.1841 3.87833 12.185 4.81683C12.1861 5.20215 12.0548 5.57615 11.813 5.87619C11.7153 5.99845 11.7353 6.17674 11.8575 6.27441C11.8634 6.27916 11.8696 6.28366 11.8759 6.28787C12.7847 6.8993 13.0258 8.13167 12.4144 9.04052C12.2713 9.25313 12.0885 9.43601 11.8759 9.57902C11.7462 9.66654 11.712 9.84266 11.7995 9.97236C11.8038 9.97866 11.8083 9.98475 11.813 9.9907C12.0548 10.2907 12.1861 10.6647 12.185 11.0501C12.1841 11.9886 11.4235 12.7491 10.485 12.75H8.78503V8.88118C8.80617 8.87074 8.8259 8.8576 8.84368 8.84208L10.6853 7.00044C10.794 6.88789 10.7909 6.70854 10.6784 6.59982C10.5686 6.49378 10.3945 6.49378 10.2847 6.59982L8.78503 8.09948V3.96684C8.78503 3.81033 8.65817 3.68351 8.5017 3.68351ZM11.9017 16.4333H8.78503V13.3167H11.9017V16.4333ZM15.4828 9.97236C15.487 9.97866 15.4915 9.98475 15.4962 9.9907C15.738 10.2907 15.8693 10.6647 15.8682 11.0501C15.8673 11.9886 15.1067 12.7491 14.1682 12.75H11.9827C11.9988 12.7359 12.0133 12.7194 12.0289 12.7047C12.06 12.6764 12.0903 12.6466 12.1198 12.616C12.143 12.5917 12.1657 12.5664 12.1881 12.5409C12.2164 12.5092 12.2428 12.4772 12.2686 12.4438C12.2895 12.4171 12.3099 12.3902 12.3295 12.3624C12.3541 12.3282 12.3774 12.293 12.4 12.2571C12.4182 12.2287 12.436 12.2004 12.4527 12.1721C12.474 12.1347 12.4938 12.0964 12.5131 12.0587C12.5278 12.029 12.5414 11.9992 12.5564 11.9686C12.5746 11.9284 12.5901 11.8867 12.6057 11.8454C12.6173 11.8145 12.6295 11.7845 12.6397 11.753C12.6542 11.7088 12.6658 11.6632 12.6774 11.6179C12.6851 11.5878 12.6941 11.5584 12.7006 11.5278C12.7117 11.4765 12.7191 11.4243 12.7264 11.3719C12.7301 11.3459 12.7355 11.3204 12.7383 11.2937C12.7471 11.2128 12.7516 11.1315 12.7516 11.0501C12.7531 10.6352 12.6389 10.2282 12.4221 9.87454C12.9569 9.41777 13.2788 8.76006 13.3115 8.05755L14.3686 7.00044C14.4773 6.88789 14.4742 6.70854 14.3617 6.59982C14.2519 6.49378 14.0778 6.49378 13.968 6.59982L13.2424 7.32542C13.1155 6.80647 12.8285 6.34057 12.4221 5.99378C12.6392 5.63972 12.7533 5.23215 12.7516 4.81683C12.7502 3.6675 11.8899 2.7006 10.7485 2.56549C10.777 2.35555 10.7742 2.14248 10.74 1.93338C10.7372 1.91412 10.7346 1.89485 10.7312 1.87672C10.7122 1.7664 10.6849 1.65767 10.6496 1.55146C10.6496 1.54862 10.6496 1.54579 10.6476 1.54296C11.0528 0.69598 12.0678 0.337781 12.9147 0.742906C13.6676 1.10302 14.0478 1.95648 13.8119 2.75702C13.7852 2.84464 13.8029 2.93977 13.8592 3.01202C13.9145 3.08519 14.0024 3.12624 14.0941 3.12167L14.1683 3.11685C15.1068 3.11777 15.8673 3.87833 15.8683 4.81683C15.8694 5.20215 15.738 5.57615 15.4962 5.87619C15.3986 5.99845 15.4185 6.17674 15.5408 6.27441C15.5467 6.27916 15.5528 6.28366 15.5591 6.28787C16.468 6.8993 16.7091 8.13167 16.0977 9.04052C15.9546 9.25313 15.7718 9.43601 15.5591 9.57902C15.4294 9.66654 15.3952 9.84266 15.4828 9.97236Z" fill="#7A1B1B"/>
</svg>
