<svg width="14" height="15" viewBox="0 0 14 15" fill="none" xmlns="http://www.w3.org/2000/svg">
<path d="M12.1104 10.2502H1.86667C1.24826 10.2502 0.744376 9.75771 0.744376 9.15249C0.744376 8.54727 1.24826 8.05479 1.86667 8.05479H10.7448L12.8691 5.26305C13.3873 4.57476 13.854 3.8835 13.854 2.98161C13.8511 1.34691 12.4798 0.00890032 10.7935 0H10.7734C9.07566 0 7.6957 1.33801 7.6957 2.98457C7.6957 3.88647 8.16237 4.57773 8.68057 5.26602L10.1436 7.20332L10.2524 7.34573H1.86667C0.835992 7.34573 0 8.15566 0 9.15249C0 10.1493 0.835992 10.9593 1.86667 10.9593H12.1104C12.7431 10.9593 13.2556 11.4606 13.2556 12.0777C13.2556 12.6948 12.7403 13.1962 12.1104 13.1962H2.93742L2.91738 13.1339C2.82577 12.8432 2.63967 12.5821 2.38773 12.3981C2.1272 12.2083 1.81513 12.1074 1.48875 12.1074C0.669939 12.1133 0 12.7601 0 13.5552C0 14.3503 0.669939 15 1.49162 15C1.818 15 2.13006 14.8991 2.39059 14.7093C2.64254 14.5253 2.82863 14.2642 2.92025 13.9735L2.94029 13.9112H12.1104C13.1526 13.9112 14 13.0894 14 12.0807C14 11.072 13.1526 10.2502 12.1104 10.2502ZM9.28466 4.84771C8.82372 4.23655 8.44008 3.67286 8.44008 2.98161C8.44008 1.73556 9.48221 0.714992 10.762 0.709059H10.7734C12.0618 0.709059 13.1067 1.72963 13.1067 2.98161C13.1067 3.67286 12.7231 4.23358 12.2622 4.84771C12.2479 4.86551 10.9309 6.6159 10.865 6.70194C10.8622 6.70787 10.8564 6.71084 10.8536 6.71677L10.8421 6.73161L10.7734 6.82358L10.7076 6.73457L9.28466 4.84771ZM1.49162 14.288C1.07935 14.288 0.744376 13.9587 0.744376 13.5552C0.744376 13.1517 1.07935 12.8224 1.49162 12.8224C1.90389 12.8224 2.23885 13.1517 2.23885 13.5552C2.23885 13.9587 1.90389 14.288 1.49162 14.288Z" fill="#7A1B1B"/>
<path d="M12.1651 2.98466C12.1651 2.24297 11.541 1.64071 10.7765 1.64071C10.0093 1.64071 9.388 2.24297 9.388 2.98466C9.388 3.72636 10.0121 4.32861 10.7765 4.32861C11.541 4.32861 12.1651 3.72636 12.1651 2.98466ZM10.1295 2.98466C10.1295 2.63458 10.4187 2.35274 10.7765 2.35274C11.1316 2.35274 11.4236 2.63755 11.4236 2.98466C11.4236 3.33474 11.1344 3.61659 10.7765 3.61659C10.4187 3.61659 10.1295 3.33474 10.1295 2.98466Z" fill="#7A1B1B"/>
</svg>
