<svg width="16" height="14" viewBox="0 0 16 14" fill="none" xmlns="http://www.w3.org/2000/svg">
<path d="M15.5411 4.84165C15.2216 4.52217 14.8535 4.43883 14.6764 4.4006C14.4611 4.352 14.2353 4.34158 14.0166 4.36935C13.131 2.31346 10.7626 0.920898 8.00172 0.920898C5.39715 0.920898 3.09471 2.32388 2.15707 4.4006C1.88271 4.34158 1.60142 4.34158 1.32709 4.40409C1.14998 4.44228 0.781856 4.52562 0.462373 4.84514C0.403347 4.90416 -0.100214 5.43204 0.0178707 6.18561C0.132472 6.93224 0.778405 7.39762 1.33057 7.51567C1.52159 7.55734 1.71605 7.55386 1.90706 7.51218C1.92442 7.5087 1.9418 7.50525 1.95567 7.50177C2.01125 7.59553 2.18836 8.09212 1.75772 10.2314C1.7473 10.2869 1.75079 10.346 1.76814 10.4015C2.02166 11.2142 2.43143 11.6101 3.10168 11.6865C3.11558 11.6865 3.126 11.6899 3.13987 11.6899V12.7318C3.13987 12.9228 3.29614 13.0791 3.48716 13.0791C3.67817 13.0791 3.83444 12.9228 3.83444 12.7318V11.6899H12.1691V12.7318C12.1691 12.9228 12.3253 13.0791 12.5164 13.0791C12.7074 13.0791 12.8636 12.9228 12.8636 12.7318V11.6899C12.8775 11.6899 12.888 11.6899 12.9018 11.6865C13.5721 11.6101 13.9853 11.2142 14.2354 10.4015C14.2527 10.346 14.2562 10.2869 14.2458 10.2314C13.8152 8.08867 13.9923 7.59205 14.0478 7.50177C14.0617 7.50525 14.0791 7.5087 14.0964 7.51218C14.284 7.55386 14.4819 7.55734 14.6695 7.51567C15.2216 7.39758 15.8676 6.93224 15.9822 6.18561C16.1002 5.42856 15.5967 4.90068 15.5411 4.84165ZM8.00172 1.61547C10.4535 1.61547 12.5545 2.81009 13.3532 4.58468C13.2351 4.65067 13.1205 4.7236 13.0129 4.80346C12.7108 5.01531 12.4434 5.27922 12.2315 5.58484C12.0683 5.82446 11.9398 6.08491 11.8426 6.35927C11.5786 7.08855 11.5023 7.95675 11.4814 8.56101H4.52202C4.50118 7.95675 4.42132 7.08855 4.16086 6.35927C4.06361 6.08491 3.93514 5.82446 3.7719 5.58484C3.56005 5.28271 3.29614 5.01531 2.99053 4.80346C2.92802 4.75831 2.86203 4.71318 2.79607 4.67151C3.62608 2.84828 5.67848 1.61547 8.00172 1.61547ZM15.3015 6.07795C15.232 6.52593 14.8014 6.77597 14.5305 6.83154C14.4298 6.85238 14.3291 6.8489 14.2319 6.82461C14.1138 6.80029 13.9506 6.76904 13.7665 6.85587C13.1866 7.11632 13.1241 8.10954 13.5512 10.2765C13.3325 10.919 13.0581 10.9676 12.8497 10.9919H3.15726C2.94889 10.9676 2.67108 10.919 2.45575 10.2765C2.8829 8.10954 2.82039 7.11632 2.24045 6.85587C2.0564 6.77252 1.89316 6.80377 1.77511 6.82461C1.67786 6.84893 1.57368 6.85238 1.47646 6.83154C1.20559 6.77252 0.774954 6.52593 0.70551 6.07795C0.639516 5.65773 0.952065 5.33476 0.952065 5.33131C1.12918 5.1542 1.34448 5.1056 1.47646 5.07779C1.65357 5.03612 1.8411 5.03612 2.01821 5.07779C2.24741 5.12988 2.38979 5.23058 2.59122 5.3695C2.82735 5.53619 3.03572 5.74108 3.19896 5.97725C3.32746 6.16826 3.42816 6.37662 3.50458 6.59192C3.78587 7.38023 3.83103 8.38038 3.83103 8.90478C3.83103 9.09579 3.9873 9.25207 4.17831 9.25207H11.8184C12.0094 9.25207 12.1657 9.09579 12.1657 8.90478C12.1657 8.37693 12.2108 7.37678 12.4921 6.58844C12.5685 6.37314 12.6692 6.16477 12.7977 5.97376C12.9644 5.73763 13.1693 5.52926 13.4055 5.36602C13.6034 5.2271 13.7493 5.1264 13.975 5.07431C14.1556 5.03612 14.3397 5.03612 14.5202 5.07431C14.6522 5.10208 14.8675 5.15072 15.0446 5.32783C15.0514 5.3348 15.364 5.65776 15.3015 6.07795Z" fill="#7A1B1B"/>
</svg>
