<svg width="14" height="16" viewBox="0 0 14 16" fill="none" xmlns="http://www.w3.org/2000/svg">
<path d="M10.1913 11.3149C10.7349 11.3149 11.1769 10.8176 11.1769 10.2062C11.1769 9.59476 10.7349 9.09743 10.1913 9.09743C9.648 9.09743 9.20581 9.59476 9.20581 10.2062C9.20581 10.8176 9.648 11.3149 10.1913 11.3149ZM10.1913 9.84699C10.3675 9.84699 10.5106 10.0082 10.5106 10.2062C10.5106 10.4042 10.3675 10.5653 10.1913 10.5653C10.0155 10.5653 9.87209 10.4042 9.87209 10.2062C9.87209 10.0082 10.0155 9.84699 10.1913 9.84699Z" fill="#7A1B1B"/>
<path d="M3.82771 11.3148C4.37117 11.3148 4.81325 10.8175 4.81325 10.2061C4.81325 9.59467 4.37117 9.09733 3.82771 9.09733C3.28424 9.09733 2.84216 9.59467 2.84216 10.2061C2.84216 10.8175 3.28424 11.3148 3.82771 11.3148ZM3.82771 9.8469C4.00372 9.8469 4.14697 10.0081 4.14697 10.2061C4.14697 10.4041 4.00372 10.5652 3.82771 10.5652C3.6517 10.5652 3.50845 10.4041 3.50845 10.2061C3.50845 10.0081 3.6517 9.8469 3.82771 9.8469Z" fill="#7A1B1B"/>
<path d="M6.33962 9.67492H5.67334V11.0128H6.33962V9.67492Z" fill="#7A1B1B"/>
<path d="M7.34255 9.67492H6.67627V11.0128H7.34255V9.67492Z" fill="#7A1B1B"/>
<path d="M8.34573 9.67492H7.67944V11.0128H8.34573V9.67492Z" fill="#7A1B1B"/>
<path d="M13.0893 3.91925H12.0871V3.40417C12.0871 2.71994 11.5923 2.16326 10.9839 2.16326H8.73743V1.12674C8.73743 0.919731 8.58818 0.751953 8.40429 0.751953H5.6149C5.43089 0.751953 5.28176 0.919731 5.28176 1.12674V2.16326H3.03516C2.42685 2.16326 1.93202 2.71994 1.93202 3.40417V3.91925H0.929821C0.745816 3.91925 0.59668 4.08703 0.59668 4.29404V8.11971C0.59668 8.32671 0.745816 8.49449 0.929821 8.49449H1.93202V12.2582C1.93202 12.7889 2.2304 13.2415 2.64772 13.4185V15.1232C2.64772 15.3302 2.79686 15.498 2.98086 15.498H4.67433C4.85833 15.498 5.00747 15.3302 5.00747 15.1232V13.4991H9.01138V15.1232C9.01138 15.3302 9.16063 15.498 9.34453 15.498H11.038C11.2221 15.498 11.3711 15.3302 11.3711 15.1232V13.4185C11.7887 13.2415 12.0868 12.7889 12.0868 12.2582V8.49449H13.089C13.2732 8.49449 13.4222 8.32671 13.4222 8.11971V4.29404C13.4224 4.08703 13.2734 3.91925 13.0893 3.91925ZM1.93202 7.74492H1.26296V4.66882H1.93202V7.74492ZM5.94804 1.50152H8.07104V2.16326H5.94804V1.50152ZM4.3413 14.7484H3.31411V13.4991H4.3413V14.7484ZM10.705 14.7484H9.67778V13.4991H10.705V14.7484ZM11.4207 12.2582C11.4207 12.5292 11.2248 12.7495 10.9838 12.7495H3.03516C2.7943 12.7495 2.5983 12.5292 2.5983 12.2582V8.20591H11.4207V12.2582ZM11.4207 7.45634H2.5983V3.40417C2.5983 3.13321 2.7943 2.91283 3.03516 2.91283H10.9838C11.2248 2.91283 11.4207 3.13321 11.4207 3.40417V7.45634ZM12.7561 7.74492H12.0871V4.66882H12.7561V7.74492Z" fill="#7A1B1B"/>
</svg>
