<svg width="17" height="17" viewBox="0 0 17 17" fill="none" xmlns="http://www.w3.org/2000/svg">
<path d="M12.4666 13.8833V10.7666C12.4666 10.285 12.0983 9.91664 11.6167 9.91664H11.475C11.3333 9.91664 11.22 9.83164 11.1917 9.71832L10.2 6.26166V6.23334C9.97332 5.72334 9.46332 5.38335 8.89666 5.38335H3.56998C3.00331 5.38335 2.49332 5.72334 2.26665 6.23334V6.26166L1.27498 9.71832C1.21831 9.83164 1.10498 9.91664 0.991664 9.91664H0.849988C0.368317 9.91664 0 10.285 0 10.7666V13.8833C0 14.365 0.368317 14.7333 0.849988 14.7333V16.1499C0.849988 16.6316 1.21831 16.9999 1.69998 16.9999H2.26665C2.74832 16.9999 3.11663 16.6316 3.11663 16.1499V14.7333H9.34997V16.1499C9.34997 16.6316 9.71829 16.9999 10.2 16.9999H10.7666C11.2483 16.9999 11.6166 16.6316 11.6166 16.1499V14.7333C12.0983 14.7333 12.4666 14.365 12.4666 13.8833ZM2.55 16.1499C2.55 16.3199 2.43668 16.4333 2.26668 16.4333H1.70001C1.53001 16.4333 1.41669 16.3199 1.41669 16.1499V14.7333H2.55003L2.55 16.1499ZM11.05 16.1499C11.05 16.3199 10.9367 16.4333 10.7667 16.4333H10.2C10.03 16.4333 9.91667 16.3199 9.91667 16.1499V14.7333H11.05L11.05 16.1499ZM11.9 13.8833C11.9 14.0533 11.7867 14.1666 11.6167 14.1666H0.849988C0.679991 14.1666 0.56667 14.0533 0.56667 13.8833V10.7666C0.56667 10.5966 0.679991 10.4833 0.849988 10.4833H0.991664C1.35998 10.4833 1.70001 10.2283 1.81333 9.85996L2.80499 6.43162C2.94667 6.1483 3.22999 5.94995 3.56998 5.94995H8.89666C9.20833 5.94995 9.52 6.11995 9.66164 6.43162L10.6533 9.85996C10.7666 10.2283 11.1067 10.4833 11.475 10.4833H11.6167C11.7866 10.4833 11.9 10.5966 11.9 10.7666L11.9 13.8833Z" fill="#7A1B1B"/>
<path d="M2.55 11.05C1.92666 11.05 1.41666 11.56 1.41666 12.1833C1.41666 12.8067 1.92666 13.3167 2.55 13.3167C3.17335 13.3167 3.68334 12.8067 3.68334 12.1833C3.68334 11.56 3.17335 11.05 2.55 11.05ZM2.55 12.75C2.23833 12.75 1.98333 12.495 1.98333 12.1833C1.98333 11.8717 2.23833 11.6167 2.55 11.6167C2.86168 11.6167 3.11667 11.8717 3.11667 12.1833C3.11667 12.495 2.86168 12.75 2.55 12.75Z" fill="#7A1B1B"/>
<path d="M9.91664 11.05C9.29329 11.05 8.7833 11.56 8.7833 12.1833C8.7833 12.8067 9.29329 13.3167 9.91664 13.3167C10.54 13.3167 11.05 12.8067 11.05 12.1833C11.05 11.56 10.54 11.05 9.91664 11.05ZM9.91664 12.75C9.60497 12.75 9.34997 12.495 9.34997 12.1833C9.34997 11.8717 9.60497 11.6167 9.91664 11.6167C10.2283 11.6167 10.4833 11.8717 10.4833 12.1833C10.4833 12.495 10.2283 12.75 9.91664 12.75Z" fill="#7A1B1B"/>
<path d="M6.79992 12.4666H5.66658C5.49659 12.4666 5.38327 12.5799 5.38327 12.7499C5.38327 12.9199 5.49659 13.0332 5.66658 13.0332H6.79992C6.96992 13.0332 7.08324 12.9199 7.08324 12.7499C7.08324 12.58 6.96992 12.4666 6.79992 12.4666Z" fill="#7A1B1B"/>
<path d="M7.36664 11.3333H5.09996C4.92997 11.3333 4.81665 11.4467 4.81665 11.6166C4.81665 11.7866 4.92997 11.9 5.09996 11.9H7.36664C7.53664 11.9 7.64996 11.7866 7.64996 11.6166C7.65 11.4467 7.53668 11.3333 7.36664 11.3333Z" fill="#7A1B1B"/>
<path d="M3.51336 9.91669H8.98168C9.15168 9.91669 9.32168 9.83169 9.43503 9.69001C9.54838 9.54834 9.5767 9.35002 9.52003 9.18002L8.84 6.91333C8.78333 6.68666 8.55665 6.51666 8.30165 6.51666H4.19335C3.93835 6.51666 3.74 6.65833 3.655 6.91333L2.97501 9.18002C2.91833 9.35002 2.94669 9.54834 3.06001 9.69001C3.17336 9.83166 3.34336 9.91669 3.51336 9.91669ZM4.19335 7.08333H8.30169L8.98168 9.35002H3.51336L4.19335 7.08333Z" fill="#7A1B1B"/>
<path d="M16.7166 0H11.8999C11.7299 0 11.6166 0.11332 11.6166 0.283318V5.1C11.6166 5.26999 11.7299 5.38332 11.8999 5.38332H13.8833V14.1667H13.3166C13.1466 14.1667 13.0333 14.28 13.0333 14.45V15.3H12.4666C12.2966 15.3 12.1833 15.4133 12.1833 15.5833V16.7166C12.1833 16.8866 12.2966 16.9999 12.4666 16.9999H15.8666C16.0366 16.9999 16.1499 16.8866 16.1499 16.7166V15.5833C16.1499 15.4133 16.0366 15.3 15.8666 15.3H15.2999V14.45C15.2999 14.28 15.1866 14.1667 15.0166 14.1667H14.4499V5.38332H16.7166C16.8866 5.38332 16.9999 5.26999 16.9999 5.1V0.283318C16.9999 0.11332 16.8866 0 16.7166 0ZM15.5832 16.4333H12.7499V15.8667H15.5833L15.5832 16.4333ZM14.7332 15.3H13.5999V14.7333H14.7332V15.3ZM16.4333 4.81668H12.1833V0.56667H16.4333V4.81668Z" fill="#7A1B1B"/>
<path d="M13.8833 4.25002C14.0533 4.25002 14.1666 4.1367 14.1666 3.9667V3.4H14.4499C15.0733 3.4 15.5833 2.89001 15.5833 2.26666C15.5833 1.64331 15.0733 1.13332 14.4499 1.13332H13.8833C13.7133 1.13332 13.6 1.24664 13.6 1.41663V3.96664C13.6 4.13667 13.7133 4.25002 13.8833 4.25002ZM15.0166 2.26669C15.0166 2.57837 14.7616 2.83336 14.4499 2.83336H14.1666V1.70002H14.4499C14.7616 1.70002 15.0166 1.95502 15.0166 2.26669Z" fill="#7A1B1B"/>
</svg>
