<svg width="10" height="15" viewBox="0 0 10 15" fill="none" xmlns="http://www.w3.org/2000/svg">
<path d="M5.28984 14.9999H0.952644C0.785817 14.9999 0.650391 14.873 0.650391 14.7166V0.288245C0.650391 0.131845 0.785817 0.00488281 0.952644 0.00488281H5.28984C5.45667 0.00488281 5.59209 0.131845 5.59209 0.288245V14.7166C5.59209 14.873 5.45667 14.9999 5.28984 14.9999ZM4.98758 13.0873H4.24107C4.07424 13.0873 3.93882 12.9604 3.93882 12.804C3.93882 12.6475 4.07424 12.5206 4.24107 12.5206H4.98758V11.5742H4.24107C4.07424 11.5742 3.93882 11.4472 3.93882 11.2908C3.93882 11.1344 4.07424 11.0075 4.24107 11.0075H4.98758V10.0526H3.56102C3.3942 10.0526 3.25877 9.92561 3.25877 9.76921C3.25877 9.61281 3.3942 9.48585 3.56102 9.48585H4.98758V8.53945H4.24107C4.07424 8.53945 3.93882 8.41249 3.93882 8.25609C3.93882 8.09969 4.07424 7.97272 4.24107 7.97272H4.98758V7.02349H4.24107C4.07424 7.02349 3.93882 6.89653 3.93882 6.74013C3.93882 6.58373 4.07424 6.45677 4.24107 6.45677H4.98758V5.51887H3.56102C3.3942 5.51887 3.25877 5.39191 3.25877 5.23551C3.25877 5.07911 3.3942 4.95215 3.56102 4.95215H4.98758V4.00575H4.24107C4.07424 4.00575 3.93882 3.87879 3.93882 3.72239C3.93882 3.56599 4.07424 3.43902 4.24107 3.43902H4.98758V2.49263H4.24107C4.07424 2.49263 3.93882 2.36566 3.93882 2.20926C3.93882 2.05286 4.07424 1.9259 4.24107 1.9259H4.98758V0.580005H1.2549V14.4332H4.98758V13.0873Z" fill="#7A1B1B"/>
<path d="M9.04654 12.2203C9.21337 12.2203 9.34879 12.3472 9.34879 12.5036C9.34879 12.5711 9.32311 12.6365 9.27628 12.6878L8.34232 14.2123C8.25858 14.3476 8.07363 14.3936 7.92924 14.3151C7.88349 14.2905 7.84572 14.2548 7.8195 14.2123L6.85533 12.6452C6.77192 12.5099 6.82145 12.3364 6.96594 12.2583C7.01223 12.2333 7.06478 12.2199 7.11831 12.2203H7.78022V2.78461H7.11831C6.95148 2.78522 6.8154 2.65876 6.81486 2.50236C6.81454 2.45218 6.82868 2.40291 6.85533 2.35962L7.8195 0.792574C7.90324 0.657215 8.08819 0.611286 8.23269 0.68979C8.27833 0.714373 8.3161 0.750084 8.34232 0.792574L9.30649 2.35962C9.3899 2.49497 9.34037 2.66847 9.19588 2.74657C9.14959 2.77156 9.09704 2.78491 9.04352 2.78461H8.3816V12.2203H9.04654ZM8.52372 2.21788L8.08248 1.50103L7.64113 2.21788H8.52372ZM7.64113 12.787L8.08248 13.5038L8.52372 12.787H7.64113Z" fill="#7A1B1B"/>
</svg>
