<svg width="11" height="16" viewBox="0 0 11 16" fill="none" xmlns="http://www.w3.org/2000/svg">
<path d="M5.50737 0C2.47239 0 0 2.45588 0 5.47059C0 9.11765 5.06323 13.7353 5.2853 13.9265C5.34452 13.9853 5.43335 14.0147 5.50737 14.0147C5.58139 14.0147 5.67022 13.9853 5.72944 13.9265C5.95151 13.7206 10.9999 9.00001 10.9999 5.47059C11.0147 2.44118 8.54234 0 5.50737 0ZM5.50737 13.2206C4.53026 12.2794 0.666214 8.39706 0.666214 5.45589C0.666214 2.80882 2.84251 0.647059 5.50737 0.647059C8.17223 0.647059 10.3485 2.80882 10.3485 5.45589C10.3485 8.30883 6.48448 12.2647 5.50737 13.2206Z" fill="#7A1B1B"/>
<path d="M9.78591 13.3529C9.60826 13.3529 9.46021 13.5 9.46021 13.6765C9.46021 14.4706 7.81688 15.3529 5.47773 15.3529C3.12377 15.3529 1.48045 14.4706 1.48045 13.6765C1.48045 13.5 1.3324 13.3529 1.15474 13.3529C0.977084 13.3529 0.829037 13.5 0.829037 13.6765C0.829037 14.9853 2.87209 16 5.47773 16C8.06856 16 10.1116 14.9853 10.1116 13.6765C10.1116 13.5 9.96357 13.3529 9.78591 13.3529Z" fill="#7A1B1B"/>
<path d="M5.46288 3.01475C4.04162 3.01475 2.87204 4.16181 2.87204 5.58828C2.87204 7.00004 4.02681 8.16181 5.46288 8.16181C6.88413 8.16181 8.05371 7.01475 8.05371 5.58828C8.05371 4.17651 6.88413 3.01475 5.46288 3.01475ZM5.46288 7.51475C4.39693 7.51475 3.53826 6.66181 3.53826 5.60298C3.53826 4.54416 4.39693 3.69122 5.46288 3.69122C6.52882 3.69122 7.38749 4.54416 7.38749 5.60298C7.38749 6.6471 6.52882 7.51475 5.46288 7.51475Z" fill="#7A1B1B"/>
</svg>
