<svg width="15" height="15" viewBox="0 0 15 15" fill="none" xmlns="http://www.w3.org/2000/svg">
<path d="M14.9068 14.4961L12.2701 0.375C12.2379 0.208008 12.0943 0.0878906 11.9244 0.0878906H3.07675C2.90683 0.0878906 2.76328 0.208008 2.73105 0.375L0.0943301 14.4961C0.0738223 14.5986 0.103119 14.7041 0.170502 14.7861C0.237885 14.8682 0.337494 14.9121 0.440033 14.9121H14.5611C14.6666 14.9121 14.7633 14.8652 14.8307 14.7861C14.898 14.7041 14.9273 14.5986 14.9068 14.4961ZM1.9371 14.209H0.864838L0.885346 14.1035L3.358 0.861328L3.37265 0.791016H4.44199L4.42148 0.896484L1.94882 14.1387L1.9371 14.209ZM7.85214 14.209V12.7734C7.85214 12.5801 7.69394 12.4219 7.50058 12.4219C7.30722 12.4219 7.14902 12.5801 7.14902 12.7734V14.209H2.65195L2.67246 14.1035L5.14511 0.861328L5.15683 0.791016H7.14902V2.22656C7.14902 2.41992 7.30722 2.57812 7.50058 2.57812C7.69394 2.57812 7.85214 2.41992 7.85214 2.22656V0.791016H9.84433L9.85898 0.861328L12.3316 14.1035L12.3521 14.209H7.85214ZM13.0641 14.209L13.0494 14.1387L10.5768 0.896484L10.5562 0.791016H11.6285L11.6432 0.861328L14.1158 14.1035L14.1363 14.209H13.0641Z" fill="#7A1B1B"/>
<path d="M7.5 3.66211C7.30664 3.66211 7.14844 3.82031 7.14844 4.01367V4.89258C7.14844 5.08594 7.30664 5.24414 7.5 5.24414C7.69336 5.24414 7.85156 5.08594 7.85156 4.89258V4.01367C7.85156 3.82031 7.69336 3.66211 7.5 3.66211Z" fill="#7A1B1B"/>
<path d="M7.5 9.78516C7.30664 9.78516 7.14844 9.94336 7.14844 10.1367V11.0156C7.14844 11.209 7.30664 11.3672 7.5 11.3672C7.69336 11.3672 7.85156 11.209 7.85156 11.0156V10.1367C7.85156 9.94336 7.69336 9.78516 7.5 9.78516Z" fill="#7A1B1B"/>
<path d="M7.5 6.29883C7.30664 6.29883 7.14844 6.45703 7.14844 6.65039V8.4082C7.14844 8.60156 7.30664 8.75977 7.5 8.75977C7.69336 8.75977 7.85156 8.60156 7.85156 8.4082V6.65039C7.85156 6.45703 7.69336 6.29883 7.5 6.29883Z" fill="#7A1B1B"/>
</svg>
