<svg width="17" height="14" viewBox="0 0 17 14" fill="none" xmlns="http://www.w3.org/2000/svg">
<path d="M15.2955 5.42722V5.4709L15.3387 5.47676C15.7365 5.5306 16.1246 5.71876 16.4204 6.07919C16.7164 6.43971 16.9229 6.97634 16.95 7.73194V10.3228C16.95 10.7479 16.6727 11.0703 16.3455 11.0703H16.1273H16.0773V11.1203V13.4714C16.0773 13.6807 16.0096 13.7946 15.9091 13.8599C15.8039 13.9283 15.653 13.95 15.4727 13.95H14.8545C14.6743 13.95 14.5234 13.9283 14.4181 13.8599C14.3177 13.7946 14.25 13.6807 14.25 13.4714V11.1203V11.0703H14.2H2.8H2.75V11.1203V13.4167C2.75 13.6263 2.68188 13.7558 2.5787 13.8348C2.47301 13.9157 2.32223 13.95 2.14545 13.95H1.52727C1.3505 13.95 1.19972 13.9157 1.09403 13.8348C0.990846 13.7558 0.922727 13.6263 0.922727 13.4167V11.1424V11.0924H0.872727H0.654545C0.327305 11.0924 0.05 10.77 0.05 10.3449V7.73101C0.05 6.97526 0.243195 6.43891 0.532179 6.07876C0.821039 5.71877 1.20892 5.53061 1.60671 5.47676L1.65 5.4709V5.42722V5.40506V2.06013C1.65 1.30549 1.86523 0.804394 2.17418 0.492045C2.48345 0.17939 2.89237 0.05 3.29091 0.05H13.6545C14.0526 0.05 14.4616 0.184615 14.7711 0.5002C15.0803 0.815479 15.2955 1.31676 15.2955 2.06013V5.40506V5.42722ZM2.20498 2.01013H2.16818V2.06013V5.40506V5.45506H2.21818H2.81818H2.86818V5.40506V3.5C2.86818 3.07489 3.14549 2.75253 3.47273 2.75253H7.47273C7.79997 2.75253 8.07727 3.07489 8.07727 3.5V5.40506V5.45506H8.12727H8.89091H8.94091V5.40506V3.5C8.94091 3.07489 9.21821 2.75253 9.54545 2.75253H13.5455C13.8727 2.75253 14.15 3.07489 14.15 3.5V5.40506V5.45506H14.2H14.6909H14.7409V5.40506V2.06013C14.7409 1.53078 14.5974 1.1997 14.384 1.00171C14.1713 0.804394 13.8978 0.747468 13.6545 0.747468H3.29091C3.04764 0.747468 2.77417 0.804394 2.56145 1.00171C2.35482 1.19339 2.21376 1.50981 2.20498 2.01013ZM13.5955 3.5V3.45H13.5455H9.54545H9.49545V3.5V5.40506V5.45506H9.54545H13.5455H13.5955V5.40506V3.5ZM7.55909 3.5V3.45H7.50909H3.50909H3.45909V3.5V5.40506V5.45506H3.50909H7.50909H7.55909V5.40506V3.5ZM2.12727 13.2525H2.17727V13.2025V11.1203V11.0703H2.12727H1.50909H1.45909V11.1203V13.2025V13.2525H1.50909H2.12727ZM15.4364 13.2525H15.4864V13.2025V11.1203V11.0703H15.4364H14.8182H14.7682V11.1203V13.2025V13.2525H14.8182H15.4364ZM16.2909 10.3949H16.3409V10.3449V9.17089V9.12089H16.2909H0.636364H0.586364V9.17089V10.3449V10.3949H0.636364H1.50909H2.12727H14.8182H15.4364H16.2909ZM16.2909 8.42342H16.3409V8.37342V7.73101C16.3409 7.05643 16.1421 6.65836 15.8733 6.43023C15.606 6.20343 15.2786 6.15253 15.0364 6.15253H14.6909H13.5455H9.54545H7.49091H3.49091H2.23636H1.89091C1.65755 6.15253 1.33039 6.20354 1.061 6.43009C0.789932 6.65805 0.586364 7.05605 0.586364 7.73101V8.37342V8.42342H0.636364H16.2909Z" fill="#7A1B1B" stroke="white" stroke-width="0.1"/>
</svg>
