<svg width="18" height="14" viewBox="0 0 18 14" fill="none" xmlns="http://www.w3.org/2000/svg">
<path d="M6.79785 6.83558C8.20643 6.83558 9.35518 5.9197 9.35518 4.79763C9.35518 3.67543 8.20985 2.75955 6.79785 2.75955C5.38585 2.75955 4.24052 3.67543 4.24052 4.79763C4.24052 5.9197 5.38927 6.83558 6.79785 6.83558ZM6.79785 3.48345C7.82344 3.48345 8.67137 4.08444 8.67137 4.7975C8.67137 5.51068 7.8132 6.11155 6.79785 6.11155C5.78238 6.11155 4.92421 5.51068 4.92421 4.7975C4.92421 4.08444 5.78238 3.47983 6.79785 3.47983V3.48345Z" fill="#7A1B1B"/>
<path d="M17.6391 8.56253H12.5929V4.79403C12.5929 2.31802 9.99115 0.301758 6.78087 0.301758C3.57046 0.301758 0.96875 2.31802 0.96875 4.79403V9.24667C0.96875 11.5272 3.17393 13.4096 6.015 13.6956H6.07316C6.30898 13.7174 6.54834 13.7355 6.79111 13.7355H17.6391C17.8279 13.7355 17.981 13.5733 17.981 13.3734V8.92442C17.981 8.72469 17.8279 8.56253 17.6391 8.56253ZM6.79794 1.02927C9.6184 1.02927 11.9263 2.7198 11.9263 4.79777C11.9263 6.87562 9.63218 8.56614 6.79794 8.56614C3.9637 8.56614 1.66963 6.87562 1.66963 4.79765C1.66963 2.7198 3.98077 1.02927 6.79794 1.02927ZM11.9263 6.90815V8.56253H9.94323C10.7173 8.19109 11.3925 7.62276 11.9091 6.90815H11.9263ZM17.2972 13.0114H16.6134V11.1797C16.6134 10.9799 16.4603 10.8176 16.2716 10.8176C16.0829 10.8176 15.9297 10.9798 15.9297 11.1797V13.015H14.5621V12.0195C14.5621 11.8196 14.409 11.6575 14.2202 11.6575C14.0314 11.6575 13.8783 11.8196 13.8783 12.0195V13.015H12.5108V12.0195C12.5108 11.8196 12.3577 11.6575 12.1689 11.6575C11.9801 11.6575 11.827 11.8196 11.827 12.0195V13.015H10.4594V11.1797C10.4594 10.9799 10.3062 10.8176 10.1175 10.8176C9.92885 10.8176 9.77557 10.9798 9.77557 11.1797V13.015H8.46624V12.0195C8.46624 11.8196 8.31297 11.6575 8.12434 11.6575C7.93559 11.6575 7.78244 11.8196 7.78244 12.0195V13.015H6.7977C6.66784 13.015 6.54139 13.015 6.41482 13.015V12.0195C6.41482 11.8196 6.26167 11.6575 6.07292 11.6575C5.88416 11.6575 5.73101 11.8196 5.73101 12.0195V12.9281C3.42353 12.5661 1.6867 11.053 1.6867 9.24305V6.90815C2.66449 8.32355 4.58934 9.28643 6.81501 9.28643H17.2972V13.0114Z" fill="#7A1B1B"/>
</svg>
