<svg width="15" height="19" viewBox="0 0 15 19" fill="none" xmlns="http://www.w3.org/2000/svg">
<path d="M0.398765 14.2C0.698765 14.3 0.898717 14.6 1.09872 14.9C1.49872 15.4 1.99877 15.9 2.89877 15.9C3.79877 15.9 4.29875 15.4 4.69875 14.9C5.09875 14.5 5.39874 14.1 5.99874 14.1C6.59874 14.1 6.89873 14.4 7.29873 14.9C7.69873 15.4 8.19871 15.9 9.09871 15.9C9.99871 15.9 10.4988 15.3 10.8988 14.9C11.2988 14.5 11.5988 14.1 12.1988 14.1C12.7988 14.1 13.0987 14.4 13.4987 14.9C13.6987 15.1 13.8988 15.4 14.1988 15.6C14.2988 15.6 14.3988 15.7 14.3988 15.6C14.4988 15.6 14.5987 15.5 14.5987 15.5C14.6987 15.4 14.6987 15.2 14.4987 15.1C14.2987 15 14.0988 14.7 13.8988 14.5C13.4988 14.1 12.9987 13.5 12.0987 13.5C11.1987 13.5 10.6987 14 10.2987 14.5C9.89873 14.9 9.59874 15.3 8.99874 15.3C8.39874 15.3 8.09875 15 7.69875 14.5C7.29875 14.1 6.79877 13.5 5.89877 13.5C4.99877 13.5 4.49872 14 4.09872 14.5C3.69872 14.9 3.39873 15.3 2.79873 15.3C2.19873 15.3 1.89874 15 1.49874 14.5C1.18299 14.1842 0.88354 13.7 0.398765 13.7C0.1476 13.7 -0.000800729 14 0.398765 14.2Z" fill="#7A1B1B"/>
<path d="M1.09922 12.5999C1.49922 13.0999 1.99926 13.5999 2.89926 13.5999C3.79926 13.5999 4.29925 13.0999 4.69925 12.5999C5.09925 12.1999 5.39924 11.7999 5.99924 11.7999C6.59924 11.7999 6.89923 12.0999 7.29923 12.5999C7.69923 13.0999 8.19921 13.5999 9.09921 13.5999C9.99921 13.5999 10.4993 12.9999 10.8993 12.5999C11.2993 12.1999 11.5992 11.7999 12.1992 11.7999C12.7992 11.7999 13.0992 12.0999 13.4992 12.5999C13.6992 12.7999 13.8992 13.0999 14.1992 13.2999C14.2992 13.3999 14.4992 13.3999 14.5992 13.1999C14.6992 13.0999 14.6992 12.8999 14.4992 12.7999C14.2992 12.6999 14.0993 12.4999 13.8993 12.1999C13.4993 11.6999 12.9992 11.1999 12.0992 11.1999C11.1992 11.1999 10.6992 11.7999 10.2992 12.1999C9.99922 12.4999 9.79924 12.7999 9.49924 12.8999V1.8999C9.49924 1.3999 8.99924 0.899902 8.49924 0.899902C8.19924 0.899902 7.99923 0.999921 7.79923 1.19992C7.59923 1.39992 7.49924 1.5999 7.49924 1.8999C7.49924 2.0999 7.59923 2.19992 7.79923 2.19992C7.9429 2.19992 8.09921 2.05683 8.09921 1.8999C8.09921 1.7999 8.09925 1.69991 8.19925 1.59991C8.29925 1.49991 8.39924 1.49991 8.49924 1.49991C8.59924 1.49991 8.69922 1.49991 8.79922 1.59991C8.89922 1.69991 8.89926 1.7999 8.89926 1.8999V3.69992H4.19925V1.8999C4.19925 1.3999 3.79925 0.899902 3.19925 0.899902C2.59925 0.899902 2.19925 1.2999 2.19925 1.8999C2.19925 2.0999 2.29924 2.19992 2.49924 2.19992C2.69924 2.19992 2.79923 2.0999 2.79923 1.8999C2.79923 1.6999 2.99925 1.49991 3.19925 1.49991C3.39925 1.49991 3.59922 1.6999 3.59922 1.8999V12.6999C3.39922 12.8999 3.09923 12.8999 2.79923 12.8999C2.19923 12.8999 1.89924 12.5999 1.49924 12.0999C1.18348 11.7842 0.88405 11.2999 0.399265 11.2999C-0.0524099 11.2999 0.0415462 11.7806 0.399265 11.8999C0.699265 11.9999 0.899216 12.2999 1.09922 12.5999ZM4.29923 6.3999V4.2999H8.89926V6.3999H4.29923ZM4.29923 9.09991V6.99991H8.89926V9.09991H4.29923ZM8.89926 9.69992V12.9999C8.29926 12.9999 8.09923 12.5999 7.79923 12.1999C7.39923 11.6999 6.89924 11.1999 5.99924 11.1999C5.09924 11.1999 4.69923 11.6999 4.29923 12.0999V9.69992H8.89926Z" fill="#7A1B1B"/>
<path d="M14.5993 17.2997C14.3993 17.0997 14.1993 16.8997 13.9993 16.6997C13.5993 16.2997 13.0994 15.6997 12.1994 15.6997C11.2994 15.6997 10.7994 16.1997 10.3994 16.6997C9.99937 17.0997 9.69932 17.4997 9.09932 17.4997C8.49932 17.4997 8.19934 17.1997 7.79934 16.6997C7.39934 16.1997 6.89935 15.6997 5.99935 15.6997C5.09935 15.6997 4.59936 16.1997 4.19936 16.6997C3.79936 17.0997 3.49938 17.4997 2.89938 17.4997C2.29938 17.4997 1.99933 17.1997 1.59933 16.6997C1.29933 16.3997 1.09936 16.0997 0.699364 15.8997C0.499364 15.7997 0.399339 15.8997 0.299339 15.9997C0.299339 16.0997 0.299339 16.1997 0.299339 16.1997C0.299339 16.2997 0.399376 16.2997 0.399376 16.3997C0.699376 16.4997 0.899327 16.7997 1.09933 17.0997C1.49933 17.5997 1.99938 18.0997 2.89938 18.0997C3.79938 18.0997 4.29936 17.4997 4.69936 17.0997C5.09936 16.6997 5.39935 16.2997 5.99935 16.2997C6.59935 16.2997 6.89934 16.5997 7.29934 17.0997C7.69934 17.4997 8.19932 18.0997 9.09932 18.0997C9.99932 18.0997 10.4994 17.4997 10.8994 17.0997C11.2994 16.6997 11.5994 16.2997 12.1994 16.2997C12.7994 16.2997 13.0993 16.5997 13.4993 17.0997C13.6993 17.2997 13.8994 17.5997 14.1994 17.7997C14.2994 17.8997 14.4993 17.8997 14.5993 17.6997C14.7993 17.5997 14.7993 17.3997 14.5993 17.2997Z" fill="#7A1B1B"/>
</svg>
