<svg width="20" height="20" viewBox="0 0 20 20" fill="none" xmlns="http://www.w3.org/2000/svg">
<path d="M8.66667 8H11V6.66667H11.0427C11.6686 6.66579 12.1753 6.15771 12.1745 5.53179C12.1744 5.46525 12.1684 5.39883 12.1567 5.33333L11.7807 3.264C11.6655 2.64875 11.0735 2.24333 10.4582 2.35846C9.99842 2.44446 9.63871 2.80417 9.55267 3.264L9.17667 5.33333C9.06621 5.94942 9.47613 6.53842 10.0922 6.64888C10.1577 6.66063 10.2241 6.66658 10.2907 6.66667H10.3333V8H8V5.63333C8.77554 5.47396 9.33246 4.79175 9.33333 4V1.66667C9.33333 0.746208 8.58713 0 7.66667 0C6.74621 0 6 0.746208 6 1.66667V4C6.00088 4.79175 6.55779 5.47396 7.33333 5.63333V8H6L0 14V20H20V14L14 8H8.66667ZM10.2907 6C10.0329 5.99887 9.82492 5.789 9.82608 5.53125C9.82621 5.50446 9.82863 5.47771 9.83333 5.45133L10.2093 3.38233C10.2588 3.12938 10.5039 2.96442 10.7569 3.01383C10.9432 3.05025 11.0889 3.19596 11.1254 3.38233L11.5 5.45133C11.5453 5.70504 11.3763 5.94746 11.1226 5.99275C11.0962 5.99746 11.0695 5.99987 11.0427 6H11V5.33333H10.3333V6H10.2907ZM6.66667 4V1.66667C6.66667 1.11438 7.11438 0.666667 7.66667 0.666667C8.21896 0.666667 8.66667 1.11438 8.66667 1.66667V4C8.66492 4.42225 8.39813 4.79792 8 4.93867V3.66667H7.33333V4.93867C6.93521 4.79792 6.66842 4.42225 6.66667 4ZM0.666667 14.138L6.138 8.66667H6.38833L0.666667 17.535V14.138ZM0.666667 19.3333V18.7647L7.18167 8.66667H7.515L3.43733 19.3333H0.666667ZM4.151 19.3333L8.22933 8.66667H8.60267L6.72033 19.3333H4.151ZM9.66667 19.3333H7.39733L9.27967 8.66667H9.66667V19.3333ZM10.3333 19.3333V8.66667H10.7203L12.6027 19.3333H10.3333ZM13.2797 19.3333L11.3973 8.66667H11.7707L15.849 19.3333H13.2797ZM19.3333 19.3333H16.5627L12.4843 8.66667H12.8177L19.3333 18.7647V19.3333ZM19.3333 17.535L13.6117 8.66667H13.862L19.3333 14.138V17.535Z" fill="#7A1B1B"/>
<path d="M13.5 0C12.6716 0 12 0.671583 12 1.5C12 2.32842 12.6716 3 13.5 3C14.3284 3 15 2.32842 15 1.5C15 0.671583 14.3284 0 13.5 0ZM13.5 2.33333C13.0397 2.33333 12.6667 1.96025 12.6667 1.5C12.6667 1.03975 13.0397 0.666667 13.5 0.666667C13.9602 0.666667 14.3333 1.03975 14.3333 1.5C14.3333 1.96025 13.9602 2.33333 13.5 2.33333Z" fill="#7A1B1B"/>
</svg>
