<svg width="16" height="15" viewBox="0 0 16 15" fill="none" xmlns="http://www.w3.org/2000/svg">
<path d="M15.5781 12.9791H14.4714V0.421875C14.4714 0.349355 14.4426 0.279805 14.3913 0.228525C14.34 0.177246 14.2705 0.148438 14.198 0.148438H1.80203C1.72951 0.148438 1.65996 0.177246 1.60868 0.228525C1.5574 0.279805 1.52859 0.349355 1.52859 0.421875V12.9791H0.421875C0.349355 12.9791 0.279805 13.0079 0.228525 13.0592C0.177246 13.1104 0.148438 13.18 0.148438 13.2525V14.5781C0.148438 14.6506 0.177246 14.7202 0.228525 14.7715C0.279805 14.8228 0.349355 14.8516 0.421875 14.8516H15.5781C15.6506 14.8516 15.7202 14.8228 15.7715 14.7715C15.8228 14.7202 15.8516 14.6506 15.8516 14.5781V13.2525C15.8516 13.18 15.8228 13.1104 15.7715 13.0592C15.7202 13.0079 15.6506 12.9791 15.5781 12.9791ZM12.0755 7.83031V12.9791H8.77156V1.73656H10.3205L12.0755 7.83031ZM13.9245 8.52734H12.6223V8.06516H13.9245V8.52734ZM12.6223 9.07422H13.9245V14.3047H12.6223V9.07422ZM13.9245 7.51828H12.5547L10.5898 0.695312H11.3322L11.9745 2.65141C11.9952 2.72042 12.0422 2.7785 12.1055 2.81302C12.1687 2.84754 12.243 2.85572 12.3122 2.83578C12.3814 2.81583 12.44 2.76938 12.4751 2.7065C12.5103 2.64363 12.5192 2.56942 12.5 2.5L11.9014 0.695312H12.5842L12.8691 1.33838C12.8897 1.4074 12.9368 1.46548 13 1.5C13.0632 1.53452 13.1375 1.5427 13.2067 1.52275C13.276 1.50281 13.3345 1.45635 13.3697 1.39348C13.4049 1.33061 13.4138 1.2564 13.3945 1.18698L13.1531 0.695312H13.9245V7.51828ZM2.07547 0.695312H10.0208L10.1631 1.18969H8.49813C8.4256 1.18969 8.35605 1.2185 8.30478 1.26978C8.2535 1.32105 8.22469 1.3906 8.22469 1.46312V12.9788H7.77531V1.46312C7.77531 1.3906 7.7465 1.32105 7.69522 1.26978C7.64395 1.2185 7.5744 1.18969 7.50187 1.18969H2.79844C2.72592 1.18969 2.65637 1.2185 2.60509 1.26978C2.55381 1.32105 2.525 1.3906 2.525 1.46312V12.9788H2.07547V0.695312ZM3.07187 12.9791V1.73656H7.22813V12.9791H3.07187ZM0.695312 13.5259H12.0755V14.3047H0.695312V13.5259ZM15.3047 14.3047H14.4714V13.5259H15.3047V14.3047Z" fill="#7A1B1B"/>
</svg>
