<svg width="13" height="14" viewBox="0 0 13 14" fill="none" xmlns="http://www.w3.org/2000/svg">
<path d="M2.70751 4.85186C2.70751 3.44617 2.70751 2.08442 2.70751 0.725242C2.70751 0.00689602 2.70492 0.00947997 3.41279 0.00947997C5.5054 0.00947997 7.59542 0.0249838 9.68803 -0.000855946C10.1711 -0.00602391 10.2926 0.154183 10.2822 0.614131C10.2538 1.83894 10.2719 3.06116 10.2719 4.28597C10.2719 4.45392 10.2719 4.62188 10.2719 4.85444C11.0211 4.85444 11.729 4.87511 12.4343 4.84669C12.8709 4.8286 12.9975 5.0069 12.9975 5.42033C12.9845 7.76142 12.9845 10.0999 13 12.441C13.0026 12.8699 12.8502 13.0043 12.4291 13.0017C8.46347 12.9914 4.49527 12.9914 0.529645 13.0017C0.121457 13.0017 3.4485e-05 12.8596 0.00261795 12.4565C0.0181187 10.1154 0.0181187 7.77434 3.4485e-05 5.43584C-0.00254898 4.98881 0.139542 4.82602 0.589065 4.84411C1.26852 4.87253 1.95055 4.85186 2.70751 4.85186ZM9.71387 12.4384C9.71387 8.4746 9.71387 4.53403 9.71387 0.590875C7.54892 0.590875 5.42015 0.590875 3.29395 0.590875C3.29395 4.55728 3.29395 8.48752 3.29395 12.4307C3.73056 12.4307 4.13875 12.4307 4.58569 12.4307C4.58569 11.6245 4.57019 10.8519 4.58827 10.0792C4.61927 8.73558 5.77666 7.84669 7.01931 8.19294C7.82535 8.41775 8.37305 9.14385 8.38596 10.0302C8.3963 10.8286 8.38855 11.6296 8.38855 12.4384C8.86649 12.4384 9.27726 12.4384 9.71387 12.4384ZM10.3029 12.4255C11.0521 12.4255 11.7419 12.4255 12.4291 12.4255C12.4291 10.0741 12.4291 7.75883 12.4291 5.43584C11.7057 5.43584 11.0159 5.43584 10.3029 5.43584C10.3029 7.77692 10.3029 10.0896 10.3029 12.4255ZM0.583898 5.43325C0.583898 7.78467 0.583898 10.0973 0.583898 12.4307C1.29952 12.4307 1.98414 12.4307 2.68167 12.4307C2.68167 10.0844 2.68167 7.76917 2.68167 5.43325C1.97897 5.43325 1.30468 5.43325 0.583898 5.43325ZM5.15405 12.4307C6.07376 12.4307 6.93147 12.4307 7.82535 12.4307C7.82535 11.6115 7.8331 10.826 7.82277 10.0431C7.81502 9.27821 7.31124 8.72266 6.60079 8.67356C5.87742 8.62188 5.22897 9.087 5.16955 9.82602C5.10496 10.6813 5.15405 11.5444 5.15405 12.4307Z" fill="#7A1B1B"/>
</svg>
