<svg width="14" height="14" viewBox="0 0 14 14" fill="none" xmlns="http://www.w3.org/2000/svg">
<path d="M0.277849 13.9999C0.203365 13.9999 0.137476 13.9752 0.0830462 13.9341C0.134612 13.9752 0.203365 13.9999 0.277849 13.9999Z" fill="#7A1B1B"/>
<path d="M13.7221 12.274H13.3869V0.265753C13.3869 0.120548 13.2638 0 13.1091 0H0.88807C0.736239 0 0.61019 0.117808 0.61019 0.265753V12.274H0.27788C0.126049 12.274 0 12.3918 0 12.5397V13.7096C0 13.8548 0.123184 13.9753 0.27788 13.9753H13.7221C13.874 13.9753 14 13.8575 14 13.7096V12.5397C14 12.3918 13.874 12.274 13.7221 12.274ZM1.16595 0.528767H12.834V12.274H12.1666V1.43288C12.1666 1.28767 12.0434 1.16712 11.8887 1.16712H2.11132C1.95948 1.16712 1.83344 1.28493 1.83344 1.43288V12.274H1.16595V0.528767ZM7.27645 6.72055V1.69863H11.6108V6.72055H7.27645ZM11.6108 7.25206V12.274H7.27645V7.25206H11.6108ZM2.38633 6.72055V1.69863H6.72069V6.72055H2.38633ZM6.72355 7.25206V12.274H2.38633V7.25206H6.72355ZM13.4442 13.4411H0.552895V12.8027H13.4442V13.4411Z" fill="#7A1B1B"/>
</svg>
