<svg width="18" height="17" viewBox="0 0 18 17" fill="none" xmlns="http://www.w3.org/2000/svg">
<path d="M17.3858 8.35183H17.0458C16.8886 4.57857 13.7644 1.51565 9.78942 1.21948V0.299235C9.78942 0.13453 9.64804 0.000976562 9.47361 0.000976562H6.9473C6.77291 0.000976562 6.6315 0.134497 6.6315 0.299235V0.895717H4.06648L3.76695 0.188452C3.71898 0.075237 3.60286 0.000976562 3.47376 0.000976562H0.947444C0.818304 0.000976562 0.702185 0.075237 0.65425 0.188452L0.02268 1.67967C0.00776271 1.71491 0.000107319 1.75248 0.000107319 1.79046V2.08696C0.000107319 2.08753 0 2.08811 0 2.08868V4.47464C0 4.47525 0.000107319 4.47579 0.000107319 4.4764V4.7729C0.000107319 4.81084 0.00776271 4.84845 0.02268 4.88368L0.65425 6.37491C0.702221 6.48812 0.81834 6.56238 0.947444 6.56238H3.47376C3.6029 6.56238 3.71902 6.48812 3.76695 6.37491L4.06648 5.66764H6.6315V6.26412C6.6315 6.42883 6.77287 6.56238 6.9473 6.56238H9.47361C9.64801 6.56238 9.78942 6.42886 9.78942 6.26412V5.42618C11.3135 5.68937 12.477 6.88527 12.6172 8.35183H12.2985C11.9592 8.35183 11.6842 8.6115 11.6842 8.93193V10.1413C11.6842 10.4701 11.9677 10.7378 12.3158 10.7378H12.6315V17.0009H17.0526V10.7378H17.4028C17.7329 10.7378 18 10.4855 18 10.1738V8.93189C18 8.6115 17.7251 8.35183 17.3858 8.35183ZM0.631677 2.38694H3.78945V4.17642H0.631677V2.38694ZM1.16126 0.597493H3.25998L3.76523 1.79046H0.656002L1.16126 0.597493ZM3.25998 5.96587H1.16126L0.656002 4.7729H3.76523L3.25998 5.96587ZM4.31921 5.07113L4.39863 4.88365C4.41355 4.84841 4.4212 4.81084 4.4212 4.77287V1.79046C4.4212 1.75252 4.41355 1.71491 4.39863 1.67967L4.31921 1.4922H6.63157V5.07113H4.31921ZM9.15785 5.96587H7.26314V5.37232C7.26314 5.37134 7.26328 5.37036 7.26328 5.36938V1.19397C7.26328 1.193 7.26314 1.19202 7.26314 1.19104V0.597493H9.15785V5.96587ZM9.78953 4.82122V1.81742C13.4142 2.11101 16.2583 4.90703 16.4143 8.35183H13.2512C13.1063 6.55718 11.6658 5.094 9.78953 4.82122ZM16.421 16.4044H13.2631V10.7378H16.421V16.4044ZM17.3684 10.1413H17.0526H12.6315H12.3158V8.94831H12.6316L17.0526 8.94845L17.3684 8.94831V10.1413Z" fill="#7A1B1B"/>
</svg>
