<svg width="16" height="16" viewBox="0 0 16 16" fill="none" xmlns="http://www.w3.org/2000/svg">
<path d="M4.34309 14.3922H1.60776V11.6662H4.34309V14.3922ZM14.7211 7.67112H11.6569V4.68126C11.6569 4.49965 11.5096 4.35238 11.328 4.35238H8.33818V1.27888C8.33818 1.09727 8.19094 0.95 8.0093 0.95H1.27888C1.09723 0.95 0.95 1.09727 0.95 1.27888V14.7211C0.95 14.9027 1.09723 15.05 1.27888 15.05H14.7211C14.9028 15.05 15.05 14.9027 15.05 14.7211V8C15.05 7.81839 14.9028 7.67112 14.7211 7.67112ZM10.9991 5.01017V7.67112H5.00087V5.01017H10.9991ZM1.60776 1.60776H7.68039V4.35238H1.60776V1.60776ZM1.60776 5.01017H4.34309V7.67112H1.60776V5.01017ZM1.60776 8.32888H7.68039V11.0084H1.60776V8.32888ZM10.9991 14.3922H5.00087V11.6662H10.9991V14.3922ZM14.3922 14.3922H11.6569V11.6662H12.5179C12.6996 11.6662 12.8468 11.5189 12.8468 11.3373C12.8468 11.1557 12.6996 11.0085 12.5179 11.0085H8.33818V8.32888H14.3922V14.3922Z" fill="#7A1B1B" stroke="#7A1B1B" stroke-width="0.1"/>
</svg>
