<svg width="61" height="61" viewBox="0 0 61 61" fill="none" xmlns="http://www.w3.org/2000/svg">
<path d="M55.0182 44.1068L41.9375 31.0261L28.8568 44.1068L27.0598 42.3099L41.039 28.3307C41.2773 28.0925 41.6005 27.9586 41.9375 27.9586C42.2745 27.9586 42.5977 28.0925 42.836 28.3307L56.8151 42.3099L55.0182 44.1068Z" fill="white"/>
<path d="M47.0208 54.6458H44.4792V45.75H39.3958V54.6458H36.8542V44.4792C36.8542 44.1421 36.9881 43.8189 37.2264 43.5806C37.4647 43.3422 37.788 43.2083 38.125 43.2083H45.75C46.087 43.2083 46.4103 43.3422 46.6486 43.5806C46.8869 43.8189 47.0208 44.1421 47.0208 44.4792V54.6458Z" fill="white"/>
<path d="M52.1042 55.9167H31.7708C31.4338 55.9167 31.1105 55.7828 30.8722 55.5444C30.6339 55.3061 30.5 54.9829 30.5 54.6458V39.3958H33.0417V53.375H50.8333V39.3958H53.375V54.6458C53.375 54.9829 53.2411 55.3061 53.0028 55.5444C52.7645 55.7828 52.4412 55.9167 52.1042 55.9167Z" fill="white"/>
<path d="M47.0208 38.125H31.7708V40.6667H47.0208V38.125Z" fill="white"/>
<path d="M57.1874 61H26.6874C25.6763 61 24.7066 60.5983 23.9916 59.8833C23.2766 59.1684 22.8749 58.1986 22.8749 57.1875V52.6303L13.0806 42.836C12.9029 42.6583 12.782 42.4318 12.7329 42.1854C12.6839 41.9389 12.7091 41.6834 12.8053 41.4512C12.9014 41.219 13.0643 41.0206 13.2732 40.8809C13.4821 40.7413 13.7278 40.6667 13.9791 40.6667H22.8749V26.6875C22.8749 25.6764 23.2766 24.7066 23.9916 23.9917C24.7066 23.2767 25.6763 22.875 26.6874 22.875H57.1874C58.1986 22.875 59.1683 23.2767 59.8833 23.9917C60.5983 24.7066 60.9999 25.6764 60.9999 26.6875V57.1875C60.9999 58.1986 60.5983 59.1684 59.8833 59.8833C59.1683 60.5983 58.1986 61 57.1874 61ZM17.0469 43.2083L25.0442 51.2057C25.2826 51.444 25.4165 51.7671 25.4166 52.1042V57.1875C25.4166 57.5245 25.5505 57.8478 25.7888 58.0861C26.0271 58.3244 26.3504 58.4583 26.6874 58.4583H57.1874C57.5245 58.4583 57.8477 58.3244 58.086 58.0861C58.3244 57.8478 58.4583 57.5245 58.4583 57.1875V26.6875C58.4583 26.3505 58.3244 26.0272 58.086 25.7889C57.8477 25.5506 57.5245 25.4167 57.1874 25.4167H26.6874C26.3504 25.4167 26.0271 25.5506 25.7888 25.7889C25.5505 26.0272 25.4166 26.3505 25.4166 26.6875V41.9375C25.4166 42.2745 25.2827 42.5978 25.0444 42.8361C24.8061 43.0744 24.4828 43.2083 24.1458 43.2083H17.0469Z" fill="white"/>
<path d="M13.9792 33.0417H1.27083C0.933787 33.0417 0.610546 32.9078 0.372218 32.6694C0.133891 32.4311 0 32.1079 0 31.7708V10.1667C7.19767e-05 9.82965 0.13401 9.50646 0.372354 9.26819L9.26819 0.372354C9.50646 0.13401 9.82965 7.19767e-05 10.1667 0H13.9792C14.3162 0 14.6395 0.133891 14.8778 0.372218C15.1161 0.610546 15.25 0.933787 15.25 1.27083V31.7708C15.25 32.1079 15.1161 32.4311 14.8778 32.6694C14.6395 32.9078 14.3162 33.0417 13.9792 33.0417ZM2.54167 30.5H12.7083V2.54167H10.6928L2.54167 10.6928V30.5Z" fill="white"/>
<path d="M10.1667 24.1458H1.27083V26.6875H10.1667V24.1458Z" fill="white"/>
<path d="M19.0625 21.6042H13.9792C13.6421 21.6042 13.3189 21.4703 13.0806 21.2319C12.8422 20.9936 12.7083 20.6704 12.7083 20.3333V10.1667C12.7083 9.82962 12.8422 9.50638 13.0806 9.26805C13.3189 9.02972 13.6421 8.89583 13.9792 8.89583H19.0625C19.3995 8.89583 19.7228 9.02972 19.9611 9.26805C20.1994 9.50638 20.3333 9.82962 20.3333 10.1667V20.3333C20.3333 20.6704 20.1994 20.9936 19.9611 21.2319C19.7228 21.4703 19.3995 21.6042 19.0625 21.6042ZM15.25 19.0625H17.7917V11.4375H15.25V19.0625Z" fill="white"/>
<path d="M55.9167 20.3333H19.0625C18.7255 20.3333 18.4022 20.1994 18.1639 19.9611C17.9256 19.7228 17.7917 19.3995 17.7917 19.0625V11.4375C17.7917 11.1005 17.9256 10.7772 18.1639 10.5389C18.4022 10.3006 18.7255 10.1667 19.0625 10.1667H55.9167C57.2649 10.1667 58.5578 10.7022 59.5111 11.6555C60.4644 12.6089 61 13.9018 61 15.25C61 16.5982 60.4644 17.8911 59.5111 18.8445C58.5578 19.7978 57.2649 20.3333 55.9167 20.3333ZM20.3333 17.7917H55.9167C56.5908 17.7917 57.2372 17.5239 57.7139 17.0472C58.1906 16.5706 58.4583 15.9241 58.4583 15.25C58.4583 14.5759 58.1906 13.9294 57.7139 13.4528C57.2372 12.9761 56.5908 12.7083 55.9167 12.7083H20.3333V17.7917Z" fill="white"/>
<path d="M53.375 11.4375H50.8333V19.0625H53.375V11.4375Z" fill="white"/>
<path d="M48.2917 11.4375H45.75V19.0625H48.2917V11.4375Z" fill="white"/>
</svg>
