<svg width="14" height="14" viewBox="0 0 14 14" fill="none" xmlns="http://www.w3.org/2000/svg">
<g clip-path="url(#clip0)">
<path d="M12.6 13.5333V1.4H13.0667C13.2067 1.4 13.3 1.30668 13.3 1.16668V0.233324C13.3 0.0933242 13.2067 0 13.0667 0H0.933324C0.793324 0 0.7 0.0933242 0.7 0.233324V1.16665C0.7 1.30665 0.793324 1.39997 0.933324 1.39997H1.4V13.5333V13.7667L1.40012 14H1.63332H5.6H8.4H12.3667H12.6V13.7969V13.5333ZM1.16668 0.466676H12.8334V0.933352H12.3667H1.63332H1.16668V0.466676ZM5.83332 13.5333V9.8H6.76665V13.5333H5.83332ZM7.23332 13.5333V9.8H8.16665V13.5333H7.23332ZM8.63332 13.5333V9.56668C8.63332 9.42668 8.54 9.33335 8.4 9.33335H5.6C5.46 9.33335 5.36668 9.42668 5.36668 9.56668V13.5334H1.86668V1.4H12.1334V13.5333H8.63332Z" fill="#7A1B1B"/>
<path d="M6.3 2.33301H4.43332H2.56667C2.42667 2.33301 2.33335 2.42633 2.33335 2.56633V4.433C2.33335 4.573 2.42667 4.66633 2.56667 4.66633H4.43335H6.3C6.44 4.66633 6.53332 4.573 6.53332 4.433V2.56636C6.53332 2.42636 6.44 2.33301 6.3 2.33301ZM2.8 2.79968H4.2V4.19968H2.8V2.79968ZM6.06667 4.19968H4.66667V2.79968H6.06667V4.19968Z" fill="#7A1B1B"/>
<path d="M4.66667 9.33301H2.56667C2.42667 9.33301 2.33335 9.42633 2.33335 9.56633V11.433C2.33335 11.573 2.42667 11.6663 2.56667 11.6663H4.66667C4.80667 11.6663 4.9 11.573 4.9 11.433V9.56633C4.9 9.42636 4.80667 9.33301 4.66667 9.33301ZM4.43332 11.1997H2.8V9.79968H4.43332V11.1997Z" fill="#7A1B1B"/>
<path d="M11.4333 9.33301H9.3333C9.1933 9.33301 9.09997 9.42633 9.09997 9.56633V11.433C9.09997 11.573 9.1933 11.6663 9.3333 11.6663H11.4333C11.5733 11.6663 11.6666 11.573 11.6666 11.433V9.56633C11.6666 9.42636 11.5733 9.33301 11.4333 9.33301ZM11.2 11.1997H9.56665V9.79968H11.2V11.1997Z" fill="#7A1B1B"/>
<path d="M11.4334 2.33301H9.56674H7.70009C7.56009 2.33301 7.46676 2.42633 7.46676 2.56633V4.433C7.46676 4.573 7.56009 4.66633 7.70009 4.66633H9.56676H11.4334C11.5734 4.66633 11.6668 4.573 11.6668 4.433V2.56636C11.6668 2.42636 11.5734 2.33301 11.4334 2.33301ZM7.93341 2.79968H9.33341V4.19968H7.93341V2.79968ZM11.2001 4.19968H9.80009V2.79968H11.2001V4.19968Z" fill="#7A1B1B"/>
<path d="M6.3 5.59961H4.43332H2.56667C2.42667 5.59961 2.33335 5.69293 2.33335 5.83293V7.6996C2.33335 7.8396 2.42667 7.93292 2.56667 7.93292H4.43335H6.3C6.44 7.93292 6.53332 7.8396 6.53332 7.6996V5.83293C6.53332 5.69293 6.44 5.59961 6.3 5.59961ZM2.8 6.06628H4.2V7.46627H2.8V6.06628ZM6.06667 7.46627H4.66667V6.06628H6.06667V7.46627Z" fill="#7A1B1B"/>
<path d="M11.4334 5.59961H9.56674H7.70009C7.56009 5.59961 7.46676 5.69293 7.46676 5.83293V7.6996C7.46676 7.8396 7.56009 7.93292 7.70009 7.93292H9.56676H11.4334C11.5734 7.93292 11.6668 7.8396 11.6668 7.6996V5.83293C11.6668 5.69293 11.5734 5.59961 11.4334 5.59961ZM7.93341 6.06628H9.33341V7.46627H7.93341V6.06628ZM11.2001 7.46627H9.80009V6.06628H11.2001V7.46627Z" fill="#7A1B1B"/>
</g>
<defs>
<clipPath id="clip0">
<rect width="14" height="14" fill="white"/>
</clipPath>
</defs>
</svg>
