<svg width="17" height="17" viewBox="0 0 17 17" fill="none" xmlns="http://www.w3.org/2000/svg">
<g clip-path="url(#clip0)">
<path d="M1.84451 15.8697H15.1935C15.6745 15.8705 16.1359 15.6792 16.4752 15.3381C16.8144 14.9972 17.0034 14.5347 17 14.0537V9.45188C17 8.44539 16.2001 7.61687 15.1935 7.61687H14.6362L9.73644 3.03262C9.82394 2.85153 9.86925 2.65291 9.8691 2.45176C9.86866 1.70614 9.26372 1.10209 8.5181 1.10254C7.77248 1.10298 7.16844 1.70792 7.16889 2.45354C7.16874 2.65409 7.21405 2.85198 7.30155 3.03233L2.40176 7.61687H1.84451C0.837875 7.61687 0 8.44539 0 9.45188V14.0537C0 15.0603 0.837875 15.8697 1.84451 15.8697ZM8.51899 1.71252C8.92857 1.71252 9.2606 2.04456 9.2606 2.45413C9.2606 2.86371 8.92857 3.19574 8.51899 3.19574C8.10942 3.19574 7.77738 2.86371 7.77738 2.45413C7.77783 2.0447 8.10956 1.71297 8.51899 1.71252ZM7.68335 3.50876C8.17181 3.90006 8.86662 3.89962 9.35464 3.50757L13.7459 7.61687H3.29208L7.68335 3.50876ZM16.3915 14.0442C16.3915 14.7162 15.8465 15.2612 15.1745 15.2612H1.8255C1.15342 15.2612 0.6085 14.7162 0.6085 14.0442V9.44237C0.6085 8.77029 1.15342 8.22537 1.8255 8.22537H15.1745C15.8465 8.22537 16.3915 8.77029 16.3915 9.44237V14.0442Z" fill="#7A1B1B"/>
<path d="M4.01243 13.1099C4.16069 13.1099 4.29766 13.049 4.29766 12.9273V12.0288H4.56774L5.08874 13.0314C5.12544 13.1014 5.20016 13.1428 5.2789 13.1372C5.45375 13.1372 5.65164 12.9753 5.65164 12.8269C5.65193 12.8023 5.6454 12.7781 5.63262 12.7573L5.16852 11.9162C5.43474 11.8135 5.62876 11.5637 5.62876 11.1377C5.62876 10.5178 5.21428 10.3174 4.69313 10.3174H3.90591C3.85689 10.3187 3.81024 10.3397 3.77666 10.3756C3.74309 10.4114 3.72526 10.4593 3.72719 10.5084V12.9271C3.72719 13.049 3.86416 13.1099 4.01243 13.1099ZM4.29766 10.8498H4.69313C4.90616 10.8498 5.03541 10.9449 5.03541 11.2111C5.03541 11.4773 4.90616 11.5724 4.69313 11.5724H4.29766V10.8498Z" fill="#7A1B1B"/>
<path d="M6.58307 13.0937H7.9369C8.06243 13.0937 8.11561 12.972 8.11561 12.8503C8.11561 12.7096 8.05099 12.5993 7.9369 12.5993H6.92149V11.9527H7.4881C7.61363 11.9527 7.66696 11.8311 7.66696 11.7284C7.66696 11.6067 7.60219 11.4964 7.4881 11.4964H6.92149V10.8498H7.9369C8.05099 10.8498 8.11561 10.7206 8.11561 10.5799C8.11561 10.4581 8.06243 10.3174 7.9369 10.3174H6.58307C6.45367 10.3174 6.31299 10.3905 6.31299 10.5121V12.9271C6.31299 13.049 6.45367 13.0937 6.58307 13.0937Z" fill="#7A1B1B"/>
<path d="M9.05132 13.1093C9.19958 13.1093 9.35557 13.0483 9.35557 12.9267V11.6336L10.0743 12.9495C10.1467 13.0827 10.2607 13.1093 10.3976 13.1093C10.546 13.1093 10.6867 13.0483 10.6867 12.9267V10.508C10.6867 10.3824 10.5497 10.3291 10.4014 10.3291C10.2532 10.3291 10.1162 10.3824 10.1162 10.508V11.801L9.49433 10.6258C9.34993 10.3481 9.26332 10.3291 9.05043 10.3291C8.90202 10.3291 8.74707 10.3861 8.74707 10.5117V12.9267C8.74707 13.0483 8.90306 13.1093 9.05132 13.1093Z" fill="#7A1B1B"/>
<path d="M11.4932 10.8498H12.018V12.9273C12.018 13.049 12.174 13.1099 12.3223 13.1099C12.4705 13.1099 12.6265 13.049 12.6265 12.9273V10.8498H13.1361C13.2502 10.8498 13.315 10.7243 13.315 10.5799C13.315 10.4544 13.2616 10.3174 13.1361 10.3174H11.4932C11.3676 10.3174 11.3145 10.4544 11.3145 10.5799C11.3145 10.7243 11.3791 10.8498 11.4932 10.8498Z" fill="#7A1B1B"/>
</g>
<defs>
<clipPath id="clip0">
<rect width="17" height="17" fill="white"/>
</clipPath>
</defs>
</svg>
