<svg width="16" height="15" viewBox="0 0 16 15" fill="none" xmlns="http://www.w3.org/2000/svg">
<path d="M15.7214 13.0897H14.5938V0.278959C14.5938 0.204974 14.5644 0.13402 14.5121 0.081705C14.4599 0.0293901 14.389 0 14.3151 0H1.68486C1.61096 0 1.5401 0.0293901 1.48785 0.081705C1.4356 0.13402 1.40625 0.204974 1.40625 0.278959V13.0897H0.278607C0.204716 13.0897 0.133851 13.1191 0.081602 13.1714C0.0293531 13.2237 0 13.2947 0 13.3687V14.721C0 14.795 0.0293531 14.866 0.081602 14.9183C0.133851 14.9706 0.204716 15 0.278607 15H15.7214C15.7953 15 15.8661 14.9706 15.9184 14.9183C15.9706 14.866 16 14.795 16 14.721V13.3687C16 13.2947 15.9706 13.2237 15.9184 13.1714C15.8661 13.1191 15.7953 13.0897 15.7214 13.0897ZM12.1525 7.83698V13.0897H8.78615V1.62019H10.3643L12.1525 7.83698ZM14.0365 8.54809H12.7097V8.07657H14.0365V8.54809ZM12.7097 9.106H14.0365V14.4421H12.7097V9.106ZM14.0365 7.51865H12.6408L10.6388 0.557917H11.3952L12.0497 2.55351C12.0707 2.62392 12.1187 2.68317 12.1831 2.71839C12.2475 2.75361 12.3232 2.76195 12.3937 2.7416C12.4643 2.72125 12.5239 2.67386 12.5597 2.60972C12.5956 2.54557 12.6047 2.46987 12.5851 2.39904L11.9752 0.557917H12.6709L12.9611 1.21397C12.9822 1.28438 13.0301 1.34363 13.0945 1.37885C13.159 1.41407 13.2347 1.42241 13.3052 1.40207C13.3757 1.38172 13.4354 1.33432 13.4712 1.27018C13.507 1.20604 13.5161 1.13033 13.4965 1.05951L13.2505 0.557917H14.0365V7.51865ZM1.96346 0.557917H10.059L10.204 1.06227H8.50754C8.43365 1.06227 8.36279 1.09166 8.31054 1.14398C8.25829 1.19629 8.22894 1.26725 8.22894 1.34123V13.0894H7.77106V1.34123C7.77106 1.26725 7.74171 1.19629 7.68946 1.14398C7.63721 1.09166 7.56635 1.06227 7.49246 1.06227H2.7001C2.62621 1.06227 2.55534 1.09166 2.50309 1.14398C2.45085 1.19629 2.42149 1.26725 2.42149 1.34123V13.0894H1.96346V0.557917ZM2.97871 13.0897V1.62019H7.21353V13.0897H2.97871ZM0.557214 13.6476H12.1525V14.4421H0.557214V13.6476ZM15.4428 14.4421H14.5938V13.6476H15.4428V14.4421Z" fill="#7A1B1B"/>
</svg>
