<svg xmlns="http://www.w3.org/2000/svg" xmlns:xlink="http://www.w3.org/1999/xlink"><defs><clipPath id="apartmentclip0"><path fill="#fff" d="M0 0h14v14H0z"/></clipPath><clipPath id="facingclip0"><path fill="#fff" d="M0 0h14v14H0z"/></clipPath><clipPath id="fencesclip0"><path fill="#fff" d="M0 0h15v14H0z"/></clipPath><clipPath id="logo_full-whiteclip0"><path fill="#fff" d="M0 0h86v64H0z"/></clipPath><clipPath id="pumpjackclip0"><path fill="#fff" d="M0 0h16v16H0z"/></clipPath><clipPath id="routeclip0"><path fill="#fff" d="M0 0h16v15H0z"/></clipPath><clipPath id="treesclip0"><path fill="#fff" d="M0 0h17v17H0z"/></clipPath><clipPath id="wavesclip0"><path fill="#fff" d="M0 0h17v17H0z"/></clipPath><symbol id="pin" viewBox="0 0 14 22"><path d="M11.406 1.912C10.105.637 8.529 0 6.679 0c-1.85 0-3.426.637-4.727 1.912C.65 3.187 0 4.726 0 6.53c0 1.088.557 2.907 1.67 5.456a100.06 100.06 0 003.339 6.96c1.113 2.091 1.67 3.108 1.67 3.05.173-.314.412-.744.715-1.288.304-.544.839-1.568 1.605-3.072a112.972 112.972 0 002.016-4.146 52.732 52.732 0 001.605-3.91c.491-1.346.737-2.363.737-3.05 0-1.805-.65-3.344-1.951-4.62zM8.11 7.905a1.992 1.992 0 01-1.453.602c-.564 0-1.048-.2-1.453-.602a1.955 1.955 0 01-.607-1.439c0-.558.202-1.031.607-1.418a2.03 2.03 0 011.453-.58 2.03 2.03 0 011.453.58c.404.387.607.86.607 1.418a1.96 1.96 0 01-.607 1.44z" fill="#7A1B1B"/></symbol><symbol id="about-leadership" viewBox="0 0 501 701"><g opacity=".1" fill="#D5D5D5"><path d="M412.597 314.498l-91.398-71.672v457.677h91.398V314.498z"/><path d="M91.398 700.503H0v-700h202l349 166v534h-91.398V300.164L275.5 155.795 91.398 238.73v461.773z"/></g></symbol><symbol id="apartment" viewBox="0 0 14 14"><g clip-path="url(#apartmentclip0)" fill="#7A1B1B"><path d="M12.6 13.533V1.4h.467c.14 0 .233-.093.233-.233V.233c0-.14-.093-.233-.233-.233H.933C.793 0 .7.093.7.233v.934c0 .14.093.233.233.233H1.4V14h11.2v-.467zM1.167.467h11.666v.466H1.167V.467zm4.666 13.066V9.8h.934v3.733h-.934zm1.4 0V9.8h.934v3.733h-.934zm1.4 0V9.567c0-.14-.093-.234-.233-.234H5.6c-.14 0-.233.094-.233.234v3.966h-3.5V1.4h10.266v12.133h-3.5z"/><path d="M6.3 2.333H2.567c-.14 0-.234.093-.234.233v1.867c0 .14.094.233.234.233H6.3c.14 0 .233-.093.233-.233V2.566c0-.14-.093-.233-.233-.233zM2.8 2.8h1.4v1.4H2.8V2.8zm3.267 1.4h-1.4V2.8h1.4v1.4zm-1.4 5.133h-2.1c-.14 0-.234.093-.234.233v1.867c0 .14.094.233.234.233h2.1c.14 0 .233-.093.233-.233V9.566c0-.14-.093-.233-.233-.233zM4.433 11.2H2.8V9.8h1.633v1.4zm7-1.867h-2.1c-.14 0-.233.093-.233.233v1.867c0 .14.093.233.233.233h2.1c.14 0 .234-.093.234-.233V9.566c0-.14-.094-.233-.234-.233zM11.2 11.2H9.567V9.8H11.2v1.4zm.233-8.867H7.7c-.14 0-.233.093-.233.233v1.867c0 .14.093.233.233.233h3.733c.14 0 .234-.093.234-.233V2.566c0-.14-.094-.233-.234-.233zm-3.5.467h1.4v1.4h-1.4V2.8zM11.2 4.2H9.8V2.8h1.4v1.4zM6.3 5.6H2.567c-.14 0-.234.093-.234.233V7.7c0 .14.094.233.234.233H6.3c.14 0 .233-.093.233-.233V5.833c0-.14-.093-.233-.233-.233zm-3.5.466h1.4v1.4H2.8v-1.4zm3.267 1.4h-1.4v-1.4h1.4v1.4zM11.433 5.6H7.7c-.14 0-.233.093-.233.233V7.7c0 .14.093.233.233.233h3.733c.14 0 .234-.093.234-.233V5.833c0-.14-.094-.233-.234-.233zm-3.5.466h1.4v1.4h-1.4v-1.4zm3.267 1.4H9.8v-1.4h1.4v1.4z"/></g></symbol><symbol id="arrow-left" viewBox="0 0 11 17"><path fill-rule="evenodd" clip-rule="evenodd" d="M8.423 1.224a.844.844 0 011.17.023.788.788 0 01-.024 1.136L3.023 8.5l6.546 6.117c.33.307.34.816.023 1.136a.844.844 0 01-1.17.023s-7.165-6.69-7.19-6.716a.79.79 0 010-1.12c.025-.026 7.192-6.716 7.192-6.716z"/></symbol><symbol id="arrow-right" viewBox="0 0 5 8"><path d="M3.225 4L.215 1.177a.66.66 0 010-.975.77.77 0 011.04 0l3.53 3.31a.66.66 0 010 .976l-3.53 3.31a.77.77 0 01-1.04 0 .66.66 0 010-.975L3.225 4z"/></symbol><symbol id="arrow-right2" viewBox="0 0 9 14"><path fill-rule="evenodd" clip-rule="evenodd" d="M2.12 1.18a.675.675 0 00-.935.017.63.63 0 00.018.91L6.44 7l-5.237 4.893a.63.63 0 00-.018.91.675.675 0 00.935.017l5.754-5.372a.631.631 0 000-.896L2.12 1.18z"/></symbol><symbol id="arrow" viewBox="0 0 5 7"><path d="M3.225 3.348L.215.989c-.287-.225-.287-.59 0-.815a.885.885 0 011.04 0l3.53 2.766c.287.225.287.59 0 .815l-3.53 2.767a.885.885 0 01-1.04 0c-.287-.225-.287-.59 0-.815l3.01-2.36z" fill="#fff"/></symbol><symbol id="bed" viewBox="0 0 17 14"><path d="M15.345 5.427V2.06c0-1.506-.872-2.06-1.69-2.06H3.29C2.473 0 1.6.532 1.6 2.06v3.367C.782 5.538 0 6.203 0 7.731v2.614c0 .443.29.797.655.797h.218v2.275c0 .443.29.583.654.583h.618c.364 0 .655-.14.655-.583V11.12h11.4v2.351c0 .443.29.529.655.529h.618c.363 0 .654-.086.654-.529v-2.35h.219c.363 0 .654-.355.654-.798V7.73c-.055-1.528-.836-2.193-1.655-2.304zM2.218 2.06h.037c0-1.041.563-1.263 1.036-1.263h10.364c.472 0 1.036.222 1.036 1.263v3.345H14.2V3.5c0-.443-.29-.797-.654-.797h-4c-.364 0-.655.354-.655.797v1.905h-.764V3.5c0-.443-.29-.797-.654-.797h-4c-.364 0-.655.354-.655.797v1.905h-.6V2.06zM13.546 3.5v1.905h-4V3.5h4zm-6.037 0v1.905h-4V3.5h4zm-5.382 9.703H1.51V11.12h.618v2.083zm13.31 0h-.619V11.12h.618v2.083zm.854-2.858H.636V9.17h15.655v1.174zm0-1.972H.636v-.642c0-1.33.8-1.528 1.255-1.528h13.145c.473 0 1.255.199 1.255 1.528v.642z" fill="#7A1B1B"/></symbol><symbol id="bus" viewBox="0 0 16 18"><path d="M11.191 12.315c.544 0 .986-.497.986-1.109 0-.611-.442-1.108-.986-1.108-.543 0-.985.497-.985 1.108 0 .612.442 1.11.985 1.11zm0-1.468c.176 0 .32.161.32.36 0 .197-.144.359-.32.359-.176 0-.32-.162-.32-.36 0-.198.144-.359.32-.359zm-6.364 1.468c.544 0 .986-.497.986-1.109 0-.611-.442-1.108-.986-1.108-.543 0-.985.497-.985 1.108 0 .612.442 1.11.985 1.11zm0-1.468c.176 0 .32.161.32.36 0 .197-.144.359-.32.359-.176 0-.319-.162-.319-.36 0-.198.143-.359.32-.359zm2.513-.172h-.667v1.338h.666v-1.338zm1.002 0h-.666v1.338h.666v-1.338zm1.003 0H8.68v1.338h.666v-1.338z" fill="#7A1B1B"/><path d="M14.089 4.92h-1.002v-.516c0-.684-.495-1.24-1.103-1.24H9.737V2.126c0-.207-.15-.375-.333-.375h-2.79c-.183 0-.332.168-.332.375v1.036H4.035c-.608 0-1.103.557-1.103 1.241v.515H1.93c-.184 0-.334.168-.334.375V9.12c0 .207.15.374.334.374h1.002v3.764c0 .53.298.984.715 1.16v1.705c0 .207.15.375.334.375h1.693c.184 0 .333-.168.333-.375V14.5h4.004v1.624c0 .207.15.375.333.375h1.694c.184 0 .333-.168.333-.375v-1.705c.417-.176.716-.63.716-1.16V9.494h1.002c.184 0 .333-.167.333-.374V5.294c0-.207-.149-.375-.333-.375zM2.932 8.744h-.67V5.669h.67v3.076zm4.016-6.243H9.07v.661H6.948v-.661zM5.34 15.748H4.314V14.5H5.34v1.25zm6.364 0h-1.027V14.5h1.027v1.25zm.715-2.49c0 .271-.195.492-.436.492H4.034c-.24 0-.436-.22-.436-.492V9.206h8.822v4.052zm0-7.964v3.162H3.598V4.404c0-.27.196-.491.437-.491h7.949c.24 0 .436.22.436.491v.89zm1.336 3.45h-.67V5.67h.67v3.076z" fill="#7A1B1B"/></symbol><symbol id="calendar" viewBox="0 0 14 14"><path d="M14 2.421c0-.616-.484-1.1-1.1-1.1h-1.982V.396A.395.395 0 0010.522 0a.395.395 0 00-.396.396v.925H7.352V.396A.395.395 0 006.956 0c-.22 0-.352.176-.352.396v.925h-2.73V.396A.395.395 0 003.478 0a.395.395 0 00-.396.396v.925H1.1A1.088 1.088 0 000 2.42v10.434a1.09 1.09 0 001.1 1.101h11.755a1.09 1.09 0 001.101-1.1V2.42H14zm-.793 10.434a.379.379 0 01-.352.352H1.101a.379.379 0 01-.353-.352V2.421c0-.176.177-.352.353-.352h1.98v.925c0 .22.177.396.397.396.22 0 .396-.176.396-.396v-.88h2.73v.924c0 .22.176.396.396.396.22 0 .396-.176.396-.396v-.925h2.73v.925c0 .22.176.396.396.396.22 0 .396-.176.396-.396v-.925H12.9c.177 0 .353.176.353.352v10.39h-.045z" fill="#7A1B1B"/><path d="M4.755 5.283H3.082v1.233h1.673V5.283zm0 2.201H3.082v1.233h1.673V7.484zm0 2.202H3.082v1.232h1.673V9.686zm3.082 0H6.164v1.232h1.673V9.686zm0-2.202H6.164v1.233h1.673V7.484zm0-2.201H6.164v1.233h1.673V5.283zm3.082 4.403H9.246v1.232h1.673V9.686zm0-2.202H9.246v1.233h1.673V7.484zm0-2.201H9.246v1.233h1.673V5.283z" fill="#7A1B1B"/></symbol><symbol id="catalog" viewBox="0 0 25 25"><path d="M0 0h7v7H0zm9 0h7v7H9zm9 0h7v7h-7zM0 9h7v7H0zm9 0h7v7H9zm9 0h7v7h-7zM0 18h7v7H0zm9 0h7v7H9zm9 0h7v7h-7z"/></symbol><symbol id="check" viewBox="0 0 15 13"><path d="M13.25 1.5l-7.5 10-4-5.5" fill="none"/></symbol><symbol id="class" viewBox="0 0 13 13"><path d="M12.982 4.69a.363.363 0 00-.29-.245L8.635 3.87 6.81.2a.36.36 0 00-.646.003l-1.801 3.68-4.056.602a.363.363 0 00-.29.246.356.356 0 00.093.368L3.054 7.95l-.68 4.04a.356.356 0 00.144.352.356.356 0 00.378.027l3.621-1.919 3.632 1.897a.362.362 0 00.515-.403L9.962 7.93l2.924-2.868a.353.353 0 00.096-.371zM9.327 7.549a.356.356 0 00-.102.32l.611 3.504-3.153-1.646a.365.365 0 00-.337 0L3.203 11.39l.59-3.508a.36.36 0 00-.104-.318l-2.55-2.476 3.518-.523a.358.358 0 00.27-.197L6.49 1.174 8.075 4.36a.367.367 0 00.273.197l3.521.502-2.542 2.49z" fill="#7A1B1B"/></symbol><symbol id="close" viewBox="0 0 29 29"><path d="M21.622 8.894a.75.75 0 10-1.06-1.06l1.06 1.06zM7.834 20.562a.75.75 0 101.06 1.06l-1.06-1.06zm1.06-12.728a.75.75 0 00-1.06 1.06l1.06-1.06zm11.667 13.788a.75.75 0 001.061-1.06l-1.06 1.06zm0-13.788L7.834 20.562l1.06 1.06L21.622 8.894l-1.06-1.06zM7.834 8.894L20.56 21.622l1.061-1.06L8.894 7.834l-1.06 1.06z"/></symbol><symbol id="continent" viewBox="0 0 955 527"><path d="M389.648 260.443c20.499 8.495 43.32 13.383 61.222 25.646 38.4 26.123 92.661 27.186 112.977 3.746 49.486-57.017 118.889-85.376 169.291-138.376 25.988-27.305 103.108-17.48 119.936 14.615 6.092 11.651 14.125 18.144 27.853 19.548 16.829 1.734 18.768-10.992 25.144-20.961 18.969-29.402 13.484-68.037 37.069-95.541 20.72-24.214 9.66-44.163-12.51-68.623-12.805 36.74-31.262 46.17-65.446 34.462-92.153-31.294-169.035-13.143-240.791 60.907-34.774 35.83-93.618 57.157-134.375 43.764-77.887-13.795-134.045-6.119-141.845-4.497-84.705 17.604-68.459 22.248-153.703 37.155-33.606 5.825-57.72 18.623-67.945 50.209-10.803 33.452-30.051 36.598-62.879 34.299-63.175-4.536-76.885 19.892-51.694 76.833 18.775 42.534 40.625 84.421 52.863 129.08 15.956 57.41 40.711 75.206 101.979 56.301 64.561-19.931 73.46-31.648 30.675-84.117-9.053-11.12-18.712-25.849-5.048-37.187 17.632-14.631 22.139 4.722 28.852 16.092 27.241 46.389 63.629 62.814 120.683 58.113 77.336-6.239 97.595-18.934 101.595-98.295-30.376 29.667-52.677.544-77.169-13.524-24.123-13.76-24.344-26.547-1.479-42.867 7.371-5.219 11.386-18.53-1.425-24.905-17.4-8.715-18.502-19.352-6.467-32.69 10.881-12.217 21.74-3.58 32.637.813z"/></symbol><symbol id="diamond" viewBox="0 0 18 13"><path d="M17.936 4.173L15.536.27A.606.606 0 0015 0H3a.61.61 0 00-.536.27l-2.4 3.903c-.111.192-.073.385.084.539l8.4 7.839a.666.666 0 00.452.168.666.666 0 00.452-.168l8.4-7.84c.156-.152.196-.345.084-.538zM14.03.976l-1.532 2.49L10.2.977h3.829zM11.4 3.903H6.6L9 1.301l2.4 2.602zM7.8.976l-2.297 2.49L3.97.977H7.8zM3 1.579l1.43 2.324H1.57L3 1.579zm-1.08 3.3h3.084l2.958 5.64-6.043-5.64zM9 10.011L6.309 4.88h5.382L9 10.011zm1.038.508l2.958-5.64h3.085l-6.043 5.64zm3.532-6.616L15 1.58l1.429 2.324H13.57z" fill="#7A1B1B"/></symbol><symbol id="download" viewBox="0 0 16 16"><path d="M15.542 7.815a.456.456 0 00-.459.458v4.17a2.057 2.057 0 01-2.054 2.055H2.97a2.057 2.057 0 01-2.054-2.055V8.205a.457.457 0 00-.459-.458.457.457 0 00-.458.458v4.238a2.974 2.974 0 002.971 2.971h10.06a2.974 2.974 0 002.97-2.97v-4.17a.459.459 0 00-.458-.459z"/><path d="M7.677 11.774a.447.447 0 00.645 0l2.914-2.913a.457.457 0 000-.649.457.457 0 00-.649 0l-2.129 2.133v-9.3A.457.457 0 008 .584a.456.456 0 00-.459.46v9.3L5.41 8.212a.457.457 0 00-.649 0 .457.457 0 000 .649l2.917 2.913z"/></symbol><symbol id="facing" viewBox="0 0 15 14"><g clip-path="url(#facingclip0)" fill="#7A1B1B"><path d="M13.782 1.816a.796.796 0 00-.525-.19h-.71V.715c0-.394-.366-.715-.817-.715H1.76C1.31 0 .942.32.942.715v.908H.28c-.156 0-.28.109-.28.245 0 .135.124.244.28.244h.662v.908c0 .394.367.715.818.715h.292v.61c0 .47.436.85.974.85.143 0 .283-.027.413-.082v.914c0 .47.436.85.974.85s.973-.38.973-.85V3.735h.837c.155 0 .28-.109.28-.245 0-.135-.125-.244-.28-.244h-.246a.8.8 0 00.103-.383V1.91c.136.057.286.087.438.087.55 0 .998-.391.998-.873V.49h4.217c.143 0 .258.1.258.226v2.308c0 .125-.115.226-.258.226H7.311c-.156 0-.28.108-.28.244s.124.245.28.245h4.419c.45 0 .818-.32.818-.715v-.908h.709c.1 0 .183.07.183.16v2.08c0 .163-.124.31-.301.356L6.885 6.34c-.246.063-.417.264-.417.49v.318H5.47c-.354 0-.64.253-.64.56v.28c0 .266.217.495.51.549l-.427 3.738c-.05.44.115.883.457 1.212.34.33.828.517 1.335.517a1.93 1.93 0 001.334-.517c.339-.329.507-.77.457-1.21l-.153-1.326a.235.235 0 00-.102-.166.318.318 0 00-.205-.054.29.29 0 00-.19.09.231.231 0 00-.062.179l.152 1.326c.034.305-.08.61-.314.835-.233.226-.57.356-.917.356-.349 0-.685-.13-.918-.356a1.005 1.005 0 01-.314-.835l.43-3.773h1.604l.17 1.495a.23.23 0 00.104.166c.059.041.13.06.205.055a.29.29 0 00.19-.09.231.231 0 00.062-.18L8.073 8.55c.354 0 .64-.253.64-.56v-.28c0-.31-.289-.56-.64-.56H7.03v-.32c0-.008.006-.016.016-.019L13.3 5.184c.414-.109.703-.446.703-.824V2.273a.62.62 0 00-.22-.457zM4.826 3.738V6.03c0 .198-.186.361-.413.361-.227 0-.414-.163-.414-.361V3.738h.827zm-1.387 0v.609c0 .198-.186.361-.413.361-.227 0-.414-.163-.414-.361v-.61h.827zM1.502.715c0-.125.115-.226.258-.226h5.19v.64c0 .208-.196.382-.438.382-.24 0-.439-.17-.439-.383 0-.136-.124-.245-.28-.245-.155 0-.28.11-.28.245v1.74c0 .21-.195.383-.438.383H1.76c-.143 0-.258-.1-.258-.225V.715zm3.965 6.918h2.6c.043 0 .08.033.08.071v.28c0 .038-.037.07-.08.07h-2.6c-.044 0-.08-.032-.08-.07v-.28c0-.038.036-.07.08-.07z"/><path d="M6.701 11.63c-.457 0-.83.326-.83.726 0 .4.373.726.83.726.458 0 .828-.327.828-.726 0-.4-.374-.726-.828-.726zm.268.726c0 .13-.121.233-.268.233-.146 0-.267-.106-.267-.233 0-.13.121-.237.27-.237a.29.29 0 01.19.068.239.239 0 01.075.169z"/></g></symbol><symbol id="fb" viewBox="0 0 7 16"><path fill-rule="evenodd" clip-rule="evenodd" d="M6.617 2.83a4.011 4.011 0 00-1.224-.213c-.497 0-1.568.362-1.568 1.064v1.68H6.37v2.83H3.825V16H1.262V8.191H0v-2.83h1.262V3.937c0-2.15.88-3.937 3.003-3.937C4.992 0 6.292.043 7 .32l-.383 2.51z"/></symbol><symbol id="fences" viewBox="0 0 15 14"><g clip-path="url(#fencesclip0)"><path d="M13.733.109A.322.322 0 0013.489 0a.322.322 0 00-.245.109l-1.2 1.391a.282.282 0 00-.069.184v2.49H9.012v-2.49a.282.282 0 00-.069-.184L7.746.11A.322.322 0 007.5 0a.322.322 0 00-.246.109L6.057 1.5a.282.282 0 00-.069.184v2.49H3.024v-2.49a.282.282 0 00-.069-.184L1.757.11A.322.322 0 001.512 0a.322.322 0 00-.246.109L.07 1.5a.282.282 0 00-.07.184v12.024c0 .161.14.292.314.292H2.71c.173 0 .314-.13.314-.292v-1.712h2.964v1.712c0 .161.14.292.314.292h2.396c.173 0 .314-.13.314-.292v-1.712h2.964v1.712c0 .161.14.292.314.292h2.396c.173 0 .314-.13.314-.292V1.684a.282.282 0 00-.069-.184L13.734.11zM2.396 13.415H.63V1.787L1.512.76l.883 1.027v11.628zm3.593-2.003H3.024V9.768h2.964v1.643zm0-2.227H3.024V6.986h2.964v2.199zm0-2.783H3.024V4.759h2.964v1.643zm2.395 7.013H6.617V1.787L7.5.76l.883 1.027v11.628zm3.593-2.003H9.012V9.768h2.964v1.643zm0-2.227H9.012V6.986h2.964v2.199zm0-2.783H9.012V4.759h2.964v1.643zm2.395 7.013h-1.766V1.787L13.488.76l.883 1.027v11.628z" fill="#7A1B1B"/></g></symbol><symbol id="gas" viewBox="0 0 16 15"><path d="M15.628 7.75a.38.38 0 00-.371.385v.618h-3.478l-.017-.264c-.055-.842-.707-1.53-1.522-1.6l-.252-.02V4.597a.38.38 0 00-.372-.384H8.404V2.17h2.415l.084.114a.847.847 0 00.685.354c.472 0 .856-.397.856-.885s-.384-.885-.856-.885c-.291 0-.56.15-.72.404l-.082.13H8.404V.384A.38.38 0 008.032 0a.38.38 0 00-.371.384v1.02H5.23l-.08-.121a.854.854 0 00-.702-.381.873.873 0 00-.86.885c0 .488.385.886.856.886.278 0 .543-.14.702-.381l.08-.12h2.435v2.037H6.384a.38.38 0 00-.372.385v2.271l-.252.02c-.815.07-1.467.759-1.522 1.6l-.017.264H.743v-.618a.38.38 0 00-.371-.384.383.383 0 00-.372.388v5.679c0 .21.168.384.372.384a.38.38 0 00.371-.384v-.618h3.475l.026.257c.084.882.798 1.547 1.655 1.547h4.202c.918 0 1.665-.772 1.665-1.72V9.52h3.49v2.907h-.92a.38.38 0 00-.372.384c0 .21.168.384.371.384h.922v.618c0 .21.168.384.371.384a.38.38 0 00.372-.384v-5.68a.38.38 0 00-.372-.383zm-8.872-.868V4.978h2.488v1.904H6.756zm3.345 7.35H5.899c-.507 0-.921-.428-.921-.952V8.602c0-.524.414-.952.921-.952h4.202c.507 0 .921.428.921.952v4.678c0 .524-.414.952-.921.952zm-5.867-4.71v2.906H.744V9.52h3.49z" fill="#7A1B1B"/></symbol><symbol id="giraffe" viewBox="0 0 104 264"><path fill-rule="evenodd" clip-rule="evenodd" d="M74.406 0H59.61v14.6h14.796V0zM37.203 227.766l-14.797 14.6V321h14.797v-93.234zm52 93.234H74.406v-94.068l-29.804-16.895-29.805 29.409V321H0V212.54l59.398-58.61V22.11H104v14.6H89.203V321z"/></symbol><symbol id="heart" viewBox="0 0 24 20"><path d="M10.837 3.45l.829 1.227.829-1.228c1.365-2.021 3.201-2.64 4.889-2.4 1.737.248 3.401 1.423 4.289 3.17.87 1.714 1.015 4.03-.396 6.614-1.388 2.542-4.309 5.381-9.61 8.05-5.303-2.669-8.223-5.508-9.611-8.05C.646 8.25.79 5.934 1.66 4.22c.888-1.747 2.552-2.922 4.29-3.17 1.686-.24 3.523.379 4.887 2.4z"/></symbol><symbol id="insta" viewBox="0 0 16 16"><path fill-rule="evenodd" clip-rule="evenodd" d="M10.847.158H4.784A4.474 4.474 0 00.316 4.627v6.063a4.474 4.474 0 004.468 4.468h6.063a4.474 4.474 0 004.469-4.468V4.627A4.474 4.474 0 0010.847.158zm2.96 10.532a2.96 2.96 0 01-2.96 2.96H4.784a2.96 2.96 0 01-2.96-2.96V4.627a2.96 2.96 0 012.96-2.96h6.063a2.96 2.96 0 012.96 2.96v6.063zm-2.104-5.952a.93.93 0 100-1.86.93.93 0 000 1.86zm-3.751 5.426a2.37 2.37 0 110-4.74 2.37 2.37 0 010 4.74zm0-6.25a3.884 3.884 0 00-3.88 3.88c0 2.14 1.74 3.88 3.88 3.88 2.14 0 3.88-1.74 3.88-3.88 0-2.139-1.74-3.88-3.88-3.88z"/></symbol><symbol id="kanaliz" viewBox="0 0 17 17"><path d="M2.125 7.65h7.367V1.648A.848.848 0 019.775 0h5.667a.848.848 0 01.283 1.648V8.5c0 .47-.38.85-.85.85h-.85v2.55a2.553 2.553 0 01-2.55 2.55v2.267a.283.283 0 01-.283.283h-5.1a.283.283 0 01-.283-.283v-2.281a4.819 4.819 0 01-4.534-4.803V9.35H.992a.283.283 0 01-.283-.283c0-.782.634-1.416 1.416-1.417zm13.6-6.8a.283.283 0 00-.283-.283H9.775a.283.283 0 000 .566h5.667a.283.283 0 00.283-.283zm-.85 7.933a.283.283 0 00.284-.283V1.7h-5.1v7.083h4.816zm-8.5 7.65h4.534V14.45H6.375v1.983zm-4.533-6.8a4.255 4.255 0 004.25 4.25h5.383A1.986 1.986 0 0013.46 11.9V9.35H1.841v.283zm7.65-.85v-.566H2.125a.852.852 0 00-.801.566h8.168z" fill="#7A1B1B"/></symbol><symbol id="like" viewBox="0 0 16 13"><path d="M7.42 2.492l.58.855.579-.855C9.52 1.104 10.796.62 11.963.71a3.675 3.675 0 012.9 1.838c.572 1.022.682 2.456-.278 4.124-.947 1.645-2.947 3.525-6.585 5.347-3.639-1.822-5.638-3.702-6.585-5.347-.96-1.668-.85-3.102-.277-4.124A3.675 3.675 0 014.036.71C5.204.62 6.48 1.104 7.42 2.492z"/></symbol><symbol id="list-ico" viewBox="0 0 14 13"><path d="M0 0h14v1.962H0zm0 3.68h14v1.962H0zm0 3.678h14V9.32H0zm0 3.68h14V13H0z"/></symbol><symbol id="logo-with-name" viewBox="0 0 83 44"><path fill-rule="evenodd" clip-rule="evenodd" d="M11.19 0H8.966v2.001h2.226V0zM5.596 31.22L3.37 33.222V44h2.225V31.22zM13.416 44h-2.225V31.106L6.708 28.79l-4.483 4.031V44H0V29.133L8.934 21.1V3.031h6.708v2h-2.226V44z" fill="#7B2B15"/><path d="M31.831 15.588h2.24l-1.249-5.475-.99 5.475zm2.628-8.096l3.663 15.343.043.232h-2.413l-.043-.155-1.293-5.628h-2.973l-1.206 5.628-.043.155h-2.327l.043-.232 3.663-15.343.043-.154h2.8l.043.154zm12.667.038v1.504h-4.695v5.436h4.222v1.696H42.43v6.901h-2.283V7.338h6.98v.192zm9.178 0v1.504h-4.696v5.436h4.222v1.696h-4.222v6.901h-2.284V7.338h6.98v.192zm3.834 8.058h2.24l-1.249-5.436-.99 5.436zm2.672-8.096l3.662 15.343.043.232h-2.413l-.043-.155-1.292-5.628h-2.93l-1.207 5.628-.043.155h-2.412l.043-.232L59.88 7.492l.043-.154h2.801l.086.154zm10.987 7.093c.387-.424.56-1.195.56-2.544 0-1.35-.13-2.12-.517-2.545-.388-.385-1.034-.5-2.112-.5h-.947v6.052h.947c.992.038 1.68-.039 2.069-.463zm2.283 3.855l1.94 4.318.128.232-.301.038-1.982.154h-.173l-.043-.154-1.939-4.472c-.344-.771-.603-1.234-.947-1.465-.302-.231-.733-.308-1.38-.308h-.645v6.284h-2.284V7.338h3.318c1.723 0 2.972.23 3.791.925.819.694 1.163 1.85 1.163 3.624 0 1.08-.129 2.004-.516 2.737-.345.694-.948 1.195-1.81 1.465.258.154.517.347.775.655.259.386.56.925.905 1.696zM82.5 7.53v15.537h-2.284V7.338H82.5v.192zm-56.27 9.908c.43.848.517 1.465.517 1.966 0 1.542-.517 2.506-1.379 3.123-.861.617-2.025.848-3.274.848-.388 0-.776 0-1.207-.039-.43-.038-.904-.077-1.422-.154l-.215-.038.043-.193.216-1.62.043-.308.301.155c.302.154.646.27.991.308a7.58 7.58 0 001.207.116c.689 0 1.335-.116 1.766-.463.431-.347.69-.848.69-1.696 0-.309-.044-.733-.302-1.311-.259-.578-.733-1.31-1.637-2.236-1.293-1.35-2.069-2.352-2.456-3.161-.431-.81-.517-1.427-.517-2.005 0-1.002.215-1.927.905-2.66.689-.732 1.81-1.195 3.576-1.195.215 0 .646.039 1.163.039.388.038.819.077 1.206.115l.216.039-.043.193-.216 1.542-.172.385-.259-.116a5.425 5.425 0 00-1.895-.385c-.776 0-1.336.193-1.68.501-.389.347-.56.848-.56 1.504 0 .385.085.848.344 1.426.258.578.775 1.272 1.594 2.159 1.293 1.31 2.025 2.351 2.456 3.161zm9.337 17.875c.435.848.522 1.465.522 1.966 0 1.542-.522 2.506-1.392 3.123-.87.617-2.045.848-3.307.848-.392 0-.783 0-1.218-.039-.435-.038-.914-.077-1.436-.154l-.218-.038.044-.193.217-1.62.044-.308.304.155c.305.154.653.27 1.001.308.435.077.914.116 1.218.116.697 0 1.35-.116 1.784-.463.436-.347.697-.848.697-1.696 0-.309-.044-.733-.305-1.311-.26-.578-.74-1.31-1.653-2.236-1.306-1.35-2.089-2.352-2.48-3.161-.436-.81-.523-1.427-.523-2.005 0-1.002.218-1.927.914-2.66.696-.732 1.828-1.195 3.612-1.195.217 0 .652.039 1.174.039.392.038.827.077 1.219.115l.217.039-.043.192-.218 1.543-.043.27-.261-.116a5.525 5.525 0 00-1.915-.386c-.783 0-1.349.193-1.697.501-.392.347-.566.849-.566 1.504 0 .385.087.848.349 1.426.26.579.783 1.273 1.61 2.16 1.174 1.426 1.958 2.467 2.35 3.276zm11.14-9.908v1.504h-3.351v14.033H41.05V26.909h-3.351v-1.696h9.008v.192zm3.35 8.096h2.263l-1.262-5.474-1.001 5.474zm2.698-8.134l3.698 15.343.044.232H54.06l-.043-.155-1.306-5.628H49.71l-1.219 5.628-.043.155h-2.436l.043-.232 3.698-15.343.044-.154h2.828l.13.154zm12.14.038v1.504h-3.351v14.033h-2.306V26.909h-3.35v-1.696h9.007v.192zm9.355 14.033v1.504h-7.31V25.213h7.136v1.696h-4.83v5.166h4.264v1.735h-4.264v5.435h5.004v.193zm-47.69 0v1.504h-7.31V25.213h7.136v1.696h-4.83v5.166h4.264v1.735h-4.264v5.435h5.004v.193z" fill="#000"/></symbol><symbol id="logo" viewBox="0 0 21 64"><path d="M14.572 0h-2.92v2.929h2.92V0zm-7.28 45.406l-2.92 2.929V64h2.92V45.406zM17.49 64h-2.92V45.264l-5.826-3.392-5.826 5.846v16.27H0V42.382l11.653-11.704V4.388h8.745v2.929h-2.907V64z" fill-rule="evenodd"/></symbol><symbol id="logo_full-white" viewBox="0 0 86 64"><g clip-path="url(#logo_full-whiteclip0)" fill="#fff"><path fill-rule="evenodd" clip-rule="evenodd" d="M14.572 0h-2.92v2.929h2.92V0zm-7.28 45.406l-2.92 2.929V64h2.92V45.406zM17.49 64h-2.92V45.264l-5.826-3.392-5.826 5.846v16.27H0V42.382l11.653-11.704V4.388h8.745v2.929h-2.907V64zm9.916-8.265v-5.23h.71l2.741 4.115v-4.115h.674v5.23h-.71l-2.753-4.115v4.115h-.662zm6.914 0V51.11h-1.726v-.617h4.137v.617h-1.726v4.625h-.685zm3.474 0v-5.23h3.782v.617h-3.084v1.6h2.895v.617h-2.895v1.78h3.202v.616h-3.9zm5.72-2.93h1.49c.46 0 .791-.082.992-.236a.79.79 0 00.295-.64c0-.57-.378-.843-1.122-.843h-1.655v1.72zm-.685 2.93v-5.23h2.304c.438 0 .745.036.934.095.189.06.343.142.46.25.13.106.237.248.32.438.094.19.142.403.142.652 0 .818-.485 1.293-1.466 1.435.213.095.39.225.556.391.165.166.307.356.437.558l.91 1.423h-.875l-.697-1.08a7.085 7.085 0 00-.437-.64 1.845 1.845 0 00-.355-.38.876.876 0 00-.319-.177 1.884 1.884 0 00-.425-.036h-.792v2.3h-.697zm5.566 0v-5.23h.71l2.74 4.115v-4.115h.675v5.23h-.71l-2.753-4.115v4.115h-.662zm6.512-2.147h1.796l-.555-1.446a14.17 14.17 0 01-.379-1.08 7.885 7.885 0 01-.283.997l-.58 1.53zm-1.501 2.147l2.009-5.23h.756l2.14 5.23h-.792l-.603-1.59h-2.198l-.568 1.59h-.744zm6.772 0V51.11h-1.726v-.617h4.137v.617h-1.726v4.625h-.685zm3.58 0v-5.23h.698v5.23h-.698zm2.73-2.538c0 .415.083.783.237 1.08.153.307.366.545.626.71.26.167.567.25.934.25.555 0 1.004-.19 1.312-.581.319-.392.472-.902.472-1.53 0-.439-.07-.806-.224-1.127-.154-.32-.355-.569-.615-.735-.26-.166-.567-.249-.933-.249a1.93 1.93 0 00-.769.142 1.364 1.364 0 00-.567.44 1.88 1.88 0 00-.343.687c-.094.249-.13.557-.13.913zm-.709-.012c0-.522.095-.996.272-1.411a2.38 2.38 0 01.84-.996c.377-.25.838-.38 1.382-.38.366 0 .697.072 1.005.202a2.3 2.3 0 01.791.545c.225.238.39.522.508.866.119.344.178.712.178 1.115 0 .557-.107 1.043-.307 1.435-.201.391-.497.7-.899.925a2.589 2.589 0 01-1.3.332c-.484 0-.921-.119-1.3-.344a2.31 2.31 0 01-.886-.96 3.152 3.152 0 01-.284-1.329zm6.205 2.55v-5.23h.709l2.742 4.115v-4.115h.673v5.23H75.4l-2.753-4.115v4.115h-.662zm6.512-2.147h1.796l-.555-1.446a14.17 14.17 0 01-.379-1.08c-.07.333-.165.665-.283.997l-.58 1.53zm-1.501 2.147l2.009-5.23h.756l2.14 5.23h-.793l-.602-1.59h-2.198l-.568 1.59h-.744zm5.743 0v-5.23h.698v4.613H86v.617h-3.262zm-57.554 0v-5.23h.698v5.23h-.698zm6.713 3.7h1.49c.46 0 .79-.083.992-.237a.79.79 0 00.295-.64c0-.57-.378-.843-1.123-.843h-1.654v1.72zm-.685 2.929v-5.23h2.304c.437 0 .745.036.934.095.189.06.342.142.46.25.13.106.237.248.32.438.094.19.142.403.142.652 0 .818-.485 1.293-1.466 1.435.213.095.39.225.556.391.165.166.307.356.437.558l.91 1.423h-.875l-.697-1.08a7.102 7.102 0 00-.437-.64 1.849 1.849 0 00-.355-.38.876.876 0 00-.319-.177 1.885 1.885 0 00-.425-.036h-.792v2.325h-.697v-.024zm5.909-2.55c0 .415.082.783.236 1.08.154.308.366.545.626.71.26.167.568.25.934.25.555 0 1.004-.19 1.312-.581.319-.392.472-.901.472-1.53 0-.439-.07-.806-.224-1.127-.154-.32-.355-.569-.615-.735-.26-.166-.567-.249-.933-.249a1.93 1.93 0 00-.769.143 1.364 1.364 0 00-.567.438c-.153.19-.272.427-.342.688-.095.261-.13.57-.13.913zm-.71-.012c0-.521.095-.996.272-1.41.19-.416.473-.748.84-.997.378-.249.838-.38 1.382-.38.366 0 .697.072 1.005.202.307.13.567.309.791.546.225.237.39.522.509.865.118.344.177.712.177 1.115 0 .557-.106 1.044-.307 1.435s-.497.7-.899.925a2.588 2.588 0 01-1.3.332c-.484 0-.921-.119-1.3-.344a2.31 2.31 0 01-.886-.96 3.114 3.114 0 01-.284-1.329zm9.467-2.68h.697v3.024c0 .51-.047.89-.142 1.162a1.58 1.58 0 01-.402.64 1.569 1.569 0 01-.626.368 2.758 2.758 0 01-.863.119c-.673 0-1.193-.166-1.536-.498-.343-.332-.52-.925-.52-1.803v-3.023h.697v3.012c0 .415.036.711.095.9.059.179.142.333.248.44.106.106.248.19.402.249.165.059.343.083.567.083.307 0 .556-.048.756-.13a.899.899 0 00.473-.463c.118-.214.166-.581.166-1.091v-2.989h-.012zm2.694 2.49h1.36c.827 0 1.24-.32 1.24-.948 0-.154-.023-.285-.059-.403a.668.668 0 00-.189-.285.725.725 0 00-.307-.178c-.118-.035-.355-.059-.697-.059h-1.348v1.874zm-.697 2.752v-5.23h1.974c.295 0 .543.012.768.048.224.035.425.106.614.213.19.119.343.285.461.51.118.213.178.462.178.747 0 1.056-.65 1.59-1.962 1.59h-1.336v2.134h-.697v-.012zm-20.079-2.052v-.616h2.21v1.944c-.685.546-1.394.819-2.163.819-.413 0-.791-.06-1.11-.178a2.17 2.17 0 01-.828-.534 2.545 2.545 0 01-.532-.865 3.09 3.09 0 01-.189-1.103c0-.795.225-1.447.674-1.957.449-.51 1.099-.77 1.938-.77 1.182 0 1.891.521 2.14 1.553l-.627.166c-.213-.76-.721-1.127-1.513-1.127-.603 0-1.075.178-1.406.546-.331.367-.497.877-.497 1.541 0 .735.19 1.28.556 1.601.366.332.827.498 1.347.498.603 0 1.111-.178 1.525-.533v-.973h-1.525v-.012z"/><path d="M37.274 18.523h2.163l-1.206-5.894-.957 5.894zm2.553-8.752l3.534 16.555.059.248h-2.317l-.035-.166-1.241-6.047H36.99l-1.17 6.047-.035.166h-2.328l.059-.248L37.05 9.77l.035-.166h2.683l.059.166zm12.172.036v1.636h-4.526v5.87h4.054v1.85h-4.053v7.435h-2.211V9.605h6.747v.202H52zm8.84 0v1.636h-4.526v5.87h4.054v1.85h-4.053v7.435H54.09V9.605h6.748v.202zm3.676 8.716h2.162l-1.205-5.894-.957 5.894zm2.552-8.752l3.534 16.555.06.248h-2.317l-.036-.166-1.24-6.047H64.23l-1.17 6.047-.035.166h-2.327l.059-.248L64.29 9.77l.036-.166h2.682l.06.166zm10.566 7.66c.39-.45.544-1.28.544-2.727 0-1.447-.13-2.277-.52-2.727-.367-.439-1.017-.534-2.033-.534h-.922v6.534h.922c.993 0 1.63-.107 2.009-.545zm2.222 4.127l1.867 4.66.106.262-.283.023-1.915.166-.154.012-.059-.142-1.867-4.827c-.319-.83-.567-1.316-.898-1.577-.307-.249-.721-.32-1.335-.32h-.615v6.771H72.48V9.605h3.203c1.666 0 2.848.26 3.628 1.02.78.759 1.123 1.98 1.123 3.925 0 1.15-.13 2.17-.508 2.965-.355.747-.91 1.304-1.75 1.589.249.166.485.367.733.688.32.379.615.936.946 1.766zM86 9.807v16.767h-2.21V9.605h2.222v.202H86zM31.897 20.49c.414.901.52 1.565.52 2.135 0 1.648-.508 2.715-1.336 3.391-.815.664-1.938.913-3.155.913-.354 0-.744-.023-1.17-.06a23.258 23.258 0 01-1.359-.165l-.2-.024.023-.201.189-1.732.035-.32.272.154c.284.166.615.273.945.356.438.107.851.142 1.147.142.685 0 1.276-.142 1.69-.498.413-.355.65-.937.65-1.826a3.66 3.66 0 00-.272-1.4c-.248-.616-.72-1.399-1.584-2.407-1.264-1.47-1.985-2.537-2.387-3.403-.413-.877-.496-1.541-.496-2.182 0-1.055.213-2.087.863-2.858.65-.77 1.725-1.28 3.45-1.28.225 0 .639.023 1.111.059.379.035.792.071 1.159.13l.2.036-.023.201-.213 1.66-.035.273-.249-.106c-.638-.273-1.382-.403-1.808-.403-.744 0-1.288.19-1.63.533-.367.368-.533.913-.533 1.625 0 .415.071.913.331 1.518.272.628.733 1.387 1.537 2.312 1.193 1.447 1.914 2.55 2.328 3.427zm9.194 19.758c.414.901.52 1.565.52 2.134 0 1.649-.508 2.716-1.335 3.392-.816.664-1.938.913-3.156.913-.354 0-.744-.024-1.17-.06a23.237 23.237 0 01-1.358-.165l-.201-.024.023-.202.19-1.731.035-.32.272.154c.283.166.614.273.945.356.437.106.85.142 1.146.142.686 0 1.277-.142 1.69-.498.414-.356.65-.937.65-1.826 0-.344-.035-.795-.271-1.4-.249-.616-.721-1.399-1.584-2.407-1.265-1.47-1.986-2.538-2.387-3.403-.414-.878-.497-1.542-.497-2.182 0-1.056.213-2.087.863-2.858.65-.77 1.725-1.269 3.45-1.269.225 0 .64.024 1.112.06.378.035.792.07 1.158.13l.2.035-.023.202-.212 1.66-.036.273-.248-.107c-.638-.273-1.383-.403-1.808-.403-.745 0-1.288.19-1.631.534-.366.367-.532.913-.532 1.624 0 .415.07.913.33 1.518.273.629.734 1.388 1.537 2.313 1.206 1.434 1.927 2.537 2.328 3.415zm10.944-10.685V31.2h-3.191v15.143h-2.222V31.2h-3.191v-1.85h8.58v.213h.024zm3.557 8.704h2.163l-1.206-5.893-.957 5.893zm2.553-8.74l3.533 16.555.06.25H59.42l-.035-.167-1.241-6.048h-2.837l-1.17 6.048-.035.166h-2.327l.059-.249 3.545-16.554.036-.166h2.683l.047.166zm11.9.036V31.2h-3.177v15.143h-2.222V31.2h-3.168v-1.85h8.58v.213h-.012zm9.431 15.144v1.636h-6.971V29.35h6.819v1.85h-4.597v5.585h4.053v1.85h-4.053v5.87h4.762v.202h-.011zm-47.33 0v1.636h-6.974V29.35h6.819v1.85h-4.596v5.585h4.054v1.85h-4.053v5.87h4.762v.202h-.012z"/></g></symbol><symbol id="logo_full" viewBox="0 0 86 64"><path fill-rule="evenodd" clip-rule="evenodd" d="M14.572 0h-2.92v2.929h2.92V0zm-7.28 45.406l-2.92 2.929V64h2.92V45.406zM17.49 64h-2.92V45.264l-5.826-3.392-5.826 5.846v16.27H0V42.382l11.653-11.704V4.388h8.745v2.929h-2.907V64z" fill="#7B2B15"/><path fill-rule="evenodd" clip-rule="evenodd" d="M27.406 55.735v-5.23h.71l2.741 4.115v-4.115h.674v5.23h-.71l-2.753-4.115v4.115h-.662zm6.914 0V51.11h-1.726v-.617h4.136v.617h-1.725v4.625h-.685zm3.474 0v-5.23h3.782v.617h-3.085v1.6h2.896v.617H38.49v1.779h3.203v.617h-3.9zm5.72-2.93h1.49c.46 0 .791-.082.992-.237a.79.79 0 00.295-.64c0-.57-.378-.842-1.122-.842h-1.655v1.72zm-.685 2.93v-5.23h2.304c.437 0 .745.036.934.095.189.06.342.142.46.249.13.107.237.249.32.439.094.19.142.403.142.652 0 .818-.485 1.292-1.466 1.435.213.095.39.225.556.391.165.166.307.356.437.557l.91 1.423h-.875l-.697-1.079a7.102 7.102 0 00-.437-.64 1.846 1.846 0 00-.355-.38.877.877 0 00-.319-.177 1.885 1.885 0 00-.425-.036h-.792v2.3h-.697zm5.566 0v-5.23h.71l2.74 4.115v-4.115h.674v5.23h-.709l-2.753-4.115v4.115h-.662zm6.512-2.147h1.796l-.555-1.446a14.17 14.17 0 01-.379-1.08c-.07.332-.165.664-.283.996l-.58 1.53zm-1.501 2.147l2.009-5.23h.756l2.14 5.23h-.793l-.602-1.59h-2.198l-.568 1.59h-.744zm6.772 0V51.11h-1.726v-.617h4.136v.617h-1.725v4.625h-.685zm3.58 0v-5.23h.698v5.23h-.698zm2.73-2.538c0 .415.083.783.237 1.08.153.307.366.545.626.71.26.167.567.25.934.25.555 0 1.004-.19 1.312-.582.319-.39.472-.9.472-1.53 0-.438-.07-.806-.224-1.126-.154-.32-.355-.569-.615-.735-.26-.166-.567-.249-.933-.249a1.93 1.93 0 00-.769.142 1.366 1.366 0 00-.567.44 1.88 1.88 0 00-.343.687c-.094.249-.13.557-.13.913zm-.709-.012c0-.522.095-.996.272-1.411a2.38 2.38 0 01.84-.996c.377-.25.838-.38 1.382-.38.366 0 .697.071 1.004.202.308.13.568.308.792.545.225.238.39.522.508.866.119.344.178.712.178 1.115 0 .557-.107 1.043-.308 1.435-.2.391-.496.7-.898.925a2.589 2.589 0 01-1.3.332c-.484 0-.922-.119-1.3-.344a2.31 2.31 0 01-.886-.96 3.152 3.152 0 01-.284-1.329zm6.205 2.55v-5.23h.709l2.742 4.115v-4.115h.673v5.23H75.4l-2.753-4.115v4.115h-.662zm6.512-2.147h1.796l-.556-1.446a14.51 14.51 0 01-.378-1.08c-.07.332-.165.664-.283.996l-.58 1.53zm-1.501 2.147l2.009-5.23h.756l2.14 5.23h-.793l-.602-1.59h-2.199l-.567 1.59h-.744zm5.743 0v-5.23h.697v4.613H86v.617h-3.262zm-57.554 0v-5.23h.698v5.23h-.698zm6.713 3.7h1.489c.46 0 .792-.084.993-.238a.79.79 0 00.295-.64c0-.57-.378-.842-1.123-.842h-1.654v1.72zm-.685 2.928v-5.229h2.304c.437 0 .745.035.934.095.189.06.342.142.46.249.13.107.237.249.32.439.094.19.142.403.142.652 0 .818-.485 1.292-1.466 1.435.213.095.39.225.556.391.165.166.307.356.437.557l.91 1.423h-.875l-.697-1.079a7.087 7.087 0 00-.437-.64 1.851 1.851 0 00-.355-.38.877.877 0 00-.319-.177 1.884 1.884 0 00-.425-.036h-.792v2.324h-.697v-.024zm5.908-2.549c0 .415.083.783.237 1.08.154.307.366.545.626.71.26.167.568.25.934.25.555 0 1.004-.19 1.312-.581.319-.392.472-.902.472-1.53 0-.439-.07-.807-.224-1.127-.154-.32-.355-.569-.615-.735-.26-.166-.567-.249-.933-.249a1.93 1.93 0 00-.769.142 1.365 1.365 0 00-.567.44 1.88 1.88 0 00-.343.687c-.094.26-.13.57-.13.913zm-.708-.012c0-.522.094-.996.271-1.411a2.38 2.38 0 01.84-.996c.377-.25.838-.38 1.382-.38.366 0 .697.072 1.005.202.307.13.567.308.791.546.225.237.39.521.509.865.118.344.177.712.177 1.115 0 .557-.106 1.043-.307 1.435-.201.391-.497.7-.899.925a2.587 2.587 0 01-1.3.332c-.484 0-.921-.119-1.3-.344a2.312 2.312 0 01-.886-.96 3.114 3.114 0 01-.283-1.329zm9.466-2.68h.697v3.024c0 .51-.047.89-.142 1.162a1.58 1.58 0 01-.402.64 1.57 1.57 0 01-.626.368 2.761 2.761 0 01-.863.119c-.673 0-1.193-.166-1.536-.498-.343-.332-.52-.925-.52-1.803V57.11h.697v3.012c0 .415.036.712.095.902.059.177.142.332.248.438.106.107.248.19.402.25.165.059.342.082.567.082.307 0 .555-.047.756-.13a.9.9 0 00.473-.463c.118-.213.166-.58.166-1.09v-2.989h-.012zm2.694 2.49h1.36c.827 0 1.24-.32 1.24-.948 0-.155-.023-.285-.059-.404a.67.67 0 00-.189-.284.726.726 0 00-.307-.178c-.118-.035-.355-.06-.698-.06h-1.347v1.874zm-.697 2.751v-5.229h1.974c.295 0 .543.012.768.047.224.036.425.107.614.214.19.118.343.284.461.51.118.213.177.462.177.747 0 1.055-.65 1.589-1.961 1.589h-1.336v2.134h-.697v-.011zm-20.079-2.051v-.617h2.21v1.945c-.685.546-1.395.818-2.163.818a3.2 3.2 0 01-1.11-.178 2.169 2.169 0 01-.828-.533 2.546 2.546 0 01-.532-.866 3.09 3.09 0 01-.189-1.103c0-.794.225-1.446.674-1.956.449-.51 1.099-.771 1.938-.771 1.182 0 1.891.522 2.14 1.553l-.627.166c-.213-.759-.721-1.126-1.513-1.126-.603 0-1.075.178-1.406.545-.331.368-.497.878-.497 1.542 0 .735.19 1.28.556 1.6.366.333.827.499 1.347.499.603 0 1.111-.178 1.525-.534v-.972h-1.525v-.012z"/><path d="M37.274 18.523h2.163l-1.206-5.894-.957 5.894zm2.553-8.752l3.534 16.555.059.249h-2.317l-.035-.166-1.241-6.048H36.99l-1.17 6.048-.035.166h-2.328l.059-.25L37.05 9.772l.035-.166h2.683l.059.166zM52 9.807v1.636h-4.527v5.87h4.054v1.85h-4.054v7.435h-2.21V9.606h6.748v.202H52zm8.84 0v1.636h-4.527v5.87h4.054v1.85h-4.054v7.435h-2.222V9.606h6.748v.202zm3.675 8.716h2.162l-1.205-5.894-.957 5.894zm2.552-8.752l3.534 16.555.06.249h-2.317l-.036-.166-1.24-6.048H64.23l-1.17 6.048-.035.166h-2.328l.059-.25L64.29 9.772l.036-.166h2.682l.06.166zm10.566 7.66c.39-.45.544-1.28.544-2.727 0-1.446-.13-2.276-.52-2.727-.367-.439-1.017-.534-2.033-.534h-.922v6.534h.922c.993 0 1.63-.106 2.009-.545zm2.222 4.128l1.867 4.66.106.26-.283.025-1.915.166-.153.011-.06-.142-1.867-4.826c-.319-.83-.567-1.316-.898-1.577-.307-.25-.721-.32-1.336-.32h-.614v6.77H72.48V9.607h3.203c1.666 0 2.848.26 3.628 1.02.78.758 1.123 1.98 1.123 3.924 0 1.15-.13 2.17-.509 2.965-.354.747-.91 1.304-1.749 1.589.249.166.485.368.733.688.32.38.615.937.946 1.767zM86 9.807v16.768h-2.21V9.605h2.222v.202H86zM31.897 20.49c.414.902.52 1.566.52 2.135 0 1.648-.508 2.715-1.335 3.391-.816.664-1.939.913-3.156.913-.354 0-.744-.023-1.17-.059a23.258 23.258 0 01-1.359-.166l-.2-.024.023-.201.189-1.731.035-.32.272.154c.284.166.615.272.946.355.437.107.85.143 1.146.143.685 0 1.276-.143 1.69-.498.414-.356.65-.937.65-1.827a3.66 3.66 0 00-.272-1.399c-.248-.617-.72-1.4-1.584-2.407-1.264-1.47-1.985-2.538-2.387-3.404-.413-.877-.496-1.541-.496-2.182 0-1.055.213-2.087.863-2.857.65-.771 1.725-1.281 3.45-1.281.225 0 .639.024 1.111.06.379.035.792.07 1.159.13l.2.035-.023.202-.213 1.66-.035.273-.249-.107c-.638-.273-1.382-.403-1.808-.403-.744 0-1.288.19-1.63.533-.367.368-.533.913-.533 1.625 0 .415.071.913.331 1.518.272.628.733 1.387 1.537 2.312 1.193 1.447 1.914 2.55 2.328 3.427zm9.194 19.757c.414.9.52 1.565.52 2.134 0 1.648-.508 2.716-1.335 3.392-.816.664-1.938.913-3.156.913-.354 0-.744-.024-1.17-.06a23.432 23.432 0 01-1.359-.166l-.2-.023.023-.202.19-1.731.035-.32.272.154c.283.166.614.273.945.356.437.106.85.142 1.146.142.686 0 1.277-.142 1.69-.498.414-.356.65-.937.65-1.826 0-.344-.035-.795-.271-1.4-.249-.616-.721-1.4-1.584-2.407-1.265-1.47-1.986-2.538-2.387-3.403-.414-.878-.497-1.542-.497-2.182 0-1.056.213-2.087.863-2.858.65-.771 1.725-1.27 3.45-1.27.225 0 .639.025 1.112.06.378.036.792.071 1.158.13l.2.036-.023.202-.213 1.66-.035.273-.248-.107c-.638-.273-1.383-.403-1.808-.403-.745 0-1.289.19-1.631.533-.367.368-.532.914-.532 1.625 0 .415.07.913.33 1.518.273.628.734 1.387 1.537 2.312 1.206 1.435 1.927 2.538 2.328 3.416zm10.944-10.685V31.2h-3.191v15.143h-2.222V31.2h-3.19v-1.85h8.58v.213h.023zm3.557 8.704h2.163l-1.206-5.894-.957 5.894zm2.553-8.74l3.533 16.555.06.249H59.42l-.035-.166-1.241-6.048h-2.836l-1.17 6.048-.036.166h-2.328l.059-.25 3.545-16.553.036-.166h2.683l.047.166zm11.9.036V31.2h-3.178v15.143h-2.222V31.2h-3.167v-1.85h8.58v.213h-.012zm9.431 15.143v1.637h-6.972V29.35h6.819v1.85h-4.597v5.585h4.053v1.85h-4.053v5.87h4.762v.201h-.012zm-47.33 0v1.637h-6.973V29.35h6.819v1.85h-4.598v5.585h4.054v1.85h-4.054v5.87h4.763v.201h-.012z"/></symbol><symbol id="logo_group" viewBox="0 0 61 13"><path d="M2.406 5.735V.505h.71l2.74 4.115V.505h.674v5.23h-.71L3.068 1.62v4.115h-.662zm6.914 0V1.11H7.594V.493h4.136v.617h-1.725v4.625H9.32zm3.474 0V.505h3.782v.617h-3.085v1.6h2.896v.617H13.49v1.779h3.203v.617h-3.9zm5.72-2.93h1.49c.46 0 .791-.082.992-.237a.79.79 0 00.295-.64c0-.57-.378-.842-1.122-.842h-1.655v1.72zm-.685 2.93V.505h2.304c.437 0 .745.036.934.095.189.06.342.142.46.249.13.107.237.249.32.439.094.19.142.403.142.652 0 .818-.485 1.292-1.466 1.435.213.095.39.225.556.391.165.166.307.356.437.557l.91 1.423h-.875l-.697-1.079a7.102 7.102 0 00-.437-.64 1.846 1.846 0 00-.355-.38.877.877 0 00-.319-.177 1.885 1.885 0 00-.425-.036h-.792v2.3h-.697zm5.566 0V.505h.71l2.74 4.115V.505h.675v5.23h-.71L24.057 1.62v4.115h-.662zm6.512-2.147h1.796l-.555-1.446a14.17 14.17 0 01-.379-1.08c-.07.333-.165.665-.283.997l-.58 1.53zm-1.501 2.147l2.009-5.23h.756l2.14 5.23h-.793l-.602-1.59h-2.198l-.568 1.59h-.744zm6.772 0V1.11h-1.726V.493h4.137v.617h-1.726v4.625h-.685zm3.58 0V.505h.698v5.23h-.698zm2.73-2.538c0 .415.083.783.237 1.08.153.307.366.545.626.71.26.167.567.25.934.25.555 0 1.004-.19 1.312-.582.319-.39.472-.9.472-1.53 0-.438-.07-.806-.224-1.126-.154-.32-.355-.569-.615-.735-.26-.166-.567-.249-.933-.249a1.93 1.93 0 00-.769.142 1.366 1.366 0 00-.567.44 1.88 1.88 0 00-.343.687c-.094.249-.13.557-.13.913zm-.709-.012c0-.522.095-.996.272-1.411a2.38 2.38 0 01.84-.996c.377-.25.838-.38 1.382-.38.366 0 .697.072 1.004.202.308.13.568.308.792.545.225.238.39.522.508.866.119.344.178.712.178 1.115 0 .557-.107 1.043-.308 1.435-.2.391-.496.7-.898.925a2.589 2.589 0 01-1.3.332c-.484 0-.922-.119-1.3-.344a2.31 2.31 0 01-.886-.96 3.152 3.152 0 01-.284-1.329zm6.205 2.55V.505h.709l2.742 4.115V.505h.673v5.23H50.4L47.646 1.62v4.115h-.662zm6.512-2.147h1.796l-.556-1.446a14.51 14.51 0 01-.378-1.08c-.07.333-.165.665-.283.997l-.58 1.53zm-1.501 2.147l2.009-5.23h.756l2.14 5.23h-.793l-.602-1.59h-2.199l-.567 1.59h-.744zm5.743 0V.505h.697v4.613H61v.617h-3.262zm-57.554 0V.505h.698v5.23H.184zm6.713 3.7h1.489c.46 0 .792-.084.993-.238a.79.79 0 00.295-.64c0-.57-.378-.842-1.122-.842H6.897v1.72zm-.685 2.928V7.135h2.304c.437 0 .745.035.934.095.189.06.342.142.46.249.13.107.237.249.32.439.094.19.142.403.142.652 0 .818-.485 1.292-1.466 1.435.213.095.39.225.555.391.166.166.308.356.438.557l.91 1.423h-.875l-.697-1.079a7.087 7.087 0 00-.437-.64 1.851 1.851 0 00-.355-.38.877.877 0 00-.319-.177 1.884 1.884 0 00-.425-.036h-.792v2.324h-.697v-.024zm5.909-2.549c0 .415.082.783.236 1.08.154.307.366.545.626.71.26.167.567.25.934.25.555 0 1.004-.19 1.312-.581.319-.392.472-.902.472-1.53 0-.439-.07-.807-.224-1.127-.154-.32-.355-.569-.615-.735-.26-.166-.567-.249-.933-.249a1.93 1.93 0 00-.769.142 1.365 1.365 0 00-.567.44 1.88 1.88 0 00-.343.687c-.094.26-.13.57-.13.913zm-.71-.012c0-.522.095-.996.272-1.411a2.38 2.38 0 01.84-.996c.378-.25.838-.38 1.382-.38.366 0 .697.071 1.005.202a2.3 2.3 0 01.791.545c.225.238.39.522.509.866.118.344.177.712.177 1.115 0 .557-.106 1.043-.307 1.435-.201.391-.497.7-.899.925a2.587 2.587 0 01-1.3.332c-.484 0-.921-.119-1.3-.344a2.312 2.312 0 01-.886-.96 3.114 3.114 0 01-.284-1.329zm9.467-2.68h.697v3.024c0 .51-.047.89-.142 1.162a1.586 1.586 0 01-.402.64 1.57 1.57 0 01-.626.368 2.761 2.761 0 01-.863.119c-.673 0-1.193-.166-1.536-.498-.343-.332-.52-.925-.52-1.803V7.11h.697v3.012c0 .415.036.712.095.901.059.178.142.333.248.44.106.106.248.189.402.248.165.06.342.083.567.083.307 0 .555-.047.756-.13a.9.9 0 00.473-.463c.118-.213.165-.58.165-1.09v-2.99h-.011zm2.694 2.49h1.36c.827 0 1.24-.32 1.24-.948 0-.155-.023-.285-.059-.404a.67.67 0 00-.189-.284.726.726 0 00-.307-.178c-.118-.036-.355-.06-.697-.06h-1.348v1.874zm-.697 2.751V7.134h1.974c.295 0 .543.012.768.047.224.036.425.107.614.214.19.118.343.284.461.51.118.213.178.462.178.747 0 1.055-.65 1.589-1.962 1.589h-1.336v2.134h-.697v-.012zM2.796 10.312v-.617h2.21v1.945c-.685.546-1.395.818-2.163.818-.413 0-.791-.059-1.11-.177a2.169 2.169 0 01-.828-.534 2.546 2.546 0 01-.532-.866 3.09 3.09 0 01-.189-1.103c0-.794.225-1.446.674-1.956.449-.51 1.099-.771 1.938-.771 1.182 0 1.891.522 2.14 1.553l-.627.166c-.213-.758-.721-1.126-1.513-1.126-.603 0-1.075.178-1.406.545-.331.368-.497.878-.497 1.542 0 .735.19 1.28.556 1.6.366.333.827.499 1.347.499.603 0 1.111-.178 1.525-.534v-.972H2.796v-.012z" fill-rule="evenodd"/></symbol><symbol id="logo_name" viewBox="0 0 61 38"><path d="M12.274 9.523h2.163L13.23 3.629l-.957 5.894zM14.827.77l3.534 16.555.059.249h-2.317l-.035-.166-1.241-6.048H11.99l-1.17 6.048-.036.166H8.457l.059-.25L12.05.772l.035-.166h2.683l.059.166zm12.172.036v1.636h-4.526v5.87h4.054v1.85h-4.054v7.435h-2.21V.606h6.748v.202H27zm8.84 0v1.636h-4.526v5.87h4.054v1.85h-4.054v7.435h-2.222V.606h6.748v.202zm3.676 8.716h2.162l-1.205-5.894-.957 5.894zM42.068.77L45.6 17.326l.06.249h-2.317l-.036-.166-1.24-6.048H39.23l-1.17 6.048-.035.166h-2.328l.059-.25L39.29.772l.036-.166h2.682l.06.166zm10.565 7.66c.39-.45.544-1.28.544-2.726 0-1.447-.13-2.277-.52-2.728-.367-.439-1.017-.534-2.033-.534h-.922v6.534h.922c.993 0 1.63-.106 2.009-.545zm2.222 4.128l1.867 4.66.106.26-.283.025-1.915.166-.153.012-.06-.143-1.867-4.826c-.319-.83-.567-1.316-.898-1.577-.307-.25-.721-.32-1.335-.32h-.615v6.77H47.48V.607h3.203c1.666 0 2.848.26 3.628 1.02.78.758 1.123 1.98 1.123 3.924 0 1.15-.13 2.17-.508 2.965-.355.747-.91 1.304-1.75 1.589.249.166.485.368.733.688.32.38.615.937.946 1.767zM61 .807v16.768h-2.21V.605h2.222v.202H61zM6.897 11.49c.414.902.52 1.566.52 2.135 0 1.648-.508 2.716-1.336 3.391-.815.665-1.938.914-3.155.914-.354 0-.744-.024-1.17-.06a23.258 23.258 0 01-1.359-.166l-.2-.023.023-.202.189-1.731.035-.32.272.154c.284.166.615.272.946.355.437.107.85.143 1.146.143.685 0 1.276-.143 1.69-.498.413-.356.65-.937.65-1.827a3.66 3.66 0 00-.272-1.399c-.248-.617-.72-1.4-1.584-2.407C2.028 8.48 1.307 7.412.905 6.546.492 5.67.41 5.005.41 4.364c0-1.055.213-2.087.863-2.857C1.922.736 2.997.226 4.722.226c.225 0 .639.024 1.111.06.379.035.792.07 1.159.13l.2.035-.023.202-.213 1.66-.035.273-.249-.107c-.638-.273-1.382-.403-1.808-.403-.744 0-1.288.19-1.63.533-.367.368-.532.913-.532 1.625 0 .415.07.913.33 1.518.272.628.733 1.387 1.537 2.312 1.193 1.447 1.914 2.55 2.328 3.427zm9.194 19.757c.414.9.52 1.565.52 2.134 0 1.648-.508 2.716-1.335 3.392-.815.664-1.938.913-3.155.913-.355 0-.745-.024-1.17-.06a23.432 23.432 0 01-1.36-.166l-.2-.023.023-.202.19-1.731.035-.32.271.154c.284.166.615.273.946.356.437.106.85.142 1.146.142.686 0 1.277-.142 1.69-.498.414-.356.65-.937.65-1.826a3.65 3.65 0 00-.272-1.4c-.248-.616-.72-1.4-1.583-2.407-1.265-1.47-1.986-2.538-2.387-3.403-.414-.878-.497-1.542-.497-2.182 0-1.056.213-2.087.863-2.858.65-.771 1.725-1.27 3.45-1.27.225 0 .639.025 1.112.06.378.036.792.071 1.158.13l.2.036-.023.202-.212 1.66-.036.273-.248-.107c-.638-.273-1.383-.403-1.808-.403-.745 0-1.288.19-1.631.533-.367.368-.532.914-.532 1.625 0 .415.07.913.33 1.518.273.628.734 1.387 1.537 2.312 1.206 1.435 1.927 2.538 2.328 3.416zm10.944-10.685V22.2h-3.191v15.143h-2.222V22.2h-3.19v-1.85h8.58v.213h.023zm3.557 8.704h2.163l-1.206-5.893-.957 5.893zm2.553-8.74l3.533 16.555.06.249H34.42l-.035-.166-1.241-6.048h-2.836l-1.17 6.048-.036.166h-2.328l.059-.25 3.545-16.553.036-.166h2.683l.047.166zm11.9.036V22.2h-3.178v15.143h-2.222V22.2h-3.167v-1.85h8.58v.213h-.012zm9.431 15.143v1.637h-6.972V20.35h6.819v1.85h-4.597v5.585h4.053v1.85h-4.053v5.87h4.762v.201h-.012zm-47.33 0v1.637H.172V20.35h6.819v1.85H2.394v5.585h4.054v1.85H2.394v5.87h4.763v.201h-.012z"/></symbol><symbol id="logo_saffari_2" viewBox="0 0 83 44"><path fill-rule="evenodd" clip-rule="evenodd" d="M11.19 0H8.966v2.001h2.226V0zM5.596 31.22L3.37 33.222V44h2.225V31.22zM13.416 44h-2.225V31.106L6.708 28.79l-4.483 4.031V44H0V29.133L8.934 21.1V3.031h6.708v2h-2.226V44z" fill="#7B2B15"/><path d="M31.831 15.588h2.24l-1.249-5.475-.99 5.475zm2.628-8.096l3.663 15.343.043.232h-2.413l-.043-.155-1.293-5.628h-2.973l-1.206 5.628-.043.155h-2.327l.043-.232 3.663-15.343.043-.154h2.8l.043.154zm12.667.038v1.504H42.43v5.436h4.223v1.696H42.43v6.9h-2.283V7.339h6.98v.192zm9.178 0v1.504h-4.696v5.436h4.222v1.696h-4.222v6.9h-2.284V7.339h6.98v.192zm3.835 8.058h2.24l-1.25-5.436-.99 5.436zm2.67-8.096l3.663 15.343.043.232h-2.413l-.043-.155-1.292-5.628h-2.93l-1.207 5.628-.043.155h-2.412l.043-.232L59.88 7.492l.043-.154h2.8l.087.154zm10.988 7.093c.387-.424.56-1.195.56-2.544s-.13-2.12-.517-2.544c-.388-.386-1.034-.502-2.111-.502h-.948v6.053h.948c.99.038 1.68-.039 2.068-.463zm2.283 3.855l1.94 4.318.128.232-.301.038-1.982.154h-.173l-.043-.154-1.938-4.472c-.345-.771-.604-1.234-.948-1.465-.302-.231-.733-.308-1.38-.308h-.645v6.284h-2.284V7.337h3.318c1.723 0 2.973.232 3.791.926.819.694 1.164 1.85 1.164 3.624 0 1.08-.13 2.004-.517 2.737-.345.694-.948 1.195-1.81 1.465.258.154.517.347.775.655.259.386.56.925.905 1.696zM82.5 7.53v15.537h-2.284V7.337H82.5v.193zm-56.27 9.908c.43.848.517 1.465.517 1.966 0 1.542-.517 2.506-1.379 3.123-.861.617-2.025.848-3.274.848-.388 0-.776 0-1.207-.039-.43-.038-.904-.077-1.422-.154l-.215-.038.043-.193.216-1.62.043-.308.301.155c.302.154.646.27.991.308a7.58 7.58 0 001.207.116c.689 0 1.335-.116 1.766-.463.431-.347.69-.848.69-1.696 0-.309-.044-.733-.302-1.311-.259-.578-.733-1.31-1.637-2.236-1.293-1.35-2.069-2.352-2.456-3.161-.431-.81-.517-1.427-.517-2.005 0-1.002.215-1.927.905-2.66.689-.732 1.81-1.195 3.576-1.195.215 0 .646.039 1.163.039.388.038.819.077 1.206.115l.216.039-.043.193-.216 1.542-.172.385-.259-.116a5.425 5.425 0 00-1.895-.385c-.776 0-1.336.193-1.68.501-.389.347-.56.848-.56 1.504 0 .385.085.848.344 1.426.258.578.775 1.272 1.594 2.159 1.293 1.31 2.025 2.351 2.456 3.161zm9.337 17.875c.435.848.522 1.465.522 1.966 0 1.542-.522 2.506-1.392 3.123-.87.617-2.045.848-3.307.848-.392 0-.783 0-1.218-.039-.435-.038-.914-.077-1.436-.154l-.218-.038.044-.193.217-1.62.044-.308.304.155c.305.154.653.27 1.001.308.435.077.914.116 1.218.116.697 0 1.35-.116 1.784-.463.436-.347.697-.848.697-1.696 0-.309-.044-.733-.305-1.311-.26-.578-.74-1.31-1.653-2.236-1.306-1.35-2.089-2.352-2.48-3.161-.436-.81-.523-1.427-.523-2.005 0-1.002.218-1.927.914-2.66.696-.732 1.828-1.195 3.612-1.195.217 0 .652.039 1.174.039.392.038.827.077 1.219.115l.217.039-.043.192-.218 1.543-.043.27-.261-.116a5.525 5.525 0 00-1.915-.386c-.783 0-1.349.193-1.697.501-.392.347-.566.849-.566 1.504 0 .385.087.848.349 1.426.26.579.783 1.272 1.61 2.16 1.174 1.426 1.958 2.467 2.35 3.276zm11.14-9.908v1.504h-3.351v14.033H41.05V26.909H37.7v-1.696h9.006v.192zm3.35 8.096h2.263l-1.262-5.474-1.001 5.474zm2.698-8.134l3.698 15.343.044.232H54.06l-.043-.155-1.306-5.628H49.71l-1.219 5.628-.043.155H46.01l.044-.232 3.698-15.343.044-.154h2.828l.13.154zm12.14.038v1.504h-3.35v14.033h-2.307V26.909h-3.35v-1.696h9.007v.192zm9.355 14.033v1.504h-7.31v-15.73h7.136v1.697h-4.83v5.166h4.264v1.735h-4.264v5.435h5.004v.193zm-47.69 0v1.504h-7.31v-15.73h7.136v1.697h-4.83v5.166h4.264v1.735h-4.264v5.435h5.004v.193z" fill="#000"/></symbol><symbol id="mail-red" viewBox="0 0 18 13"><path d="M9 9L6.773 7.05.406 12.51c.232.214.544.348.889.348h15.41c.344 0 .655-.134.885-.348l-6.363-5.46L9 9z" fill="#7A1B1B"/><path d="M17.594.348A1.295 1.295 0 0016.705 0H1.295a1.29 1.29 0 00-.886.351L9 7.714 17.594.348zM0 1.129V11.81l6.214-5.28L0 1.128zM11.786 6.53L18 11.81V1.126L11.786 6.53z" fill="#7A1B1B"/></symbol><symbol id="mail" viewBox="0 0 19 14"><path d="M16.451 0H2.216C.994 0 0 .943 0 2.101v9.798C0 13.058.994 14 2.216 14H16.45c1.222 0 2.216-.943 2.216-2.101V2.101C18.667.943 17.673 0 16.45 0zm0 12.145H2.216c-.18 0-.338-.115-.338-.246V3.397l6.439 5.367c.132.11.3.17.473.17h1.087a.74.74 0 00.473-.17l6.438-5.368V11.9c0 .131-.157.246-.337.246zM9.333 7.093L3.071 1.855h12.524L9.334 7.093z"/></symbol><symbol id="objects" viewBox="0 0 16 16"><path d="M5 13H3v-2h2v2zm0-4H3V7h2v2zm0-4H3V3h2v2zm8 8H6v-2h7v2zm0-4H6V7h7v2zm0-4H6V3h7v2z" fill="#7A1B1B"/><path d="M13.412 1.173c.335 0 .654.117.893.334.244.216.376.496.376.794v11.398c0 .298-.132.582-.376.794a1.335 1.335 0 01-.893.334H2.588c-.335 0-.654-.117-.893-.334a1.056 1.056 0 01-.376-.794V2.301c0-.298.132-.582.376-.794.244-.217.558-.334.893-.334h10.824zm0-1.173H2.588C1.168 0 0 1.038 0 2.3v11.4C0 14.962 1.167 16 2.588 16h10.824C14.832 16 16 14.963 16 13.7V2.3C16 1.039 14.833 0 13.412 0z" fill="#7A1B1B"/></symbol><symbol id="parking" viewBox="0 0 17 17"><path d="M12.467 13.883v-3.116a.835.835 0 00-.85-.85h-.142c-.142 0-.255-.085-.283-.199L10.2 6.262v-.029a1.432 1.432 0 00-1.303-.85H3.57a1.43 1.43 0 00-1.303.85v.029l-.992 3.456c-.057.114-.17.199-.283.199H.85a.835.835 0 00-.85.85v3.116c0 .482.368.85.85.85v1.417c0 .482.368.85.85.85h.567c.481 0 .85-.368.85-.85v-1.417H9.35v1.417c0 .482.368.85.85.85h.567c.481 0 .85-.368.85-.85v-1.417c.481 0 .85-.368.85-.85zM2.55 16.15c0 .17-.113.283-.283.283H1.7c-.17 0-.283-.113-.283-.283v-1.417H2.55v1.417zm8.5 0c0 .17-.113.283-.283.283H10.2c-.17 0-.283-.113-.283-.283v-1.417h1.133v1.417zm.85-2.267c0 .17-.113.284-.283.284H.85c-.17 0-.283-.114-.283-.284v-3.116c0-.17.113-.284.283-.284h.142a.876.876 0 00.821-.623l.992-3.428a.853.853 0 01.765-.482h5.327c.311 0 .623.17.765.482l.991 3.428a.876.876 0 00.822.623h.142c.17 0 .283.114.283.284v3.116z" fill="#7A1B1B"/><path d="M2.55 11.05c-.623 0-1.133.51-1.133 1.133 0 .624.51 1.134 1.133 1.134s1.133-.51 1.133-1.134c0-.623-.51-1.133-1.133-1.133zm0 1.7a.568.568 0 01-.567-.567c0-.311.255-.566.567-.566.312 0 .567.255.567.566a.568.568 0 01-.567.567zm7.367-1.7c-.624 0-1.134.51-1.134 1.133 0 .624.51 1.134 1.134 1.134.623 0 1.133-.51 1.133-1.134 0-.623-.51-1.133-1.133-1.133zm0 1.7a.568.568 0 01-.567-.567c0-.311.255-.566.567-.566.311 0 .566.255.566.566a.568.568 0 01-.566.567zM6.8 12.467H5.667c-.17 0-.284.113-.284.283 0 .17.114.283.284.283H6.8c.17 0 .283-.113.283-.283 0-.17-.113-.283-.283-.283zm.566-1.134H5.1c-.17 0-.284.114-.284.284 0 .17.114.283.284.283h2.266c.17 0 .284-.113.284-.283 0-.17-.114-.284-.284-.284zM3.513 9.917h5.469a.59.59 0 00.453-.227.55.55 0 00.085-.51l-.68-2.267a.553.553 0 00-.538-.396H4.193a.544.544 0 00-.538.396l-.68 2.267a.55.55 0 00.085.51.592.592 0 00.453.227zm.68-2.834h4.109l.68 2.267H3.513l.68-2.267zM16.717 0H11.9c-.17 0-.283.113-.283.283V5.1c0 .17.113.283.283.283h1.983v8.784h-.566c-.17 0-.284.113-.284.283v.85h-.566c-.17 0-.284.113-.284.283v1.134c0 .17.114.283.284.283h3.4c.17 0 .283-.113.283-.283v-1.134c0-.17-.113-.283-.283-.283H15.3v-.85c0-.17-.113-.283-.283-.283h-.567V5.383h2.267c.17 0 .283-.113.283-.283V.283c0-.17-.113-.283-.283-.283zm-1.134 16.433H12.75v-.566h2.833v.566zm-.85-1.133H13.6v-.567h1.133v.567zm1.7-10.483h-4.25V.567h4.25v4.25z" fill="#7A1B1B"/><path d="M13.883 4.25c.17 0 .284-.113.284-.283V3.4h.283c.623 0 1.133-.51 1.133-1.133 0-.624-.51-1.134-1.133-1.134h-.567c-.17 0-.283.114-.283.284v2.55c0 .17.114.283.283.283zm1.134-1.983a.568.568 0 01-.567.566h-.283V1.7h.283c.312 0 .567.255.567.567z" fill="#7A1B1B"/></symbol><symbol id="phone-2" viewBox="0 0 23 23"><path d="M17.665 14.497c-.453-.469-.998-.72-1.576-.72-.574 0-1.124.247-1.595.716l-1.473 1.462c-.121-.065-.243-.125-.36-.185-.167-.084-.325-.163-.46-.246-1.38-.873-2.635-2.011-3.838-3.483-.583-.734-.974-1.351-1.259-1.978.383-.348.737-.71 1.082-1.059.13-.13.261-.264.392-.394.979-.975.979-2.238 0-3.213L7.305 4.129a19.394 19.394 0 01-.434-.441c-.28-.288-.573-.585-.876-.864-.453-.446-.994-.682-1.562-.682-.57 0-1.12.236-1.586.682l-.009.01-1.585 1.592A3.391 3.391 0 00.24 6.586C.13 7.94.531 9.203.838 10.03c.755 2.03 1.884 3.91 3.567 5.925a21.93 21.93 0 007.306 5.698c1.072.506 2.503 1.105 4.103 1.207.098.005.2.01.293.01 1.077 0 1.982-.386 2.69-1.152.005-.01.015-.014.02-.024.242-.292.521-.557.815-.84.2-.19.406-.39.606-.599.462-.478.704-1.035.704-1.607 0-.575-.247-1.128-.718-1.592l-2.56-2.559zm1.669 4.89c-.005.004-.005 0 0 0-.182.195-.369.371-.569.566-.303.288-.61.59-.9.929-.47.501-1.026.738-1.753.738-.07 0-.144 0-.214-.005-1.385-.088-2.672-.626-3.637-1.086a20.697 20.697 0 01-6.882-5.368c-1.59-1.908-2.653-3.672-3.357-5.567C1.59 8.438 1.43 7.537 1.5 6.687a2.13 2.13 0 01.643-1.379l1.59-1.583c.229-.214.471-.33.709-.33.294 0 .531.177.68.325l.015.014c.284.265.554.539.839.831.144.149.294.298.443.45l1.273 1.268c.494.493.494.948 0 1.44-.136.135-.266.27-.401.4-.392.398-.765.77-1.17 1.132-.01.01-.02.014-.024.023-.4.4-.326.79-.242 1.054l.014.042c.33.799.797 1.551 1.506 2.447l.004.005c1.287 1.579 2.644 2.809 4.14 3.752.192.12.387.218.574.31.168.084.326.163.462.247.018.009.037.023.056.032.158.08.307.116.461.116.387 0 .63-.241.709-.32l1.594-1.588c.159-.158.41-.348.704-.348.29 0 .527.18.672.339l.01.009 2.568 2.558c.48.474.48.962.005 1.454zm-7.19-13.285a5.92 5.92 0 013.217 1.663 5.91 5.91 0 011.67 3.204c.05.306.317.52.62.52.037 0 .07-.005.107-.01a.628.628 0 00.517-.724 7.151 7.151 0 00-2.018-3.877 7.201 7.201 0 00-3.894-2.01.632.632 0 00-.727.51.62.62 0 00.508.724zm10.127 4.472a11.765 11.765 0 00-3.324-6.385A11.847 11.847 0 0012.536.88a.627.627 0 00-.723.51.63.63 0 00.518.725 10.609 10.609 0 015.73 2.958 10.504 10.504 0 012.97 5.706c.051.307.317.52.62.52.037 0 .07-.005.107-.01a.615.615 0 00.513-.714z"/></symbol><symbol id="phone" viewBox="0 0 18 18"><path d="M13.685 11.907c-.588-.58-1.322-.58-1.907 0-.445.442-.891.884-1.33 1.334-.12.123-.22.15-.366.067-.289-.157-.596-.284-.873-.457-1.292-.813-2.375-1.858-3.334-3.034-.476-.584-.899-1.21-1.195-1.914-.06-.142-.048-.236.068-.352.445-.43.88-.873 1.318-1.315.61-.614.61-1.333-.004-1.951-.348-.352-.696-.697-1.045-1.049-.36-.36-.715-.723-1.078-1.079-.589-.573-1.323-.573-1.907.004-.45.442-.88.895-1.337 1.33-.423.4-.637.891-.682 1.464-.071.933.157 1.813.48 2.671.659 1.775 1.663 3.352 2.88 4.798a17.825 17.825 0 005.903 4.619c1.034.502 2.105.887 3.27.951.802.045 1.499-.157 2.057-.783.382-.427.813-.816 1.217-1.225.6-.607.603-1.34.008-1.94-.712-.715-1.428-1.427-2.143-2.139zm-.715-2.985l1.382-.236a6.177 6.177 0 00-1.727-3.334 6.145 6.145 0 00-3.521-1.756l-.195 1.39a4.767 4.767 0 012.727 1.359 4.767 4.767 0 011.334 2.577zm2.16-6.008A10.192 10.192 0 009.288 0l-.194 1.39a8.837 8.837 0 015.049 2.517 8.83 8.83 0 012.476 4.775L18 8.446a10.266 10.266 0 00-2.87-5.532z"/></symbol><symbol id="pin" viewBox="0 0 14 22"><path d="M11.406 1.912C10.105.637 8.529 0 6.679 0c-1.85 0-3.426.637-4.727 1.912C.65 3.187 0 4.726 0 6.53c0 1.088.557 2.907 1.67 5.456a100.06 100.06 0 003.339 6.96c1.113 2.091 1.67 3.108 1.67 3.05.173-.314.412-.744.715-1.288.304-.544.839-1.568 1.605-3.072a112.972 112.972 0 002.016-4.146 52.732 52.732 0 001.605-3.91c.491-1.346.737-2.363.737-3.05 0-1.805-.65-3.344-1.951-4.62zM8.11 7.905a1.992 1.992 0 01-1.453.602c-.564 0-1.048-.2-1.453-.602a1.955 1.955 0 01-.607-1.439c0-.558.202-1.031.607-1.418a2.03 2.03 0 011.453-.58 2.03 2.03 0 011.453.58c.404.387.607.86.607 1.418a1.96 1.96 0 01-.607 1.44z" fill="#7A1B1B"/></symbol><symbol id="pin2" viewBox="0 0 10 14"><path d="M5 0A4.672 4.672 0 00.333 4.667c0 .772.193 1.538.56 2.217l3.852 6.966a.291.291 0 00.51 0l3.853-6.968a4.675 4.675 0 00.559-2.215A4.672 4.672 0 005 0zm0 7a2.336 2.336 0 01-2.333-2.333C2.667 3.38 3.713 2.333 5 2.333S7.333 3.38 7.333 4.667A2.336 2.336 0 015 7z"/></symbol><symbol id="print" viewBox="0 0 16 16"><path d="M4 1h8v2h1V1a1 1 0 00-1-1H4a1 1 0 00-1 1v2h1V1zm11 3H1a1 1 0 00-1 1v5a1 1 0 001 1h2v4a1 1 0 001 1h8a1 1 0 001-1v-4h2a1 1 0 001-1V5a1 1 0 00-1-1zm-3 11H4V8h8v7zm2-8a1 1 0 11-.001-1.999A1 1 0 0114 7z"/><path d="M9 9H5v1h4V9zm2 2H5v1h6v-1zm0 2H5v1h6v-1z"/></symbol><symbol id="pumpjack" viewBox="0 0 16 16"><g clip-path="url(#pumpjackclip0)" fill="#7A1B1B"><path d="M15.65 12.305h-2.11a.264.264 0 00-.265.264v2.903h-1.583V9.93a.264.264 0 00-.264-.264h-.343L8.967 3.892l3.57-.957.342 1.275a.79.79 0 00.97.56l1.02-.273a.792.792 0 00.56-.97l-.342-1.275.255-.068a.77.77 0 00.477-.366.792.792 0 00-.89-1.163l-.28.075a1.32 1.32 0 00-1.522-.685l-1.02.273a.264.264 0 00-.186.323l.205.766-3.707.993-.175-.479a.264.264 0 00-.496 0l-.267.73L.653 4.479a.792.792 0 10.41 1.532l.336-.09v5.352a1.582 1.582 0 00.242 3.143l2.661.221v.835H.08V16h15.835v-3.431a.264.264 0 00-.264-.264zm-.584-11.14a.266.266 0 01.324.186.259.259 0 01-.03.203.254.254 0 01-.157.12l-.255.069-.137-.51.255-.069zm-1.803-.61a.792.792 0 01.97.56l.683 2.55a.264.264 0 01-.186.322l-1.02.274a.264.264 0 01-.323-.187L12.499.76l.764-.205zm-1 1.361l.136.509-3.614.97-.181-.498 3.658-.98zm-4.266.863l2.525 6.887h-.751l-1.524-4.57a.264.264 0 00-.501 0l-1.523 4.57h-.751l2.525-6.887zm1.217 6.887H6.78l1.218-3.652 1.217 3.652zM.927 5.501a.265.265 0 01-.137-.512l6.47-1.732-.223.605L.927 5.5zm5.888-1.034L4.91 9.666h-.343a.264.264 0 00-.264.264v1.099l-2.375.198V5.779l4.888-1.312zM.607 12.833a1.056 1.056 0 112.111 0 1.056 1.056 0 01-2.11 0zm2.146 1.146a1.577 1.577 0 000-2.292l1.55-.129v2.55l-1.55-.13zm5.25-2.73a1.584 1.584 0 010 3.167l-.255-.021a1.581 1.581 0 010-3.124l.255-.022zm-2.117 1.584c0 .543.21 1.064.585 1.456l-1.641-.136v-2.64l1.641-.136a2.1 2.1 0 00-.585 1.456zm-1.056 2.64v-.793l2.862.238c.093.015.186.024.28.026h.026a2.111 2.111 0 000-4.222h-.024a2.035 2.035 0 00-.281.023l-2.862.24v-.791h6.334v5.278H4.83zm8.973 0v-2.64h1.583v2.64h-1.583z"/><path d="M1.399 12.57h.528v.527h-.528v-.528zm6.334 0h.528v.527h-.528v-.528z"/></g></symbol><symbol id="ring" viewBox="0 0 17 17"><path d="M12.886 10.05a4.652 4.652 0 01-2.834 2.833.382.382 0 00-.255.363V17h.77v-3.488a5.496 5.496 0 002.948-2.949H17v-.769h-3.75a.387.387 0 00-.364.255zm-8.772-3.1a4.652 4.652 0 012.833-2.833.377.377 0 00.255-.364V0h-.77v3.487a5.496 5.496 0 00-2.948 2.95H0v.769h3.75a.386.386 0 00.364-.256zm9.399-.514a5.496 5.496 0 00-2.948-2.949V0h-.77v3.75c0 .164.101.308.255.364a4.652 4.652 0 012.834 2.833.38.38 0 00.363.255h3.754v-.77h-3.488v.004zm-6.563 6.45a4.652 4.652 0 01-2.833-2.833.382.382 0 00-.364-.255H0v.77h3.487a5.496 5.496 0 002.95 2.948V17h.769v-3.75a.382.382 0 00-.256-.364zM4.832 7.758a3.722 3.722 0 00-.007 1.459l.066.2.343-.169.367-.045-.024-.172-.004-.01a2.937 2.937 0 01.014-1.105l.021-.102-.755-.154-.021.098zm1.202-.916a2.91 2.91 0 01.822-.818l.087-.06-.426-.64-.088.06a3.713 3.713 0 00-1.032 1.028l-.06.088.638.43.059-.088zm.374 4.761l.088.06.43-.637-.088-.06a3.002 3.002 0 01-.818-.822l-.06-.087-.64.426.06.088c.273.41.619.755 1.028 1.032zm4.176-6.21l-.087-.059-.43.64.087.06c.325.216.601.493.818.822l.06.087.64-.427-.06-.087a3.662 3.662 0 00-1.028-1.036zm-1.517 6.028a3.02 3.02 0 01-1.161-.003l-.102-.021-.154.755.102.021a3.788 3.788 0 001.465.004l.116-.025-.171-.748-.095.017zm3.103-2.183a3.709 3.709 0 00.003-1.455l-.021-.101-.756.15.021.101a2.926 2.926 0 01-.003 1.15l-.021.103.755.154.021-.102zm-1.2.917a2.943 2.943 0 01-.818.818l-.087.06.426.64.088-.06a3.616 3.616 0 001.031-1.031l.06-.088-.64-.427-.06.088zM7.933 5.58a2.98 2.98 0 011.154.003l.102.021.154-.755-.102-.021a3.652 3.652 0 00-1.444-.007l-.137.024.175.749.098-.014zm.567.857A2.068 2.068 0 006.435 8.5c0 1.137.926 2.064 2.063 2.064A2.068 2.068 0 0010.563 8.5 2.068 2.068 0 008.5 6.437zm0 3.358a1.296 1.296 0 010-2.588c.713 0 1.294.58 1.294 1.293 0 .714-.581 1.295-1.295 1.295zM8.885 0h-.77v1.33h.77V0zm0 2.238h-.77v1.33h.77v-1.33zm0 11.194h-.77v1.329h.77v-1.33zm0 2.238h-.77V17h.77v-1.33zM1.33 8.115H0v.77h1.33v-.77zm2.237 0H2.239v.77h1.33v-.77zm11.193 0h-1.328v.77h1.329v-.77zm2.24 0h-1.33v.77H17v-.77z" fill="#7A1B1B"/></symbol><symbol id="room" viewBox="0 0 14 14"><path d="M0 14h10.204v-.657H6.131V8.691h.085c.204 0 .306-.003.538-.009v-.659H4.212v.645h1.18v4.644H.696V8.654h.085c.425 0 .663-.003.852-.003.085 0 .159 0 .23-.003l.002-.31c.003-.108.003-.227.006-.349H.682V6.243H1.84v-.662H.705V.685h7.13v4.918H4.209v.6h7.105V5.57H8.545V.702h4.776v7.304H8.77v3.467h.652V8.685h3.903v4.63l-.025.003-.054.003a6.823 6.823 0 01-.526.017h-.176V14H14V0H0v14z" fill="#7A1B1B"/></symbol><symbol id="route" viewBox="0 0 16 15"><g clip-path="url(#routeclip0)" fill="#7A1B1B"><path d="M13.384 3.037c0-.78-.678-1.416-1.511-1.416-.833 0-1.511.635-1.511 1.416 0 .781.678 1.417 1.51 1.417.834 0 1.512-.636 1.512-1.417zm-1.511.538c-.316 0-.574-.241-.574-.538 0-.296.258-.537.574-.537.316 0 .573.241.573.537 0 .297-.257.538-.573.538z"/><path d="M13.24 10.13H2.75c-.586 0-1.063-.446-1.063-.996 0-.549.477-.995 1.063-.995h9.134l2.201-2.793c.542-.692 1.027-1.39 1.027-2.309 0-1.669-1.443-3.027-3.22-3.037h-.02c-1.786 0-3.24 1.363-3.24 3.037 0 .919.486 1.617 1.028 2.309l1.497 1.914H2.75c-1.103 0-2 .84-2 1.874 0 1.034.897 1.875 2 1.875h10.49c.599 0 1.086.457 1.086 1.018 0 .562-.487 1.019-1.086 1.019H3.912c-.201-.622-.819-1.075-1.546-1.075-.891 0-1.616.68-1.616 1.514 0 .836.725 1.515 1.616 1.515.727 0 1.345-.454 1.546-1.075h9.328c1.116 0 2.023-.851 2.023-1.898 0-1.045-.907-1.896-2.023-1.896zm-2.824-5.304c-.463-.592-.846-1.135-.846-1.789 0-1.186 1.026-2.152 2.29-2.158h.013c1.27 0 2.302.968 2.302 2.158 0 .654-.383 1.197-.846 1.79l-1.432 1.832-.023.031-1.458-1.864zm-8.05 9.295c-.374 0-.679-.285-.679-.636 0-.35.305-.635.679-.635.373 0 .678.285.678.635 0 .351-.305.636-.678.636z"/></g></symbol><symbol id="ruller" viewBox="0 0 17 14"><path d="M5.798 6.837c1.408 0 2.557-.916 2.557-2.038 0-1.122-1.145-2.038-2.557-2.038S3.24 3.677 3.24 4.799c0 1.122 1.148 2.038 2.557 2.038zm0-3.352c1.025 0 1.873.6 1.873 1.314 0 .713-.858 1.314-1.873 1.314-1.016 0-1.874-.601-1.874-1.314 0-.713.858-1.318 1.874-1.318v.004z" fill="#7A1B1B"/><path d="M16.64 8.564h-5.047V4.795C11.593 2.319 8.99.303 5.78.303 2.57.303-.031 2.319-.031 4.795v4.453c0 2.28 2.205 4.163 5.046 4.449h.058c.236.021.475.04.718.04H16.64a.352.352 0 00.342-.363V8.925c0-.2-.153-.361-.342-.361zM5.797 1.03c2.82 0 5.128 1.69 5.128 3.769 0 2.078-2.294 3.768-5.128 3.768S.67 6.877.67 4.8s2.31-3.77 5.128-3.77zm5.128 5.88v1.654H8.943a5.218 5.218 0 001.966-1.655h.017zm5.371 6.102h-.684v-1.831c0-.2-.153-.362-.341-.362a.353.353 0 00-.342.362v1.835h-1.368v-.995c0-.2-.153-.363-.342-.363a.352.352 0 00-.342.363v.995H11.51v-.995c0-.2-.153-.363-.342-.363a.352.352 0 00-.342.363v.995H9.459v-1.835c0-.2-.153-.362-.342-.362a.353.353 0 00-.341.362v1.835h-1.31v-.995c0-.2-.153-.363-.342-.363a.352.352 0 00-.342.363v.995H5.415v-.995c0-.2-.153-.363-.342-.363a.352.352 0 00-.342.363v.908C2.424 12.567.687 11.054.687 9.244V6.909c.977 1.416 2.902 2.378 5.128 2.378h10.482v3.725z" fill="#7A1B1B"/></symbol><symbol id="septik" viewBox="0 0 15 17"><path d="M14.94 16.874l.003-.003A.342.342 0 0015 16.7a.3.3 0 00-.017-.106c-.278-.894-1.727-5.576-1.738-5.616l-.023-.075.034-.072c.311-.69.498-1.42.555-2.176l.014-.187h.361a.302.302 0 00.302-.306.302.302 0 00-.302-.306h-.361l-.014-.187a6.484 6.484 0 00-3.388-5.205l-.107-.058V.612h.268a.302.302 0 00.301-.306.302.302 0 00-.301-.306H4.42a.302.302 0 00-.302.306c0 .17.134.306.302.306h.268v1.792l-.108.058a6.484 6.484 0 00-3.388 5.205l-.013.187H.814a.302.302 0 00-.302.306c0 .17.134.306.302.306h.361l.014.187c.057.755.244 1.49.555 2.176l.034.071-.214.69a2387.58 2387.58 0 01-1.55 5.01.34.34 0 00-.01.143c0 .006.003.013.003.02a.323.323 0 00.073.143.302.302 0 00.405.03l3.985-3.134.114.06c.76.402 1.577.64 2.43.708l.185.014v2.111c0 .17.134.306.301.306a.302.302 0 00.301-.306v-2.111l.184-.014a6.124 6.124 0 002.431-.707l.114-.061 3.981 3.131a.312.312 0 00.342.024.285.285 0 00.087-.082zM5.29.612h4.42v1.52l-.265-.085a6.183 6.183 0 00-3.89 0l-.265.085V.612zM1.798 7.633a5.837 5.837 0 011.831-3.754 5.653 5.653 0 017.742 0 5.836 5.836 0 011.831 3.754l.02.221H1.778l.02-.221zm-.92 8.221l.19-.622c.14-.452.968-3.128.988-3.2l.117-.38.234.323c.369.503.804.948 1.296 1.326l.211.16-3.037 2.393zm3.545-2.791l-.12-.082a5.79 5.79 0 01-1.48-1.472l-.225-.323H6.81l-2.387 1.877zm2.776.908l-.218-.02a5.59 5.59 0 01-1.674-.422l-.318-.136 2.213-1.741v2.319h-.003zM2.29 10.574l-.053-.122a5.809 5.809 0 01-.439-1.762l-.02-.22h11.444l-.02.22a5.81 5.81 0 01-.439 1.762l-.053.122H2.29zm7.403 2.955a5.694 5.694 0 01-1.674.421l-.218.02v-2.315l2.213 1.741-.32.133zm.884-.466L8.19 11.186h4.212l-.224.323a5.79 5.79 0 01-1.48 1.472l-.121.082zm.506.398l.21-.16a6.523 6.523 0 001.296-1.326l.235-.323.117.38c.194.63.894 2.897.988 3.197l.19.622-3.036-2.39z" fill="#7A1B1B"/></symbol><symbol id="share" viewBox="0 0 16 16"><path d="M12.7 10.3c-.9 0-1.7.4-2.3 1.1L6 8.9c.1-.3.2-.6.2-.9 0-.3-.1-.7-.2-1l4.4-2.5c.5.7 1.3 1.1 2.3 1.1 1.6 0 2.9-1.3 2.9-2.9 0-1.6-1.3-2.9-2.9-2.9-1.6 0-2.9 1.3-2.9 2.9 0 .3.1.7.2.9L5.6 6.3c-.5-.7-1.4-1.2-2.3-1.2C1.7 5.1.5 6.4.5 8c0 1.6 1.3 2.9 2.9 2.9.9 0 1.7-.4 2.3-1.1l4.4 2.5c-.1.3-.2.6-.2 1 0 1.6 1.3 2.9 2.9 2.9s2.9-1.3 2.9-2.9c-.2-1.7-1.4-3-3-3zm0-9.4c1.1 0 2 .9 2 2s-.9 2-2 2-2-.9-2-2 .9-2 2-2zM3.3 10c-1.1 0-2-.9-2-2s.9-2 2-2 2 .9 2 2-.9 2-2 2zm9.4 5.1c-1.1 0-2-.9-2-2s.9-2 2-2 2 .9 2 2c-.1 1.1-.9 2-2 2z"/></symbol><symbol id="sity" viewBox="0 0 12 12"><path d="M0 12h6V0H0v12zM3.75 1.5h1.5V3h-1.5V1.5zm0 3h1.5V6h-1.5V4.5zm0 3h1.5V9h-1.5V7.5zm-3-6h1.5V3H.75V1.5zm0 3h1.5V6H.75V4.5zm0 3h1.5V9H.75V7.5zm6-3.75H12v.75H6.75v-.75zm0 8.25h1.5V9h2.25v3H12V5.25H6.75V12z"/></symbol><symbol id="sort" viewBox="0 0 9 15"><path clip-rule="evenodd" d="M7.895 10.635a.375.375 0 10-.54-.52L4.5 13.083l-2.854-2.968a.375.375 0 00-.541.52s3.122 3.249 3.134 3.26c.073.07.167.105.261.105a.374.374 0 00.261-.105c.012-.011 3.134-3.26 3.134-3.26zm-6.79-6.27a.375.375 0 10.54.52L4.5 1.917l2.854 2.968a.375.375 0 00.541-.52s-3.122-3.249-3.134-3.26A.374.374 0 004.5 1a.374.374 0 00-.261.105c-.012.011-3.134 3.26-3.134 3.26z"/></symbol><symbol id="tiles" viewBox="0 0 14 13"><path d="M0 0h6.372v5.842H0zm7.628 0H14v5.842H7.628zm0 7.157H14v5.842H7.628zM0 7.157h6.372v5.842H0z"/></symbol><symbol id="trees" viewBox="0 0 17 17"><g clip-path="url(#treesclip0)"><path d="M17.002 7.933c0-.747-.328-1.456-.897-1.94a2.24 2.24 0 00.33-1.176 2.27 2.27 0 00-2.003-2.252A2.261 2.261 0 0010.345.953a2.26 2.26 0 00-3.687 0 2.263 2.263 0 00-4.086 1.612A2.27 2.27 0 00.568 4.817c0 .415.113.822.33 1.175a2.55 2.55 0 000 3.882 2.27 2.27 0 001.937 3.443h1.7v3.116h-.85a.283.283 0 000 .567h9.633a.283.283 0 000-.567h-.85v-3.116h1.7a2.27 2.27 0 001.937-3.442 2.548 2.548 0 00.897-1.942zM2.835 12.748a1.702 1.702 0 01-1.7-1.698 1.68 1.68 0 01.372-1.06.283.283 0 00-.063-.411 1.983 1.983 0 010-3.291.283.283 0 00.063-.412 1.68 1.68 0 01-.372-1.06 1.703 1.703 0 011.7-1.7l.074.005a.277.277 0 00.234-.11.282.282 0 00.048-.255 1.7 1.7 0 013.164-1.214c0 .003 0 .006-.002.009a2.23 2.23 0 00-.082.325l-.008.057a2.125 2.125 0 00-.008.632A2.27 2.27 0 004.58 5.992l-.014.014-1.32-1.319a.283.283 0 00-.4.401l1.335 1.335a2.547 2.547 0 00.4 3.452c-.11.178-.194.37-.249.572L3.32 9.433a.283.283 0 00-.4.4l1.339 1.34c.002.04.003.08.007.118.003.027.008.052.012.078.007.053.015.105.026.156.006.03.015.06.023.09.012.046.023.091.038.136.01.03.022.06.034.092.015.041.03.083.049.123a2.05 2.05 0 00.156.289 2.07 2.07 0 00.212.283 2.495 2.495 0 00.16.164l.046.046H2.835zm5.383 3.685H5.102v-3.116h3.116v3.116zm.284-12.75a.283.283 0 00-.284.284v2.008L6.931 4.687a.283.283 0 00-.4.401l1.687 1.688v3.873L7.002 9.433a.283.283 0 00-.4.4l1.616 1.618v1.299h-1.7a1.701 1.701 0 01-1.7-1.7 1.68 1.68 0 01.372-1.06.283.283 0 00-.062-.411 1.983 1.983 0 010-3.291.283.283 0 00.062-.412 1.68 1.68 0 01-.372-1.06 1.703 1.703 0 011.7-1.7l.074.005a.274.274 0 00.235-.11.282.282 0 00.047-.255 1.704 1.704 0 01-.043-.8c0-.005 0-.009.002-.013A1.7 1.7 0 018.502.567a1.7 1.7 0 011.627 2.19.282.282 0 00.048.254.276.276 0 00.235.11l.073-.004a1.7 1.7 0 011.328 2.76.283.283 0 00.063.41 1.983 1.983 0 010 3.292.283.283 0 00-.063.412 1.702 1.702 0 01-1.328 2.76h-1.7V8.88a.273.273 0 00.059-.039L10.685 7a.283.283 0 00-.4-.4l-1.5 1.5V3.966a.283.283 0 00-.283-.283zm3.4 12.75H8.785v-3.116h3.117v3.116zm3.58-6.46a1.68 1.68 0 01.385 1.078 1.7 1.7 0 01-1.699 1.699h-2.185c.016-.014.03-.03.046-.045a1.946 1.946 0 00.24-.261 2.027 2.027 0 00.131-.187l.053-.085c.021-.037.04-.076.06-.113l.043-.09c.019-.04.034-.082.05-.124.011-.03.024-.06.034-.092.014-.044.026-.09.037-.135l.024-.09a2.12 2.12 0 00.025-.156c.004-.026.01-.052.012-.078a2.252 2.252 0 00-.316-1.42 2.545 2.545 0 00.89-1.816L14.369 7a.283.283 0 00-.401-.4l-.726.725a2.545 2.545 0 00-.82-1.331 2.27 2.27 0 00-1.674-3.428c.029-.21.026-.424-.008-.633-.003-.019-.005-.038-.009-.056a2.233 2.233 0 00-.081-.326c0-.002 0-.005-.002-.008a1.7 1.7 0 013.164 1.214.281.281 0 00.047.255.277.277 0 00.235.11l.074-.005a1.7 1.7 0 011.328 2.76.283.283 0 00.063.41 1.983 1.983 0 010 3.292.283.283 0 00-.076.393z" fill="#7A1B1B"/></g></symbol><symbol id="tw" viewBox="0 0 16 12"><path fill-rule="evenodd" clip-rule="evenodd" d="M13.473.956A3.408 3.408 0 0011.077 0C9.266 0 7.796 1.356 7.796 3.03c0 .237.028.467.084.69C5.152 3.592 2.734 2.387 1.114.552c-.283.449-.445.97-.445 1.525 0 1.05.58 1.977 1.461 2.52A3.497 3.497 0 01.642 4.22v.037c0 1.468 1.132 2.693 2.635 2.97a3.542 3.542 0 01-1.483.053c.418 1.204 1.63 2.08 3.066 2.103a6.942 6.942 0 01-4.077 1.298A7.21 7.21 0 010 10.639 9.877 9.877 0 005.032 12c6.038 0 9.34-4.615 9.34-8.619 0-.132-.003-.263-.009-.392A6.379 6.379 0 0016 1.42c-.588.24-1.22.403-1.885.476A3.095 3.095 0 0015.559.221a6.893 6.893 0 01-2.086.734z"/></symbol><symbol id="visual-search" viewBox="0 0 40 24"><path d="M22.408 8.786a1.364 1.364 0 100-2.73 1.364 1.364 0 000 2.73z" fill="#fff"/><path d="M8.02 23.36c0 .02 0 .02.021.02.021.041.042.103.062.145 0 .02.021.02.021.04 0 .022.02.022.02.042l.021.02c.021.042.062.063.083.104l.02.02.042.042c.02 0 .02.021.02.021.021.02.042.02.063.041l.02.021s.021 0 .021.02c.02.021.062.021.083.042.02 0 .02 0 .041.02.02 0 .041.021.041.021.063.021.125.021.187.021h22.367a.838.838 0 00.847-.848V.849A.838.838 0 0031.152 0H8.849A.838.838 0 008 .848V23.11c0 .062.02.145.02.207v.041zm22.347-1.076H11.68l13.808-9.033 4.879 4.65v4.383zM9.695 1.695h20.672v13.87l-4.197-4.01a.873.873 0 00-1.054-.103l-3.948 2.605-2.75-2.77a.848.848 0 00-1.054-.124L9.695 16V1.695zm0 16.31l8-5.044 2.026 2.047L9.695 21.56v-3.556zM34.4.8H36v22.4h-1.6V.8zm4 3.2H40v16h-1.6V4zM5.6.8H4v22.4h1.6V.8zM1.6 4H0v16h1.6V4z" fill="#fff"/></symbol><symbol id="waves" viewBox="0 0 17 17"><g clip-path="url(#wavesclip0)" fill-rule="evenodd" clip-rule="evenodd" fill="#7A1B1B"><path d="M16.389 7.632h-2.165c-.155 0-1.14-.089-2.098-.515-1.113-.494-1.677-1.212-1.677-2.133 0-1.566.65-2.01.93-2.127.296-.125.622-.085.81.1.156.151.185.377.083.635-.058.15-.14.214-.244.296-.144.113-.36.284-.337.644a.61.61 0 00.386.528c.41.171.998-.012 1.537-.478.484-.419.713-1.358.558-2.285-.163-.969-.722-1.71-1.534-2.035-1.81-.724-3.575.16-4.521 1.357-.284.36-.538.71-.8 1.1a.332.332 0 00.552.37c.252-.377.496-.713.769-1.059C9.43 1.027 10.899.281 12.392.878c.81.324 1.053 1.097 1.125 1.53.126.744-.077 1.447-.337 1.672-.384.332-.682.393-.803.38a.986.986 0 01.062-.051c.13-.103.327-.258.45-.574.2-.508.112-1.014-.236-1.353-.383-.374-.984-.467-1.531-.237-.402.17-1.337.776-1.337 2.74 0 1.19.716 2.137 2.072 2.739.964.428 2.029.572 2.367.572h1.833v1.512c-.234.614-1.203 1.072-2.287 1.072-1.11 0-2.1-.48-2.304-1.115a.332.332 0 00-.632 0c-.203.635-1.193 1.115-2.303 1.115-1.11 0-2.1-.48-2.304-1.116a.332.332 0 00-.632 0c-.203.636-1.193 1.116-2.302 1.116-1.11 0-2.101-.48-2.304-1.115a.324.324 0 00-.027-.061V8.287a7.541 7.541 0 002.268-.504c.911-.355 1.687-.854 2.243-1.445.337-.357.629-.694.893-1.029a.332.332 0 00-.522-.41c-.251.319-.53.641-.854.984-.97 1.03-2.763 1.75-4.36 1.75a.332.332 0 00-.331.331v8.704c0 .184.148.332.332.332h15.757a.332.332 0 00.332-.332V7.964a.332.332 0 00-.331-.332zM3.293 11.543c1.12 0 2.102-.396 2.618-1.014.517.617 1.5 1.014 2.62 1.014s2.103-.396 2.62-1.013c.516.617 1.498 1.013 2.619 1.013.913 0 1.734-.263 2.287-.695v2.138a.33.33 0 00-.027.062c-.203.636-1.193 1.115-2.303 1.115-1.11 0-2.1-.48-2.303-1.115a.332.332 0 00-.632 0c-.203.636-1.193 1.115-2.304 1.115-1.11 0-2.1-.48-2.303-1.116a.332.332 0 00-.632 0c-.203.637-1.193 1.116-2.303 1.116-1.084 0-2.054-.457-2.287-1.07v-2.28c.552.453 1.392.73 2.33.73zm-2.33 4.793V14.13c.552.432 1.374.697 2.287.697 1.12 0 2.103-.397 2.619-1.015.517.618 1.5 1.015 2.62 1.015s2.102-.397 2.619-1.014c.517.617 1.5 1.014 2.62 1.014.936 0 1.777-.278 2.329-.73v2.24H.963z"/><path d="M6.874 4.354a.332.332 0 100-.664.332.332 0 000 .664z"/></g></symbol></defs><view id="view-pin" viewBox="10 10 12.73 20"></view><view id="view-about-leadership" viewBox="50 10 14.29 20"></view><view id="view-apartment" viewBox="90 10 20 20"></view><view id="view-arrow-left" viewBox="130 10 12.94 20"></view><view id="view-arrow-right" viewBox="170 10 12.5 20"></view><view id="view-arrow-right2" viewBox="210 10 12.86 20"></view><view id="view-arrow" viewBox="250 10 14.29 20"></view><view id="view-bed" viewBox="290 10 24.29 20"></view><view id="view-bus" viewBox="350 10 17.78 20"></view><view id="view-calendar" viewBox="390 10 20 20"></view><view id="view-catalog" viewBox="430 10 20 20"></view><view id="view-check" viewBox="470 10 23.08 20"></view><view id="view-class" viewBox="530 10 20 20"></view><view id="view-close" viewBox="570 10 20 20"></view><view id="view-continent" viewBox="610 10 36.24 20"></view><view id="view-diamond" viewBox="670 10 27.69 20"></view><view id="view-download" viewBox="730 10 20 20"></view><view id="view-facing" viewBox="770 10 21.43 20"></view><view id="view-fb" viewBox="830 10 8.75 20"></view><view id="view-fences" viewBox="870 10 21.43 20"></view><view id="view-gas" viewBox="930 10 21.33 20"></view><view id="view-giraffe" viewBox="10 50 7.88 20"></view><view id="view-heart" viewBox="50 50 24 20"></view><view id="view-insta" viewBox="110 50 20 20"></view><view id="view-kanaliz" viewBox="150 50 20 20"></view><view id="view-like" viewBox="190 50 24.62 20"></view><view id="view-list-ico" viewBox="250 50 21.54 20"></view><view id="view-logo-with-name" viewBox="310 50 37.73 20"></view><view id="view-logo" viewBox="370 50 6.56 20"></view><view id="view-logo_full-white" viewBox="410 50 26.88 20"></view><view id="view-logo_full" viewBox="470 50 26.88 20"></view><view id="view-logo_group" viewBox="530 50 93.85 20"></view><view id="view-logo_name" viewBox="650 50 32.11 20"></view><view id="view-logo_saffari_2" viewBox="710 50 37.73 20"></view><view id="view-mail-red" viewBox="770 50 27.69 20"></view><view id="view-mail" viewBox="830 50 27.14 20"></view><view id="view-objects" viewBox="890 50 20 20"></view><view id="view-parking" viewBox="930 50 20 20"></view><view id="view-phone-2" viewBox="970 50 20 20"></view><view id="view-phone" viewBox="10 90 20 20"></view><view id="view-pin" viewBox="50 90 12.73 20"></view><view id="view-pin2" viewBox="90 90 14.29 20"></view><view id="view-print" viewBox="130 90 20 20"></view><view id="view-pumpjack" viewBox="170 90 20 20"></view><view id="view-ring" viewBox="210 90 20 20"></view><view id="view-room" viewBox="250 90 20 20"></view><view id="view-route" viewBox="290 90 21.33 20"></view><view id="view-ruller" viewBox="350 90 24.29 20"></view><view id="view-septik" viewBox="410 90 17.65 20"></view><view id="view-share" viewBox="450 90 20 20"></view><view id="view-sity" viewBox="490 90 20 20"></view><view id="view-sort" viewBox="530 90 12 20"></view><view id="view-tiles" viewBox="570 90 21.54 20"></view><view id="view-trees" viewBox="630 90 20 20"></view><view id="view-tw" viewBox="670 90 26.67 20"></view><view id="view-visual-search" viewBox="730 90 33.33 20"></view><view id="view-waves" viewBox="790 90 20 20"></view><use id="pin" xlink:href="#pin" width="12.73" height="20" x="10" y="10"></use><use id="about-leadership" xlink:href="#about-leadership" width="14.29" height="20" x="50" y="10"></use><use id="apartment" xlink:href="#apartment" width="20" height="20" x="90" y="10"></use><use id="arrow-left" xlink:href="#arrow-left" width="12.94" height="20" x="130" y="10"></use><use id="arrow-right" xlink:href="#arrow-right" width="12.5" height="20" x="170" y="10"></use><use id="arrow-right2" xlink:href="#arrow-right2" width="12.86" height="20" x="210" y="10"></use><use id="arrow" xlink:href="#arrow" width="14.29" height="20" x="250" y="10"></use><use id="bed" xlink:href="#bed" width="24.29" height="20" x="290" y="10"></use><use id="bus" xlink:href="#bus" width="17.78" height="20" x="350" y="10"></use><use id="calendar" xlink:href="#calendar" width="20" height="20" x="390" y="10"></use><use id="catalog" xlink:href="#catalog" width="20" height="20" x="430" y="10"></use><use id="check" xlink:href="#check" width="23.08" height="20" x="470" y="10"></use><use id="class" xlink:href="#class" width="20" height="20" x="530" y="10"></use><use id="close" xlink:href="#close" width="20" height="20" x="570" y="10"></use><use id="continent" xlink:href="#continent" width="36.24" height="20" x="610" y="10"></use><use id="diamond" xlink:href="#diamond" width="27.69" height="20" x="670" y="10"></use><use id="download" xlink:href="#download" width="20" height="20" x="730" y="10"></use><use id="facing" xlink:href="#facing" width="21.43" height="20" x="770" y="10"></use><use id="fb" xlink:href="#fb" width="8.75" height="20" x="830" y="10"></use><use id="fences" xlink:href="#fences" width="21.43" height="20" x="870" y="10"></use><use id="gas" xlink:href="#gas" width="21.33" height="20" x="930" y="10"></use><use id="giraffe" xlink:href="#giraffe" width="7.88" height="20" x="10" y="50"></use><use id="heart" xlink:href="#heart" width="24" height="20" x="50" y="50"></use><use id="insta" xlink:href="#insta" width="20" height="20" x="110" y="50"></use><use id="kanaliz" xlink:href="#kanaliz" width="20" height="20" x="150" y="50"></use><use id="like" xlink:href="#like" width="24.62" height="20" x="190" y="50"></use><use id="list-ico" xlink:href="#list-ico" width="21.54" height="20" x="250" y="50"></use><use id="logo-with-name" xlink:href="#logo-with-name" width="37.73" height="20" x="310" y="50"></use><use id="logo" xlink:href="#logo" width="6.56" height="20" x="370" y="50"></use><use id="logo_full-white" xlink:href="#logo_full-white" width="26.88" height="20" x="410" y="50"></use><use id="logo_full" xlink:href="#logo_full" width="26.88" height="20" x="470" y="50"></use><use id="logo_group" xlink:href="#logo_group" width="93.85" height="20" x="530" y="50"></use><use id="logo_name" xlink:href="#logo_name" width="32.11" height="20" x="650" y="50"></use><use id="logo_saffari_2" xlink:href="#logo_saffari_2" width="37.73" height="20" x="710" y="50"></use><use id="mail-red" xlink:href="#mail-red" width="27.69" height="20" x="770" y="50"></use><use id="mail" xlink:href="#mail" width="27.14" height="20" x="830" y="50"></use><use id="objects" xlink:href="#objects" width="20" height="20" x="890" y="50"></use><use id="parking" xlink:href="#parking" width="20" height="20" x="930" y="50"></use><use id="phone-2" xlink:href="#phone-2" width="20" height="20" x="970" y="50"></use><use id="phone" xlink:href="#phone" width="20" height="20" x="10" y="90"></use><use id="pin" xlink:href="#pin" width="12.73" height="20" x="50" y="90"></use><use id="pin2" xlink:href="#pin2" width="14.29" height="20" x="90" y="90"></use><use id="print" xlink:href="#print" width="20" height="20" x="130" y="90"></use><use id="pumpjack" xlink:href="#pumpjack" width="20" height="20" x="170" y="90"></use><use id="ring" xlink:href="#ring" width="20" height="20" x="210" y="90"></use><use id="room" xlink:href="#room" width="20" height="20" x="250" y="90"></use><use id="route" xlink:href="#route" width="21.33" height="20" x="290" y="90"></use><use id="ruller" xlink:href="#ruller" width="24.29" height="20" x="350" y="90"></use><use id="septik" xlink:href="#septik" width="17.65" height="20" x="410" y="90"></use><use id="share" xlink:href="#share" width="20" height="20" x="450" y="90"></use><use id="sity" xlink:href="#sity" width="20" height="20" x="490" y="90"></use><use id="sort" xlink:href="#sort" width="12" height="20" x="530" y="90"></use><use id="tiles" xlink:href="#tiles" width="21.54" height="20" x="570" y="90"></use><use id="trees" xlink:href="#trees" width="20" height="20" x="630" y="90"></use><use id="tw" xlink:href="#tw" width="26.67" height="20" x="670" y="90"></use><use id="visual-search" xlink:href="#visual-search" width="33.33" height="20" x="730" y="90"></use><use id="waves" xlink:href="#waves" width="20" height="20" x="790" y="90"></use></svg>