<svg width="20" height="18" viewBox="0 0 20 18" fill="none" xmlns="http://www.w3.org/2000/svg">
<path d="M16.1005 17.9448C15.9442 17.9448 15.7891 17.8985 15.656 17.8083L10.6272 14.3971L7.93 16.3379C7.71846 16.49 7.44581 16.5283 7.20018 16.4405C6.95487 16.3525 6.76857 16.1493 6.70207 15.8973L5.34778 10.765L0.508782 8.91467C0.204147 8.79814 0.00211302 8.5067 -0.00010365 8.18053C-0.00232033 7.85436 0.195703 7.56018 0.498859 7.43953L18.8985 0.11817C18.982 0.0827031 19.0704 0.0622252 19.1595 0.0567363C19.1913 0.0548363 19.2233 0.0548364 19.2551 0.0566308C19.4396 0.0676086 19.6208 0.142764 19.7623 0.281465C19.777 0.295821 19.7909 0.310493 19.8041 0.325798C19.9213 0.459643 19.9856 0.622833 19.9978 0.789083C20.0007 0.830884 20.0005 0.873211 19.9968 0.915539C19.9943 0.945728 19.99 0.975812 19.9839 1.00568L16.8781 17.3013C16.8282 17.5631 16.65 17.7822 16.4038 17.8843C16.3062 17.9248 16.2031 17.9448 16.1005 17.9448ZM11.0687 12.7834L15.5482 15.8218L17.9648 3.14203L9.23668 11.5407L11.0476 12.7692C11.0549 12.7737 11.0618 12.7785 11.0687 12.7834ZM7.33973 12.1077L7.9395 14.3804L9.23171 13.4505L7.53965 12.3027C7.46101 12.2495 7.39367 12.1832 7.33973 12.1077ZM2.96982 8.16037L6.29251 9.43074C6.53054 9.52173 6.71019 9.72186 6.77522 9.96823L7.1966 11.5652C7.21591 11.381 7.29941 11.2077 7.43505 11.0771L15.7517 3.07447L2.96982 8.16037Z" fill="white"/>
</svg>
