<svg width="20" height="14" viewBox="0 0 20 14" fill="none" xmlns="http://www.w3.org/2000/svg">
<path fill-rule="evenodd" clip-rule="evenodd" d="M16.8408 1.11512C16.0943 0.428823 15.0274 0 13.8462 0C11.582 0 9.74448 1.58252 9.74448 3.5342C9.74448 3.81141 9.77973 4.0801 9.85021 4.33892C6.44007 4.19134 3.41708 2.78601 1.39214 0.645029C1.03864 1.16895 0.836782 1.77675 0.836782 2.42402C0.836782 3.64948 1.56089 4.73141 2.66254 5.36522C1.99076 5.34818 1.3569 5.18759 0.802606 4.92474V4.9678C0.802606 6.68085 2.21718 8.10996 4.0958 8.43337C3.7519 8.51636 3.38878 8.55807 3.01444 8.55807C2.75011 8.55807 2.49219 8.53654 2.24228 8.49527C2.76453 9.89882 4.27896 10.9211 6.07481 10.9484C4.67092 11.8967 2.9007 12.4619 0.978827 12.4619C0.647745 12.4619 0.320402 12.4457 0 12.4134C1.81561 13.4146 3.97351 14 6.29002 14C13.8381 14 17.9644 8.61549 17.9644 3.94463C17.9644 3.79078 17.9612 3.63737 17.9542 3.48666C18.7558 2.98831 19.4521 2.36615 20 1.65743C19.2652 1.93823 18.4738 2.12842 17.644 2.21364C18.4914 1.77675 19.1419 1.08417 19.4484 0.258819C18.6548 0.66342 17.778 0.957675 16.8408 1.11512Z" fill="white"/>
</svg>
