<svg width="20" height="20" viewBox="0 0 20 20" fill="none" xmlns="http://www.w3.org/2000/svg">
<path d="M7.65625 12.3232C7.44062 12.3232 7.26562 12.4982 7.26562 12.7139C7.26562 12.9295 7.44062 13.1045 7.65625 13.1045C7.87187 13.1045 8.04688 12.9295 8.04688 12.7139C8.04688 12.4982 7.87187 12.3232 7.65625 12.3232Z" fill="white"/>
<path d="M7.65625 10.7607C7.44062 10.7607 7.26562 10.9354 7.26562 11.1514C7.26562 11.367 7.44062 11.542 7.65625 11.542C7.87187 11.542 8.04688 11.367 8.04688 11.1514C8.04688 10.9354 7.87187 10.7607 7.65625 10.7607Z" fill="white"/>
<path d="M7.65625 9.19824C7.44062 9.19824 7.26562 9.37324 7.26562 9.58887C7.26562 9.80449 7.44062 9.97949 7.65625 9.97949C7.87187 9.97949 8.04688 9.80449 8.04688 9.58887C8.04688 9.37324 7.87187 9.19824 7.65625 9.19824Z" fill="white"/>
<path d="M9.21875 10.7607C9.00312 10.7607 8.82812 10.9354 8.82812 11.1514C8.82812 11.367 9.00312 11.542 9.21875 11.542C9.43437 11.542 9.60938 11.367 9.60938 11.1514C9.60938 10.9354 9.43437 10.7607 9.21875 10.7607Z" fill="white"/>
<path d="M9.21875 9.19824C9.00312 9.19824 8.82812 9.37324 8.82812 9.58887C8.82812 9.80449 9.00312 9.97949 9.21875 9.97949C9.43437 9.97949 9.60938 9.80449 9.60938 9.58887C9.60938 9.37324 9.43437 9.19824 9.21875 9.19824Z" fill="white"/>
<path d="M9.21875 12.3232C9.00312 12.3232 8.82812 12.4982 8.82812 12.7139C8.82812 12.9295 9.00312 13.1045 9.21875 13.1045C9.43437 13.1045 9.60938 12.9295 9.60938 12.7139C9.60938 12.4982 9.43437 12.3232 9.21875 12.3232Z" fill="white"/>
<path d="M10.7812 9.19824C10.5656 9.19824 10.3906 9.37324 10.3906 9.58887C10.3906 9.80449 10.5656 9.97949 10.7812 9.97949C10.9969 9.97949 11.1719 9.80449 11.1719 9.58887C11.1719 9.37324 10.9969 9.19824 10.7812 9.19824Z" fill="white"/>
<path d="M10.7812 12.3232C10.5656 12.3232 10.3906 12.4982 10.3906 12.7139C10.3906 12.9295 10.5656 13.1045 10.7812 13.1045C10.9969 13.1045 11.1719 12.9295 11.1719 12.7139C11.1719 12.4982 10.9969 12.3232 10.7812 12.3232Z" fill="white"/>
<path d="M10.7812 10.7607C10.5656 10.7607 10.3906 10.9354 10.3906 11.1514C10.3906 11.367 10.5656 11.542 10.7812 11.542C10.9969 11.542 11.1719 11.367 11.1719 11.1514C11.1719 10.9354 10.9969 10.7607 10.7812 10.7607Z" fill="white"/>
<path d="M12.3438 10.7607C12.1281 10.7607 11.9531 10.9354 11.9531 11.1514C11.9531 11.367 12.1281 11.542 12.3438 11.542C12.5594 11.542 12.7344 11.367 12.7344 11.1514C12.7344 10.9354 12.5594 10.7607 12.3438 10.7607Z" fill="white"/>
<path d="M12.3438 12.3232C12.1281 12.3232 11.9531 12.4982 11.9531 12.7139C11.9531 12.9295 12.1281 13.1045 12.3438 13.1045C12.5594 13.1045 12.7344 12.9295 12.7344 12.7139C12.7344 12.4982 12.5594 12.3232 12.3438 12.3232Z" fill="white"/>
<path d="M12.3438 9.19824C12.1281 9.19824 11.9531 9.37324 11.9531 9.58887C11.9531 9.80449 12.1281 9.97949 12.3438 9.97949C12.5594 9.97949 12.7344 9.80449 12.7344 9.58887C12.7344 9.37324 12.5594 9.19824 12.3438 9.19824Z" fill="white"/>
<path d="M6.09375 1.52637C5.87812 1.52637 5.70312 1.70137 5.70312 1.91699C5.70312 2.13262 5.87812 2.30762 6.09375 2.30762C6.30937 2.30762 6.48438 2.13262 6.48438 1.91699C6.48438 1.70137 6.30937 1.52637 6.09375 1.52637Z" fill="white"/>
<path d="M7.65625 1.52637C7.44062 1.52637 7.26562 1.70137 7.26562 1.91699C7.26562 2.13262 7.44062 2.30762 7.65625 2.30762C7.87187 2.30762 8.04688 2.13262 8.04688 1.91699C8.04688 1.70137 7.87187 1.52637 7.65625 1.52637Z" fill="white"/>
<path d="M12.3438 1.52637C12.1281 1.52637 11.9531 1.70137 11.9531 1.91699C11.9531 2.13262 12.1281 2.30762 12.3438 2.30762C12.5594 2.30762 12.7344 2.13262 12.7344 1.91699C12.7344 1.70137 12.5594 1.52637 12.3438 1.52637Z" fill="white"/>
<path d="M13.9062 1.52637C13.6906 1.52637 13.5156 1.70137 13.5156 1.91699C13.5156 2.13262 13.6906 2.30762 13.9062 2.30762C14.1219 2.30762 14.2969 2.13262 14.2969 1.91699C14.2969 1.70137 14.1219 1.52637 13.9062 1.52637Z" fill="white"/>
<path d="M9.21875 1.52637C9.00312 1.52637 8.82812 1.70137 8.82812 1.91699C8.82812 2.13262 9.00312 2.30762 9.21875 2.30762C9.43437 2.30762 9.60938 2.13262 9.60938 1.91699C9.60938 1.70137 9.43437 1.52637 9.21875 1.52637Z" fill="white"/>
<path d="M10.7812 1.52637C10.5656 1.52637 10.3906 1.70137 10.3906 1.91699C10.3906 2.13262 10.5656 2.30762 10.7812 2.30762C10.9969 2.30762 11.1719 2.13262 11.1719 1.91699C11.1719 1.70137 10.9969 1.52637 10.7812 1.52637Z" fill="white"/>
<path d="M2.96875 12.9531C2.75312 12.9531 2.57812 13.1281 2.57812 13.3438C2.57812 13.5594 2.75312 13.7344 2.96875 13.7344C3.18437 13.7344 3.35938 13.5594 3.35938 13.3438C3.35938 13.1281 3.18437 12.9531 2.96875 12.9531Z" fill="white"/>
<path d="M2.96875 11.3906C2.75312 11.3906 2.57812 11.5656 2.57812 11.7812C2.57812 11.9973 2.75312 12.1719 2.96875 12.1719C3.18437 12.1719 3.35938 11.9973 3.35938 11.7812C3.35938 11.5656 3.18437 11.3906 2.96875 11.3906Z" fill="white"/>
<path d="M2.96875 16.0781C2.75312 16.0781 2.57812 16.2531 2.57812 16.4688C2.57812 16.6844 2.75312 16.8594 2.96875 16.8594C3.18437 16.8594 3.35938 16.6844 3.35938 16.4688C3.35938 16.2531 3.18437 16.0781 2.96875 16.0781Z" fill="white"/>
<path d="M2.96875 14.5156C2.75312 14.5156 2.57812 14.6906 2.57812 14.9062C2.57812 15.1223 2.75312 15.2969 2.96875 15.2969C3.18437 15.2969 3.35938 15.1223 3.35938 14.9062C3.35938 14.6906 3.18437 14.5156 2.96875 14.5156Z" fill="white"/>
<path d="M4.53125 16.0781C4.31562 16.0781 4.14062 16.2531 4.14062 16.4688C4.14062 16.6844 4.31562 16.8594 4.53125 16.8594C4.74687 16.8594 4.92188 16.6844 4.92188 16.4688C4.92188 16.2531 4.74687 16.0781 4.53125 16.0781Z" fill="white"/>
<path d="M4.53125 14.5156C4.31562 14.5156 4.14062 14.6906 4.14062 14.9062C4.14062 15.1223 4.31562 15.2969 4.53125 15.2969C4.74687 15.2969 4.92188 15.1223 4.92188 14.9062C4.92188 14.6906 4.74687 14.5156 4.53125 14.5156Z" fill="white"/>
<path d="M4.53125 12.9531C4.31562 12.9531 4.14062 13.1281 4.14062 13.3438C4.14062 13.5594 4.31562 13.7344 4.53125 13.7344C4.74687 13.7344 4.92188 13.5594 4.92188 13.3438C4.92188 13.1281 4.74687 12.9531 4.53125 12.9531Z" fill="white"/>
<path d="M4.53125 11.3906C4.31562 11.3906 4.14062 11.5656 4.14062 11.7812C4.14062 11.9973 4.31562 12.1719 4.53125 12.1719C4.74687 12.1719 4.92188 11.9973 4.92188 11.7812C4.92188 11.5656 4.74687 11.3906 4.53125 11.3906Z" fill="white"/>
<path d="M15.4688 12.9531C15.2531 12.9531 15.0781 13.1281 15.0781 13.3438C15.0781 13.5594 15.2531 13.7344 15.4688 13.7344C15.6844 13.7344 15.8594 13.5594 15.8594 13.3438C15.8594 13.1281 15.6844 12.9531 15.4688 12.9531Z" fill="white"/>
<path d="M15.4688 16.0781C15.2531 16.0781 15.0781 16.2531 15.0781 16.4688C15.0781 16.6844 15.2531 16.8594 15.4688 16.8594C15.6844 16.8594 15.8594 16.6844 15.8594 16.4688C15.8594 16.2531 15.6844 16.0781 15.4688 16.0781Z" fill="white"/>
<path d="M15.4688 11.3906C15.2531 11.3906 15.0781 11.5656 15.0781 11.7812C15.0781 11.9973 15.2531 12.1719 15.4688 12.1719C15.6844 12.1719 15.8594 11.9973 15.8594 11.7812C15.8594 11.5656 15.6844 11.3906 15.4688 11.3906Z" fill="white"/>
<path d="M15.4688 14.5156C15.2531 14.5156 15.0781 14.6906 15.0781 14.9062C15.0781 15.1223 15.2531 15.2969 15.4688 15.2969C15.6844 15.2969 15.8594 15.1223 15.8594 14.9062C15.8594 14.6906 15.6844 14.5156 15.4688 14.5156Z" fill="white"/>
<path d="M17.0312 14.5156C16.8156 14.5156 16.6406 14.6906 16.6406 14.9062C16.6406 15.1223 16.8156 15.2969 17.0312 15.2969C17.2469 15.2969 17.4219 15.1223 17.4219 14.9062C17.4219 14.6906 17.2469 14.5156 17.0312 14.5156Z" fill="white"/>
<path d="M17.0312 12.9531C16.8156 12.9531 16.6406 13.1281 16.6406 13.3438C16.6406 13.5594 16.8156 13.7344 17.0312 13.7344C17.2469 13.7344 17.4219 13.5594 17.4219 13.3438C17.4219 13.1281 17.2469 12.9531 17.0312 12.9531Z" fill="white"/>
<path d="M17.0312 11.3906C16.8156 11.3906 16.6406 11.5656 16.6406 11.7812C16.6406 11.9973 16.8156 12.1719 17.0312 12.1719C17.2469 12.1719 17.4219 11.9973 17.4219 11.7812C17.4219 11.5656 17.2469 11.3906 17.0312 11.3906Z" fill="white"/>
<path d="M17.0312 16.0781C16.8156 16.0781 16.6406 16.2531 16.6406 16.4688C16.6406 16.6844 16.8156 16.8594 17.0312 16.8594C17.2469 16.8594 17.4219 16.6844 17.4219 16.4688C17.4219 16.2531 17.2469 16.0781 17.0312 16.0781Z" fill="white"/>
<path d="M19.6094 17.653H18.9844V10.2153C18.9844 9.99953 18.8095 9.82465 18.5938 9.82465H17.7619L17.3386 7.63289C17.8123 7.15516 18.1055 6.49762 18.1055 5.77266C18.1055 4.44918 17.1287 3.3502 15.8594 3.16051V0.390625C15.8594 0.174883 15.6845 0 15.4688 0H4.53125C4.31551 0 4.14062 0.174883 4.14062 0.390625V3.15805C2.86188 3.33934 1.875 4.44246 1.875 5.7727C1.875 6.50594 2.17504 7.17016 2.65832 7.64918L2.23813 9.82469H1.40625C1.19051 9.82469 1.01562 9.99957 1.01562 10.2153V17.6531H0.390625C0.174883 17.6531 0 17.828 0 18.0437V19.6094C0 19.8251 0.174883 20 0.390625 20H19.6094C19.8251 20 20 19.8251 20 19.6094V18.0437C20 17.828 19.8251 17.653 19.6094 17.653ZM18.2031 10.6059V17.653H13.7109V16.6964C14.1897 16.3454 14.2969 15.9698 14.2969 15.7042C14.2969 15.7021 14.2968 15.6998 14.2968 15.6977C14.2968 15.6968 14.2969 15.696 14.2969 15.6952V10.6059H18.2031ZM14.2969 9.82465V8.41395H15.1023L15.3748 9.82465H14.2969ZM15.8913 8.37957C16.1562 8.3366 16.408 8.25391 16.6404 8.13789L16.9662 9.82465H16.1704L15.8913 8.37957ZM4.92188 0.78125H15.0781V3.13137H4.92188V0.78125ZM2.65625 5.77266C2.65625 4.74703 3.48863 3.91262 4.51172 3.91262H15.4688C16.4918 3.91262 17.3242 4.74703 17.3242 5.77266C17.3242 6.79828 16.4918 7.6327 15.4688 7.6327H4.51172C3.48863 7.6327 2.65625 6.79828 2.65625 5.77266ZM5.70312 8.41395V9.82465H4.62527L4.89773 8.41395H5.70312ZM4.10805 8.38297L3.82957 9.82465H3.03375L3.35781 8.14703C3.59086 8.26113 3.84293 8.34199 4.10805 8.38297ZM6.28906 19.2188H0.78125V18.4343H6.28906V19.2188ZM6.28906 17.653H1.79688V10.6059H5.70312V15.6952C5.70312 15.6961 5.70324 15.6971 5.70324 15.698C5.70324 15.7001 5.70312 15.7022 5.70312 15.7042C5.70312 15.9638 5.81035 16.3313 6.28906 16.6775V17.653ZM9.60938 19.2188H8.63281V16.8686H9.60938V19.2188ZM11.3672 19.2188H10.3906V16.8686H11.3672V19.2188ZM13.1194 16.152C13.0017 16.2226 12.9297 16.3498 12.9297 16.487V19.2188H12.1484V16.478C12.1484 16.2623 11.9736 16.0874 11.7578 16.0874H8.24219C8.02645 16.0874 7.85156 16.2623 7.85156 16.478V19.2188H7.07031V16.4665C7.07031 16.3285 6.99746 16.2007 6.87863 16.1304C6.63176 15.9843 6.48438 15.825 6.48438 15.7043C6.48438 15.3383 7.71191 14.6557 10.0586 14.6557C12.3604 14.6557 13.5156 15.3279 13.5156 15.7043C13.5156 15.8378 13.3712 16.001 13.1194 16.152ZM13.5156 14.5835C13.3634 14.4923 13.1825 14.4041 12.9675 14.3218C12.2142 14.0333 11.1811 13.8745 10.0586 13.8745C8.88891 13.8745 7.5143 13.9982 6.48441 14.6026V8.41395H13.5156V14.5835ZM19.2188 19.2188H13.7109V18.4343H19.2188V19.2188Z" fill="white"/>
<path d="M6.01192 6.15425C5.99688 6.31148 5.93934 6.43597 5.76442 6.43597C5.59376 6.43597 5.50848 6.34203 5.50848 6.15414V5.4073C5.50848 5.21945 5.59286 5.12547 5.76161 5.12547C5.92282 5.12547 6.00626 5.21 6.01192 5.37902C6.01579 5.49445 6.14469 5.51808 6.23704 5.51277C6.37598 5.50472 6.45063 5.44945 6.45067 5.30308C6.45071 4.9259 6.07723 4.74219 5.74473 4.74219C5.3393 4.74219 5.06973 4.99883 5.06973 5.4073V6.15414C5.06973 6.38339 5.13204 6.55152 5.25676 6.65859C5.38141 6.7657 5.54407 6.81925 5.74469 6.81925C6.09102 6.81925 6.45063 6.61394 6.45067 6.23019C6.45067 5.98863 6.03114 5.92672 6.01192 6.15425Z" fill="white"/>
<path d="M8.37173 6.59027C8.37173 6.59027 7.84962 4.88359 7.84583 4.87121C7.8113 4.75832 7.66102 4.72461 7.55891 4.72461C7.46118 4.72461 7.3077 4.75934 7.27204 4.87113C7.27204 4.87113 6.74892 6.59023 6.74892 6.59027C6.73274 6.65488 6.77165 6.71265 6.83161 6.75289C6.94528 6.82922 7.1347 6.84257 7.16798 6.71992C7.16798 6.71988 7.2636 6.36765 7.2636 6.36765H7.85704C7.85704 6.36765 7.95208 6.71773 7.95266 6.71992C8.0063 6.91734 8.42719 6.77082 8.37173 6.59027ZM7.3536 6.02945L7.55891 5.27418L7.76423 6.02945H7.3536Z" fill="white"/>
<path d="M9.96755 5.91953C9.89568 5.77867 9.76708 5.68086 9.63091 5.60676C9.49474 5.53266 9.32946 5.49348 9.20821 5.39539C9.12587 5.32879 9.12181 5.22082 9.21239 5.15723C9.33446 5.07156 9.53958 5.10019 9.66521 5.16144C9.76032 5.20785 9.86997 5.24996 9.93661 5.1348C10.0363 4.96246 9.94896 4.82711 9.77294 4.77113C9.66321 4.73625 9.53821 4.72461 9.42333 4.72461C9.22458 4.72461 9.05489 4.77391 8.91427 4.87258C8.77364 4.97121 8.70333 5.12008 8.70333 5.31926C8.70333 5.44141 8.7338 5.5466 8.79473 5.63492C8.87723 5.75457 8.97977 5.81695 9.10677 5.87992C9.20907 5.93062 9.30989 5.98426 9.40911 6.04078C9.49649 6.09055 9.59485 6.14547 9.59489 6.26054C9.59493 6.32312 9.56009 6.36761 9.51173 6.39738C9.4556 6.43191 9.38126 6.4466 9.32212 6.4466C9.15653 6.4466 9.06552 6.34437 8.93821 6.26094C8.90352 6.2382 8.87216 6.22679 8.84403 6.22676C8.73321 6.22672 8.65274 6.36496 8.65274 6.46347C8.65274 6.55746 8.72024 6.64199 8.85524 6.71711C8.99024 6.79226 9.14868 6.82984 9.33056 6.82984C9.70118 6.82984 10.0337 6.61406 10.0337 6.21547C10.0337 6.10465 10.0116 6.00597 9.96755 5.91953Z" fill="white"/>
<path d="M10.681 4.74121C10.599 4.74121 10.4616 4.76852 10.4616 4.87367C10.4616 4.87367 10.4616 6.65645 10.4616 6.66602C10.4616 6.7127 10.489 6.74461 10.5265 6.76566C10.5733 6.79195 10.6359 6.80133 10.681 6.80133C10.7637 6.80133 10.9004 6.77098 10.9004 6.66605C10.9004 6.66605 10.9004 4.87887 10.9004 4.87367C10.9004 4.76707 10.7627 4.74121 10.681 4.74121Z" fill="white"/>
<path d="M12.7415 4.75663C12.6105 4.71788 12.4134 4.73999 12.4134 4.90847C12.4136 5.2164 12.4137 5.52433 12.4137 5.83226C12.2635 5.54562 12.1132 5.25894 11.963 4.97229C11.9277 4.90487 11.89 4.83472 11.8273 4.79155C11.7538 4.74097 11.6578 4.73604 11.5695 4.7489C11.5164 4.75663 11.4583 4.77436 11.432 4.82124C11.4155 4.85085 11.415 4.88643 11.415 4.92034C11.415 5.48737 11.415 6.05437 11.4149 6.6214C11.4149 6.68648 11.4356 6.73542 11.4805 6.76554C11.5509 6.81277 11.6625 6.80855 11.7403 6.78652C11.8161 6.76507 11.8539 6.71531 11.8539 6.63558C11.8539 6.32648 11.8539 6.01737 11.8539 5.70823C12.021 6.01351 12.1881 6.31882 12.3552 6.62413C12.4362 6.77206 12.5558 6.82796 12.7258 6.78812C12.8066 6.76917 12.8523 6.72683 12.8523 6.63999C12.8523 6.06112 12.8524 5.48226 12.8524 4.90335C12.8524 4.82671 12.8178 4.77921 12.7415 4.75663Z" fill="white"/>
<path d="M14.5364 4.90281C14.4107 4.7957 14.2429 4.74219 14.0329 4.74219C13.8248 4.74219 13.6579 4.79574 13.5323 4.90281C13.4066 5.00992 13.3439 5.17808 13.3439 5.4073V6.15414C13.3439 6.38339 13.4066 6.55152 13.5323 6.65859C13.6579 6.7657 13.8248 6.81925 14.0329 6.81925C14.2429 6.81925 14.4107 6.7657 14.5364 6.65859C14.662 6.55152 14.7248 6.38339 14.7248 6.15414V5.4073C14.7248 5.17808 14.662 5.00992 14.5364 4.90281ZM14.2861 6.15418C14.2861 6.34207 14.2017 6.43601 14.0329 6.43601C13.866 6.43601 13.7826 6.34207 13.7826 6.15418V5.40734C13.7826 5.21949 13.866 5.12551 14.0329 5.12551C14.2017 5.12551 14.2861 5.21949 14.2861 5.40734V6.15418Z" fill="white"/>
</svg>
